G04 #@! TF.GenerationSoftware,KiCad,Pcbnew,7.0.9*
G04 #@! TF.CreationDate,2023-12-09T12:38:09+01:00*
G04 #@! TF.ProjectId,AirMonitor,4169724d-6f6e-4697-946f-722e6b696361,1.0.0*
G04 #@! TF.SameCoordinates,Original*
G04 #@! TF.FileFunction,Legend,Bot*
G04 #@! TF.FilePolarity,Positive*
%FSLAX46Y46*%
G04 Gerber Fmt 4.6, Leading zero omitted, Abs format (unit mm)*
G04 Created by KiCad (PCBNEW 7.0.9) date 2023-12-09 12:38:09*
%MOMM*%
%LPD*%
G01*
G04 APERTURE LIST*
G04 Aperture macros list*
%AMRoundRect*
0 Rectangle with rounded corners*
0 $1 Rounding radius*
0 $2 $3 $4 $5 $6 $7 $8 $9 X,Y pos of 4 corners*
0 Add a 4 corners polygon primitive as box body*
4,1,4,$2,$3,$4,$5,$6,$7,$8,$9,$2,$3,0*
0 Add four circle primitives for the rounded corners*
1,1,$1+$1,$2,$3*
1,1,$1+$1,$4,$5*
1,1,$1+$1,$6,$7*
1,1,$1+$1,$8,$9*
0 Add four rect primitives between the rounded corners*
20,1,$1+$1,$2,$3,$4,$5,0*
20,1,$1+$1,$4,$5,$6,$7,0*
20,1,$1+$1,$6,$7,$8,$9,0*
20,1,$1+$1,$8,$9,$2,$3,0*%
G04 Aperture macros list end*
%ADD10C,0.100000*%
%ADD11C,0.250000*%
%ADD12C,0.120000*%
%ADD13C,0.191421*%
%ADD14C,0.300000*%
%ADD15C,0.150000*%
%ADD16C,1.000000*%
%ADD17O,2.100000X1.000000*%
%ADD18O,1.800000X1.000000*%
%ADD19R,1.000000X1.000000*%
%ADD20O,1.000000X1.000000*%
%ADD21RoundRect,0.040000X0.235000X-0.160000X0.235000X0.160000X-0.235000X0.160000X-0.235000X-0.160000X0*%
%ADD22RoundRect,0.125000X0.500000X0.725000X-0.500000X0.725000X-0.500000X-0.725000X0.500000X-0.725000X0*%
%ADD23RoundRect,0.030000X0.132500X-0.120000X0.132500X0.120000X-0.132500X0.120000X-0.132500X-0.120000X0*%
%ADD24RoundRect,0.030000X-0.120000X-0.132500X0.120000X-0.132500X0.120000X0.132500X-0.120000X0.132500X0*%
%ADD25RoundRect,0.200000X0.550000X-0.200000X0.550000X0.200000X-0.550000X0.200000X-0.550000X-0.200000X0*%
%ADD26RoundRect,0.200000X-0.200000X-0.550000X0.200000X-0.550000X0.200000X0.550000X-0.200000X0.550000X0*%
%ADD27RoundRect,0.200000X0.200000X0.550000X-0.200000X0.550000X-0.200000X-0.550000X0.200000X-0.550000X0*%
%ADD28RoundRect,0.240000X2.160000X2.160000X-2.160000X2.160000X-2.160000X-2.160000X2.160000X-2.160000X0*%
%ADD29RoundRect,0.075000X-0.075000X0.175000X-0.075000X-0.175000X0.075000X-0.175000X0.075000X0.175000X0*%
G04 APERTURE END LIST*
D10*
X142277580Y-145051904D02*
X141468057Y-145051904D01*
X141468057Y-145051904D02*
X141372819Y-145004285D01*
X141372819Y-145004285D02*
X141325200Y-144956666D01*
X141325200Y-144956666D02*
X141277580Y-144861428D01*
X141277580Y-144861428D02*
X141277580Y-144670952D01*
X141277580Y-144670952D02*
X141325200Y-144575714D01*
X141325200Y-144575714D02*
X141372819Y-144528095D01*
X141372819Y-144528095D02*
X141468057Y-144480476D01*
X141468057Y-144480476D02*
X142277580Y-144480476D01*
X142277580Y-143528095D02*
X142277580Y-144004285D01*
X142277580Y-144004285D02*
X141801390Y-144051904D01*
X141801390Y-144051904D02*
X141849009Y-144004285D01*
X141849009Y-144004285D02*
X141896628Y-143909047D01*
X141896628Y-143909047D02*
X141896628Y-143670952D01*
X141896628Y-143670952D02*
X141849009Y-143575714D01*
X141849009Y-143575714D02*
X141801390Y-143528095D01*
X141801390Y-143528095D02*
X141706152Y-143480476D01*
X141706152Y-143480476D02*
X141468057Y-143480476D01*
X141468057Y-143480476D02*
X141372819Y-143528095D01*
X141372819Y-143528095D02*
X141325200Y-143575714D01*
X141325200Y-143575714D02*
X141277580Y-143670952D01*
X141277580Y-143670952D02*
X141277580Y-143909047D01*
X141277580Y-143909047D02*
X141325200Y-144004285D01*
X141325200Y-144004285D02*
X141372819Y-144051904D01*
D11*
X122261904Y-113049619D02*
X122261904Y-113859142D01*
X122261904Y-113859142D02*
X122214285Y-113954380D01*
X122214285Y-113954380D02*
X122166666Y-114002000D01*
X122166666Y-114002000D02*
X122071428Y-114049619D01*
X122071428Y-114049619D02*
X121880952Y-114049619D01*
X121880952Y-114049619D02*
X121785714Y-114002000D01*
X121785714Y-114002000D02*
X121738095Y-113954380D01*
X121738095Y-113954380D02*
X121690476Y-113859142D01*
X121690476Y-113859142D02*
X121690476Y-113049619D01*
X120785714Y-113049619D02*
X120976190Y-113049619D01*
X120976190Y-113049619D02*
X121071428Y-113097238D01*
X121071428Y-113097238D02*
X121119047Y-113144857D01*
X121119047Y-113144857D02*
X121214285Y-113287714D01*
X121214285Y-113287714D02*
X121261904Y-113478190D01*
X121261904Y-113478190D02*
X121261904Y-113859142D01*
X121261904Y-113859142D02*
X121214285Y-113954380D01*
X121214285Y-113954380D02*
X121166666Y-114002000D01*
X121166666Y-114002000D02*
X121071428Y-114049619D01*
X121071428Y-114049619D02*
X120880952Y-114049619D01*
X120880952Y-114049619D02*
X120785714Y-114002000D01*
X120785714Y-114002000D02*
X120738095Y-113954380D01*
X120738095Y-113954380D02*
X120690476Y-113859142D01*
X120690476Y-113859142D02*
X120690476Y-113621047D01*
X120690476Y-113621047D02*
X120738095Y-113525809D01*
X120738095Y-113525809D02*
X120785714Y-113478190D01*
X120785714Y-113478190D02*
X120880952Y-113430571D01*
X120880952Y-113430571D02*
X121071428Y-113430571D01*
X121071428Y-113430571D02*
X121166666Y-113478190D01*
X121166666Y-113478190D02*
X121214285Y-113525809D01*
X121214285Y-113525809D02*
X121261904Y-113621047D01*
X134261904Y-113049619D02*
X134261904Y-113859142D01*
X134261904Y-113859142D02*
X134214285Y-113954380D01*
X134214285Y-113954380D02*
X134166666Y-114002000D01*
X134166666Y-114002000D02*
X134071428Y-114049619D01*
X134071428Y-114049619D02*
X133880952Y-114049619D01*
X133880952Y-114049619D02*
X133785714Y-114002000D01*
X133785714Y-114002000D02*
X133738095Y-113954380D01*
X133738095Y-113954380D02*
X133690476Y-113859142D01*
X133690476Y-113859142D02*
X133690476Y-113049619D01*
X133261904Y-113144857D02*
X133214285Y-113097238D01*
X133214285Y-113097238D02*
X133119047Y-113049619D01*
X133119047Y-113049619D02*
X132880952Y-113049619D01*
X132880952Y-113049619D02*
X132785714Y-113097238D01*
X132785714Y-113097238D02*
X132738095Y-113144857D01*
X132738095Y-113144857D02*
X132690476Y-113240095D01*
X132690476Y-113240095D02*
X132690476Y-113335333D01*
X132690476Y-113335333D02*
X132738095Y-113478190D01*
X132738095Y-113478190D02*
X133309523Y-114049619D01*
X133309523Y-114049619D02*
X132690476Y-114049619D01*
X106061904Y-107599619D02*
X106061904Y-108409142D01*
X106061904Y-108409142D02*
X106014285Y-108504380D01*
X106014285Y-108504380D02*
X105966666Y-108552000D01*
X105966666Y-108552000D02*
X105871428Y-108599619D01*
X105871428Y-108599619D02*
X105680952Y-108599619D01*
X105680952Y-108599619D02*
X105585714Y-108552000D01*
X105585714Y-108552000D02*
X105538095Y-108504380D01*
X105538095Y-108504380D02*
X105490476Y-108409142D01*
X105490476Y-108409142D02*
X105490476Y-107599619D01*
X104585714Y-107932952D02*
X104585714Y-108599619D01*
X104823809Y-107552000D02*
X105061904Y-108266285D01*
X105061904Y-108266285D02*
X104442857Y-108266285D01*
X146261904Y-112749619D02*
X146261904Y-113559142D01*
X146261904Y-113559142D02*
X146214285Y-113654380D01*
X146214285Y-113654380D02*
X146166666Y-113702000D01*
X146166666Y-113702000D02*
X146071428Y-113749619D01*
X146071428Y-113749619D02*
X145880952Y-113749619D01*
X145880952Y-113749619D02*
X145785714Y-113702000D01*
X145785714Y-113702000D02*
X145738095Y-113654380D01*
X145738095Y-113654380D02*
X145690476Y-113559142D01*
X145690476Y-113559142D02*
X145690476Y-112749619D01*
X145309523Y-112749619D02*
X144690476Y-112749619D01*
X144690476Y-112749619D02*
X145023809Y-113130571D01*
X145023809Y-113130571D02*
X144880952Y-113130571D01*
X144880952Y-113130571D02*
X144785714Y-113178190D01*
X144785714Y-113178190D02*
X144738095Y-113225809D01*
X144738095Y-113225809D02*
X144690476Y-113321047D01*
X144690476Y-113321047D02*
X144690476Y-113559142D01*
X144690476Y-113559142D02*
X144738095Y-113654380D01*
X144738095Y-113654380D02*
X144785714Y-113702000D01*
X144785714Y-113702000D02*
X144880952Y-113749619D01*
X144880952Y-113749619D02*
X145166666Y-113749619D01*
X145166666Y-113749619D02*
X145261904Y-113702000D01*
X145261904Y-113702000D02*
X145309523Y-113654380D01*
D12*
X142270000Y-153590000D02*
X143220000Y-153590000D01*
X143220000Y-153590000D02*
X143220000Y-152830000D01*
X140050000Y-153525000D02*
X140692470Y-153525000D01*
X140050000Y-153525000D02*
X140050000Y-147055000D01*
X141307530Y-153525000D02*
X141510000Y-153525000D01*
X143030000Y-152195000D02*
X143220000Y-152195000D01*
X143220000Y-152195000D02*
X143220000Y-147055000D01*
X140050000Y-147055000D02*
X140692470Y-147055000D01*
X141307530Y-147055000D02*
X141962470Y-147055000D01*
X142577530Y-147055000D02*
X143220000Y-147055000D01*
D11*
X123425000Y-110300000D02*
G75*
G03*
X123425000Y-110300000I-125000J0D01*
G01*
D13*
X132337131Y-112100000D02*
G75*
G03*
X132337131Y-112100000I-95710J0D01*
G01*
D14*
X111200000Y-110900000D02*
G75*
G03*
X111200000Y-110900000I-150000J0D01*
G01*
D15*
X144875000Y-110500000D02*
G75*
G03*
X144875000Y-110500000I-75000J0D01*
G01*
%LPC*%
D16*
X137400000Y-148400000D03*
D17*
X105012500Y-136250000D03*
D18*
X100832500Y-136280000D03*
D17*
X105012500Y-144920000D03*
D18*
X100832500Y-144920000D03*
D16*
X120700000Y-133000000D03*
X142800000Y-155200000D03*
X122100000Y-126800000D03*
X137500000Y-144700000D03*
X140500000Y-154900000D03*
X127900000Y-128900000D03*
X123750000Y-133000000D03*
X128700000Y-125500000D03*
X111300000Y-124700000D03*
X113900000Y-124700000D03*
X134900000Y-144400000D03*
D19*
X142270000Y-152830000D03*
D20*
X141000000Y-152830000D03*
X142270000Y-151560000D03*
X141000000Y-151560000D03*
X142270000Y-150290000D03*
X141000000Y-150290000D03*
X142270000Y-149020000D03*
X141000000Y-149020000D03*
X142270000Y-147750000D03*
X141000000Y-147750000D03*
D21*
X122650000Y-110700000D03*
X122650000Y-111500000D03*
X122650000Y-112300000D03*
X120350000Y-112300000D03*
X120350000Y-111500000D03*
X120350000Y-110700000D03*
D22*
X121500000Y-111500000D03*
D23*
X132750000Y-111750000D03*
X132750000Y-111250000D03*
D24*
X133000000Y-110725000D03*
X133500000Y-110725000D03*
X134000000Y-110725000D03*
D23*
X134250000Y-111250000D03*
X134250000Y-111750000D03*
D24*
X134000000Y-112275000D03*
X133500000Y-112275000D03*
X133000000Y-112275000D03*
D25*
X109300000Y-111900000D03*
X109300000Y-113150000D03*
X109300000Y-114400000D03*
X109300000Y-115650000D03*
X109300000Y-116900000D03*
D26*
X107800000Y-118400000D03*
X106550000Y-118400000D03*
X105300000Y-118400000D03*
X104050000Y-118400000D03*
X102800000Y-118400000D03*
D25*
X101300000Y-116900000D03*
X101300000Y-115650000D03*
X101300000Y-114400000D03*
X101300000Y-113150000D03*
X101300000Y-111900000D03*
D27*
X102800000Y-110400000D03*
X104050000Y-110400000D03*
X105300000Y-110400000D03*
X106550000Y-110400000D03*
X107800000Y-110400000D03*
D28*
X105300000Y-114400000D03*
D29*
X145100000Y-110800000D03*
X145900000Y-110800000D03*
X145900000Y-112200000D03*
X145100000Y-112200000D03*
%LPD*%
M02*
