G04 #@! TF.GenerationSoftware,KiCad,Pcbnew,7.0.9*
G04 #@! TF.CreationDate,2023-12-09T12:26:49+01:00*
G04 #@! TF.ProjectId,AirMonitor,4169724d-6f6e-4697-946f-722e6b696361,1.0.0*
G04 #@! TF.SameCoordinates,Original*
G04 #@! TF.FileFunction,Copper,L2,Bot*
G04 #@! TF.FilePolarity,Positive*
%FSLAX46Y46*%
G04 Gerber Fmt 4.6, Leading zero omitted, Abs format (unit mm)*
G04 Created by KiCad (PCBNEW 7.0.9) date 2023-12-09 12:26:49*
%MOMM*%
%LPD*%
G01*
G04 APERTURE LIST*
G04 Aperture macros list*
%AMRoundRect*
0 Rectangle with rounded corners*
0 $1 Rounding radius*
0 $2 $3 $4 $5 $6 $7 $8 $9 X,Y pos of 4 corners*
0 Add a 4 corners polygon primitive as box body*
4,1,4,$2,$3,$4,$5,$6,$7,$8,$9,$2,$3,0*
0 Add four circle primitives for the rounded corners*
1,1,$1+$1,$2,$3*
1,1,$1+$1,$4,$5*
1,1,$1+$1,$6,$7*
1,1,$1+$1,$8,$9*
0 Add four rect primitives between the rounded corners*
20,1,$1+$1,$2,$3,$4,$5,0*
20,1,$1+$1,$4,$5,$6,$7,0*
20,1,$1+$1,$6,$7,$8,$9,0*
20,1,$1+$1,$8,$9,$2,$3,0*%
G04 Aperture macros list end*
G04 #@! TA.AperFunction,ComponentPad*
%ADD10C,1.000000*%
G04 #@! TD*
G04 #@! TA.AperFunction,ComponentPad*
%ADD11O,2.100000X1.000000*%
G04 #@! TD*
G04 #@! TA.AperFunction,ComponentPad*
%ADD12O,1.800000X1.000000*%
G04 #@! TD*
G04 #@! TA.AperFunction,ComponentPad*
%ADD13R,1.000000X1.000000*%
G04 #@! TD*
G04 #@! TA.AperFunction,ComponentPad*
%ADD14O,1.000000X1.000000*%
G04 #@! TD*
G04 #@! TA.AperFunction,SMDPad,CuDef*
%ADD15RoundRect,0.040000X0.235000X-0.160000X0.235000X0.160000X-0.235000X0.160000X-0.235000X-0.160000X0*%
G04 #@! TD*
G04 #@! TA.AperFunction,SMDPad,CuDef*
%ADD16RoundRect,0.125000X0.500000X0.725000X-0.500000X0.725000X-0.500000X-0.725000X0.500000X-0.725000X0*%
G04 #@! TD*
G04 #@! TA.AperFunction,SMDPad,CuDef*
%ADD17RoundRect,0.030000X0.132500X-0.120000X0.132500X0.120000X-0.132500X0.120000X-0.132500X-0.120000X0*%
G04 #@! TD*
G04 #@! TA.AperFunction,SMDPad,CuDef*
%ADD18RoundRect,0.030000X-0.120000X-0.132500X0.120000X-0.132500X0.120000X0.132500X-0.120000X0.132500X0*%
G04 #@! TD*
G04 #@! TA.AperFunction,SMDPad,CuDef*
%ADD19RoundRect,0.200000X0.550000X-0.200000X0.550000X0.200000X-0.550000X0.200000X-0.550000X-0.200000X0*%
G04 #@! TD*
G04 #@! TA.AperFunction,SMDPad,CuDef*
%ADD20RoundRect,0.200000X-0.200000X-0.550000X0.200000X-0.550000X0.200000X0.550000X-0.200000X0.550000X0*%
G04 #@! TD*
G04 #@! TA.AperFunction,SMDPad,CuDef*
%ADD21RoundRect,0.200000X0.200000X0.550000X-0.200000X0.550000X-0.200000X-0.550000X0.200000X-0.550000X0*%
G04 #@! TD*
G04 #@! TA.AperFunction,SMDPad,CuDef*
%ADD22RoundRect,0.240000X2.160000X2.160000X-2.160000X2.160000X-2.160000X-2.160000X2.160000X-2.160000X0*%
G04 #@! TD*
G04 #@! TA.AperFunction,SMDPad,CuDef*
%ADD23RoundRect,0.075000X-0.075000X0.175000X-0.075000X-0.175000X0.075000X-0.175000X0.075000X0.175000X0*%
G04 #@! TD*
G04 #@! TA.AperFunction,ViaPad*
%ADD24C,0.560000*%
G04 #@! TD*
G04 #@! TA.AperFunction,Conductor*
%ADD25C,0.500000*%
G04 #@! TD*
G04 #@! TA.AperFunction,Conductor*
%ADD26C,0.200000*%
G04 #@! TD*
G04 #@! TA.AperFunction,Conductor*
%ADD27C,0.300000*%
G04 #@! TD*
G04 APERTURE END LIST*
D10*
X137400000Y-148400000D03*
D11*
X105012500Y-136250000D03*
D12*
X100832500Y-136280000D03*
D11*
X105012500Y-144920000D03*
D12*
X100832500Y-144920000D03*
D10*
X120700000Y-133000000D03*
X142800000Y-155200000D03*
X122100000Y-126800000D03*
X137500000Y-144700000D03*
X140500000Y-154900000D03*
X127900000Y-128900000D03*
X123750000Y-133000000D03*
X128700000Y-125500000D03*
X111300000Y-124700000D03*
X113900000Y-124700000D03*
X134900000Y-144400000D03*
D13*
X142270000Y-152830000D03*
D14*
X141000000Y-152830000D03*
X142270000Y-151560000D03*
X141000000Y-151560000D03*
X142270000Y-150290000D03*
X141000000Y-150290000D03*
X142270000Y-149020000D03*
X141000000Y-149020000D03*
X142270000Y-147750000D03*
X141000000Y-147750000D03*
D15*
X122650000Y-110700000D03*
X122650000Y-111500000D03*
X122650000Y-112300000D03*
X120350000Y-112300000D03*
X120350000Y-111500000D03*
X120350000Y-110700000D03*
D16*
X121500000Y-111500000D03*
D17*
X132750000Y-111750000D03*
X132750000Y-111250000D03*
D18*
X133000000Y-110725000D03*
X133500000Y-110725000D03*
X134000000Y-110725000D03*
D17*
X134250000Y-111250000D03*
X134250000Y-111750000D03*
D18*
X134000000Y-112275000D03*
X133500000Y-112275000D03*
X133000000Y-112275000D03*
D19*
X109300000Y-111900000D03*
X109300000Y-113150000D03*
X109300000Y-114400000D03*
X109300000Y-115650000D03*
X109300000Y-116900000D03*
D20*
X107800000Y-118400000D03*
X106550000Y-118400000D03*
X105300000Y-118400000D03*
X104050000Y-118400000D03*
X102800000Y-118400000D03*
D19*
X101300000Y-116900000D03*
X101300000Y-115650000D03*
X101300000Y-114400000D03*
X101300000Y-113150000D03*
X101300000Y-111900000D03*
D21*
X102800000Y-110400000D03*
X104050000Y-110400000D03*
X105300000Y-110400000D03*
X106550000Y-110400000D03*
X107800000Y-110400000D03*
D22*
X105300000Y-114400000D03*
D23*
X145100000Y-110800000D03*
X145900000Y-110800000D03*
X145900000Y-112200000D03*
X145100000Y-112200000D03*
D24*
X118725000Y-147450000D03*
X134675000Y-158600000D03*
X133300000Y-145200000D03*
X134000000Y-148600000D03*
X119150000Y-146400000D03*
X133750000Y-143850000D03*
X134800000Y-122490500D03*
X123400000Y-112400000D03*
X122800000Y-124000000D03*
X145100000Y-110050000D03*
X133500000Y-109900000D03*
X122800000Y-122490500D03*
X101500000Y-118500000D03*
X134800000Y-124000000D03*
X124800000Y-124000000D03*
X124800000Y-122400000D03*
X119650000Y-110700000D03*
X109000000Y-118500000D03*
X132000000Y-111250000D03*
X145900000Y-110050000D03*
X141600000Y-146709500D03*
X115400000Y-135600000D03*
X145500000Y-125100000D03*
X130600000Y-152400000D03*
X130400000Y-142000000D03*
X126550000Y-145525000D03*
X132800000Y-158500000D03*
X125200000Y-134400000D03*
X126400000Y-135800000D03*
X130200000Y-155800000D03*
X115400000Y-139600000D03*
X128300000Y-147500000D03*
X111800000Y-136200000D03*
X126800000Y-127800000D03*
X122600000Y-143800000D03*
X118400000Y-148600000D03*
X128600000Y-121800000D03*
X121900000Y-151700000D03*
X109000000Y-144200000D03*
X121000000Y-149725000D03*
X109800000Y-136200000D03*
X139000000Y-150300000D03*
X125800000Y-142700000D03*
X124700000Y-152500000D03*
X107200000Y-122200000D03*
X130400000Y-140000000D03*
X123750000Y-122400000D03*
X128600000Y-154900000D03*
X128350000Y-143475000D03*
X126575000Y-144375000D03*
X127000000Y-133000000D03*
X124575000Y-149750000D03*
X112000000Y-122200000D03*
X143500000Y-150100000D03*
X106600000Y-143800000D03*
X105500000Y-125100000D03*
X114800000Y-122200000D03*
X104600000Y-137390000D03*
X138200000Y-122400000D03*
X137800000Y-151300000D03*
X130800000Y-121800000D03*
X136600000Y-122400000D03*
X129100000Y-149925000D03*
X107800000Y-136000000D03*
X132800000Y-148600000D03*
X121500000Y-125100000D03*
X133500000Y-125100000D03*
X131000000Y-137000000D03*
X106600000Y-137400000D03*
X123800000Y-127800000D03*
X126250000Y-122400000D03*
X131000000Y-141200000D03*
X104600000Y-143800000D03*
X133600000Y-141200000D03*
X129000000Y-131000000D03*
X109200000Y-122200000D03*
X118500000Y-158600000D03*
X140400000Y-121800000D03*
X142600000Y-121800000D03*
X121800000Y-155600000D03*
X127025000Y-147375000D03*
X133600000Y-137000000D03*
X115400000Y-137600000D03*
X109000000Y-137000000D03*
X129700000Y-151700000D03*
X130400000Y-138000000D03*
X119050000Y-145125000D03*
X132700000Y-153600000D03*
X138775000Y-155375000D03*
X134800000Y-157600000D03*
X125800000Y-144800000D03*
X139700000Y-152100000D03*
X125800000Y-145600000D03*
X143400000Y-152200000D03*
X135900000Y-157600000D03*
X134110497Y-157600000D03*
X125800000Y-144000000D03*
X132309500Y-122200000D03*
X145450000Y-113150000D03*
X120990500Y-113250000D03*
X104200000Y-122200000D03*
X133300000Y-113100000D03*
X123400000Y-110650000D03*
X120309500Y-122210271D03*
X144309500Y-122200000D03*
X105500000Y-120000000D03*
X106000000Y-111500000D03*
X128800000Y-146789503D03*
X133600000Y-147000000D03*
X128800000Y-146100000D03*
X133600000Y-146000000D03*
D25*
X127650000Y-153950000D02*
X129650000Y-153950000D01*
X134177116Y-158600000D02*
X134675000Y-158600000D01*
X133450497Y-157873381D02*
X134177116Y-158600000D01*
X133450497Y-157750497D02*
X133450497Y-157873381D01*
X129650000Y-153950000D02*
X133450497Y-157750497D01*
X121150000Y-147450000D02*
X127650000Y-153950000D01*
X118725000Y-147450000D02*
X121150000Y-147450000D01*
D26*
X134000000Y-148600000D02*
X134400000Y-148200000D01*
X134400000Y-148200000D02*
X134400000Y-145800000D01*
X133800000Y-145200000D02*
X133300000Y-145200000D01*
X134400000Y-145800000D02*
X133800000Y-145200000D01*
X126600000Y-143600000D02*
X127650000Y-144650000D01*
X132950000Y-144650000D02*
X133750000Y-143850000D01*
X124950000Y-143650000D02*
X125300000Y-143300000D01*
X124950000Y-146050000D02*
X124950000Y-143650000D01*
X125300000Y-143300000D02*
X126300000Y-143300000D01*
X124600000Y-146400000D02*
X124950000Y-146050000D01*
X119150000Y-146400000D02*
X124600000Y-146400000D01*
X127650000Y-144650000D02*
X130300000Y-144650000D01*
X126300000Y-143300000D02*
X126600000Y-143600000D01*
X130300000Y-144650000D02*
X132950000Y-144650000D01*
X102800000Y-118400000D02*
X101600000Y-118400000D01*
X101600000Y-118400000D02*
X101500000Y-118500000D01*
X123300000Y-112300000D02*
X122650000Y-112300000D01*
X123400000Y-112400000D02*
X123300000Y-112300000D01*
X122800000Y-122490500D02*
X122800000Y-124000000D01*
X145100000Y-110800000D02*
X145100000Y-110050000D01*
X134800000Y-122490500D02*
X134800000Y-124000000D01*
X133500000Y-110725000D02*
X133500000Y-109900000D01*
X132750000Y-111250000D02*
X132000000Y-111250000D01*
X124800000Y-124000000D02*
X124800000Y-122400000D01*
X145900000Y-110800000D02*
X145900000Y-110050000D01*
X108900000Y-118400000D02*
X109000000Y-118500000D01*
X107800000Y-118400000D02*
X108900000Y-118400000D01*
X120350000Y-110700000D02*
X119650000Y-110700000D01*
X143100000Y-148600000D02*
X142680000Y-149020000D01*
X143100000Y-147100000D02*
X143100000Y-148600000D01*
X141600000Y-146709500D02*
X142709500Y-146709500D01*
X142709500Y-146709500D02*
X143100000Y-147100000D01*
X142680000Y-149020000D02*
X142270000Y-149020000D01*
X120350000Y-112300000D02*
X120700000Y-112300000D01*
X120700000Y-112300000D02*
X121500000Y-111500000D01*
D25*
X121500000Y-111500000D02*
X121500000Y-109850000D01*
D26*
X122650000Y-111500000D02*
X121500000Y-111500000D01*
D25*
X111000000Y-119000000D02*
X111000000Y-121500000D01*
X121500000Y-112700000D02*
X121900000Y-113100000D01*
X100000000Y-119000000D02*
X100000000Y-121500000D01*
D27*
X145500000Y-114625000D02*
X145500000Y-119875000D01*
X121500000Y-114750000D02*
X121500000Y-120000000D01*
X133500000Y-114625000D02*
X133500000Y-119875000D01*
D25*
X121500000Y-111500000D02*
X121500000Y-112700000D01*
D26*
X137000000Y-153600000D02*
X132700000Y-153600000D01*
X138775000Y-155375000D02*
X137000000Y-153600000D01*
D25*
X129690954Y-153100000D02*
X128133381Y-153100000D01*
X134110497Y-157600000D02*
X134110497Y-157519543D01*
X134800000Y-157600000D02*
X135900000Y-157600000D01*
X125800000Y-144000000D02*
X125800000Y-144800000D01*
D26*
X143400000Y-153400000D02*
X142900000Y-153900000D01*
X143400000Y-152200000D02*
X143400000Y-153400000D01*
D25*
X134110497Y-157519543D02*
X129690954Y-153100000D01*
D26*
X140800000Y-153900000D02*
X140200000Y-153300000D01*
X142900000Y-153900000D02*
X140800000Y-153900000D01*
D25*
X134110497Y-157600000D02*
X134800000Y-157600000D01*
X125800000Y-144800000D02*
X125800000Y-145600000D01*
X128133381Y-153100000D02*
X125800000Y-150766619D01*
D26*
X140200000Y-153300000D02*
X139700000Y-152800000D01*
D25*
X125800000Y-150766619D02*
X125800000Y-145600000D01*
D26*
X139700000Y-152800000D02*
X139700000Y-152100000D01*
D25*
X132309500Y-122200000D02*
X132300000Y-122200000D01*
X120309500Y-122210271D02*
X120289729Y-122210271D01*
X111600000Y-123000000D02*
X111300000Y-123300000D01*
X111300000Y-123300000D02*
X111300000Y-124700000D01*
D26*
X120150000Y-113250000D02*
X120990500Y-113250000D01*
X132750000Y-112025000D02*
X133000000Y-112275000D01*
D25*
X126550000Y-121550000D02*
X120969771Y-121550000D01*
D26*
X119700000Y-111800000D02*
X119700000Y-112800000D01*
D25*
X119500000Y-123000000D02*
X111600000Y-123000000D01*
D26*
X106550000Y-118950000D02*
X106550000Y-118400000D01*
D25*
X132300000Y-122200000D02*
X131500000Y-123000000D01*
X110009045Y-121400000D02*
X105000000Y-121400000D01*
X132909500Y-121600000D02*
X132309500Y-122200000D01*
X143509500Y-123000000D02*
X140200000Y-123000000D01*
D26*
X120350000Y-111500000D02*
X120000000Y-111500000D01*
D25*
X120289729Y-122210271D02*
X119500000Y-123000000D01*
D26*
X145900000Y-112700000D02*
X145450000Y-113150000D01*
D25*
X111600000Y-123000000D02*
X110739045Y-122139045D01*
D26*
X105500000Y-120000000D02*
X106550000Y-118950000D01*
X132750000Y-111750000D02*
X132750000Y-112025000D01*
X122650000Y-110700000D02*
X123350000Y-110700000D01*
X123350000Y-110700000D02*
X123400000Y-110650000D01*
X106550000Y-110950000D02*
X106000000Y-111500000D01*
X145900000Y-112200000D02*
X145900000Y-112700000D01*
D25*
X138800000Y-121600000D02*
X132909500Y-121600000D01*
X110739045Y-122139045D02*
X110739045Y-122130000D01*
X120969771Y-121550000D02*
X120309500Y-122210271D01*
X128000000Y-123000000D02*
X126550000Y-121550000D01*
X140200000Y-123000000D02*
X138800000Y-121600000D01*
D26*
X106550000Y-110400000D02*
X106550000Y-110950000D01*
X133000000Y-112800000D02*
X133000000Y-112275000D01*
D25*
X105000000Y-121400000D02*
X104200000Y-122200000D01*
X144309500Y-122200000D02*
X143509500Y-123000000D01*
D26*
X133300000Y-113100000D02*
X133000000Y-112800000D01*
D25*
X110739045Y-122130000D02*
X110009045Y-121400000D01*
X131500000Y-123000000D02*
X128000000Y-123000000D01*
D26*
X120000000Y-111500000D02*
X119700000Y-111800000D01*
X119700000Y-112800000D02*
X120150000Y-113250000D01*
X128800000Y-146789503D02*
X133389503Y-146789503D01*
X133389503Y-146789503D02*
X133600000Y-147000000D01*
X128800000Y-146100000D02*
X133500000Y-146100000D01*
X133500000Y-146100000D02*
X133600000Y-146000000D01*
G04 #@! TA.AperFunction,Conductor*
G36*
X141972940Y-151365921D02*
G01*
X141926018Y-151472892D01*
X141916372Y-151589302D01*
X141945047Y-151702538D01*
X142008936Y-151800327D01*
X142021364Y-151810000D01*
X141245581Y-151810000D01*
X141297060Y-151754079D01*
X141343982Y-151647108D01*
X141353628Y-151530698D01*
X141324953Y-151417462D01*
X141261064Y-151319673D01*
X141248636Y-151310000D01*
X142024419Y-151310000D01*
X141972940Y-151365921D01*
G37*
G04 #@! TD.AperFunction*
G04 #@! TA.AperFunction,Conductor*
G36*
X147658691Y-119768907D02*
G01*
X147694655Y-119818407D01*
X147699500Y-119849000D01*
X147699500Y-159000500D01*
X147680593Y-159058691D01*
X147631093Y-159094655D01*
X147600500Y-159099500D01*
X135094752Y-159099500D01*
X135036561Y-159080593D01*
X135000597Y-159031093D01*
X135000597Y-158969907D01*
X135019930Y-158935672D01*
X135083379Y-158862449D01*
X135140777Y-158736765D01*
X135160441Y-158600000D01*
X135140777Y-158463235D01*
X135083379Y-158337551D01*
X134992896Y-158233128D01*
X134992894Y-158233127D01*
X134992894Y-158233126D01*
X134992362Y-158232785D01*
X134992027Y-158232376D01*
X134987542Y-158228489D01*
X134988214Y-158227713D01*
X134953630Y-158185420D01*
X134950136Y-158124334D01*
X134983214Y-158072861D01*
X135040231Y-158050662D01*
X135045884Y-158050500D01*
X135714510Y-158050500D01*
X135742399Y-158054509D01*
X135830915Y-158080500D01*
X135830916Y-158080500D01*
X135969084Y-158080500D01*
X135969085Y-158080500D01*
X136101659Y-158041573D01*
X136217896Y-157966872D01*
X136308379Y-157862449D01*
X136365777Y-157736765D01*
X136385441Y-157600000D01*
X136365777Y-157463235D01*
X136308379Y-157337551D01*
X136217896Y-157233128D01*
X136217893Y-157233126D01*
X136217891Y-157233124D01*
X136101663Y-157158429D01*
X136101660Y-157158428D01*
X136101659Y-157158427D01*
X136006865Y-157130593D01*
X135969086Y-157119500D01*
X135969085Y-157119500D01*
X135830915Y-157119500D01*
X135830913Y-157119500D01*
X135774590Y-157136038D01*
X135742399Y-157145490D01*
X135714510Y-157149500D01*
X134985490Y-157149500D01*
X134957600Y-157145490D01*
X134910388Y-157131627D01*
X134869086Y-157119500D01*
X134869085Y-157119500D01*
X134730915Y-157119500D01*
X134730913Y-157119500D01*
X134674590Y-157136038D01*
X134642399Y-157145490D01*
X134614510Y-157149500D01*
X134418565Y-157149500D01*
X134360374Y-157130593D01*
X134348561Y-157120504D01*
X130828060Y-153600002D01*
X132214559Y-153600002D01*
X132234221Y-153736759D01*
X132234222Y-153736762D01*
X132234222Y-153736763D01*
X132234223Y-153736765D01*
X132291621Y-153862449D01*
X132382104Y-153966872D01*
X132382106Y-153966873D01*
X132382108Y-153966875D01*
X132492660Y-154037922D01*
X132498341Y-154041573D01*
X132630915Y-154080500D01*
X132630916Y-154080500D01*
X132769084Y-154080500D01*
X132769085Y-154080500D01*
X132901659Y-154041573D01*
X133017896Y-153966872D01*
X133045801Y-153934667D01*
X133098195Y-153903073D01*
X133120619Y-153900500D01*
X136834521Y-153900500D01*
X136892712Y-153919407D01*
X136904525Y-153929496D01*
X138262119Y-155287090D01*
X138289896Y-155341607D01*
X138290108Y-155371178D01*
X138289559Y-155374997D01*
X138289559Y-155375002D01*
X138309221Y-155511759D01*
X138309222Y-155511762D01*
X138309222Y-155511763D01*
X138309223Y-155511765D01*
X138366621Y-155637449D01*
X138457104Y-155741872D01*
X138457106Y-155741873D01*
X138457108Y-155741875D01*
X138517571Y-155780732D01*
X138573341Y-155816573D01*
X138705915Y-155855500D01*
X138705916Y-155855500D01*
X138844084Y-155855500D01*
X138844085Y-155855500D01*
X138976659Y-155816573D01*
X139061456Y-155762077D01*
X139991476Y-155762077D01*
X140115459Y-155828347D01*
X140115464Y-155828349D01*
X140303965Y-155885531D01*
X140303970Y-155885532D01*
X140499997Y-155904839D01*
X140500003Y-155904839D01*
X140696029Y-155885532D01*
X140696034Y-155885531D01*
X140884535Y-155828349D01*
X140884540Y-155828347D01*
X141008522Y-155762077D01*
X140499999Y-155253554D01*
X139991476Y-155762077D01*
X139061456Y-155762077D01*
X139092896Y-155741872D01*
X139183379Y-155637449D01*
X139240777Y-155511765D01*
X139260441Y-155375000D01*
X139259891Y-155371178D01*
X139240778Y-155238240D01*
X139240777Y-155238237D01*
X139240777Y-155238235D01*
X139183379Y-155112551D01*
X139092896Y-155008128D01*
X139092893Y-155008126D01*
X139092891Y-155008124D01*
X138976663Y-154933429D01*
X138976660Y-154933428D01*
X138976659Y-154933427D01*
X138862827Y-154900003D01*
X139495161Y-154900003D01*
X139514467Y-155096029D01*
X139514468Y-155096034D01*
X139571650Y-155284535D01*
X139571652Y-155284540D01*
X139637921Y-155408523D01*
X140146444Y-154900000D01*
X140344709Y-154900000D01*
X140365514Y-154977645D01*
X140422355Y-155034486D01*
X140480254Y-155050000D01*
X140519746Y-155050000D01*
X140577645Y-155034486D01*
X140634486Y-154977646D01*
X140655291Y-154900000D01*
X140634486Y-154822355D01*
X140577645Y-154765514D01*
X140519746Y-154750000D01*
X140480254Y-154750000D01*
X140422355Y-154765514D01*
X140365514Y-154822354D01*
X140344709Y-154900000D01*
X140146444Y-154900000D01*
X140146445Y-154899999D01*
X139637922Y-154391476D01*
X139571652Y-154515460D01*
X139571648Y-154515472D01*
X139514468Y-154703965D01*
X139514467Y-154703970D01*
X139495161Y-154899996D01*
X139495161Y-154900003D01*
X138862827Y-154900003D01*
X138844086Y-154894500D01*
X138844085Y-154894500D01*
X138760479Y-154894500D01*
X138702288Y-154875593D01*
X138690475Y-154865504D01*
X137258565Y-153433594D01*
X137250479Y-153422344D01*
X137249487Y-153423094D01*
X137243958Y-153415772D01*
X137208428Y-153383382D01*
X137206775Y-153381804D01*
X137192797Y-153367826D01*
X137189859Y-153365813D01*
X137184496Y-153361564D01*
X137160933Y-153340084D01*
X137151762Y-153336531D01*
X137131586Y-153325895D01*
X137123484Y-153320345D01*
X137123479Y-153320343D01*
X137092457Y-153313046D01*
X137085902Y-153311016D01*
X137056177Y-153299501D01*
X137056174Y-153299500D01*
X137056173Y-153299500D01*
X137056172Y-153299500D01*
X137046348Y-153299500D01*
X137023683Y-153296870D01*
X137014119Y-153294621D01*
X137014118Y-153294621D01*
X136982547Y-153299025D01*
X136975701Y-153299500D01*
X133120619Y-153299500D01*
X133062428Y-153280593D01*
X133045804Y-153265336D01*
X133017896Y-153233128D01*
X133017895Y-153233127D01*
X133017894Y-153233126D01*
X132901663Y-153158429D01*
X132901660Y-153158428D01*
X132901659Y-153158427D01*
X132835372Y-153138963D01*
X132769086Y-153119500D01*
X132769085Y-153119500D01*
X132630915Y-153119500D01*
X132630913Y-153119500D01*
X132498341Y-153158427D01*
X132498336Y-153158429D01*
X132382108Y-153233124D01*
X132382103Y-153233129D01*
X132291622Y-153337549D01*
X132234222Y-153463237D01*
X132234221Y-153463240D01*
X132214559Y-153599997D01*
X132214559Y-153600002D01*
X130828060Y-153600002D01*
X130029356Y-152801298D01*
X130025654Y-152797155D01*
X130000833Y-152766030D01*
X129951682Y-152732519D01*
X129903836Y-152697207D01*
X129903833Y-152697205D01*
X129897276Y-152693740D01*
X129897480Y-152693352D01*
X129895498Y-152692352D01*
X129895309Y-152692746D01*
X129888627Y-152689528D01*
X129831776Y-152671992D01*
X129775654Y-152652354D01*
X129768368Y-152650976D01*
X129768449Y-152650544D01*
X129766256Y-152650171D01*
X129766191Y-152650605D01*
X129758857Y-152649500D01*
X129758856Y-152649500D01*
X129699381Y-152649500D01*
X129679568Y-152648758D01*
X129639944Y-152647276D01*
X129639943Y-152647276D01*
X129639942Y-152647276D01*
X129632569Y-152648107D01*
X129632519Y-152647668D01*
X129618610Y-152649500D01*
X128360993Y-152649500D01*
X128302802Y-152630593D01*
X128290989Y-152620504D01*
X127770487Y-152100002D01*
X139214559Y-152100002D01*
X139234221Y-152236759D01*
X139234222Y-152236762D01*
X139234222Y-152236763D01*
X139234223Y-152236765D01*
X139279889Y-152336759D01*
X139291622Y-152362451D01*
X139375319Y-152459042D01*
X139399137Y-152515401D01*
X139399500Y-152523873D01*
X139399500Y-152734835D01*
X139397280Y-152748513D01*
X139398494Y-152748683D01*
X139397226Y-152757766D01*
X139399048Y-152797155D01*
X139399239Y-152801298D01*
X139399447Y-152805783D01*
X139399500Y-152808069D01*
X139399500Y-152827842D01*
X139400152Y-152831332D01*
X139400943Y-152838149D01*
X139402414Y-152869987D01*
X139402415Y-152869994D01*
X139406384Y-152878982D01*
X139413133Y-152900773D01*
X139414939Y-152910433D01*
X139431717Y-152937533D01*
X139434915Y-152943600D01*
X139447793Y-152972763D01*
X139447794Y-152972765D01*
X139454745Y-152979716D01*
X139468907Y-152997596D01*
X139474081Y-153005952D01*
X139499511Y-153025156D01*
X139504690Y-153029662D01*
X140252796Y-153777767D01*
X140280573Y-153832284D01*
X140271002Y-153892716D01*
X140227737Y-153935981D01*
X140211531Y-153942508D01*
X140115469Y-153971649D01*
X140115460Y-153971652D01*
X139991476Y-154037922D01*
X140500000Y-154546447D01*
X141362076Y-155408522D01*
X141362077Y-155408522D01*
X141428347Y-155284540D01*
X141428349Y-155284535D01*
X141453993Y-155200000D01*
X142094355Y-155200000D01*
X142114860Y-155368872D01*
X142175182Y-155527930D01*
X142271817Y-155667929D01*
X142399148Y-155780734D01*
X142549775Y-155859790D01*
X142714944Y-155900500D01*
X142714947Y-155900500D01*
X142885053Y-155900500D01*
X142885056Y-155900500D01*
X143050225Y-155859790D01*
X143200852Y-155780734D01*
X143328183Y-155667929D01*
X143424818Y-155527930D01*
X143485140Y-155368872D01*
X143505645Y-155200000D01*
X143485140Y-155031128D01*
X143424818Y-154872070D01*
X143328183Y-154732071D01*
X143296463Y-154703970D01*
X143200853Y-154619267D01*
X143200852Y-154619266D01*
X143050225Y-154540210D01*
X143050224Y-154540209D01*
X143050223Y-154540209D01*
X142885058Y-154499500D01*
X142885056Y-154499500D01*
X142714944Y-154499500D01*
X142714941Y-154499500D01*
X142549776Y-154540209D01*
X142399146Y-154619267D01*
X142271818Y-154732069D01*
X142271817Y-154732071D01*
X142175182Y-154872070D01*
X142114860Y-155031128D01*
X142108025Y-155087418D01*
X142106980Y-155096029D01*
X142094355Y-155200000D01*
X141453993Y-155200000D01*
X141485531Y-155096034D01*
X141485532Y-155096029D01*
X141504839Y-154900003D01*
X141504839Y-154899996D01*
X141485532Y-154703970D01*
X141485531Y-154703965D01*
X141428349Y-154515464D01*
X141428347Y-154515459D01*
X141337860Y-154346168D01*
X141327104Y-154285935D01*
X141353806Y-154230884D01*
X141407766Y-154202042D01*
X141425170Y-154200500D01*
X142834836Y-154200500D01*
X142848511Y-154202732D01*
X142848683Y-154201506D01*
X142857764Y-154202772D01*
X142857765Y-154202773D01*
X142857765Y-154202772D01*
X142857766Y-154202773D01*
X142866507Y-154202368D01*
X142905793Y-154200552D01*
X142908070Y-154200500D01*
X142927841Y-154200500D01*
X142927844Y-154200500D01*
X142931337Y-154199846D01*
X142938141Y-154199056D01*
X142969992Y-154197585D01*
X142978976Y-154193617D01*
X143000777Y-154186865D01*
X143010433Y-154185061D01*
X143037543Y-154168274D01*
X143043589Y-154165088D01*
X143072765Y-154152206D01*
X143079709Y-154145260D01*
X143097601Y-154131089D01*
X143105952Y-154125919D01*
X143125165Y-154100474D01*
X143129662Y-154095308D01*
X143332254Y-153892716D01*
X143566405Y-153658564D01*
X143577665Y-153650492D01*
X143576906Y-153649487D01*
X143584225Y-153643960D01*
X143584225Y-153643959D01*
X143584228Y-153643958D01*
X143616635Y-153608408D01*
X143618188Y-153606783D01*
X143632174Y-153592797D01*
X143634181Y-153589865D01*
X143638440Y-153584490D01*
X143659916Y-153560933D01*
X143663466Y-153551767D01*
X143674107Y-153531581D01*
X143679657Y-153523480D01*
X143686956Y-153492443D01*
X143688980Y-153485908D01*
X143700500Y-153456173D01*
X143700500Y-153446348D01*
X143703129Y-153423683D01*
X143705379Y-153414119D01*
X143702102Y-153390632D01*
X143700975Y-153382546D01*
X143700500Y-153375699D01*
X143700500Y-152623873D01*
X143719407Y-152565682D01*
X143724681Y-152559042D01*
X143804546Y-152466872D01*
X143808379Y-152462449D01*
X143865777Y-152336765D01*
X143869589Y-152310252D01*
X143885441Y-152200002D01*
X143885441Y-152199997D01*
X143865778Y-152063240D01*
X143865777Y-152063237D01*
X143865777Y-152063235D01*
X143808379Y-151937551D01*
X143717896Y-151833128D01*
X143717893Y-151833126D01*
X143717891Y-151833124D01*
X143601663Y-151758429D01*
X143601660Y-151758428D01*
X143601659Y-151758427D01*
X143535372Y-151738963D01*
X143469086Y-151719500D01*
X143469085Y-151719500D01*
X143330915Y-151719500D01*
X143330913Y-151719500D01*
X143198341Y-151758427D01*
X143198336Y-151758429D01*
X143142546Y-151794284D01*
X143089023Y-151810000D01*
X142515581Y-151810000D01*
X142567060Y-151754079D01*
X142613982Y-151647108D01*
X142623628Y-151530698D01*
X142594953Y-151417462D01*
X142531064Y-151319673D01*
X142518636Y-151310000D01*
X143239161Y-151310000D01*
X143198348Y-151175461D01*
X143198347Y-151175459D01*
X143105497Y-151001747D01*
X143105493Y-151001741D01*
X142980531Y-150849476D01*
X142980522Y-150849467D01*
X142894206Y-150778628D01*
X142861219Y-150727097D01*
X142864822Y-150666018D01*
X142875534Y-150645867D01*
X142894818Y-150617930D01*
X142955140Y-150458872D01*
X142975645Y-150290000D01*
X142955140Y-150121128D01*
X142894818Y-149962070D01*
X142798183Y-149822071D01*
X142693242Y-149729102D01*
X142662224Y-149676363D01*
X142668129Y-149615463D01*
X142693243Y-149580897D01*
X142798183Y-149487929D01*
X142894818Y-149347930D01*
X142955140Y-149188872D01*
X142955140Y-149188870D01*
X142957263Y-149183273D01*
X142958517Y-149183748D01*
X142980880Y-149144089D01*
X143266405Y-148858564D01*
X143277664Y-148850493D01*
X143276905Y-148849487D01*
X143284221Y-148843961D01*
X143284228Y-148843958D01*
X143316632Y-148808411D01*
X143318186Y-148806783D01*
X143332174Y-148792797D01*
X143334181Y-148789865D01*
X143338440Y-148784490D01*
X143359916Y-148760933D01*
X143363466Y-148751767D01*
X143374107Y-148731581D01*
X143379657Y-148723480D01*
X143386956Y-148692443D01*
X143388980Y-148685908D01*
X143400500Y-148656173D01*
X143400500Y-148646348D01*
X143403129Y-148623683D01*
X143405379Y-148614119D01*
X143402102Y-148590632D01*
X143400975Y-148582546D01*
X143400500Y-148575699D01*
X143400500Y-147165168D01*
X143402731Y-147151495D01*
X143401505Y-147151324D01*
X143402773Y-147142232D01*
X143400553Y-147094215D01*
X143400500Y-147091928D01*
X143400500Y-147072160D01*
X143400500Y-147072156D01*
X143399846Y-147068664D01*
X143399056Y-147061859D01*
X143397585Y-147030008D01*
X143393614Y-147021016D01*
X143386864Y-146999214D01*
X143385061Y-146989568D01*
X143385061Y-146989567D01*
X143368276Y-146962458D01*
X143365088Y-146956410D01*
X143352206Y-146927234D01*
X143352205Y-146927233D01*
X143352204Y-146927231D01*
X143345254Y-146920281D01*
X143331088Y-146902395D01*
X143325921Y-146894050D01*
X143325918Y-146894047D01*
X143318002Y-146888069D01*
X143300482Y-146874838D01*
X143295309Y-146870337D01*
X143134469Y-146709497D01*
X142968066Y-146543095D01*
X142959979Y-146531844D01*
X142958987Y-146532594D01*
X142953458Y-146525272D01*
X142917928Y-146492882D01*
X142916275Y-146491304D01*
X142902297Y-146477326D01*
X142899359Y-146475313D01*
X142893996Y-146471064D01*
X142870433Y-146449584D01*
X142861262Y-146446031D01*
X142841086Y-146435395D01*
X142832984Y-146429845D01*
X142832979Y-146429843D01*
X142801957Y-146422546D01*
X142795402Y-146420516D01*
X142765677Y-146409001D01*
X142765674Y-146409000D01*
X142765673Y-146409000D01*
X142765672Y-146409000D01*
X142755848Y-146409000D01*
X142733183Y-146406370D01*
X142723619Y-146404121D01*
X142723618Y-146404121D01*
X142692047Y-146408525D01*
X142685201Y-146409000D01*
X142020619Y-146409000D01*
X141962428Y-146390093D01*
X141945804Y-146374836D01*
X141917896Y-146342628D01*
X141917895Y-146342627D01*
X141917894Y-146342626D01*
X141801663Y-146267929D01*
X141801660Y-146267928D01*
X141801659Y-146267927D01*
X141735372Y-146248463D01*
X141669086Y-146229000D01*
X141669085Y-146229000D01*
X141530915Y-146229000D01*
X141530913Y-146229000D01*
X141398341Y-146267927D01*
X141398336Y-146267929D01*
X141282108Y-146342624D01*
X141282103Y-146342629D01*
X141191622Y-146447049D01*
X141134222Y-146572737D01*
X141134221Y-146572740D01*
X141114559Y-146709497D01*
X141114559Y-146709502D01*
X141134221Y-146846259D01*
X141134222Y-146846262D01*
X141134222Y-146846263D01*
X141134223Y-146846265D01*
X141191621Y-146971949D01*
X141225820Y-147011417D01*
X141249637Y-147067773D01*
X141250000Y-147076246D01*
X141250000Y-147501061D01*
X141168885Y-147437928D01*
X141058405Y-147400000D01*
X140970995Y-147400000D01*
X140884784Y-147414386D01*
X140782053Y-147469981D01*
X140702940Y-147555921D01*
X140656018Y-147662892D01*
X140646372Y-147779302D01*
X140675047Y-147892538D01*
X140738936Y-147990327D01*
X140751364Y-148000000D01*
X140030839Y-148000000D01*
X140071651Y-148134538D01*
X140071652Y-148134540D01*
X140164502Y-148308252D01*
X140164506Y-148308258D01*
X140289468Y-148460523D01*
X140289471Y-148460526D01*
X140375793Y-148531370D01*
X140408780Y-148582902D01*
X140405177Y-148643981D01*
X140394464Y-148664135D01*
X140375181Y-148692071D01*
X140349066Y-148760933D01*
X140315483Y-148849487D01*
X140314860Y-148851129D01*
X140300806Y-148966875D01*
X140294355Y-149020000D01*
X140314860Y-149188872D01*
X140375182Y-149347930D01*
X140471817Y-149487929D01*
X140471820Y-149487931D01*
X140471823Y-149487935D01*
X140576756Y-149580898D01*
X140607775Y-149633638D01*
X140601869Y-149694537D01*
X140576756Y-149729102D01*
X140471823Y-149822064D01*
X140471816Y-149822072D01*
X140375182Y-149962070D01*
X140314860Y-150121128D01*
X140294355Y-150290000D01*
X140314860Y-150458872D01*
X140345251Y-150539007D01*
X140375181Y-150617929D01*
X140394463Y-150645863D01*
X140411958Y-150704494D01*
X140391650Y-150762211D01*
X140375793Y-150778628D01*
X140289477Y-150849467D01*
X140289468Y-150849476D01*
X140164506Y-151001741D01*
X140164502Y-151001747D01*
X140071652Y-151175459D01*
X140071651Y-151175461D01*
X140030839Y-151310000D01*
X140754419Y-151310000D01*
X140702940Y-151365921D01*
X140656018Y-151472892D01*
X140646372Y-151589302D01*
X140675047Y-151702538D01*
X140738936Y-151800327D01*
X140751364Y-151810000D01*
X140129717Y-151810000D01*
X140071526Y-151791093D01*
X140054898Y-151775831D01*
X140039819Y-151758429D01*
X140017896Y-151733128D01*
X140017893Y-151733126D01*
X140017891Y-151733124D01*
X139901663Y-151658429D01*
X139901660Y-151658428D01*
X139901659Y-151658427D01*
X139835372Y-151638963D01*
X139769086Y-151619500D01*
X139769085Y-151619500D01*
X139630915Y-151619500D01*
X139630913Y-151619500D01*
X139498341Y-151658427D01*
X139498336Y-151658429D01*
X139382108Y-151733124D01*
X139382103Y-151733129D01*
X139291622Y-151837549D01*
X139291621Y-151837550D01*
X139291621Y-151837551D01*
X139262922Y-151900393D01*
X139234222Y-151963237D01*
X139234221Y-151963240D01*
X139214559Y-152099997D01*
X139214559Y-152100002D01*
X127770487Y-152100002D01*
X126279496Y-150609011D01*
X126251719Y-150554494D01*
X126250500Y-150539007D01*
X126250500Y-145791752D01*
X126259448Y-145750623D01*
X126265777Y-145736765D01*
X126281525Y-145627235D01*
X126285441Y-145600002D01*
X126285441Y-145599997D01*
X126265778Y-145463240D01*
X126265777Y-145463238D01*
X126265777Y-145463235D01*
X126264777Y-145461047D01*
X126259446Y-145449370D01*
X126250500Y-145408246D01*
X126250500Y-144991752D01*
X126259448Y-144950623D01*
X126264261Y-144940084D01*
X126265777Y-144936765D01*
X126280196Y-144836479D01*
X126285441Y-144800002D01*
X126285441Y-144799997D01*
X126265778Y-144663240D01*
X126265777Y-144663238D01*
X126265777Y-144663235D01*
X126264256Y-144659904D01*
X126259446Y-144649370D01*
X126250500Y-144608246D01*
X126250500Y-144191752D01*
X126259448Y-144150623D01*
X126265777Y-144136765D01*
X126283218Y-144015464D01*
X126285441Y-144000002D01*
X126285441Y-143999998D01*
X126279144Y-143956205D01*
X126289577Y-143895916D01*
X126333454Y-143853273D01*
X126394017Y-143844565D01*
X126447140Y-143872111D01*
X127391436Y-144816407D01*
X127399537Y-144827647D01*
X127400516Y-144826909D01*
X127406044Y-144834230D01*
X127441569Y-144866616D01*
X127443223Y-144868195D01*
X127455622Y-144880593D01*
X127457203Y-144882174D01*
X127460128Y-144884178D01*
X127465505Y-144888437D01*
X127489064Y-144909914D01*
X127489065Y-144909914D01*
X127489067Y-144909916D01*
X127498230Y-144913466D01*
X127518416Y-144924105D01*
X127526519Y-144929656D01*
X127557553Y-144936955D01*
X127564090Y-144938979D01*
X127593827Y-144950500D01*
X127603652Y-144950500D01*
X127626316Y-144953129D01*
X127635881Y-144955379D01*
X127660494Y-144951945D01*
X127667453Y-144950975D01*
X127674299Y-144950500D01*
X130243827Y-144950500D01*
X132736179Y-144950500D01*
X132794370Y-144969407D01*
X132830334Y-145018907D01*
X132834171Y-145063589D01*
X132814559Y-145199997D01*
X132814559Y-145200002D01*
X132834221Y-145336759D01*
X132834222Y-145336762D01*
X132834222Y-145336763D01*
X132834223Y-145336765D01*
X132891621Y-145462449D01*
X132982104Y-145566872D01*
X133060441Y-145617216D01*
X133099172Y-145664582D01*
X133102665Y-145725668D01*
X133069585Y-145777140D01*
X133012569Y-145799339D01*
X133006917Y-145799500D01*
X129220619Y-145799500D01*
X129162428Y-145780593D01*
X129145804Y-145765336D01*
X129117896Y-145733128D01*
X129117895Y-145733127D01*
X129117894Y-145733126D01*
X129001663Y-145658429D01*
X129001660Y-145658428D01*
X129001659Y-145658427D01*
X128935372Y-145638963D01*
X128869086Y-145619500D01*
X128869085Y-145619500D01*
X128730915Y-145619500D01*
X128730913Y-145619500D01*
X128598341Y-145658427D01*
X128598336Y-145658429D01*
X128482108Y-145733124D01*
X128482103Y-145733129D01*
X128391622Y-145837549D01*
X128334222Y-145963237D01*
X128334221Y-145963240D01*
X128314559Y-146099997D01*
X128314559Y-146100002D01*
X128334221Y-146236759D01*
X128334222Y-146236762D01*
X128334222Y-146236763D01*
X128334223Y-146236765D01*
X128391621Y-146362449D01*
X128406760Y-146379920D01*
X128430577Y-146436280D01*
X128416718Y-146495875D01*
X128406761Y-146509580D01*
X128391622Y-146527051D01*
X128334222Y-146652740D01*
X128334221Y-146652743D01*
X128314559Y-146789500D01*
X128314559Y-146789505D01*
X128334221Y-146926262D01*
X128334222Y-146926265D01*
X128334222Y-146926266D01*
X128334223Y-146926268D01*
X128391621Y-147051952D01*
X128482104Y-147156375D01*
X128482106Y-147156376D01*
X128482108Y-147156378D01*
X128588063Y-147224471D01*
X128598341Y-147231076D01*
X128730915Y-147270003D01*
X128730916Y-147270003D01*
X128869084Y-147270003D01*
X128869085Y-147270003D01*
X129001659Y-147231076D01*
X129117896Y-147156375D01*
X129145801Y-147124170D01*
X129198195Y-147092576D01*
X129220619Y-147090003D01*
X133049244Y-147090003D01*
X133107435Y-147108910D01*
X133139297Y-147147876D01*
X133191621Y-147262449D01*
X133282104Y-147366872D01*
X133282106Y-147366873D01*
X133282108Y-147366875D01*
X133369002Y-147422718D01*
X133398341Y-147441573D01*
X133530915Y-147480500D01*
X133530916Y-147480500D01*
X133669084Y-147480500D01*
X133669085Y-147480500D01*
X133801659Y-147441573D01*
X133917896Y-147366872D01*
X133925683Y-147357885D01*
X133978076Y-147326291D01*
X134039037Y-147331526D01*
X134085278Y-147371594D01*
X134099500Y-147422718D01*
X134099500Y-148020500D01*
X134080593Y-148078691D01*
X134031093Y-148114655D01*
X134000500Y-148119500D01*
X133930913Y-148119500D01*
X133798341Y-148158427D01*
X133798336Y-148158429D01*
X133682108Y-148233124D01*
X133682103Y-148233129D01*
X133591622Y-148337549D01*
X133534222Y-148463237D01*
X133534221Y-148463240D01*
X133514559Y-148599997D01*
X133514559Y-148600002D01*
X133534221Y-148736759D01*
X133534222Y-148736762D01*
X133534222Y-148736763D01*
X133534223Y-148736765D01*
X133591621Y-148862449D01*
X133682104Y-148966872D01*
X133682106Y-148966873D01*
X133682108Y-148966875D01*
X133764774Y-149020001D01*
X133798341Y-149041573D01*
X133930915Y-149080500D01*
X133930916Y-149080500D01*
X134069084Y-149080500D01*
X134069085Y-149080500D01*
X134201659Y-149041573D01*
X134317896Y-148966872D01*
X134408379Y-148862449D01*
X134465777Y-148736765D01*
X134467048Y-148727929D01*
X134472203Y-148692070D01*
X134485441Y-148600000D01*
X134484892Y-148596184D01*
X134485441Y-148593012D01*
X134485441Y-148592919D01*
X134485457Y-148592919D01*
X134495323Y-148535897D01*
X134512877Y-148512092D01*
X134566405Y-148458564D01*
X134577664Y-148450493D01*
X134576905Y-148449487D01*
X134584221Y-148443961D01*
X134584228Y-148443958D01*
X134616632Y-148408411D01*
X134618186Y-148406783D01*
X134624969Y-148400001D01*
X136694355Y-148400001D01*
X136700080Y-148447146D01*
X136714860Y-148568872D01*
X136775182Y-148727930D01*
X136871817Y-148867929D01*
X136999148Y-148980734D01*
X137149775Y-149059790D01*
X137314944Y-149100500D01*
X137314947Y-149100500D01*
X137485053Y-149100500D01*
X137485056Y-149100500D01*
X137650225Y-149059790D01*
X137800852Y-148980734D01*
X137928183Y-148867929D01*
X138024818Y-148727930D01*
X138085140Y-148568872D01*
X138105645Y-148400000D01*
X138104770Y-148392797D01*
X138100901Y-148360932D01*
X138085140Y-148231128D01*
X138024818Y-148072070D01*
X137928183Y-147932071D01*
X137925276Y-147929496D01*
X137843295Y-147856867D01*
X137800852Y-147819266D01*
X137650225Y-147740210D01*
X137650224Y-147740209D01*
X137650223Y-147740209D01*
X137485058Y-147699500D01*
X137485056Y-147699500D01*
X137314944Y-147699500D01*
X137314941Y-147699500D01*
X137149776Y-147740209D01*
X136999146Y-147819267D01*
X136871818Y-147932069D01*
X136871816Y-147932072D01*
X136828273Y-147995155D01*
X136775182Y-148072070D01*
X136717686Y-148223678D01*
X136714860Y-148231129D01*
X136694355Y-148399998D01*
X136694355Y-148400001D01*
X134624969Y-148400001D01*
X134632174Y-148392797D01*
X134634181Y-148389865D01*
X134638440Y-148384490D01*
X134659916Y-148360933D01*
X134663465Y-148351770D01*
X134674106Y-148331582D01*
X134679656Y-148323481D01*
X134686955Y-148292443D01*
X134688977Y-148285914D01*
X134700500Y-148256173D01*
X134700500Y-148246348D01*
X134703129Y-148223683D01*
X134705379Y-148214119D01*
X134700975Y-148182546D01*
X134700500Y-148175699D01*
X134700500Y-147500000D01*
X140030839Y-147500000D01*
X140749999Y-147500000D01*
X140750000Y-147499999D01*
X140750000Y-146780838D01*
X140615461Y-146821651D01*
X140615459Y-146821652D01*
X140441747Y-146914502D01*
X140441741Y-146914506D01*
X140289476Y-147039468D01*
X140289468Y-147039476D01*
X140164506Y-147191741D01*
X140164502Y-147191747D01*
X140071652Y-147365459D01*
X140071651Y-147365461D01*
X140030839Y-147500000D01*
X134700500Y-147500000D01*
X134700500Y-145865168D01*
X134702731Y-145851495D01*
X134701505Y-145851324D01*
X134702773Y-145842232D01*
X134700553Y-145794215D01*
X134700500Y-145791928D01*
X134700500Y-145772160D01*
X134700500Y-145772156D01*
X134699846Y-145768664D01*
X134699056Y-145761859D01*
X134697585Y-145730008D01*
X134693615Y-145721017D01*
X134686864Y-145699215D01*
X134685061Y-145689568D01*
X134685061Y-145689567D01*
X134668276Y-145662458D01*
X134665084Y-145656401D01*
X134652206Y-145627235D01*
X134652205Y-145627233D01*
X134645256Y-145620284D01*
X134631090Y-145602399D01*
X134625919Y-145594048D01*
X134600483Y-145574839D01*
X134595306Y-145570334D01*
X134562188Y-145537217D01*
X134534411Y-145482700D01*
X134543982Y-145422268D01*
X134587247Y-145379003D01*
X134647679Y-145369432D01*
X134660931Y-145372476D01*
X134703969Y-145385531D01*
X134703970Y-145385532D01*
X134899997Y-145404839D01*
X134900003Y-145404839D01*
X135096029Y-145385532D01*
X135096034Y-145385531D01*
X135284535Y-145328349D01*
X135284540Y-145328347D01*
X135408522Y-145262077D01*
X134616450Y-144470004D01*
X134588673Y-144415487D01*
X134591126Y-144400000D01*
X134744709Y-144400000D01*
X134765514Y-144477645D01*
X134822355Y-144534486D01*
X134880254Y-144550000D01*
X134919746Y-144550000D01*
X134977645Y-144534486D01*
X135034486Y-144477646D01*
X135055291Y-144400000D01*
X135055291Y-144399999D01*
X135253554Y-144399999D01*
X135762077Y-144908522D01*
X135828347Y-144784540D01*
X135828349Y-144784535D01*
X135853993Y-144700000D01*
X136794355Y-144700000D01*
X136814860Y-144868872D01*
X136875182Y-145027930D01*
X136971817Y-145167929D01*
X137099148Y-145280734D01*
X137249775Y-145359790D01*
X137414944Y-145400500D01*
X137414947Y-145400500D01*
X137585053Y-145400500D01*
X137585056Y-145400500D01*
X137750225Y-145359790D01*
X137900852Y-145280734D01*
X138028183Y-145167929D01*
X138124818Y-145027930D01*
X138185140Y-144868872D01*
X138205645Y-144700000D01*
X138185140Y-144531128D01*
X138124818Y-144372070D01*
X138028183Y-144232071D01*
X137996463Y-144203970D01*
X137900853Y-144119267D01*
X137900852Y-144119266D01*
X137750225Y-144040210D01*
X137750224Y-144040209D01*
X137750223Y-144040209D01*
X137585058Y-143999500D01*
X137585056Y-143999500D01*
X137414944Y-143999500D01*
X137414941Y-143999500D01*
X137249776Y-144040209D01*
X137099146Y-144119267D01*
X136971818Y-144232069D01*
X136971816Y-144232072D01*
X136910776Y-144320503D01*
X136875182Y-144372070D01*
X136814860Y-144531128D01*
X136810572Y-144566445D01*
X136798234Y-144668058D01*
X136794355Y-144700000D01*
X135853993Y-144700000D01*
X135885531Y-144596034D01*
X135885532Y-144596029D01*
X135904839Y-144400003D01*
X135904839Y-144399996D01*
X135885532Y-144203970D01*
X135885531Y-144203965D01*
X135828349Y-144015464D01*
X135828347Y-144015459D01*
X135762077Y-143891476D01*
X135253554Y-144399999D01*
X135055291Y-144399999D01*
X135034486Y-144322355D01*
X134977645Y-144265514D01*
X134919746Y-144250000D01*
X134880254Y-144250000D01*
X134822355Y-144265514D01*
X134765514Y-144322354D01*
X134744709Y-144400000D01*
X134591126Y-144400000D01*
X134598244Y-144355055D01*
X134616451Y-144329996D01*
X134900000Y-144046447D01*
X135408523Y-143537921D01*
X135284540Y-143471652D01*
X135284535Y-143471650D01*
X135096034Y-143414468D01*
X135096029Y-143414467D01*
X134900003Y-143395161D01*
X134899997Y-143395161D01*
X134703970Y-143414467D01*
X134703965Y-143414468D01*
X134515464Y-143471650D01*
X134515459Y-143471652D01*
X134341748Y-143564502D01*
X134341737Y-143564509D01*
X134297416Y-143600882D01*
X134240439Y-143623181D01*
X134181237Y-143607731D01*
X134159794Y-143589184D01*
X134135278Y-143560891D01*
X134067896Y-143483128D01*
X134067893Y-143483126D01*
X134067891Y-143483124D01*
X133951663Y-143408429D01*
X133951660Y-143408428D01*
X133951659Y-143408427D01*
X133885372Y-143388963D01*
X133819086Y-143369500D01*
X133819085Y-143369500D01*
X133680915Y-143369500D01*
X133680913Y-143369500D01*
X133548341Y-143408427D01*
X133548336Y-143408429D01*
X133432108Y-143483124D01*
X133432103Y-143483129D01*
X133341622Y-143587549D01*
X133284222Y-143713237D01*
X133284221Y-143713240D01*
X133264559Y-143849997D01*
X133264559Y-143849999D01*
X133265108Y-143853819D01*
X133264559Y-143856990D01*
X133264559Y-143857080D01*
X133264544Y-143857080D01*
X133254672Y-143914108D01*
X133237119Y-143937908D01*
X132854526Y-144320503D01*
X132800009Y-144348281D01*
X132784522Y-144349500D01*
X127815479Y-144349500D01*
X127757288Y-144330593D01*
X127745475Y-144320504D01*
X126558565Y-143133594D01*
X126550479Y-143122344D01*
X126549487Y-143123094D01*
X126543958Y-143115772D01*
X126508428Y-143083382D01*
X126506775Y-143081804D01*
X126492797Y-143067826D01*
X126489859Y-143065813D01*
X126484496Y-143061564D01*
X126460933Y-143040084D01*
X126451762Y-143036531D01*
X126431586Y-143025895D01*
X126423484Y-143020345D01*
X126423479Y-143020343D01*
X126392457Y-143013046D01*
X126385902Y-143011016D01*
X126356177Y-142999501D01*
X126356174Y-142999500D01*
X126356173Y-142999500D01*
X126356172Y-142999500D01*
X126346348Y-142999500D01*
X126323683Y-142996870D01*
X126314119Y-142994621D01*
X126314118Y-142994621D01*
X126282547Y-142999025D01*
X126275701Y-142999500D01*
X125365165Y-142999500D01*
X125351489Y-142997267D01*
X125351318Y-142998494D01*
X125342234Y-142997226D01*
X125301887Y-142999092D01*
X125294207Y-142999447D01*
X125291931Y-142999500D01*
X125272153Y-142999500D01*
X125268658Y-143000153D01*
X125261845Y-143000943D01*
X125230011Y-143002414D01*
X125230007Y-143002415D01*
X125221013Y-143006386D01*
X125199228Y-143013132D01*
X125189571Y-143014937D01*
X125189565Y-143014940D01*
X125162465Y-143031718D01*
X125156396Y-143034917D01*
X125127238Y-143047792D01*
X125127231Y-143047796D01*
X125120286Y-143054742D01*
X125102406Y-143068905D01*
X125094048Y-143074080D01*
X125074839Y-143099515D01*
X125070335Y-143104692D01*
X124783590Y-143391437D01*
X124772361Y-143399550D01*
X124773090Y-143400515D01*
X124765771Y-143406041D01*
X124733372Y-143441580D01*
X124731796Y-143443231D01*
X124717830Y-143457198D01*
X124717817Y-143457213D01*
X124715813Y-143460138D01*
X124711561Y-143465504D01*
X124690084Y-143489065D01*
X124690083Y-143489067D01*
X124686529Y-143498240D01*
X124675896Y-143518412D01*
X124670346Y-143526515D01*
X124670342Y-143526524D01*
X124663045Y-143557545D01*
X124661016Y-143564098D01*
X124649500Y-143593824D01*
X124649500Y-143603651D01*
X124646870Y-143626318D01*
X124644621Y-143635879D01*
X124649025Y-143667452D01*
X124649500Y-143674298D01*
X124649500Y-145884521D01*
X124630593Y-145942712D01*
X124620504Y-145954525D01*
X124504525Y-146070504D01*
X124450008Y-146098281D01*
X124434521Y-146099500D01*
X119570619Y-146099500D01*
X119512428Y-146080593D01*
X119495804Y-146065336D01*
X119467896Y-146033128D01*
X119467895Y-146033127D01*
X119467894Y-146033126D01*
X119351663Y-145958429D01*
X119351660Y-145958428D01*
X119351659Y-145958427D01*
X119285372Y-145938963D01*
X119219086Y-145919500D01*
X119219085Y-145919500D01*
X119080915Y-145919500D01*
X119080913Y-145919500D01*
X118948341Y-145958427D01*
X118948336Y-145958429D01*
X118832108Y-146033124D01*
X118832103Y-146033129D01*
X118741622Y-146137549D01*
X118684222Y-146263237D01*
X118684221Y-146263240D01*
X118664559Y-146399997D01*
X118664559Y-146400002D01*
X118684221Y-146536759D01*
X118684222Y-146536762D01*
X118684222Y-146536763D01*
X118684223Y-146536765D01*
X118741621Y-146662449D01*
X118832104Y-146766872D01*
X118853836Y-146780838D01*
X118866372Y-146788895D01*
X118905104Y-146836261D01*
X118908597Y-146897347D01*
X118875517Y-146948819D01*
X118818501Y-146971018D01*
X118798766Y-146970172D01*
X118794090Y-146969500D01*
X118794085Y-146969500D01*
X118655915Y-146969500D01*
X118655913Y-146969500D01*
X118523341Y-147008427D01*
X118523336Y-147008429D01*
X118407108Y-147083124D01*
X118407103Y-147083129D01*
X118316622Y-147187549D01*
X118316621Y-147187550D01*
X118316621Y-147187551D01*
X118314705Y-147191747D01*
X118259222Y-147313237D01*
X118259221Y-147313240D01*
X118239559Y-147449997D01*
X118239559Y-147450002D01*
X118259221Y-147586759D01*
X118259222Y-147586762D01*
X118259222Y-147586763D01*
X118259223Y-147586765D01*
X118316621Y-147712449D01*
X118407104Y-147816872D01*
X118407106Y-147816873D01*
X118407108Y-147816875D01*
X118523336Y-147891570D01*
X118523341Y-147891573D01*
X118655915Y-147930500D01*
X118655916Y-147930500D01*
X118794084Y-147930500D01*
X118794085Y-147930500D01*
X118882600Y-147904509D01*
X118910490Y-147900500D01*
X120922388Y-147900500D01*
X120980579Y-147919407D01*
X120992392Y-147929496D01*
X127311592Y-154248696D01*
X127315293Y-154252837D01*
X127340121Y-154283970D01*
X127389271Y-154317480D01*
X127437118Y-154352793D01*
X127437120Y-154352793D01*
X127443677Y-154356259D01*
X127443469Y-154356651D01*
X127445450Y-154357651D01*
X127445643Y-154357253D01*
X127452324Y-154360470D01*
X127452327Y-154360472D01*
X127509177Y-154378007D01*
X127565301Y-154397646D01*
X127565305Y-154397646D01*
X127572593Y-154399026D01*
X127572510Y-154399460D01*
X127574693Y-154399830D01*
X127574759Y-154399394D01*
X127582098Y-154400500D01*
X127641573Y-154400500D01*
X127643642Y-154400577D01*
X127701010Y-154402724D01*
X127701015Y-154402722D01*
X127708385Y-154401893D01*
X127708434Y-154402331D01*
X127722344Y-154400500D01*
X129422388Y-154400500D01*
X129480579Y-154419407D01*
X129492392Y-154429496D01*
X132982279Y-157919383D01*
X133010056Y-157973900D01*
X133010169Y-157974630D01*
X133015149Y-158007669D01*
X133017337Y-158014762D01*
X133016914Y-158014892D01*
X133017606Y-158016994D01*
X133018023Y-158016849D01*
X133020472Y-158023849D01*
X133048274Y-158076454D01*
X133074071Y-158130022D01*
X133078250Y-158136151D01*
X133077886Y-158136398D01*
X133079174Y-158138212D01*
X133079527Y-158137952D01*
X133083928Y-158143916D01*
X133125993Y-158185981D01*
X133166441Y-158229575D01*
X133172240Y-158234199D01*
X133171964Y-158234544D01*
X133183097Y-158243085D01*
X133838712Y-158898700D01*
X133842413Y-158902843D01*
X133871068Y-158938774D01*
X133892567Y-158996058D01*
X133876290Y-159055038D01*
X133828454Y-159093187D01*
X133793667Y-159099500D01*
X99399500Y-159099500D01*
X99341309Y-159080593D01*
X99305345Y-159031093D01*
X99300500Y-159000500D01*
X99300500Y-145895322D01*
X100210728Y-145895322D01*
X100330813Y-145920000D01*
X101283214Y-145920000D01*
X104366054Y-145920000D01*
X105613213Y-145920000D01*
X105654724Y-145915778D01*
X105012500Y-145273554D01*
X104366054Y-145920000D01*
X101283214Y-145920000D01*
X101434835Y-145904581D01*
X101434840Y-145904580D01*
X101456675Y-145897729D01*
X100832499Y-145273553D01*
X100210728Y-145895322D01*
X99300500Y-145895322D01*
X99300500Y-145295179D01*
X99319407Y-145236988D01*
X99368907Y-145201024D01*
X99430093Y-145201024D01*
X99479593Y-145236988D01*
X99492338Y-145260796D01*
X99530066Y-145362666D01*
X99637646Y-145535263D01*
X99637648Y-145535265D01*
X99747800Y-145651143D01*
X100244436Y-145154507D01*
X100271834Y-145179484D01*
X100376420Y-145220000D01*
X101260302Y-145220000D01*
X101342750Y-145204588D01*
X101421735Y-145155681D01*
X101916662Y-145650608D01*
X101961029Y-145612520D01*
X101961036Y-145612513D01*
X102085519Y-145451693D01*
X102085520Y-145451691D01*
X102175086Y-145269097D01*
X102226066Y-145072206D01*
X102226066Y-145072202D01*
X102231202Y-144970913D01*
X103458632Y-144970913D01*
X103489430Y-145171941D01*
X103560066Y-145362666D01*
X103667647Y-145535264D01*
X103667652Y-145535270D01*
X103807766Y-145682669D01*
X103859952Y-145718992D01*
X104372200Y-145206743D01*
X104406420Y-145220000D01*
X105590302Y-145220000D01*
X105654123Y-145208069D01*
X106165950Y-145719896D01*
X106291025Y-145612525D01*
X106291036Y-145612513D01*
X106415519Y-145451693D01*
X106415520Y-145451691D01*
X106505086Y-145269097D01*
X106556066Y-145072206D01*
X106556066Y-145072202D01*
X106566366Y-144869085D01*
X106535569Y-144668058D01*
X106464933Y-144477333D01*
X106357352Y-144304735D01*
X106357347Y-144304729D01*
X106217232Y-144157328D01*
X106217230Y-144157327D01*
X106165046Y-144121006D01*
X105652796Y-144633255D01*
X105618580Y-144620000D01*
X104434698Y-144620000D01*
X104370876Y-144631930D01*
X103859049Y-144120102D01*
X103859048Y-144120102D01*
X103733970Y-144227479D01*
X103733963Y-144227486D01*
X103609480Y-144388306D01*
X103609479Y-144388308D01*
X103519913Y-144570902D01*
X103468933Y-144767793D01*
X103468933Y-144767797D01*
X103458633Y-144970910D01*
X103458632Y-144970913D01*
X102231202Y-144970913D01*
X102236366Y-144869085D01*
X102205569Y-144668058D01*
X102134933Y-144477333D01*
X102027353Y-144304736D01*
X102027351Y-144304734D01*
X101917197Y-144188855D01*
X101420561Y-144685490D01*
X101393166Y-144660516D01*
X101288580Y-144620000D01*
X100404698Y-144620000D01*
X100322250Y-144635412D01*
X100243264Y-144684318D01*
X99748336Y-144189390D01*
X99703969Y-144227479D01*
X99703968Y-144227480D01*
X99579480Y-144388306D01*
X99579479Y-144388308D01*
X99488383Y-144574021D01*
X99445781Y-144617938D01*
X99385501Y-144628427D01*
X99330569Y-144601482D01*
X99301966Y-144547394D01*
X99300500Y-144530422D01*
X99300500Y-143942269D01*
X100208323Y-143942269D01*
X100832499Y-144566445D01*
X101454268Y-143944676D01*
X101354723Y-143924220D01*
X104370273Y-143924220D01*
X105012499Y-144566446D01*
X105658946Y-143920000D01*
X104411783Y-143920000D01*
X104370273Y-143924220D01*
X101354723Y-143924220D01*
X101334187Y-143920000D01*
X100381786Y-143920000D01*
X100230163Y-143935419D01*
X100230162Y-143935419D01*
X100208323Y-143942269D01*
X99300500Y-143942269D01*
X99300500Y-137255322D01*
X100210728Y-137255322D01*
X100330813Y-137280000D01*
X101283214Y-137280000D01*
X101434835Y-137264581D01*
X101434840Y-137264580D01*
X101456675Y-137257729D01*
X101448946Y-137250000D01*
X104366054Y-137250000D01*
X105613213Y-137250000D01*
X105654724Y-137245778D01*
X105012500Y-136603554D01*
X104366054Y-137250000D01*
X101448946Y-137250000D01*
X100832499Y-136633553D01*
X100210728Y-137255322D01*
X99300500Y-137255322D01*
X99300500Y-136655179D01*
X99319407Y-136596988D01*
X99368907Y-136561024D01*
X99430093Y-136561024D01*
X99479593Y-136596988D01*
X99492338Y-136620796D01*
X99530066Y-136722666D01*
X99637646Y-136895263D01*
X99637648Y-136895265D01*
X99747800Y-137011143D01*
X100244436Y-136514507D01*
X100271834Y-136539484D01*
X100376420Y-136580000D01*
X101260302Y-136580000D01*
X101342750Y-136564588D01*
X101421735Y-136515681D01*
X101916662Y-137010608D01*
X101961029Y-136972520D01*
X101961036Y-136972513D01*
X102085519Y-136811693D01*
X102085520Y-136811691D01*
X102175086Y-136629097D01*
X102226066Y-136432206D01*
X102226066Y-136432202D01*
X102232724Y-136300913D01*
X103458632Y-136300913D01*
X103489430Y-136501941D01*
X103560066Y-136692666D01*
X103667647Y-136865264D01*
X103667652Y-136865270D01*
X103807766Y-137012669D01*
X103859952Y-137048992D01*
X104372200Y-136536743D01*
X104406420Y-136550000D01*
X105590302Y-136550000D01*
X105654123Y-136538069D01*
X106165950Y-137049896D01*
X106291025Y-136942525D01*
X106291036Y-136942513D01*
X106415519Y-136781693D01*
X106415520Y-136781691D01*
X106505086Y-136599097D01*
X106556066Y-136402206D01*
X106556066Y-136402202D01*
X106566366Y-136199085D01*
X106535569Y-135998058D01*
X106464933Y-135807333D01*
X106357352Y-135634735D01*
X106357347Y-135634729D01*
X106217232Y-135487328D01*
X106217230Y-135487327D01*
X106165046Y-135451006D01*
X105652796Y-135963255D01*
X105618580Y-135950000D01*
X104434698Y-135950000D01*
X104370876Y-135961930D01*
X103859049Y-135450102D01*
X103859048Y-135450102D01*
X103733970Y-135557479D01*
X103733963Y-135557486D01*
X103609480Y-135718306D01*
X103609479Y-135718308D01*
X103519913Y-135900902D01*
X103468933Y-136097793D01*
X103468933Y-136097797D01*
X103458633Y-136300910D01*
X103458632Y-136300913D01*
X102232724Y-136300913D01*
X102236366Y-136229085D01*
X102205569Y-136028058D01*
X102134933Y-135837333D01*
X102027353Y-135664736D01*
X102027351Y-135664734D01*
X101917197Y-135548855D01*
X101420561Y-136045490D01*
X101393166Y-136020516D01*
X101288580Y-135980000D01*
X100404698Y-135980000D01*
X100322250Y-135995412D01*
X100243264Y-136044318D01*
X99748336Y-135549390D01*
X99703969Y-135587479D01*
X99703968Y-135587480D01*
X99579480Y-135748306D01*
X99579479Y-135748308D01*
X99488383Y-135934021D01*
X99445781Y-135977938D01*
X99385501Y-135988427D01*
X99330569Y-135961482D01*
X99301966Y-135907394D01*
X99300500Y-135890422D01*
X99300500Y-135302269D01*
X100208323Y-135302269D01*
X100832499Y-135926445D01*
X101454268Y-135304676D01*
X101334187Y-135280000D01*
X100381786Y-135280000D01*
X100230163Y-135295419D01*
X100230162Y-135295419D01*
X100208323Y-135302269D01*
X99300500Y-135302269D01*
X99300500Y-135254220D01*
X104370273Y-135254220D01*
X105012499Y-135896446D01*
X105658946Y-135250000D01*
X104411783Y-135250000D01*
X104370273Y-135254220D01*
X99300500Y-135254220D01*
X99300500Y-133862077D01*
X123241476Y-133862077D01*
X123365459Y-133928347D01*
X123365464Y-133928349D01*
X123553965Y-133985531D01*
X123553970Y-133985532D01*
X123749997Y-134004839D01*
X123750003Y-134004839D01*
X123946029Y-133985532D01*
X123946034Y-133985531D01*
X124134535Y-133928349D01*
X124134540Y-133928347D01*
X124258522Y-133862077D01*
X123749999Y-133353554D01*
X123241476Y-133862077D01*
X99300500Y-133862077D01*
X99300500Y-133000000D01*
X119994355Y-133000000D01*
X120014860Y-133168872D01*
X120075182Y-133327930D01*
X120171817Y-133467929D01*
X120299148Y-133580734D01*
X120449775Y-133659790D01*
X120614944Y-133700500D01*
X120614947Y-133700500D01*
X120785053Y-133700500D01*
X120785056Y-133700500D01*
X120950225Y-133659790D01*
X121100852Y-133580734D01*
X121228183Y-133467929D01*
X121324818Y-133327930D01*
X121385140Y-133168872D01*
X121405645Y-133000003D01*
X122745161Y-133000003D01*
X122764467Y-133196029D01*
X122764468Y-133196034D01*
X122821650Y-133384535D01*
X122821652Y-133384540D01*
X122887921Y-133508523D01*
X123396444Y-133000000D01*
X123594709Y-133000000D01*
X123615514Y-133077645D01*
X123672355Y-133134486D01*
X123730254Y-133150000D01*
X123769746Y-133150000D01*
X123827645Y-133134486D01*
X123884486Y-133077646D01*
X123905291Y-133000000D01*
X123905291Y-132999999D01*
X124103554Y-132999999D01*
X124612077Y-133508522D01*
X124678347Y-133384540D01*
X124678349Y-133384535D01*
X124735531Y-133196034D01*
X124735532Y-133196029D01*
X124754839Y-133000003D01*
X124754839Y-132999996D01*
X124735532Y-132803970D01*
X124735531Y-132803965D01*
X124678349Y-132615464D01*
X124678347Y-132615459D01*
X124612077Y-132491476D01*
X124103554Y-132999999D01*
X123905291Y-132999999D01*
X123884486Y-132922355D01*
X123827645Y-132865514D01*
X123769746Y-132850000D01*
X123730254Y-132850000D01*
X123672355Y-132865514D01*
X123615514Y-132922354D01*
X123594709Y-133000000D01*
X123396444Y-133000000D01*
X123396445Y-132999999D01*
X122887922Y-132491476D01*
X122821652Y-132615460D01*
X122821648Y-132615472D01*
X122764468Y-132803965D01*
X122764467Y-132803970D01*
X122745161Y-132999996D01*
X122745161Y-133000003D01*
X121405645Y-133000003D01*
X121405645Y-133000000D01*
X121385140Y-132831128D01*
X121324818Y-132672070D01*
X121228183Y-132532071D01*
X121100852Y-132419266D01*
X120950225Y-132340210D01*
X120950224Y-132340209D01*
X120950223Y-132340209D01*
X120785058Y-132299500D01*
X120785056Y-132299500D01*
X120614944Y-132299500D01*
X120614941Y-132299500D01*
X120449776Y-132340209D01*
X120299146Y-132419267D01*
X120171818Y-132532069D01*
X120171816Y-132532072D01*
X120114249Y-132615472D01*
X120075182Y-132672070D01*
X120014860Y-132831128D01*
X119994355Y-133000000D01*
X99300500Y-133000000D01*
X99300500Y-132137922D01*
X123241476Y-132137922D01*
X123749999Y-132646445D01*
X124258523Y-132137921D01*
X124134540Y-132071652D01*
X124134535Y-132071650D01*
X123946034Y-132014468D01*
X123946029Y-132014467D01*
X123750003Y-131995161D01*
X123749997Y-131995161D01*
X123553970Y-132014467D01*
X123553965Y-132014468D01*
X123365472Y-132071648D01*
X123365460Y-132071652D01*
X123241476Y-132137922D01*
X99300500Y-132137922D01*
X99300500Y-129762077D01*
X127391476Y-129762077D01*
X127515459Y-129828347D01*
X127515464Y-129828349D01*
X127703965Y-129885531D01*
X127703970Y-129885532D01*
X127899997Y-129904839D01*
X127900003Y-129904839D01*
X128096029Y-129885532D01*
X128096034Y-129885531D01*
X128284535Y-129828349D01*
X128284540Y-129828347D01*
X128408522Y-129762077D01*
X127899999Y-129253554D01*
X127391476Y-129762077D01*
X99300500Y-129762077D01*
X99300500Y-128900003D01*
X126895161Y-128900003D01*
X126914467Y-129096029D01*
X126914468Y-129096034D01*
X126971650Y-129284535D01*
X126971652Y-129284540D01*
X127037921Y-129408523D01*
X127546444Y-128900000D01*
X127744709Y-128900000D01*
X127765514Y-128977645D01*
X127822355Y-129034486D01*
X127880254Y-129050000D01*
X127919746Y-129050000D01*
X127977645Y-129034486D01*
X128034486Y-128977646D01*
X128055291Y-128900000D01*
X128055291Y-128899999D01*
X128253554Y-128899999D01*
X128762077Y-129408522D01*
X128828347Y-129284540D01*
X128828349Y-129284535D01*
X128885531Y-129096034D01*
X128885532Y-129096029D01*
X128904839Y-128900003D01*
X128904839Y-128899996D01*
X128885532Y-128703970D01*
X128885531Y-128703965D01*
X128828349Y-128515464D01*
X128828347Y-128515459D01*
X128762077Y-128391476D01*
X128253554Y-128899999D01*
X128055291Y-128899999D01*
X128034486Y-128822355D01*
X127977645Y-128765514D01*
X127919746Y-128750000D01*
X127880254Y-128750000D01*
X127822355Y-128765514D01*
X127765514Y-128822354D01*
X127744709Y-128900000D01*
X127546444Y-128900000D01*
X127546445Y-128899999D01*
X127037922Y-128391476D01*
X126971652Y-128515460D01*
X126971648Y-128515472D01*
X126914468Y-128703965D01*
X126914467Y-128703970D01*
X126895161Y-128899996D01*
X126895161Y-128900003D01*
X99300500Y-128900003D01*
X99300500Y-128037922D01*
X127391476Y-128037922D01*
X127899999Y-128546445D01*
X128408523Y-128037921D01*
X128284540Y-127971652D01*
X128284535Y-127971650D01*
X128096034Y-127914468D01*
X128096029Y-127914467D01*
X127900003Y-127895161D01*
X127899997Y-127895161D01*
X127703970Y-127914467D01*
X127703965Y-127914468D01*
X127515472Y-127971648D01*
X127515460Y-127971652D01*
X127391476Y-128037922D01*
X99300500Y-128037922D01*
X99300500Y-126800000D01*
X121394355Y-126800000D01*
X121414860Y-126968872D01*
X121475182Y-127127930D01*
X121571817Y-127267929D01*
X121699148Y-127380734D01*
X121849775Y-127459790D01*
X122014944Y-127500500D01*
X122014947Y-127500500D01*
X122185053Y-127500500D01*
X122185056Y-127500500D01*
X122350225Y-127459790D01*
X122500852Y-127380734D01*
X122628183Y-127267929D01*
X122724818Y-127127930D01*
X122785140Y-126968872D01*
X122805645Y-126800000D01*
X122785140Y-126631128D01*
X122724818Y-126472070D01*
X122628183Y-126332071D01*
X122500852Y-126219266D01*
X122350225Y-126140210D01*
X122350224Y-126140209D01*
X122350223Y-126140209D01*
X122185058Y-126099500D01*
X122185056Y-126099500D01*
X122014944Y-126099500D01*
X122014941Y-126099500D01*
X121849776Y-126140209D01*
X121699146Y-126219267D01*
X121571818Y-126332069D01*
X121571817Y-126332071D01*
X121475182Y-126472070D01*
X121414860Y-126631128D01*
X121394355Y-126800000D01*
X99300500Y-126800000D01*
X99300500Y-125562077D01*
X113391476Y-125562077D01*
X113515459Y-125628347D01*
X113515464Y-125628349D01*
X113703965Y-125685531D01*
X113703970Y-125685532D01*
X113899997Y-125704839D01*
X113900003Y-125704839D01*
X114096029Y-125685532D01*
X114096034Y-125685531D01*
X114284535Y-125628349D01*
X114284540Y-125628347D01*
X114408522Y-125562077D01*
X114346445Y-125500000D01*
X127994355Y-125500000D01*
X128014860Y-125668872D01*
X128075182Y-125827930D01*
X128171817Y-125967929D01*
X128299148Y-126080734D01*
X128449775Y-126159790D01*
X128614944Y-126200500D01*
X128614947Y-126200500D01*
X128785053Y-126200500D01*
X128785056Y-126200500D01*
X128950225Y-126159790D01*
X129100852Y-126080734D01*
X129228183Y-125967929D01*
X129324818Y-125827930D01*
X129385140Y-125668872D01*
X129405645Y-125500000D01*
X129385140Y-125331128D01*
X129324818Y-125172070D01*
X129228183Y-125032071D01*
X129100852Y-124919266D01*
X128950225Y-124840210D01*
X128950224Y-124840209D01*
X128950223Y-124840209D01*
X128785058Y-124799500D01*
X128785056Y-124799500D01*
X128614944Y-124799500D01*
X128614941Y-124799500D01*
X128449776Y-124840209D01*
X128299146Y-124919267D01*
X128171818Y-125032069D01*
X128171817Y-125032071D01*
X128075182Y-125172070D01*
X128014860Y-125331128D01*
X127994355Y-125500000D01*
X114346445Y-125500000D01*
X113899999Y-125053554D01*
X113391476Y-125562077D01*
X99300500Y-125562077D01*
X99300500Y-121099000D01*
X99319407Y-121040809D01*
X99368907Y-121004845D01*
X99399500Y-121000000D01*
X104523887Y-121000000D01*
X104582078Y-121018907D01*
X104618042Y-121068407D01*
X104618042Y-121129593D01*
X104593891Y-121169004D01*
X104022247Y-121740648D01*
X104003636Y-121753574D01*
X104004296Y-121754600D01*
X103882108Y-121833125D01*
X103882103Y-121833129D01*
X103791622Y-121937549D01*
X103734222Y-122063237D01*
X103734221Y-122063240D01*
X103714559Y-122199997D01*
X103714559Y-122200002D01*
X103734221Y-122336759D01*
X103734222Y-122336762D01*
X103734222Y-122336763D01*
X103734223Y-122336765D01*
X103791621Y-122462449D01*
X103882104Y-122566872D01*
X103882106Y-122566873D01*
X103882108Y-122566875D01*
X103976077Y-122627265D01*
X103998341Y-122641573D01*
X104130915Y-122680500D01*
X104130916Y-122680500D01*
X104269084Y-122680500D01*
X104269085Y-122680500D01*
X104401659Y-122641573D01*
X104517896Y-122566872D01*
X104608379Y-122462449D01*
X104629304Y-122416626D01*
X104649354Y-122387748D01*
X105157608Y-121879496D01*
X105212124Y-121851719D01*
X105227611Y-121850500D01*
X109781433Y-121850500D01*
X109839624Y-121869407D01*
X109851437Y-121879496D01*
X110346073Y-122374131D01*
X110357484Y-122390209D01*
X110358441Y-122389557D01*
X110366798Y-122401815D01*
X110366434Y-122402062D01*
X110367722Y-122403876D01*
X110368075Y-122403616D01*
X110372476Y-122409580D01*
X110414540Y-122451644D01*
X110454989Y-122495239D01*
X110460788Y-122499863D01*
X110460512Y-122500208D01*
X110471645Y-122508749D01*
X110901851Y-122938955D01*
X110929628Y-122993472D01*
X110920057Y-123053904D01*
X110911504Y-123067745D01*
X110897207Y-123087117D01*
X110893742Y-123093674D01*
X110893353Y-123093468D01*
X110892350Y-123095455D01*
X110892746Y-123095646D01*
X110889528Y-123102327D01*
X110871992Y-123159177D01*
X110852355Y-123215297D01*
X110850976Y-123222587D01*
X110850544Y-123222505D01*
X110850171Y-123224700D01*
X110850605Y-123224766D01*
X110849500Y-123232099D01*
X110849500Y-123291572D01*
X110847276Y-123351010D01*
X110848107Y-123358385D01*
X110847668Y-123358434D01*
X110849500Y-123372344D01*
X110849500Y-124118693D01*
X110830593Y-124176884D01*
X110816150Y-124192795D01*
X110771819Y-124232068D01*
X110771816Y-124232072D01*
X110714249Y-124315472D01*
X110675182Y-124372070D01*
X110614860Y-124531128D01*
X110594355Y-124700000D01*
X110614860Y-124868872D01*
X110675182Y-125027930D01*
X110771817Y-125167929D01*
X110899148Y-125280734D01*
X111049775Y-125359790D01*
X111214944Y-125400500D01*
X111214947Y-125400500D01*
X111385053Y-125400500D01*
X111385056Y-125400500D01*
X111550225Y-125359790D01*
X111700852Y-125280734D01*
X111828183Y-125167929D01*
X111924818Y-125027930D01*
X111985140Y-124868872D01*
X112005645Y-124700003D01*
X112895161Y-124700003D01*
X112914467Y-124896029D01*
X112914468Y-124896034D01*
X112971650Y-125084535D01*
X112971652Y-125084540D01*
X113037921Y-125208523D01*
X113546444Y-124700000D01*
X113744709Y-124700000D01*
X113765514Y-124777645D01*
X113822355Y-124834486D01*
X113880254Y-124850000D01*
X113919746Y-124850000D01*
X113977645Y-124834486D01*
X114034486Y-124777646D01*
X114055291Y-124700000D01*
X114055291Y-124699999D01*
X114253554Y-124699999D01*
X114762077Y-125208522D01*
X114828347Y-125084540D01*
X114828349Y-125084535D01*
X114885531Y-124896034D01*
X114885532Y-124896029D01*
X114904839Y-124700003D01*
X114904839Y-124699996D01*
X114885532Y-124503970D01*
X114885531Y-124503965D01*
X114828349Y-124315464D01*
X114828347Y-124315459D01*
X114762077Y-124191476D01*
X114253554Y-124699999D01*
X114055291Y-124699999D01*
X114034486Y-124622355D01*
X113977645Y-124565514D01*
X113919746Y-124550000D01*
X113880254Y-124550000D01*
X113822355Y-124565514D01*
X113765514Y-124622354D01*
X113744709Y-124700000D01*
X113546444Y-124700000D01*
X113546445Y-124699999D01*
X113037922Y-124191476D01*
X112971652Y-124315460D01*
X112971648Y-124315472D01*
X112914468Y-124503965D01*
X112914467Y-124503970D01*
X112895161Y-124699996D01*
X112895161Y-124700003D01*
X112005645Y-124700003D01*
X112005645Y-124700000D01*
X111985140Y-124531128D01*
X111924818Y-124372070D01*
X111828183Y-124232071D01*
X111828180Y-124232068D01*
X111783850Y-124192795D01*
X111752832Y-124140055D01*
X111750500Y-124118693D01*
X111750500Y-123837922D01*
X113391476Y-123837922D01*
X113899999Y-124346445D01*
X114408523Y-123837921D01*
X114284540Y-123771652D01*
X114284535Y-123771650D01*
X114096034Y-123714468D01*
X114096029Y-123714467D01*
X113900003Y-123695161D01*
X113899997Y-123695161D01*
X113703970Y-123714467D01*
X113703965Y-123714468D01*
X113515472Y-123771648D01*
X113515460Y-123771652D01*
X113391476Y-123837922D01*
X111750500Y-123837922D01*
X111750500Y-123549500D01*
X111769407Y-123491309D01*
X111818907Y-123455345D01*
X111849500Y-123450500D01*
X119471913Y-123450500D01*
X119477459Y-123450811D01*
X119517035Y-123455270D01*
X119575479Y-123444211D01*
X119634287Y-123435348D01*
X119634294Y-123435344D01*
X119641381Y-123433159D01*
X119641512Y-123433584D01*
X119643613Y-123432892D01*
X119643467Y-123432473D01*
X119650464Y-123430024D01*
X119650472Y-123430023D01*
X119664322Y-123422702D01*
X119703072Y-123402223D01*
X119729857Y-123389323D01*
X119756642Y-123376425D01*
X119756646Y-123376421D01*
X119762778Y-123372242D01*
X119763028Y-123372609D01*
X119764832Y-123371329D01*
X119764568Y-123370971D01*
X119770529Y-123366570D01*
X119770538Y-123366566D01*
X119812600Y-123324503D01*
X119856194Y-123284055D01*
X119856195Y-123284052D01*
X119856197Y-123284051D01*
X119860823Y-123278251D01*
X119861168Y-123278526D01*
X119869704Y-123267398D01*
X120456628Y-122680474D01*
X120498742Y-122655489D01*
X120511159Y-122651844D01*
X120627396Y-122577143D01*
X120717879Y-122472720D01*
X120738805Y-122426895D01*
X120758852Y-122398020D01*
X121127378Y-122029496D01*
X121181894Y-122001719D01*
X121197381Y-122000500D01*
X122372016Y-122000500D01*
X122430207Y-122019407D01*
X122466171Y-122068907D01*
X122466171Y-122130093D01*
X122446837Y-122164328D01*
X122391624Y-122228048D01*
X122391621Y-122228051D01*
X122334222Y-122353737D01*
X122334221Y-122353740D01*
X122314559Y-122490497D01*
X122314559Y-122490502D01*
X122334221Y-122627259D01*
X122334222Y-122627262D01*
X122334222Y-122627263D01*
X122334223Y-122627265D01*
X122358524Y-122680476D01*
X122391622Y-122752951D01*
X122475319Y-122849542D01*
X122499137Y-122905901D01*
X122499500Y-122914373D01*
X122499500Y-123576126D01*
X122480593Y-123634317D01*
X122475320Y-123640957D01*
X122391621Y-123737551D01*
X122334222Y-123863237D01*
X122334221Y-123863240D01*
X122314559Y-123999997D01*
X122314559Y-124000002D01*
X122334221Y-124136759D01*
X122334222Y-124136762D01*
X122334222Y-124136763D01*
X122334223Y-124136765D01*
X122391621Y-124262449D01*
X122482104Y-124366872D01*
X122482106Y-124366873D01*
X122482108Y-124366875D01*
X122490192Y-124372070D01*
X122598341Y-124441573D01*
X122730915Y-124480500D01*
X122730916Y-124480500D01*
X122869084Y-124480500D01*
X122869085Y-124480500D01*
X123001659Y-124441573D01*
X123117896Y-124366872D01*
X123208379Y-124262449D01*
X123265777Y-124136765D01*
X123265778Y-124136759D01*
X123285441Y-124000002D01*
X123285441Y-123999997D01*
X123265778Y-123863240D01*
X123265777Y-123863237D01*
X123265777Y-123863235D01*
X123208379Y-123737551D01*
X123124680Y-123640957D01*
X123100863Y-123584597D01*
X123100500Y-123576126D01*
X123100500Y-122914373D01*
X123119407Y-122856182D01*
X123124681Y-122849542D01*
X123186628Y-122778051D01*
X123208379Y-122752949D01*
X123265777Y-122627265D01*
X123276958Y-122549500D01*
X123285441Y-122490502D01*
X123285441Y-122490497D01*
X123265778Y-122353740D01*
X123265777Y-122353737D01*
X123265777Y-122353735D01*
X123208379Y-122228051D01*
X123153163Y-122164329D01*
X123129347Y-122107972D01*
X123143205Y-122048377D01*
X123189446Y-122008309D01*
X123227984Y-122000500D01*
X124300163Y-122000500D01*
X124358354Y-122019407D01*
X124394318Y-122068907D01*
X124394318Y-122130093D01*
X124390218Y-122140621D01*
X124363101Y-122200002D01*
X124334222Y-122263237D01*
X124334221Y-122263240D01*
X124314559Y-122399997D01*
X124314559Y-122400002D01*
X124334221Y-122536759D01*
X124334222Y-122536762D01*
X124334222Y-122536763D01*
X124334223Y-122536765D01*
X124386778Y-122651844D01*
X124391622Y-122662451D01*
X124475319Y-122759042D01*
X124499137Y-122815401D01*
X124499500Y-122823873D01*
X124499500Y-123576126D01*
X124480593Y-123634317D01*
X124475320Y-123640957D01*
X124391621Y-123737551D01*
X124334222Y-123863237D01*
X124334221Y-123863240D01*
X124314559Y-123999997D01*
X124314559Y-124000002D01*
X124334221Y-124136759D01*
X124334222Y-124136762D01*
X124334222Y-124136763D01*
X124334223Y-124136765D01*
X124391621Y-124262449D01*
X124482104Y-124366872D01*
X124482106Y-124366873D01*
X124482108Y-124366875D01*
X124490192Y-124372070D01*
X124598341Y-124441573D01*
X124730915Y-124480500D01*
X124730916Y-124480500D01*
X124869084Y-124480500D01*
X124869085Y-124480500D01*
X125001659Y-124441573D01*
X125117896Y-124366872D01*
X125208379Y-124262449D01*
X125265777Y-124136765D01*
X125265778Y-124136759D01*
X125285441Y-124000002D01*
X125285441Y-123999997D01*
X125265778Y-123863240D01*
X125265777Y-123863237D01*
X125265777Y-123863235D01*
X125208379Y-123737551D01*
X125124680Y-123640957D01*
X125100863Y-123584597D01*
X125100500Y-123576126D01*
X125100500Y-122823873D01*
X125119407Y-122765682D01*
X125124681Y-122759042D01*
X125192738Y-122680500D01*
X125208379Y-122662449D01*
X125265777Y-122536765D01*
X125265778Y-122536759D01*
X125285441Y-122400002D01*
X125285441Y-122399997D01*
X125265778Y-122263240D01*
X125265777Y-122263237D01*
X125265777Y-122263235D01*
X125209782Y-122140625D01*
X125202809Y-122079839D01*
X125232896Y-122026563D01*
X125288552Y-122001145D01*
X125299837Y-122000500D01*
X126322388Y-122000500D01*
X126380579Y-122019407D01*
X126392392Y-122029496D01*
X127661592Y-123298696D01*
X127665293Y-123302837D01*
X127690121Y-123333970D01*
X127739271Y-123367480D01*
X127787118Y-123402793D01*
X127787120Y-123402793D01*
X127793677Y-123406259D01*
X127793469Y-123406651D01*
X127795450Y-123407651D01*
X127795643Y-123407253D01*
X127802324Y-123410470D01*
X127802327Y-123410472D01*
X127859177Y-123428007D01*
X127915300Y-123447646D01*
X127922593Y-123449026D01*
X127922510Y-123449460D01*
X127924697Y-123449831D01*
X127924763Y-123449394D01*
X127932096Y-123450499D01*
X127932098Y-123450500D01*
X127932100Y-123450500D01*
X127991559Y-123450500D01*
X128051010Y-123452725D01*
X128051016Y-123452723D01*
X128058384Y-123451894D01*
X128058433Y-123452332D01*
X128072347Y-123450500D01*
X131471913Y-123450500D01*
X131477459Y-123450811D01*
X131517035Y-123455270D01*
X131575479Y-123444211D01*
X131634287Y-123435348D01*
X131634294Y-123435344D01*
X131641381Y-123433159D01*
X131641512Y-123433584D01*
X131643613Y-123432892D01*
X131643467Y-123432473D01*
X131650464Y-123430024D01*
X131650472Y-123430023D01*
X131664322Y-123422702D01*
X131703072Y-123402223D01*
X131729857Y-123389323D01*
X131756642Y-123376425D01*
X131756646Y-123376421D01*
X131762778Y-123372242D01*
X131763028Y-123372609D01*
X131764832Y-123371329D01*
X131764568Y-123370971D01*
X131770529Y-123366570D01*
X131770538Y-123366566D01*
X131812599Y-123324504D01*
X131856194Y-123284055D01*
X131856198Y-123284047D01*
X131860820Y-123278253D01*
X131861166Y-123278529D01*
X131869703Y-123267399D01*
X132471167Y-122665934D01*
X132505264Y-122645709D01*
X132504719Y-122644514D01*
X132511156Y-122641573D01*
X132511159Y-122641573D01*
X132627396Y-122566872D01*
X132717879Y-122462449D01*
X132738806Y-122416624D01*
X132758856Y-122387747D01*
X133067108Y-122079496D01*
X133121624Y-122051719D01*
X133137111Y-122050500D01*
X134328690Y-122050500D01*
X134386881Y-122069407D01*
X134422845Y-122118907D01*
X134422845Y-122180093D01*
X134403509Y-122214331D01*
X134391622Y-122228048D01*
X134334222Y-122353737D01*
X134334221Y-122353740D01*
X134314559Y-122490497D01*
X134314559Y-122490502D01*
X134334221Y-122627259D01*
X134334222Y-122627262D01*
X134334222Y-122627263D01*
X134334223Y-122627265D01*
X134358524Y-122680476D01*
X134391622Y-122752951D01*
X134475319Y-122849542D01*
X134499137Y-122905901D01*
X134499500Y-122914373D01*
X134499500Y-123576126D01*
X134480593Y-123634317D01*
X134475320Y-123640957D01*
X134391621Y-123737551D01*
X134334222Y-123863237D01*
X134334221Y-123863240D01*
X134314559Y-123999997D01*
X134314559Y-124000002D01*
X134334221Y-124136759D01*
X134334222Y-124136762D01*
X134334222Y-124136763D01*
X134334223Y-124136765D01*
X134391621Y-124262449D01*
X134482104Y-124366872D01*
X134482106Y-124366873D01*
X134482108Y-124366875D01*
X134490192Y-124372070D01*
X134598341Y-124441573D01*
X134730915Y-124480500D01*
X134730916Y-124480500D01*
X134869084Y-124480500D01*
X134869085Y-124480500D01*
X135001659Y-124441573D01*
X135117896Y-124366872D01*
X135208379Y-124262449D01*
X135265777Y-124136765D01*
X135265778Y-124136759D01*
X135285441Y-124000002D01*
X135285441Y-123999997D01*
X135265778Y-123863240D01*
X135265777Y-123863237D01*
X135265777Y-123863235D01*
X135208379Y-123737551D01*
X135124680Y-123640957D01*
X135100863Y-123584597D01*
X135100500Y-123576126D01*
X135100500Y-122914373D01*
X135119407Y-122856182D01*
X135124681Y-122849542D01*
X135186628Y-122778051D01*
X135208379Y-122752949D01*
X135265777Y-122627265D01*
X135276958Y-122549500D01*
X135285441Y-122490502D01*
X135285441Y-122490497D01*
X135265778Y-122353740D01*
X135265777Y-122353737D01*
X135265777Y-122353735D01*
X135208379Y-122228051D01*
X135208377Y-122228049D01*
X135208377Y-122228048D01*
X135196491Y-122214331D01*
X135172673Y-122157972D01*
X135186532Y-122098376D01*
X135232773Y-122058309D01*
X135271310Y-122050500D01*
X138572388Y-122050500D01*
X138630579Y-122069407D01*
X138642392Y-122079496D01*
X139861592Y-123298696D01*
X139865293Y-123302837D01*
X139890121Y-123333970D01*
X139939271Y-123367480D01*
X139987118Y-123402793D01*
X139987120Y-123402793D01*
X139993677Y-123406259D01*
X139993469Y-123406651D01*
X139995450Y-123407651D01*
X139995643Y-123407253D01*
X140002324Y-123410470D01*
X140002327Y-123410472D01*
X140059177Y-123428007D01*
X140115301Y-123447646D01*
X140115305Y-123447646D01*
X140122593Y-123449026D01*
X140122510Y-123449460D01*
X140124693Y-123449830D01*
X140124759Y-123449394D01*
X140132098Y-123450500D01*
X140191573Y-123450500D01*
X140193642Y-123450577D01*
X140251010Y-123452724D01*
X140251015Y-123452722D01*
X140258385Y-123451893D01*
X140258434Y-123452331D01*
X140272344Y-123450500D01*
X143481413Y-123450500D01*
X143486959Y-123450811D01*
X143526535Y-123455270D01*
X143584979Y-123444211D01*
X143643787Y-123435348D01*
X143643794Y-123435344D01*
X143650881Y-123433159D01*
X143651012Y-123433584D01*
X143653113Y-123432892D01*
X143652967Y-123432473D01*
X143659964Y-123430024D01*
X143659972Y-123430023D01*
X143673822Y-123422702D01*
X143712572Y-123402223D01*
X143739357Y-123389323D01*
X143766142Y-123376425D01*
X143766146Y-123376421D01*
X143772278Y-123372242D01*
X143772528Y-123372609D01*
X143774332Y-123371329D01*
X143774068Y-123370971D01*
X143780029Y-123366570D01*
X143780038Y-123366566D01*
X143822099Y-123324504D01*
X143865694Y-123284055D01*
X143865698Y-123284047D01*
X143870320Y-123278253D01*
X143870666Y-123278529D01*
X143879203Y-123267399D01*
X144487250Y-122659351D01*
X144505863Y-122646433D01*
X144505201Y-122645402D01*
X144511164Y-122641570D01*
X144627396Y-122566872D01*
X144717879Y-122462449D01*
X144775277Y-122336765D01*
X144775278Y-122336759D01*
X144794941Y-122200002D01*
X144794941Y-122199997D01*
X144775278Y-122063240D01*
X144775277Y-122063237D01*
X144775277Y-122063235D01*
X144717879Y-121937551D01*
X144627396Y-121833128D01*
X144627393Y-121833126D01*
X144627391Y-121833124D01*
X144511163Y-121758429D01*
X144511160Y-121758428D01*
X144511159Y-121758427D01*
X144444872Y-121738963D01*
X144378586Y-121719500D01*
X144378585Y-121719500D01*
X144240415Y-121719500D01*
X144240413Y-121719500D01*
X144107841Y-121758427D01*
X144107836Y-121758429D01*
X143991608Y-121833124D01*
X143991603Y-121833129D01*
X143901120Y-121937551D01*
X143901119Y-121937552D01*
X143880195Y-121983371D01*
X143860146Y-122012248D01*
X143351893Y-122520503D01*
X143297376Y-122548281D01*
X143281889Y-122549500D01*
X140427612Y-122549500D01*
X140369421Y-122530593D01*
X140357608Y-122520504D01*
X139836726Y-121999622D01*
X139306606Y-121469503D01*
X139278830Y-121414987D01*
X139288401Y-121354555D01*
X139331666Y-121311290D01*
X139376611Y-121300500D01*
X142944273Y-121300500D01*
X142971364Y-121304279D01*
X142971793Y-121304401D01*
X143011615Y-121300711D01*
X143016184Y-121300500D01*
X143027844Y-121300500D01*
X143039315Y-121298355D01*
X143043819Y-121297726D01*
X143083660Y-121294035D01*
X143084054Y-121293838D01*
X143110000Y-121285141D01*
X143110433Y-121285061D01*
X143138651Y-121267588D01*
X143144434Y-121264008D01*
X143148410Y-121261792D01*
X143184228Y-121243958D01*
X143184519Y-121243638D01*
X143205576Y-121226151D01*
X143205952Y-121225919D01*
X143230049Y-121194007D01*
X143232973Y-121190487D01*
X143244911Y-121177392D01*
X143259916Y-121160933D01*
X143260076Y-121160521D01*
X143273395Y-121136609D01*
X143273656Y-121136264D01*
X143284605Y-121097778D01*
X143286043Y-121093487D01*
X143300500Y-121056173D01*
X143300500Y-121055726D01*
X143304279Y-121028635D01*
X143304401Y-121028207D01*
X143300711Y-120988384D01*
X143300500Y-120983815D01*
X143300500Y-119849000D01*
X143319407Y-119790809D01*
X143368907Y-119754845D01*
X143399500Y-119750000D01*
X147600500Y-119750000D01*
X147658691Y-119768907D01*
G37*
G04 #@! TD.AperFunction*
G04 #@! TA.AperFunction,Conductor*
G36*
X125295449Y-146226269D02*
G01*
X125338712Y-146269536D01*
X125349500Y-146314477D01*
X125349500Y-150738533D01*
X125349188Y-150744079D01*
X125345066Y-150780663D01*
X125319763Y-150836371D01*
X125266547Y-150866566D01*
X125205747Y-150859715D01*
X125176685Y-150839582D01*
X121488402Y-147151298D01*
X121484700Y-147147155D01*
X121459879Y-147116030D01*
X121410728Y-147082519D01*
X121362882Y-147047207D01*
X121362879Y-147047205D01*
X121356322Y-147043740D01*
X121356526Y-147043352D01*
X121354544Y-147042352D01*
X121354355Y-147042746D01*
X121347673Y-147039528D01*
X121290822Y-147021992D01*
X121234700Y-147002354D01*
X121227414Y-147000976D01*
X121227495Y-147000544D01*
X121225302Y-147000171D01*
X121225237Y-147000605D01*
X121217903Y-146999500D01*
X121217902Y-146999500D01*
X121158427Y-146999500D01*
X121138614Y-146998758D01*
X121098990Y-146997276D01*
X121098989Y-146997276D01*
X121098988Y-146997276D01*
X121091615Y-146998107D01*
X121091565Y-146997668D01*
X121077656Y-146999500D01*
X119443083Y-146999500D01*
X119384892Y-146980593D01*
X119348928Y-146931093D01*
X119348928Y-146869907D01*
X119384892Y-146820407D01*
X119389559Y-146817216D01*
X119432686Y-146789500D01*
X119467896Y-146766872D01*
X119495801Y-146734667D01*
X119548195Y-146703073D01*
X119570619Y-146700500D01*
X124534836Y-146700500D01*
X124548511Y-146702732D01*
X124548683Y-146701506D01*
X124557764Y-146702772D01*
X124557765Y-146702773D01*
X124557765Y-146702772D01*
X124557766Y-146702773D01*
X124566507Y-146702368D01*
X124605793Y-146700552D01*
X124608070Y-146700500D01*
X124627841Y-146700500D01*
X124627844Y-146700500D01*
X124631337Y-146699846D01*
X124638141Y-146699056D01*
X124669992Y-146697585D01*
X124678976Y-146693617D01*
X124700777Y-146686865D01*
X124710433Y-146685061D01*
X124737543Y-146668274D01*
X124743589Y-146665088D01*
X124772765Y-146652206D01*
X124779709Y-146645260D01*
X124797601Y-146631089D01*
X124805952Y-146625919D01*
X124825165Y-146600474D01*
X124829662Y-146595308D01*
X124953912Y-146471058D01*
X125116405Y-146308564D01*
X125127664Y-146300493D01*
X125126905Y-146299487D01*
X125134221Y-146293961D01*
X125134228Y-146293958D01*
X125166653Y-146258388D01*
X125168185Y-146256784D01*
X125180502Y-146244468D01*
X125235017Y-146216695D01*
X125295449Y-146226269D01*
G37*
G04 #@! TD.AperFunction*
G04 #@! TA.AperFunction,Conductor*
G36*
X123658691Y-119768907D02*
G01*
X123694655Y-119818407D01*
X123699500Y-119849000D01*
X123699500Y-120944272D01*
X123695722Y-120971361D01*
X123695599Y-120971790D01*
X123695599Y-120971793D01*
X123697136Y-120988384D01*
X123697413Y-120991366D01*
X123683955Y-121051053D01*
X123637984Y-121091430D01*
X123598835Y-121099500D01*
X120997858Y-121099500D01*
X120992312Y-121099189D01*
X120952736Y-121094730D01*
X120952732Y-121094730D01*
X120894290Y-121105788D01*
X120835485Y-121114650D01*
X120828399Y-121116837D01*
X120828269Y-121116418D01*
X120826152Y-121117115D01*
X120826297Y-121117529D01*
X120819300Y-121119976D01*
X120819299Y-121119977D01*
X120819297Y-121119977D01*
X120819297Y-121119978D01*
X120766707Y-121147773D01*
X120713128Y-121173575D01*
X120707000Y-121177754D01*
X120706753Y-121177392D01*
X120704940Y-121178678D01*
X120705201Y-121179031D01*
X120699230Y-121183437D01*
X120657184Y-121225483D01*
X120613575Y-121265945D01*
X120608952Y-121271743D01*
X120608608Y-121271469D01*
X120600066Y-121282600D01*
X120131747Y-121750919D01*
X120113136Y-121763845D01*
X120113796Y-121764871D01*
X119991608Y-121843396D01*
X119991606Y-121843397D01*
X119901120Y-121947822D01*
X119901119Y-121947822D01*
X119896810Y-121957259D01*
X119876763Y-121986131D01*
X119342393Y-122520503D01*
X119287876Y-122548281D01*
X119272389Y-122549500D01*
X111827611Y-122549500D01*
X111769420Y-122530593D01*
X111757607Y-122520504D01*
X111132016Y-121894913D01*
X111120608Y-121878832D01*
X111119648Y-121879487D01*
X111111291Y-121867228D01*
X111111656Y-121866978D01*
X111110370Y-121865167D01*
X111110015Y-121865430D01*
X111105611Y-121859462D01*
X111063549Y-121817400D01*
X111023104Y-121773810D01*
X111023102Y-121773809D01*
X111023100Y-121773806D01*
X111023096Y-121773803D01*
X111017304Y-121769185D01*
X111017578Y-121768840D01*
X111006445Y-121760296D01*
X110415152Y-121169004D01*
X110387375Y-121114487D01*
X110396946Y-121054055D01*
X110440211Y-121010790D01*
X110485156Y-121000000D01*
X111607963Y-121000000D01*
X111666154Y-121018907D01*
X111702118Y-121068407D01*
X111703443Y-121074840D01*
X111703455Y-121074837D01*
X111705965Y-121083661D01*
X111706167Y-121084066D01*
X111714855Y-121109987D01*
X111714937Y-121110428D01*
X111714940Y-121110436D01*
X111735990Y-121144433D01*
X111738213Y-121148424D01*
X111752638Y-121177392D01*
X111756042Y-121184228D01*
X111756369Y-121184526D01*
X111773842Y-121205567D01*
X111774079Y-121205950D01*
X111774081Y-121205952D01*
X111805995Y-121230052D01*
X111809509Y-121232970D01*
X111821216Y-121243642D01*
X111839067Y-121259916D01*
X111839483Y-121260077D01*
X111863377Y-121273385D01*
X111863736Y-121273656D01*
X111902200Y-121284599D01*
X111906518Y-121286046D01*
X111943827Y-121300500D01*
X111944273Y-121300500D01*
X111971364Y-121304279D01*
X111971793Y-121304401D01*
X112011615Y-121300711D01*
X112016184Y-121300500D01*
X118944273Y-121300500D01*
X118971364Y-121304279D01*
X118971793Y-121304401D01*
X119011615Y-121300711D01*
X119016184Y-121300500D01*
X119027844Y-121300500D01*
X119039315Y-121298355D01*
X119043819Y-121297726D01*
X119083660Y-121294035D01*
X119084054Y-121293838D01*
X119110000Y-121285141D01*
X119110433Y-121285061D01*
X119138651Y-121267588D01*
X119144434Y-121264008D01*
X119148410Y-121261792D01*
X119184228Y-121243958D01*
X119184519Y-121243638D01*
X119205576Y-121226151D01*
X119205952Y-121225919D01*
X119230049Y-121194007D01*
X119232973Y-121190487D01*
X119244911Y-121177392D01*
X119259916Y-121160933D01*
X119260076Y-121160521D01*
X119273395Y-121136609D01*
X119273656Y-121136264D01*
X119284605Y-121097778D01*
X119286043Y-121093487D01*
X119300500Y-121056173D01*
X119300500Y-121055726D01*
X119304279Y-121028635D01*
X119304401Y-121028207D01*
X119300711Y-120988384D01*
X119300500Y-120983815D01*
X119300500Y-119849000D01*
X119319407Y-119790809D01*
X119368907Y-119754845D01*
X119399500Y-119750000D01*
X123600500Y-119750000D01*
X123658691Y-119768907D01*
G37*
G04 #@! TD.AperFunction*
G04 #@! TA.AperFunction,Conductor*
G36*
X135658691Y-119768907D02*
G01*
X135694655Y-119818407D01*
X135699500Y-119849000D01*
X135699500Y-120944272D01*
X135695722Y-120971361D01*
X135695599Y-120971790D01*
X135695599Y-120971794D01*
X135699289Y-121011615D01*
X135699500Y-121016184D01*
X135699500Y-121027844D01*
X135699568Y-121028207D01*
X135700335Y-121032311D01*
X135692440Y-121092985D01*
X135650391Y-121137431D01*
X135603020Y-121149500D01*
X132937587Y-121149500D01*
X132932041Y-121149189D01*
X132892465Y-121144730D01*
X132892461Y-121144730D01*
X132834019Y-121155788D01*
X132775214Y-121164650D01*
X132768128Y-121166837D01*
X132767998Y-121166418D01*
X132765881Y-121167115D01*
X132766026Y-121167529D01*
X132759029Y-121169976D01*
X132759028Y-121169977D01*
X132759026Y-121169977D01*
X132759026Y-121169978D01*
X132706436Y-121197773D01*
X132652857Y-121223575D01*
X132646729Y-121227754D01*
X132646482Y-121227392D01*
X132644669Y-121228678D01*
X132644930Y-121229031D01*
X132638959Y-121233437D01*
X132596913Y-121275483D01*
X132553304Y-121315945D01*
X132548681Y-121321743D01*
X132548337Y-121321469D01*
X132539795Y-121332600D01*
X132131747Y-121740648D01*
X132113136Y-121753574D01*
X132113796Y-121754600D01*
X131991608Y-121833125D01*
X131991603Y-121833129D01*
X131901121Y-121937549D01*
X131901120Y-121937551D01*
X131888178Y-121965890D01*
X131868129Y-121994765D01*
X131342394Y-122520503D01*
X131287877Y-122548281D01*
X131272390Y-122549500D01*
X128227611Y-122549500D01*
X128169420Y-122530593D01*
X128157607Y-122520504D01*
X127106607Y-121469504D01*
X127078830Y-121414987D01*
X127088401Y-121354555D01*
X127131666Y-121311290D01*
X127176611Y-121300500D01*
X130944273Y-121300500D01*
X130971364Y-121304279D01*
X130971793Y-121304401D01*
X131011615Y-121300711D01*
X131016184Y-121300500D01*
X131027844Y-121300500D01*
X131039315Y-121298355D01*
X131043819Y-121297726D01*
X131083660Y-121294035D01*
X131084054Y-121293838D01*
X131110000Y-121285141D01*
X131110433Y-121285061D01*
X131138651Y-121267588D01*
X131144434Y-121264008D01*
X131148410Y-121261792D01*
X131184228Y-121243958D01*
X131184519Y-121243638D01*
X131205576Y-121226151D01*
X131205952Y-121225919D01*
X131230049Y-121194007D01*
X131232973Y-121190487D01*
X131244911Y-121177392D01*
X131259916Y-121160933D01*
X131260076Y-121160521D01*
X131273395Y-121136609D01*
X131273656Y-121136264D01*
X131284605Y-121097778D01*
X131286043Y-121093487D01*
X131300500Y-121056173D01*
X131300500Y-121055726D01*
X131304279Y-121028635D01*
X131304401Y-121028207D01*
X131300711Y-120988384D01*
X131300500Y-120983815D01*
X131300500Y-119849000D01*
X131319407Y-119790809D01*
X131368907Y-119754845D01*
X131399500Y-119750000D01*
X135600500Y-119750000D01*
X135658691Y-119768907D01*
G37*
G04 #@! TD.AperFunction*
G04 #@! TA.AperFunction,Conductor*
G36*
X102442104Y-109319407D02*
G01*
X102478068Y-109368907D01*
X102478068Y-109430093D01*
X102442104Y-109479593D01*
X102428859Y-109487709D01*
X102361659Y-109521949D01*
X102271949Y-109611659D01*
X102214354Y-109724695D01*
X102199500Y-109818478D01*
X102199500Y-110981521D01*
X102199501Y-110981523D01*
X102214352Y-111075299D01*
X102214354Y-111075304D01*
X102271950Y-111188342D01*
X102361658Y-111278050D01*
X102474696Y-111335646D01*
X102568481Y-111350500D01*
X102858248Y-111350499D01*
X102916437Y-111369406D01*
X102952401Y-111418906D01*
X102952402Y-111480091D01*
X102916438Y-111529591D01*
X102889387Y-111543474D01*
X102825135Y-111564765D01*
X102820919Y-111567364D01*
X105300000Y-114046447D01*
X108132634Y-116879079D01*
X108135231Y-116874872D01*
X108135236Y-116874861D01*
X108156525Y-116810614D01*
X108192775Y-116761324D01*
X108251075Y-116742755D01*
X108309155Y-116761999D01*
X108344831Y-116811707D01*
X108349500Y-116841753D01*
X108349500Y-117131520D01*
X108349501Y-117131523D01*
X108364352Y-117225299D01*
X108364354Y-117225304D01*
X108421950Y-117338342D01*
X108511658Y-117428050D01*
X108624696Y-117485646D01*
X108718481Y-117500500D01*
X109881518Y-117500499D01*
X109881521Y-117500499D01*
X109881522Y-117500498D01*
X109928411Y-117493072D01*
X109975299Y-117485647D01*
X109975299Y-117485646D01*
X109975304Y-117485646D01*
X110088342Y-117428050D01*
X110178050Y-117338342D01*
X110235646Y-117225304D01*
X110250500Y-117131519D01*
X110250499Y-116668482D01*
X110235646Y-116574696D01*
X110178050Y-116461658D01*
X110088342Y-116371950D01*
X110071185Y-116363208D01*
X110027922Y-116319945D01*
X110018351Y-116259513D01*
X110046128Y-116204997D01*
X110071182Y-116186793D01*
X110088342Y-116178050D01*
X110178050Y-116088342D01*
X110235646Y-115975304D01*
X110250500Y-115881519D01*
X110250499Y-115418482D01*
X110235646Y-115324696D01*
X110178050Y-115211658D01*
X110088342Y-115121950D01*
X110071185Y-115113208D01*
X110027922Y-115069945D01*
X110018351Y-115009513D01*
X110046128Y-114954997D01*
X110071182Y-114936793D01*
X110088342Y-114928050D01*
X110178050Y-114838342D01*
X110235646Y-114725304D01*
X110250500Y-114631519D01*
X110250499Y-114168482D01*
X110235646Y-114074696D01*
X110178050Y-113961658D01*
X110088342Y-113871950D01*
X110071185Y-113863208D01*
X110027922Y-113819945D01*
X110018351Y-113759513D01*
X110046128Y-113704997D01*
X110071182Y-113686793D01*
X110088342Y-113678050D01*
X110178050Y-113588342D01*
X110235646Y-113475304D01*
X110250500Y-113381519D01*
X110250499Y-112918482D01*
X110245863Y-112889211D01*
X110235647Y-112824700D01*
X110235646Y-112824698D01*
X110235646Y-112824696D01*
X110178050Y-112711658D01*
X110088342Y-112621950D01*
X110071185Y-112613208D01*
X110027922Y-112569945D01*
X110018351Y-112509513D01*
X110046128Y-112454997D01*
X110071182Y-112436793D01*
X110088342Y-112428050D01*
X110178050Y-112338342D01*
X110235646Y-112225304D01*
X110250500Y-112131519D01*
X110250499Y-111668482D01*
X110247828Y-111651615D01*
X110235647Y-111574700D01*
X110235646Y-111574698D01*
X110235646Y-111574696D01*
X110178050Y-111461658D01*
X110088342Y-111371950D01*
X109975304Y-111314354D01*
X109975305Y-111314354D01*
X109881522Y-111299500D01*
X108758834Y-111299500D01*
X108700643Y-111280593D01*
X108664679Y-111231093D01*
X108664317Y-111171046D01*
X108693590Y-111077107D01*
X108693591Y-111077104D01*
X108699999Y-111006581D01*
X108699999Y-109853553D01*
X107870004Y-110683549D01*
X107815487Y-110711326D01*
X107755055Y-110701755D01*
X107729996Y-110683549D01*
X107516450Y-110470003D01*
X107488673Y-110415486D01*
X107498244Y-110355054D01*
X107516450Y-110329995D01*
X108516948Y-109329496D01*
X108571465Y-109301719D01*
X108586952Y-109300500D01*
X111600500Y-109300500D01*
X111658691Y-109319407D01*
X111694655Y-109368907D01*
X111699500Y-109399500D01*
X111699500Y-119401000D01*
X111680593Y-119459191D01*
X111631093Y-119495155D01*
X111600500Y-119500000D01*
X108215105Y-119500000D01*
X108156914Y-119481093D01*
X108120950Y-119431593D01*
X108120950Y-119370407D01*
X108156914Y-119320907D01*
X108170160Y-119312791D01*
X108198570Y-119298314D01*
X108238342Y-119278050D01*
X108328050Y-119188342D01*
X108385646Y-119075304D01*
X108396926Y-119004081D01*
X108400500Y-118981521D01*
X108400500Y-118799500D01*
X108419407Y-118741309D01*
X108468907Y-118705345D01*
X108499500Y-118700500D01*
X108499706Y-118700500D01*
X108557897Y-118719407D01*
X108589758Y-118758370D01*
X108591621Y-118762449D01*
X108682104Y-118866872D01*
X108682106Y-118866873D01*
X108682108Y-118866875D01*
X108798336Y-118941570D01*
X108798341Y-118941573D01*
X108930915Y-118980500D01*
X108930916Y-118980500D01*
X109069084Y-118980500D01*
X109069085Y-118980500D01*
X109201659Y-118941573D01*
X109317896Y-118866872D01*
X109408379Y-118762449D01*
X109465777Y-118636765D01*
X109485441Y-118500000D01*
X109465777Y-118363235D01*
X109408379Y-118237551D01*
X109317896Y-118133128D01*
X109317893Y-118133126D01*
X109317891Y-118133124D01*
X109201663Y-118058429D01*
X109201660Y-118058428D01*
X109201659Y-118058427D01*
X109135372Y-118038963D01*
X109069086Y-118019500D01*
X109069085Y-118019500D01*
X108930915Y-118019500D01*
X108930913Y-118019500D01*
X108798341Y-118058427D01*
X108798336Y-118058429D01*
X108758884Y-118083784D01*
X108705361Y-118099500D01*
X108499499Y-118099500D01*
X108441308Y-118080593D01*
X108405344Y-118031093D01*
X108400499Y-118000500D01*
X108400499Y-117818478D01*
X108400498Y-117818476D01*
X108385647Y-117724700D01*
X108385646Y-117724698D01*
X108385646Y-117724696D01*
X108328050Y-117611658D01*
X108238342Y-117521950D01*
X108125304Y-117464354D01*
X108125305Y-117464354D01*
X108031522Y-117449500D01*
X107741752Y-117449500D01*
X107683561Y-117430593D01*
X107647597Y-117381093D01*
X107647597Y-117319907D01*
X107683561Y-117270407D01*
X107710614Y-117256524D01*
X107774866Y-117235234D01*
X107774872Y-117235231D01*
X107779079Y-117232634D01*
X105299999Y-114753554D01*
X102820919Y-117232634D01*
X102825130Y-117235232D01*
X102889388Y-117256525D01*
X102938678Y-117292776D01*
X102957246Y-117351076D01*
X102938001Y-117409155D01*
X102888293Y-117444831D01*
X102858248Y-117449500D01*
X102568479Y-117449500D01*
X102568476Y-117449501D01*
X102474700Y-117464352D01*
X102474695Y-117464354D01*
X102361659Y-117521949D01*
X102271949Y-117611659D01*
X102214354Y-117724695D01*
X102199500Y-117818478D01*
X102199500Y-118000500D01*
X102180593Y-118058691D01*
X102131093Y-118094655D01*
X102100500Y-118099500D01*
X101794639Y-118099500D01*
X101741116Y-118083784D01*
X101701663Y-118058429D01*
X101701660Y-118058428D01*
X101701659Y-118058427D01*
X101635372Y-118038963D01*
X101569086Y-118019500D01*
X101569085Y-118019500D01*
X101430915Y-118019500D01*
X101430913Y-118019500D01*
X101298341Y-118058427D01*
X101298336Y-118058429D01*
X101182108Y-118133124D01*
X101182103Y-118133129D01*
X101091622Y-118237549D01*
X101034222Y-118363237D01*
X101034221Y-118363240D01*
X101014559Y-118499997D01*
X101014559Y-118500002D01*
X101034221Y-118636759D01*
X101034222Y-118636762D01*
X101034222Y-118636763D01*
X101034223Y-118636765D01*
X101091621Y-118762449D01*
X101182104Y-118866872D01*
X101182106Y-118866873D01*
X101182108Y-118866875D01*
X101298336Y-118941570D01*
X101298341Y-118941573D01*
X101430915Y-118980500D01*
X101430916Y-118980500D01*
X101569084Y-118980500D01*
X101569085Y-118980500D01*
X101701659Y-118941573D01*
X101817896Y-118866872D01*
X101908379Y-118762449D01*
X101910242Y-118758370D01*
X101951616Y-118713294D01*
X102000294Y-118700500D01*
X102100501Y-118700500D01*
X102158692Y-118719407D01*
X102194656Y-118768907D01*
X102199501Y-118799500D01*
X102199501Y-118981523D01*
X102214352Y-119075299D01*
X102214354Y-119075304D01*
X102271950Y-119188342D01*
X102361658Y-119278050D01*
X102361660Y-119278051D01*
X102429840Y-119312791D01*
X102473105Y-119356055D01*
X102482676Y-119416487D01*
X102454898Y-119471004D01*
X102400382Y-119498781D01*
X102384895Y-119500000D01*
X99399500Y-119500000D01*
X99341309Y-119481093D01*
X99305345Y-119431593D01*
X99300500Y-119401000D01*
X99300500Y-117131520D01*
X100349500Y-117131520D01*
X100349501Y-117131523D01*
X100364352Y-117225299D01*
X100364354Y-117225304D01*
X100421950Y-117338342D01*
X100511658Y-117428050D01*
X100624696Y-117485646D01*
X100718481Y-117500500D01*
X101881518Y-117500499D01*
X101881521Y-117500499D01*
X101881522Y-117500498D01*
X101928411Y-117493072D01*
X101975299Y-117485647D01*
X101975299Y-117485646D01*
X101975304Y-117485646D01*
X102088342Y-117428050D01*
X102178050Y-117338342D01*
X102235646Y-117225304D01*
X102250500Y-117131519D01*
X102250499Y-116841750D01*
X102269406Y-116783562D01*
X102318906Y-116747598D01*
X102380091Y-116747597D01*
X102429591Y-116783561D01*
X102443474Y-116810612D01*
X102464764Y-116874863D01*
X102467365Y-116879079D01*
X104946444Y-114399999D01*
X102467364Y-111920919D01*
X102464765Y-111925134D01*
X102443474Y-111989387D01*
X102407222Y-112038676D01*
X102348922Y-112057244D01*
X102290843Y-112037998D01*
X102255168Y-111988290D01*
X102250499Y-111958250D01*
X102250499Y-111668482D01*
X102247828Y-111651615D01*
X102235647Y-111574700D01*
X102235646Y-111574698D01*
X102235646Y-111574696D01*
X102178050Y-111461658D01*
X102088342Y-111371950D01*
X101975304Y-111314354D01*
X101975305Y-111314354D01*
X101881521Y-111299500D01*
X100718478Y-111299500D01*
X100718476Y-111299501D01*
X100624700Y-111314352D01*
X100624695Y-111314354D01*
X100511659Y-111371949D01*
X100421949Y-111461659D01*
X100364354Y-111574695D01*
X100349500Y-111668477D01*
X100349500Y-112131520D01*
X100349501Y-112131523D01*
X100364352Y-112225299D01*
X100364354Y-112225304D01*
X100421950Y-112338342D01*
X100511658Y-112428050D01*
X100527249Y-112435994D01*
X100528813Y-112436791D01*
X100572077Y-112480056D01*
X100581648Y-112540489D01*
X100553869Y-112595005D01*
X100528813Y-112613209D01*
X100511659Y-112621949D01*
X100421949Y-112711659D01*
X100364354Y-112824695D01*
X100349500Y-112918477D01*
X100349500Y-113381520D01*
X100349501Y-113381523D01*
X100364352Y-113475299D01*
X100364354Y-113475304D01*
X100421950Y-113588342D01*
X100511658Y-113678050D01*
X100527249Y-113685994D01*
X100528813Y-113686791D01*
X100572077Y-113730056D01*
X100581648Y-113790489D01*
X100553869Y-113845005D01*
X100528813Y-113863209D01*
X100511659Y-113871949D01*
X100421949Y-113961659D01*
X100364354Y-114074695D01*
X100349500Y-114168477D01*
X100349500Y-114631520D01*
X100349501Y-114631523D01*
X100364352Y-114725299D01*
X100364354Y-114725304D01*
X100421950Y-114838342D01*
X100511658Y-114928050D01*
X100527249Y-114935994D01*
X100528813Y-114936791D01*
X100572077Y-114980056D01*
X100581648Y-115040489D01*
X100553869Y-115095005D01*
X100528813Y-115113209D01*
X100511659Y-115121949D01*
X100421949Y-115211659D01*
X100364354Y-115324695D01*
X100349500Y-115418477D01*
X100349500Y-115881520D01*
X100349501Y-115881523D01*
X100364352Y-115975299D01*
X100364354Y-115975304D01*
X100421950Y-116088342D01*
X100511658Y-116178050D01*
X100527249Y-116185994D01*
X100528813Y-116186791D01*
X100572077Y-116230056D01*
X100581648Y-116290489D01*
X100553869Y-116345005D01*
X100528813Y-116363209D01*
X100511659Y-116371949D01*
X100421949Y-116461659D01*
X100364354Y-116574695D01*
X100349500Y-116668477D01*
X100349500Y-117131520D01*
X99300500Y-117131520D01*
X99300500Y-109399500D01*
X99319407Y-109341309D01*
X99368907Y-109305345D01*
X99399500Y-109300500D01*
X102383913Y-109300500D01*
X102442104Y-109319407D01*
G37*
G04 #@! TD.AperFunction*
G04 #@! TA.AperFunction,Conductor*
G36*
X123011866Y-112699253D02*
G01*
X123045239Y-112724328D01*
X123072831Y-112756171D01*
X123082105Y-112766873D01*
X123198336Y-112841570D01*
X123198341Y-112841573D01*
X123330915Y-112880500D01*
X123330916Y-112880500D01*
X123469084Y-112880500D01*
X123469085Y-112880500D01*
X123572611Y-112850102D01*
X123633768Y-112851849D01*
X123682221Y-112889211D01*
X123699500Y-112945092D01*
X123699500Y-114901000D01*
X123680593Y-114959191D01*
X123631093Y-114995155D01*
X123600500Y-115000000D01*
X119399500Y-115000000D01*
X119341309Y-114981093D01*
X119305345Y-114931593D01*
X119300500Y-114901000D01*
X119300500Y-113071091D01*
X119319407Y-113012900D01*
X119368907Y-112976936D01*
X119430093Y-112976936D01*
X119466676Y-113000534D01*
X119466760Y-113000423D01*
X119468260Y-113001556D01*
X119472663Y-113004396D01*
X119474081Y-113005952D01*
X119499511Y-113025156D01*
X119504690Y-113029662D01*
X119891436Y-113416407D01*
X119899537Y-113427647D01*
X119900516Y-113426909D01*
X119906044Y-113434230D01*
X119941569Y-113466616D01*
X119943223Y-113468195D01*
X119950328Y-113475299D01*
X119957203Y-113482174D01*
X119960128Y-113484178D01*
X119965505Y-113488437D01*
X119989064Y-113509914D01*
X119989065Y-113509914D01*
X119989067Y-113509916D01*
X119998230Y-113513466D01*
X120018416Y-113524105D01*
X120026519Y-113529656D01*
X120057553Y-113536955D01*
X120064090Y-113538979D01*
X120093827Y-113550500D01*
X120103652Y-113550500D01*
X120126316Y-113553129D01*
X120135881Y-113555379D01*
X120160494Y-113551945D01*
X120167453Y-113550975D01*
X120174299Y-113550500D01*
X120569881Y-113550500D01*
X120628072Y-113569407D01*
X120644695Y-113584663D01*
X120672602Y-113616870D01*
X120672605Y-113616873D01*
X120781400Y-113686791D01*
X120788841Y-113691573D01*
X120921415Y-113730500D01*
X120921416Y-113730500D01*
X121059584Y-113730500D01*
X121059585Y-113730500D01*
X121192159Y-113691573D01*
X121308396Y-113616872D01*
X121398879Y-113512449D01*
X121456277Y-113386765D01*
X121457031Y-113381519D01*
X121475941Y-113250002D01*
X121475941Y-113249997D01*
X121456278Y-113113240D01*
X121456276Y-113113231D01*
X121400055Y-112990126D01*
X121393080Y-112929340D01*
X121423166Y-112876063D01*
X121478823Y-112850645D01*
X121490108Y-112850000D01*
X122063108Y-112850000D01*
X122098545Y-112847211D01*
X122098552Y-112847209D01*
X122250189Y-112803154D01*
X122386114Y-112722769D01*
X122388041Y-112721275D01*
X122389575Y-112720722D01*
X122391472Y-112719601D01*
X122391685Y-112719962D01*
X122445609Y-112700549D01*
X122448719Y-112700500D01*
X122908687Y-112700500D01*
X122908688Y-112700500D01*
X122914957Y-112699253D01*
X122951105Y-112692063D01*
X123011866Y-112699253D01*
G37*
G04 #@! TD.AperFunction*
G04 #@! TA.AperFunction,Conductor*
G36*
X133265108Y-109319407D02*
G01*
X133301072Y-109368907D01*
X133301072Y-109430093D01*
X133265108Y-109479593D01*
X133260441Y-109482784D01*
X133182105Y-109533127D01*
X133182103Y-109533129D01*
X133091622Y-109637549D01*
X133091621Y-109637550D01*
X133091621Y-109637551D01*
X133070807Y-109683127D01*
X133034222Y-109763237D01*
X133034221Y-109763240D01*
X133014559Y-109899997D01*
X133014559Y-109900002D01*
X133021663Y-109949411D01*
X133011230Y-110009700D01*
X132967352Y-110052342D01*
X132923671Y-110062500D01*
X132838501Y-110062500D01*
X132753335Y-110072728D01*
X132617800Y-110126175D01*
X132617798Y-110126176D01*
X132615244Y-110128112D01*
X133120504Y-110633372D01*
X133148281Y-110687889D01*
X133149500Y-110703376D01*
X133149500Y-110845968D01*
X133130593Y-110904159D01*
X133081093Y-110940123D01*
X133019907Y-110940123D01*
X132995494Y-110928280D01*
X132990501Y-110924944D01*
X132975504Y-110912636D01*
X132407874Y-110345006D01*
X132360228Y-110465834D01*
X132350000Y-110551001D01*
X132350000Y-110722455D01*
X132331093Y-110780646D01*
X132281593Y-110816610D01*
X132220407Y-110816610D01*
X132208322Y-110810881D01*
X132208100Y-110811369D01*
X132201661Y-110808428D01*
X132201659Y-110808427D01*
X132107045Y-110780646D01*
X132069086Y-110769500D01*
X132069085Y-110769500D01*
X131930915Y-110769500D01*
X131930913Y-110769500D01*
X131798341Y-110808427D01*
X131798336Y-110808429D01*
X131682108Y-110883124D01*
X131682103Y-110883129D01*
X131591622Y-110987549D01*
X131591621Y-110987550D01*
X131591621Y-110987551D01*
X131584962Y-111002132D01*
X131534222Y-111113237D01*
X131534221Y-111113240D01*
X131514559Y-111249997D01*
X131514559Y-111250002D01*
X131534221Y-111386759D01*
X131534222Y-111386762D01*
X131534222Y-111386763D01*
X131534223Y-111386765D01*
X131591621Y-111512449D01*
X131682104Y-111616872D01*
X131682106Y-111616873D01*
X131682108Y-111616875D01*
X131798336Y-111691570D01*
X131798341Y-111691573D01*
X131930915Y-111730500D01*
X131930916Y-111730500D01*
X132069084Y-111730500D01*
X132069085Y-111730500D01*
X132201659Y-111691573D01*
X132234478Y-111670481D01*
X132293651Y-111654927D01*
X132350668Y-111677125D01*
X132383747Y-111728598D01*
X132387000Y-111753765D01*
X132387000Y-111892699D01*
X132387001Y-111892707D01*
X132400373Y-111959937D01*
X132433468Y-112009465D01*
X132447343Y-112048593D01*
X132448660Y-112048347D01*
X132450152Y-112056332D01*
X132450943Y-112063149D01*
X132452414Y-112094987D01*
X132452415Y-112094994D01*
X132456384Y-112103982D01*
X132463133Y-112125773D01*
X132464939Y-112135433D01*
X132481717Y-112162533D01*
X132484915Y-112168600D01*
X132485050Y-112168905D01*
X132497794Y-112197765D01*
X132504745Y-112204716D01*
X132518907Y-112222596D01*
X132520581Y-112225299D01*
X132524081Y-112230952D01*
X132549511Y-112250156D01*
X132554690Y-112254662D01*
X132620504Y-112320475D01*
X132648281Y-112374992D01*
X132649500Y-112390477D01*
X132649500Y-112430198D01*
X132649501Y-112430206D01*
X132662873Y-112497435D01*
X132662873Y-112497436D01*
X132662874Y-112497437D01*
X132682815Y-112527281D01*
X132699500Y-112582282D01*
X132699500Y-112734835D01*
X132697280Y-112748513D01*
X132698494Y-112748683D01*
X132697226Y-112757766D01*
X132699447Y-112805783D01*
X132699500Y-112808069D01*
X132699500Y-112827842D01*
X132700152Y-112831332D01*
X132700943Y-112838149D01*
X132702414Y-112869987D01*
X132702415Y-112869994D01*
X132706384Y-112878982D01*
X132713133Y-112900773D01*
X132714939Y-112910433D01*
X132731717Y-112937533D01*
X132734915Y-112943600D01*
X132743586Y-112963235D01*
X132747794Y-112972765D01*
X132754745Y-112979716D01*
X132768907Y-112997596D01*
X132771359Y-113001556D01*
X132774081Y-113005952D01*
X132776138Y-113007505D01*
X132778242Y-113010516D01*
X132780261Y-113012731D01*
X132779972Y-113012993D01*
X132811183Y-113057661D01*
X132813885Y-113092920D01*
X132814559Y-113092920D01*
X132814559Y-113100002D01*
X132834221Y-113236759D01*
X132834222Y-113236762D01*
X132834222Y-113236763D01*
X132834223Y-113236765D01*
X132891621Y-113362449D01*
X132982104Y-113466872D01*
X132982106Y-113466873D01*
X132982108Y-113466875D01*
X133094312Y-113538984D01*
X133098341Y-113541573D01*
X133230915Y-113580500D01*
X133230916Y-113580500D01*
X133369084Y-113580500D01*
X133369085Y-113580500D01*
X133501659Y-113541573D01*
X133617896Y-113466872D01*
X133708379Y-113362449D01*
X133765777Y-113236765D01*
X133778253Y-113149995D01*
X133785441Y-113100002D01*
X133785441Y-113099997D01*
X133778337Y-113050589D01*
X133788770Y-112990300D01*
X133832648Y-112947658D01*
X133876329Y-112937500D01*
X133950367Y-112937500D01*
X133379495Y-112366627D01*
X133351718Y-112312110D01*
X133350499Y-112296630D01*
X133350499Y-112253373D01*
X133369406Y-112195184D01*
X133379495Y-112183371D01*
X133429995Y-112132871D01*
X133484512Y-112105094D01*
X133544944Y-112114665D01*
X133570003Y-112132871D01*
X134161004Y-112723872D01*
X134188781Y-112778389D01*
X134190000Y-112793876D01*
X134190000Y-112934075D01*
X134246663Y-112927271D01*
X134382200Y-112873823D01*
X134384754Y-112871886D01*
X133338996Y-111826128D01*
X133311219Y-111771611D01*
X133310000Y-111756124D01*
X133310000Y-111615923D01*
X133253332Y-111622728D01*
X133236336Y-111629430D01*
X133175266Y-111633186D01*
X133123652Y-111600328D01*
X133102924Y-111556643D01*
X133099626Y-111540065D01*
X133099626Y-111540063D01*
X133099623Y-111540059D01*
X133098724Y-111537886D01*
X133098416Y-111533980D01*
X133097724Y-111530498D01*
X133098136Y-111530416D01*
X133093923Y-111476889D01*
X133098725Y-111462110D01*
X133099623Y-111459940D01*
X133099626Y-111459937D01*
X133099626Y-111459933D01*
X133103358Y-111450926D01*
X133105545Y-111451832D01*
X133128757Y-111410378D01*
X133184159Y-111384778D01*
X133246664Y-111377271D01*
X133310000Y-111352295D01*
X133310000Y-111247132D01*
X133302464Y-111228939D01*
X133305029Y-111227876D01*
X133292093Y-111202486D01*
X133301664Y-111142054D01*
X133344929Y-111098789D01*
X133389870Y-111087999D01*
X133610125Y-111087999D01*
X133668316Y-111106906D01*
X133704280Y-111156406D01*
X133704280Y-111217592D01*
X133697369Y-111228870D01*
X133697536Y-111228939D01*
X133690000Y-111247132D01*
X133690000Y-111352295D01*
X133753335Y-111377271D01*
X133815840Y-111384778D01*
X133871361Y-111410489D01*
X133894469Y-111451833D01*
X133896644Y-111450933D01*
X133901277Y-111462120D01*
X133901583Y-111466016D01*
X133902276Y-111469498D01*
X133901863Y-111469580D01*
X133906074Y-111523117D01*
X133901279Y-111537876D01*
X133896647Y-111549062D01*
X133894463Y-111548157D01*
X133871225Y-111589637D01*
X133815842Y-111615221D01*
X133761806Y-111621711D01*
X133738196Y-111621711D01*
X133661498Y-111612500D01*
X133549632Y-111612500D01*
X133900136Y-111963005D01*
X133912447Y-111978006D01*
X133951316Y-112036177D01*
X133951319Y-112036181D01*
X134027563Y-112087126D01*
X134094797Y-112100500D01*
X134147625Y-112100499D01*
X134205814Y-112119405D01*
X134241779Y-112168905D01*
X134241780Y-112230090D01*
X134217630Y-112269502D01*
X134212132Y-112274999D01*
X134592123Y-112654990D01*
X134639772Y-112534163D01*
X134649999Y-112448998D01*
X134650000Y-112448992D01*
X134650000Y-112101007D01*
X134649999Y-112101001D01*
X134639771Y-112015835D01*
X134616374Y-111956502D01*
X134611376Y-111900865D01*
X134613000Y-111892703D01*
X134612999Y-111607298D01*
X134599626Y-111540063D01*
X134599623Y-111540059D01*
X134598724Y-111537886D01*
X134598416Y-111533981D01*
X134597724Y-111530499D01*
X134598136Y-111530417D01*
X134593923Y-111476889D01*
X134598725Y-111462110D01*
X134599622Y-111459942D01*
X134599626Y-111459937D01*
X134613000Y-111392703D01*
X134612999Y-111107298D01*
X134612998Y-111107296D01*
X134612998Y-111107290D01*
X134611375Y-111099131D01*
X134616375Y-111043496D01*
X134639771Y-110984166D01*
X134649999Y-110898998D01*
X134650000Y-110898992D01*
X134650000Y-110551007D01*
X134649999Y-110551001D01*
X134639771Y-110465835D01*
X134592123Y-110345007D01*
X134212132Y-110724999D01*
X134217629Y-110730496D01*
X134245406Y-110785013D01*
X134235835Y-110845445D01*
X134192570Y-110888710D01*
X134147627Y-110899500D01*
X134094801Y-110899500D01*
X134094793Y-110899501D01*
X134027563Y-110912873D01*
X134027559Y-110912875D01*
X134004498Y-110928284D01*
X133945610Y-110944891D01*
X133888207Y-110923712D01*
X133854215Y-110872837D01*
X133850499Y-110845973D01*
X133850499Y-110703373D01*
X133869406Y-110645184D01*
X133879496Y-110633371D01*
X134000000Y-110512868D01*
X134384754Y-110128112D01*
X134384754Y-110128111D01*
X134382202Y-110126177D01*
X134382199Y-110126175D01*
X134246664Y-110072728D01*
X134161498Y-110062500D01*
X134076329Y-110062500D01*
X134018138Y-110043593D01*
X133982174Y-109994093D01*
X133978337Y-109949411D01*
X133985441Y-109900002D01*
X133985441Y-109899997D01*
X133965778Y-109763240D01*
X133965777Y-109763237D01*
X133965777Y-109763235D01*
X133908379Y-109637551D01*
X133817896Y-109533128D01*
X133739558Y-109482783D01*
X133700828Y-109435418D01*
X133697335Y-109374332D01*
X133730415Y-109322860D01*
X133787431Y-109300661D01*
X133793083Y-109300500D01*
X135600500Y-109300500D01*
X135658691Y-109319407D01*
X135694655Y-109368907D01*
X135699500Y-109399500D01*
X135699500Y-114901000D01*
X135680593Y-114959191D01*
X135631093Y-114995155D01*
X135600500Y-115000000D01*
X131399500Y-115000000D01*
X131341309Y-114981093D01*
X131305345Y-114931593D01*
X131300500Y-114901000D01*
X131300500Y-109399500D01*
X131319407Y-109341309D01*
X131368907Y-109305345D01*
X131399500Y-109300500D01*
X133206917Y-109300500D01*
X133265108Y-109319407D01*
G37*
G04 #@! TD.AperFunction*
G04 #@! TA.AperFunction,Conductor*
G36*
X147658691Y-109319407D02*
G01*
X147694655Y-109368907D01*
X147699500Y-109399500D01*
X147699500Y-114901000D01*
X147680593Y-114959191D01*
X147631093Y-114995155D01*
X147600500Y-115000000D01*
X143399500Y-115000000D01*
X143341309Y-114981093D01*
X143305345Y-114931593D01*
X143300500Y-114901000D01*
X143300500Y-112833779D01*
X144678352Y-112833779D01*
X144735018Y-112877261D01*
X144735022Y-112877263D01*
X144874890Y-112935198D01*
X144874898Y-112935200D01*
X144893872Y-112937698D01*
X144949098Y-112964037D01*
X144978294Y-113017808D01*
X144978944Y-113049939D01*
X144964559Y-113149995D01*
X144964559Y-113150002D01*
X144984221Y-113286759D01*
X144984222Y-113286762D01*
X144984222Y-113286763D01*
X144984223Y-113286765D01*
X145041621Y-113412449D01*
X145132104Y-113516872D01*
X145132106Y-113516873D01*
X145132108Y-113516875D01*
X145231111Y-113580500D01*
X145248341Y-113591573D01*
X145380915Y-113630500D01*
X145380916Y-113630500D01*
X145519084Y-113630500D01*
X145519085Y-113630500D01*
X145651659Y-113591573D01*
X145767896Y-113516872D01*
X145858379Y-113412449D01*
X145915777Y-113286765D01*
X145935441Y-113150000D01*
X145934892Y-113146184D01*
X145935441Y-113143012D01*
X145935441Y-113142919D01*
X145935457Y-113142919D01*
X145945323Y-113085897D01*
X145962877Y-113062092D01*
X146066405Y-112958564D01*
X146077664Y-112950493D01*
X146076905Y-112949487D01*
X146084221Y-112943961D01*
X146084228Y-112943958D01*
X146116632Y-112908411D01*
X146118186Y-112906783D01*
X146132174Y-112892797D01*
X146134181Y-112889865D01*
X146138440Y-112884490D01*
X146139682Y-112883128D01*
X146159916Y-112860933D01*
X146163465Y-112851770D01*
X146174106Y-112831582D01*
X146179656Y-112823481D01*
X146186955Y-112792443D01*
X146188977Y-112785914D01*
X146200500Y-112756173D01*
X146200500Y-112746348D01*
X146203129Y-112723683D01*
X146205379Y-112714119D01*
X146200975Y-112682546D01*
X146200500Y-112675699D01*
X146200500Y-112563432D01*
X146217184Y-112508432D01*
X146234515Y-112482495D01*
X146250500Y-112402133D01*
X146250499Y-111997868D01*
X146234515Y-111917505D01*
X146231808Y-111913454D01*
X146173626Y-111826379D01*
X146173625Y-111826378D01*
X146173624Y-111826376D01*
X146142567Y-111805624D01*
X146082497Y-111765486D01*
X146082496Y-111765485D01*
X146082495Y-111765485D01*
X146002133Y-111749500D01*
X146002132Y-111749500D01*
X145797870Y-111749500D01*
X145797862Y-111749501D01*
X145717505Y-111765484D01*
X145717503Y-111765485D01*
X145626379Y-111826373D01*
X145626374Y-111826378D01*
X145565484Y-111917505D01*
X145565484Y-111917506D01*
X145564107Y-111924430D01*
X145537014Y-111975116D01*
X145100000Y-112412131D01*
X144678352Y-112833779D01*
X143300500Y-112833779D01*
X143300500Y-112412690D01*
X144450000Y-112412690D01*
X144464799Y-112525104D01*
X144464800Y-112525105D01*
X144493491Y-112594374D01*
X144493492Y-112594374D01*
X144887868Y-112199999D01*
X144493492Y-111805623D01*
X144493492Y-111805624D01*
X144464799Y-111874897D01*
X144450000Y-111987309D01*
X144450000Y-112412690D01*
X143300500Y-112412690D01*
X143300500Y-111566218D01*
X144678352Y-111566218D01*
X145100000Y-111987866D01*
X145521647Y-111566219D01*
X145464977Y-111522736D01*
X145325109Y-111464801D01*
X145325101Y-111464799D01*
X145212690Y-111450000D01*
X144987309Y-111450000D01*
X144874898Y-111464799D01*
X144874890Y-111464801D01*
X144735017Y-111522738D01*
X144678352Y-111566218D01*
X143300500Y-111566218D01*
X143300500Y-110050002D01*
X144614559Y-110050002D01*
X144634221Y-110186759D01*
X144634222Y-110186762D01*
X144634222Y-110186763D01*
X144634223Y-110186765D01*
X144688942Y-110306583D01*
X144691622Y-110312451D01*
X144761244Y-110392799D01*
X144785062Y-110449158D01*
X144771203Y-110508754D01*
X144768742Y-110512629D01*
X144765487Y-110517499D01*
X144765485Y-110517503D01*
X144765485Y-110517505D01*
X144755083Y-110569798D01*
X144749500Y-110597867D01*
X144749500Y-111002129D01*
X144749501Y-111002136D01*
X144765484Y-111082494D01*
X144765485Y-111082496D01*
X144825196Y-111171858D01*
X144826376Y-111173624D01*
X144917505Y-111234515D01*
X144997867Y-111250500D01*
X145202132Y-111250499D01*
X145282495Y-111234515D01*
X145373624Y-111173624D01*
X145417685Y-111107683D01*
X145465735Y-111069804D01*
X145526873Y-111067402D01*
X145577747Y-111101395D01*
X145582315Y-111107683D01*
X145624747Y-111171187D01*
X145626376Y-111173624D01*
X145717505Y-111234515D01*
X145797867Y-111250500D01*
X146002132Y-111250499D01*
X146082495Y-111234515D01*
X146173624Y-111173624D01*
X146234515Y-111082495D01*
X146250500Y-111002133D01*
X146250499Y-110597868D01*
X146234515Y-110517505D01*
X146231260Y-110512633D01*
X146214650Y-110453745D01*
X146235826Y-110396341D01*
X146238729Y-110392828D01*
X146308379Y-110312449D01*
X146365777Y-110186765D01*
X146367881Y-110172133D01*
X146385441Y-110050002D01*
X146385441Y-110049997D01*
X146365778Y-109913240D01*
X146365777Y-109913237D01*
X146365777Y-109913235D01*
X146308379Y-109787551D01*
X146217896Y-109683128D01*
X146217893Y-109683126D01*
X146217891Y-109683124D01*
X146101663Y-109608429D01*
X146101660Y-109608428D01*
X146101659Y-109608427D01*
X146035372Y-109588963D01*
X145969086Y-109569500D01*
X145969085Y-109569500D01*
X145830915Y-109569500D01*
X145830913Y-109569500D01*
X145698341Y-109608427D01*
X145698336Y-109608429D01*
X145582108Y-109683124D01*
X145582105Y-109683127D01*
X145574818Y-109691537D01*
X145522421Y-109723132D01*
X145461460Y-109717894D01*
X145425182Y-109691537D01*
X145417896Y-109683128D01*
X145417893Y-109683126D01*
X145417891Y-109683124D01*
X145301663Y-109608429D01*
X145301660Y-109608428D01*
X145301659Y-109608427D01*
X145235372Y-109588963D01*
X145169086Y-109569500D01*
X145169085Y-109569500D01*
X145030915Y-109569500D01*
X145030913Y-109569500D01*
X144898341Y-109608427D01*
X144898336Y-109608429D01*
X144782108Y-109683124D01*
X144782103Y-109683129D01*
X144691622Y-109787549D01*
X144634222Y-109913237D01*
X144634221Y-109913240D01*
X144614559Y-110049997D01*
X144614559Y-110050002D01*
X143300500Y-110050002D01*
X143300500Y-109399500D01*
X143319407Y-109341309D01*
X143368907Y-109305345D01*
X143399500Y-109300500D01*
X147600500Y-109300500D01*
X147658691Y-109319407D01*
G37*
G04 #@! TD.AperFunction*
G04 #@! TA.AperFunction,Conductor*
G36*
X123658691Y-109319407D02*
G01*
X123694655Y-109368907D01*
X123699500Y-109399500D01*
X123699500Y-110104907D01*
X123680593Y-110163098D01*
X123631093Y-110199062D01*
X123572608Y-110199897D01*
X123569764Y-110199062D01*
X123527885Y-110186765D01*
X123469086Y-110169500D01*
X123469085Y-110169500D01*
X123330915Y-110169500D01*
X123330913Y-110169500D01*
X123198341Y-110208427D01*
X123198336Y-110208429D01*
X123082103Y-110283127D01*
X123076752Y-110287765D01*
X123075922Y-110286807D01*
X123029784Y-110314621D01*
X122988060Y-110315289D01*
X122978840Y-110313455D01*
X122978839Y-110313454D01*
X122908688Y-110299500D01*
X122448719Y-110299500D01*
X122390528Y-110280593D01*
X122388041Y-110278725D01*
X122386114Y-110277230D01*
X122250189Y-110196845D01*
X122098552Y-110152790D01*
X122098545Y-110152788D01*
X122063108Y-110150000D01*
X120936892Y-110150000D01*
X120901454Y-110152788D01*
X120901447Y-110152790D01*
X120749810Y-110196845D01*
X120613885Y-110277230D01*
X120611959Y-110278725D01*
X120610424Y-110279277D01*
X120608528Y-110280399D01*
X120608314Y-110280037D01*
X120554391Y-110299451D01*
X120551281Y-110299500D01*
X120091309Y-110299500D01*
X120021160Y-110313453D01*
X120018000Y-110314763D01*
X120012339Y-110315208D01*
X120011598Y-110315356D01*
X120011580Y-110315268D01*
X119957003Y-110319564D01*
X119926593Y-110306584D01*
X119851659Y-110258427D01*
X119818692Y-110248747D01*
X119719086Y-110219500D01*
X119719085Y-110219500D01*
X119580915Y-110219500D01*
X119580913Y-110219500D01*
X119448341Y-110258427D01*
X119441900Y-110261369D01*
X119440668Y-110258672D01*
X119393807Y-110270969D01*
X119336800Y-110248747D01*
X119303742Y-110197261D01*
X119300500Y-110172133D01*
X119300500Y-109399500D01*
X119319407Y-109341309D01*
X119368907Y-109305345D01*
X119399500Y-109300500D01*
X123600500Y-109300500D01*
X123658691Y-109319407D01*
G37*
G04 #@! TD.AperFunction*
M02*
