%TF.GenerationSoftware,KiCad,Pcbnew,7.0.9*%
%TF.CreationDate,2023-12-09T12:27:37+01:00*%
%TF.ProjectId,AirMonitor,4169724d-6f6e-4697-946f-722e6b696361,1.0.0*%
%TF.SameCoordinates,Original*%
%TF.FileFunction,Drillmap*%
%TF.FilePolarity,Positive*%
%FSLAX45Y45*%
G04 Gerber Fmt 4.5, Leading zero omitted, Abs format (unit mm)*
G04 Created by KiCad (PCBNEW 7.0.9) date 2023-12-09 12:27:37*
%MOMM*%
%LPD*%
G01*
G04 APERTURE LIST*
%ADD10C,0.100000*%
%ADD11C,0.200000*%
G04 APERTURE END LIST*
D10*
X13100000Y-11400000D02*
X13100000Y-12100000D01*
X11200000Y-12100000D02*
X11200000Y-10900000D01*
X11900000Y-10900000D02*
X11900000Y-11400000D01*
X14300000Y-11400000D02*
X14300000Y-12100000D01*
X13100000Y-12100000D02*
X12400000Y-12100000D01*
X14800000Y-15940000D02*
X14800000Y-12100000D01*
X13600000Y-10900000D02*
X13100000Y-10900000D01*
X13100000Y-10900000D02*
X13100000Y-11400000D01*
X11200000Y-10900000D02*
X9900000Y-10900000D01*
X9900000Y-10900000D02*
X9900000Y-12000000D01*
X12400000Y-10900000D02*
X11900000Y-10900000D01*
X13600000Y-11400000D02*
X13600000Y-10900000D01*
X14800000Y-11400000D02*
X14800000Y-10900000D01*
X14800000Y-10900000D02*
X14300000Y-10900000D01*
X14300000Y-12100000D02*
X13600000Y-12100000D01*
X11900000Y-12100000D02*
X11200000Y-12100000D01*
X9900000Y-15940000D02*
X14800000Y-15940000D01*
X12400000Y-12100000D02*
X12400000Y-11400000D01*
X11900000Y-11400000D02*
X11900000Y-12100000D01*
X14300000Y-10900000D02*
X14300000Y-11400000D01*
X13600000Y-12100000D02*
X13600000Y-11400000D01*
X14800000Y-12100000D02*
X14800000Y-11400000D01*
X12400000Y-11400000D02*
X12400000Y-10900000D01*
X9900000Y-12000000D02*
X9900000Y-15940000D01*
D11*
D10*
X10135000Y-11835000D02*
X10165000Y-11865000D01*
X10165000Y-11835000D02*
X10135000Y-11865000D01*
X10405000Y-12205000D02*
X10435000Y-12235000D01*
X10435000Y-12205000D02*
X10405000Y-12235000D01*
X10445000Y-13724000D02*
X10475000Y-13754000D01*
X10475000Y-13724000D02*
X10445000Y-13754000D01*
X10445000Y-14365000D02*
X10475000Y-14395000D01*
X10475000Y-14365000D02*
X10445000Y-14395000D01*
X10535000Y-11985000D02*
X10565000Y-12015000D01*
X10565000Y-11985000D02*
X10535000Y-12015000D01*
X10535000Y-12495000D02*
X10565000Y-12525000D01*
X10565000Y-12495000D02*
X10535000Y-12525000D01*
X10585000Y-11135000D02*
X10615000Y-11165000D01*
X10615000Y-11135000D02*
X10585000Y-11165000D01*
X10645000Y-13725000D02*
X10675000Y-13755000D01*
X10675000Y-13725000D02*
X10645000Y-13755000D01*
X10645000Y-14365000D02*
X10675000Y-14395000D01*
X10675000Y-14365000D02*
X10645000Y-14395000D01*
X10705000Y-12205000D02*
X10735000Y-12235000D01*
X10735000Y-12205000D02*
X10705000Y-12235000D01*
X10765000Y-13585000D02*
X10795000Y-13615000D01*
X10795000Y-13585000D02*
X10765000Y-13615000D01*
X10885000Y-11835000D02*
X10915000Y-11865000D01*
X10915000Y-11835000D02*
X10885000Y-11865000D01*
X10885000Y-13685000D02*
X10915000Y-13715000D01*
X10915000Y-13685000D02*
X10885000Y-13715000D01*
X10885000Y-14405000D02*
X10915000Y-14435000D01*
X10915000Y-14405000D02*
X10885000Y-14435000D01*
X10905000Y-12205000D02*
X10935000Y-12235000D01*
X10935000Y-12205000D02*
X10905000Y-12235000D01*
X10965000Y-13605000D02*
X10995000Y-13635000D01*
X10995000Y-13605000D02*
X10965000Y-13635000D01*
X11165000Y-13605000D02*
X11195000Y-13635000D01*
X11195000Y-13605000D02*
X11165000Y-13635000D01*
X11185000Y-12205000D02*
X11215000Y-12235000D01*
X11215000Y-12205000D02*
X11185000Y-12235000D01*
X11465000Y-12205000D02*
X11495000Y-12235000D01*
X11495000Y-12205000D02*
X11465000Y-12235000D01*
X11525000Y-13545000D02*
X11555000Y-13575000D01*
X11555000Y-13545000D02*
X11525000Y-13575000D01*
X11525000Y-13745000D02*
X11555000Y-13775000D01*
X11555000Y-13745000D02*
X11525000Y-13775000D01*
X11525000Y-13945000D02*
X11555000Y-13975000D01*
X11555000Y-13945000D02*
X11525000Y-13975000D01*
X11825000Y-14845000D02*
X11855000Y-14875000D01*
X11855000Y-14845000D02*
X11825000Y-14875000D01*
X11835000Y-15845000D02*
X11865000Y-15875000D01*
X11865000Y-15845000D02*
X11835000Y-15875000D01*
X11857500Y-14730000D02*
X11887500Y-14760000D01*
X11887500Y-14730000D02*
X11857500Y-14760000D01*
X11890000Y-14497500D02*
X11920000Y-14527500D01*
X11920000Y-14497500D02*
X11890000Y-14527500D01*
X11900000Y-14625000D02*
X11930000Y-14655000D01*
X11930000Y-14625000D02*
X11900000Y-14655000D01*
X11950000Y-11055000D02*
X11980000Y-11085000D01*
X11980000Y-11055000D02*
X11950000Y-11085000D01*
X12015950Y-12206027D02*
X12045950Y-12236027D01*
X12045950Y-12206027D02*
X12015950Y-12236027D01*
X12084050Y-11310000D02*
X12114050Y-11340000D01*
X12114050Y-11310000D02*
X12084050Y-11340000D01*
X12085000Y-14957500D02*
X12115000Y-14987500D01*
X12115000Y-14957500D02*
X12085000Y-14987500D01*
X12135000Y-12495000D02*
X12165000Y-12525000D01*
X12165000Y-12495000D02*
X12135000Y-12525000D01*
X12165000Y-15545000D02*
X12195000Y-15575000D01*
X12195000Y-15545000D02*
X12165000Y-15575000D01*
X12175000Y-15155000D02*
X12205000Y-15185000D01*
X12205000Y-15155000D02*
X12175000Y-15185000D01*
X12245000Y-14365000D02*
X12275000Y-14395000D01*
X12275000Y-14365000D02*
X12245000Y-14395000D01*
X12265000Y-12234050D02*
X12295000Y-12264050D01*
X12295000Y-12234050D02*
X12265000Y-12264050D01*
X12265000Y-12385000D02*
X12295000Y-12415000D01*
X12295000Y-12385000D02*
X12265000Y-12415000D01*
X12325000Y-11050000D02*
X12355000Y-11080000D01*
X12355000Y-11050000D02*
X12325000Y-11080000D01*
X12325000Y-11225000D02*
X12355000Y-11255000D01*
X12355000Y-11225000D02*
X12325000Y-11255000D01*
X12360000Y-12225000D02*
X12390000Y-12255000D01*
X12390000Y-12225000D02*
X12360000Y-12255000D01*
X12365000Y-12765000D02*
X12395000Y-12795000D01*
X12395000Y-12765000D02*
X12365000Y-12795000D01*
X12442500Y-14960000D02*
X12472500Y-14990000D01*
X12472500Y-14960000D02*
X12442500Y-14990000D01*
X12455000Y-15235000D02*
X12485000Y-15265000D01*
X12485000Y-15235000D02*
X12455000Y-15265000D01*
X12465000Y-12225000D02*
X12495000Y-12255000D01*
X12495000Y-12225000D02*
X12465000Y-12255000D01*
X12465000Y-12385000D02*
X12495000Y-12415000D01*
X12495000Y-12385000D02*
X12465000Y-12415000D01*
X12505000Y-13425000D02*
X12535000Y-13455000D01*
X12535000Y-13425000D02*
X12505000Y-13455000D01*
X12565000Y-14255000D02*
X12595000Y-14285000D01*
X12595000Y-14255000D02*
X12565000Y-14285000D01*
X12565000Y-14385000D02*
X12595000Y-14415000D01*
X12595000Y-14385000D02*
X12565000Y-14415000D01*
X12565000Y-14465000D02*
X12595000Y-14495000D01*
X12595000Y-14465000D02*
X12565000Y-14495000D01*
X12565000Y-14545000D02*
X12595000Y-14575000D01*
X12595000Y-14545000D02*
X12565000Y-14575000D01*
X12610000Y-12225000D02*
X12640000Y-12255000D01*
X12640000Y-12225000D02*
X12610000Y-12255000D01*
X12625000Y-13565000D02*
X12655000Y-13595000D01*
X12655000Y-13565000D02*
X12625000Y-13595000D01*
X12640000Y-14537500D02*
X12670000Y-14567500D01*
X12670000Y-14537500D02*
X12640000Y-14567500D01*
X12642500Y-14422500D02*
X12672500Y-14452500D01*
X12672500Y-14422500D02*
X12642500Y-14452500D01*
X12665000Y-12765000D02*
X12695000Y-12795000D01*
X12695000Y-12765000D02*
X12665000Y-12795000D01*
X12685000Y-13285000D02*
X12715000Y-13315000D01*
X12715000Y-13285000D02*
X12685000Y-13315000D01*
X12687500Y-14722500D02*
X12717500Y-14752500D01*
X12717500Y-14722500D02*
X12687500Y-14752500D01*
X12815000Y-14735000D02*
X12845000Y-14765000D01*
X12845000Y-14735000D02*
X12815000Y-14765000D01*
X12820000Y-14332500D02*
X12850000Y-14362500D01*
X12850000Y-14332500D02*
X12820000Y-14362500D01*
X12845000Y-12165000D02*
X12875000Y-12195000D01*
X12875000Y-12165000D02*
X12845000Y-12195000D01*
X12845000Y-15475000D02*
X12875000Y-15505000D01*
X12875000Y-15475000D02*
X12845000Y-15505000D01*
X12865000Y-14595000D02*
X12895000Y-14625000D01*
X12895000Y-14595000D02*
X12865000Y-14625000D01*
X12865000Y-14663950D02*
X12895000Y-14693950D01*
X12895000Y-14663950D02*
X12865000Y-14693950D01*
X12885000Y-13085000D02*
X12915000Y-13115000D01*
X12915000Y-13085000D02*
X12885000Y-13115000D01*
X12895000Y-14977500D02*
X12925000Y-15007500D01*
X12925000Y-14977500D02*
X12895000Y-15007500D01*
X12955000Y-15155000D02*
X12985000Y-15185000D01*
X12985000Y-15155000D02*
X12955000Y-15185000D01*
X13005000Y-15565000D02*
X13035000Y-15595000D01*
X13035000Y-15565000D02*
X13005000Y-15595000D01*
X13025000Y-13785000D02*
X13055000Y-13815000D01*
X13055000Y-13785000D02*
X13025000Y-13815000D01*
X13025000Y-13985000D02*
X13055000Y-14015000D01*
X13055000Y-13985000D02*
X13025000Y-14015000D01*
X13025000Y-14185000D02*
X13055000Y-14215000D01*
X13055000Y-14185000D02*
X13025000Y-14215000D01*
X13045000Y-15225000D02*
X13075000Y-15255000D01*
X13075000Y-15225000D02*
X13045000Y-15255000D01*
X13065000Y-12165000D02*
X13095000Y-12195000D01*
X13095000Y-12165000D02*
X13065000Y-12195000D01*
X13085000Y-13685000D02*
X13115000Y-13715000D01*
X13115000Y-13685000D02*
X13085000Y-13715000D01*
X13085000Y-14105000D02*
X13115000Y-14135000D01*
X13115000Y-14105000D02*
X13085000Y-14135000D01*
X13185000Y-11110000D02*
X13215000Y-11140000D01*
X13215000Y-11110000D02*
X13185000Y-11140000D01*
X13215950Y-12205000D02*
X13245950Y-12235000D01*
X13245950Y-12205000D02*
X13215950Y-12235000D01*
X13255000Y-15345000D02*
X13285000Y-15375000D01*
X13285000Y-15345000D02*
X13255000Y-15375000D01*
X13265000Y-14845000D02*
X13295000Y-14875000D01*
X13295000Y-14845000D02*
X13265000Y-14875000D01*
X13265000Y-15835000D02*
X13295000Y-15865000D01*
X13295000Y-15835000D02*
X13265000Y-15865000D01*
X13315000Y-11295000D02*
X13345000Y-11325000D01*
X13345000Y-11295000D02*
X13315000Y-11325000D01*
X13315000Y-14505000D02*
X13345000Y-14535000D01*
X13345000Y-14505000D02*
X13315000Y-14535000D01*
X13335000Y-10975000D02*
X13365000Y-11005000D01*
X13365000Y-10975000D02*
X13335000Y-11005000D01*
X13335000Y-12495000D02*
X13365000Y-12525000D01*
X13365000Y-12495000D02*
X13335000Y-12525000D01*
X13345000Y-13685000D02*
X13375000Y-13715000D01*
X13375000Y-13685000D02*
X13345000Y-13715000D01*
X13345000Y-14105000D02*
X13375000Y-14135000D01*
X13375000Y-14105000D02*
X13345000Y-14135000D01*
X13345000Y-14585000D02*
X13375000Y-14615000D01*
X13375000Y-14585000D02*
X13345000Y-14615000D01*
X13345000Y-14685000D02*
X13375000Y-14715000D01*
X13375000Y-14685000D02*
X13345000Y-14715000D01*
X13360000Y-14370000D02*
X13390000Y-14400000D01*
X13390000Y-14370000D02*
X13360000Y-14400000D01*
X13385000Y-14845000D02*
X13415000Y-14875000D01*
X13415000Y-14845000D02*
X13385000Y-14875000D01*
X13396050Y-15745000D02*
X13426050Y-15775000D01*
X13426050Y-15745000D02*
X13396050Y-15775000D01*
X13452500Y-15845000D02*
X13482500Y-15875000D01*
X13482500Y-15845000D02*
X13452500Y-15875000D01*
X13465000Y-12234050D02*
X13495000Y-12264050D01*
X13495000Y-12234050D02*
X13465000Y-12264050D01*
X13465000Y-12385000D02*
X13495000Y-12415000D01*
X13495000Y-12385000D02*
X13465000Y-12415000D01*
X13465000Y-15745000D02*
X13495000Y-15775000D01*
X13495000Y-15745000D02*
X13465000Y-15775000D01*
X13575000Y-15745000D02*
X13605000Y-15775000D01*
X13605000Y-15745000D02*
X13575000Y-15775000D01*
X13645000Y-12225000D02*
X13675000Y-12255000D01*
X13675000Y-12225000D02*
X13645000Y-12255000D01*
X13765000Y-15115000D02*
X13795000Y-15145000D01*
X13795000Y-15115000D02*
X13765000Y-15145000D01*
X13805000Y-12225000D02*
X13835000Y-12255000D01*
X13835000Y-12225000D02*
X13805000Y-12255000D01*
X13862500Y-15522500D02*
X13892500Y-15552500D01*
X13892500Y-15522500D02*
X13862500Y-15552500D01*
X13885000Y-15015000D02*
X13915000Y-15045000D01*
X13915000Y-15015000D02*
X13885000Y-15045000D01*
X13955000Y-15195000D02*
X13985000Y-15225000D01*
X13985000Y-15195000D02*
X13955000Y-15225000D01*
X14025000Y-12165000D02*
X14055000Y-12195000D01*
X14055000Y-12165000D02*
X14025000Y-12195000D01*
X14145000Y-14655950D02*
X14175000Y-14685950D01*
X14175000Y-14655950D02*
X14145000Y-14685950D01*
X14245000Y-12165000D02*
X14275000Y-12195000D01*
X14275000Y-12165000D02*
X14245000Y-12195000D01*
X14325000Y-15205000D02*
X14355000Y-15235000D01*
X14355000Y-15205000D02*
X14325000Y-15235000D01*
X14335000Y-14995000D02*
X14365000Y-15025000D01*
X14365000Y-14995000D02*
X14335000Y-15025000D01*
X14415950Y-12205000D02*
X14445950Y-12235000D01*
X14445950Y-12205000D02*
X14415950Y-12235000D01*
X14495000Y-10990000D02*
X14525000Y-11020000D01*
X14525000Y-10990000D02*
X14495000Y-11020000D01*
X14530000Y-11300000D02*
X14560000Y-11330000D01*
X14560000Y-11300000D02*
X14530000Y-11330000D01*
X14535000Y-12495000D02*
X14565000Y-12525000D01*
X14565000Y-12495000D02*
X14535000Y-12525000D01*
X14575000Y-10990000D02*
X14605000Y-11020000D01*
X14605000Y-10990000D02*
X14575000Y-11020000D01*
X11145000Y-12470000D02*
G75*
G03*
X11145000Y-12470000I-15000J0D01*
G01*
X11405000Y-12470000D02*
G75*
G03*
X11405000Y-12470000I-15000J0D01*
G01*
X12085000Y-13300000D02*
G75*
G03*
X12085000Y-13300000I-15000J0D01*
G01*
X12225000Y-12680000D02*
G75*
G03*
X12225000Y-12680000I-15000J0D01*
G01*
X12390000Y-13300000D02*
G75*
G03*
X12390000Y-13300000I-15000J0D01*
G01*
X12805000Y-12890000D02*
G75*
G03*
X12805000Y-12890000I-15000J0D01*
G01*
X12885000Y-12550000D02*
G75*
G03*
X12885000Y-12550000I-15000J0D01*
G01*
X13505000Y-14440000D02*
G75*
G03*
X13505000Y-14440000I-15000J0D01*
G01*
X13755000Y-14840000D02*
G75*
G03*
X13755000Y-14840000I-15000J0D01*
G01*
X13765000Y-14470000D02*
G75*
G03*
X13765000Y-14470000I-15000J0D01*
G01*
X14065000Y-15490000D02*
G75*
G03*
X14065000Y-15490000I-15000J0D01*
G01*
X14295000Y-15520000D02*
G75*
G03*
X14295000Y-15520000I-15000J0D01*
G01*
X10083250Y-13598000D02*
X10083250Y-13658000D01*
X10053250Y-13628000D02*
X10113250Y-13628000D01*
X10123250Y-13598000D02*
X10043250Y-13598000D01*
X10043250Y-13598000D02*
G75*
G03*
X10043250Y-13658000I0J-30000D01*
G01*
X10043250Y-13658000D02*
X10123250Y-13658000D01*
X10123250Y-13658000D02*
G75*
G03*
X10123250Y-13598000I0J30000D01*
G01*
X10083250Y-14462000D02*
X10083250Y-14522000D01*
X10053250Y-14492000D02*
X10113250Y-14492000D01*
X10123250Y-14462000D02*
X10043250Y-14462000D01*
X10043250Y-14462000D02*
G75*
G03*
X10043250Y-14522000I0J-30000D01*
G01*
X10043250Y-14522000D02*
X10123250Y-14522000D01*
X10123250Y-14522000D02*
G75*
G03*
X10123250Y-14462000I0J30000D01*
G01*
X10501250Y-13595000D02*
X10501250Y-13655000D01*
X10471250Y-13625000D02*
X10531250Y-13625000D01*
X10556250Y-13595000D02*
X10446250Y-13595000D01*
X10446250Y-13595000D02*
G75*
G03*
X10446250Y-13655000I0J-30000D01*
G01*
X10446250Y-13655000D02*
X10556250Y-13655000D01*
X10556250Y-13655000D02*
G75*
G03*
X10556250Y-13595000I0J30000D01*
G01*
X10501250Y-14462000D02*
X10501250Y-14522000D01*
X10471250Y-14492000D02*
X10531250Y-14492000D01*
X10556250Y-14462000D02*
X10446250Y-14462000D01*
X10446250Y-14462000D02*
G75*
G03*
X10446250Y-14522000I0J-30000D01*
G01*
X10446250Y-14522000D02*
X10556250Y-14522000D01*
X10556250Y-14522000D02*
G75*
G03*
X10556250Y-14462000I0J30000D01*
G01*
X14124749Y-14799749D02*
X14124749Y-14750251D01*
X14075251Y-14750251D01*
X14075251Y-14799749D01*
X14124749Y-14799749D01*
X14124749Y-14926749D02*
X14124749Y-14877251D01*
X14075251Y-14877251D01*
X14075251Y-14926749D01*
X14124749Y-14926749D01*
X14124749Y-15053749D02*
X14124749Y-15004251D01*
X14075251Y-15004251D01*
X14075251Y-15053749D01*
X14124749Y-15053749D01*
X14124749Y-15180749D02*
X14124749Y-15131251D01*
X14075251Y-15131251D01*
X14075251Y-15180749D01*
X14124749Y-15180749D01*
X14124749Y-15307749D02*
X14124749Y-15258251D01*
X14075251Y-15258251D01*
X14075251Y-15307749D01*
X14124749Y-15307749D01*
X14251749Y-14799749D02*
X14251749Y-14750251D01*
X14202251Y-14750251D01*
X14202251Y-14799749D01*
X14251749Y-14799749D01*
X14251749Y-14926749D02*
X14251749Y-14877251D01*
X14202251Y-14877251D01*
X14202251Y-14926749D01*
X14251749Y-14926749D01*
X14251749Y-15053749D02*
X14251749Y-15004251D01*
X14202251Y-15004251D01*
X14202251Y-15053749D01*
X14251749Y-15053749D01*
X14251749Y-15180749D02*
X14251749Y-15131251D01*
X14202251Y-15131251D01*
X14202251Y-15180749D01*
X14251749Y-15180749D01*
X14251749Y-15307749D02*
X14251749Y-15258251D01*
X14202251Y-15258251D01*
X14202251Y-15307749D01*
X14251749Y-15307749D01*
D11*
X10155777Y-16256484D02*
X10155777Y-16056484D01*
X10155777Y-16056484D02*
X10203396Y-16056484D01*
X10203396Y-16056484D02*
X10231967Y-16066008D01*
X10231967Y-16066008D02*
X10251015Y-16085055D01*
X10251015Y-16085055D02*
X10260539Y-16104103D01*
X10260539Y-16104103D02*
X10270063Y-16142198D01*
X10270063Y-16142198D02*
X10270063Y-16170769D01*
X10270063Y-16170769D02*
X10260539Y-16208865D01*
X10260539Y-16208865D02*
X10251015Y-16227912D01*
X10251015Y-16227912D02*
X10231967Y-16246960D01*
X10231967Y-16246960D02*
X10203396Y-16256484D01*
X10203396Y-16256484D02*
X10155777Y-16256484D01*
X10355777Y-16256484D02*
X10355777Y-16123150D01*
X10355777Y-16161246D02*
X10365301Y-16142198D01*
X10365301Y-16142198D02*
X10374824Y-16132674D01*
X10374824Y-16132674D02*
X10393872Y-16123150D01*
X10393872Y-16123150D02*
X10412920Y-16123150D01*
X10479586Y-16256484D02*
X10479586Y-16123150D01*
X10479586Y-16056484D02*
X10470063Y-16066008D01*
X10470063Y-16066008D02*
X10479586Y-16075531D01*
X10479586Y-16075531D02*
X10489110Y-16066008D01*
X10489110Y-16066008D02*
X10479586Y-16056484D01*
X10479586Y-16056484D02*
X10479586Y-16075531D01*
X10603396Y-16256484D02*
X10584348Y-16246960D01*
X10584348Y-16246960D02*
X10574824Y-16227912D01*
X10574824Y-16227912D02*
X10574824Y-16056484D01*
X10708158Y-16256484D02*
X10689110Y-16246960D01*
X10689110Y-16246960D02*
X10679586Y-16227912D01*
X10679586Y-16227912D02*
X10679586Y-16056484D01*
X10936729Y-16256484D02*
X10936729Y-16056484D01*
X10936729Y-16056484D02*
X11003396Y-16199341D01*
X11003396Y-16199341D02*
X11070063Y-16056484D01*
X11070063Y-16056484D02*
X11070063Y-16256484D01*
X11251015Y-16256484D02*
X11251015Y-16151722D01*
X11251015Y-16151722D02*
X11241491Y-16132674D01*
X11241491Y-16132674D02*
X11222443Y-16123150D01*
X11222443Y-16123150D02*
X11184348Y-16123150D01*
X11184348Y-16123150D02*
X11165301Y-16132674D01*
X11251015Y-16246960D02*
X11231967Y-16256484D01*
X11231967Y-16256484D02*
X11184348Y-16256484D01*
X11184348Y-16256484D02*
X11165301Y-16246960D01*
X11165301Y-16246960D02*
X11155777Y-16227912D01*
X11155777Y-16227912D02*
X11155777Y-16208865D01*
X11155777Y-16208865D02*
X11165301Y-16189817D01*
X11165301Y-16189817D02*
X11184348Y-16180293D01*
X11184348Y-16180293D02*
X11231967Y-16180293D01*
X11231967Y-16180293D02*
X11251015Y-16170769D01*
X11346253Y-16123150D02*
X11346253Y-16323150D01*
X11346253Y-16132674D02*
X11365301Y-16123150D01*
X11365301Y-16123150D02*
X11403396Y-16123150D01*
X11403396Y-16123150D02*
X11422443Y-16132674D01*
X11422443Y-16132674D02*
X11431967Y-16142198D01*
X11431967Y-16142198D02*
X11441491Y-16161246D01*
X11441491Y-16161246D02*
X11441491Y-16218388D01*
X11441491Y-16218388D02*
X11431967Y-16237436D01*
X11431967Y-16237436D02*
X11422443Y-16246960D01*
X11422443Y-16246960D02*
X11403396Y-16256484D01*
X11403396Y-16256484D02*
X11365301Y-16256484D01*
X11365301Y-16256484D02*
X11346253Y-16246960D01*
X11527205Y-16237436D02*
X11536729Y-16246960D01*
X11536729Y-16246960D02*
X11527205Y-16256484D01*
X11527205Y-16256484D02*
X11517682Y-16246960D01*
X11517682Y-16246960D02*
X11527205Y-16237436D01*
X11527205Y-16237436D02*
X11527205Y-16256484D01*
X11527205Y-16132674D02*
X11536729Y-16142198D01*
X11536729Y-16142198D02*
X11527205Y-16151722D01*
X11527205Y-16151722D02*
X11517682Y-16142198D01*
X11517682Y-16142198D02*
X11527205Y-16132674D01*
X11527205Y-16132674D02*
X11527205Y-16151722D01*
D10*
X9865000Y-16570000D02*
X9895000Y-16600000D01*
X9895000Y-16570000D02*
X9865000Y-16600000D01*
D11*
X10193872Y-16476484D02*
X10212920Y-16476484D01*
X10212920Y-16476484D02*
X10231967Y-16486008D01*
X10231967Y-16486008D02*
X10241491Y-16495531D01*
X10241491Y-16495531D02*
X10251015Y-16514579D01*
X10251015Y-16514579D02*
X10260539Y-16552674D01*
X10260539Y-16552674D02*
X10260539Y-16600293D01*
X10260539Y-16600293D02*
X10251015Y-16638388D01*
X10251015Y-16638388D02*
X10241491Y-16657436D01*
X10241491Y-16657436D02*
X10231967Y-16666960D01*
X10231967Y-16666960D02*
X10212920Y-16676484D01*
X10212920Y-16676484D02*
X10193872Y-16676484D01*
X10193872Y-16676484D02*
X10174824Y-16666960D01*
X10174824Y-16666960D02*
X10165301Y-16657436D01*
X10165301Y-16657436D02*
X10155777Y-16638388D01*
X10155777Y-16638388D02*
X10146253Y-16600293D01*
X10146253Y-16600293D02*
X10146253Y-16552674D01*
X10146253Y-16552674D02*
X10155777Y-16514579D01*
X10155777Y-16514579D02*
X10165301Y-16495531D01*
X10165301Y-16495531D02*
X10174824Y-16486008D01*
X10174824Y-16486008D02*
X10193872Y-16476484D01*
X10346253Y-16657436D02*
X10355777Y-16666960D01*
X10355777Y-16666960D02*
X10346253Y-16676484D01*
X10346253Y-16676484D02*
X10336729Y-16666960D01*
X10336729Y-16666960D02*
X10346253Y-16657436D01*
X10346253Y-16657436D02*
X10346253Y-16676484D01*
X10422444Y-16476484D02*
X10546253Y-16476484D01*
X10546253Y-16476484D02*
X10479586Y-16552674D01*
X10479586Y-16552674D02*
X10508158Y-16552674D01*
X10508158Y-16552674D02*
X10527205Y-16562198D01*
X10527205Y-16562198D02*
X10536729Y-16571722D01*
X10536729Y-16571722D02*
X10546253Y-16590769D01*
X10546253Y-16590769D02*
X10546253Y-16638388D01*
X10546253Y-16638388D02*
X10536729Y-16657436D01*
X10536729Y-16657436D02*
X10527205Y-16666960D01*
X10527205Y-16666960D02*
X10508158Y-16676484D01*
X10508158Y-16676484D02*
X10451015Y-16676484D01*
X10451015Y-16676484D02*
X10431967Y-16666960D01*
X10431967Y-16666960D02*
X10422444Y-16657436D01*
X10670063Y-16476484D02*
X10689110Y-16476484D01*
X10689110Y-16476484D02*
X10708158Y-16486008D01*
X10708158Y-16486008D02*
X10717682Y-16495531D01*
X10717682Y-16495531D02*
X10727205Y-16514579D01*
X10727205Y-16514579D02*
X10736729Y-16552674D01*
X10736729Y-16552674D02*
X10736729Y-16600293D01*
X10736729Y-16600293D02*
X10727205Y-16638388D01*
X10727205Y-16638388D02*
X10717682Y-16657436D01*
X10717682Y-16657436D02*
X10708158Y-16666960D01*
X10708158Y-16666960D02*
X10689110Y-16676484D01*
X10689110Y-16676484D02*
X10670063Y-16676484D01*
X10670063Y-16676484D02*
X10651015Y-16666960D01*
X10651015Y-16666960D02*
X10641491Y-16657436D01*
X10641491Y-16657436D02*
X10631967Y-16638388D01*
X10631967Y-16638388D02*
X10622444Y-16600293D01*
X10622444Y-16600293D02*
X10622444Y-16552674D01*
X10622444Y-16552674D02*
X10631967Y-16514579D01*
X10631967Y-16514579D02*
X10641491Y-16495531D01*
X10641491Y-16495531D02*
X10651015Y-16486008D01*
X10651015Y-16486008D02*
X10670063Y-16476484D01*
X10860539Y-16476484D02*
X10879586Y-16476484D01*
X10879586Y-16476484D02*
X10898634Y-16486008D01*
X10898634Y-16486008D02*
X10908158Y-16495531D01*
X10908158Y-16495531D02*
X10917682Y-16514579D01*
X10917682Y-16514579D02*
X10927205Y-16552674D01*
X10927205Y-16552674D02*
X10927205Y-16600293D01*
X10927205Y-16600293D02*
X10917682Y-16638388D01*
X10917682Y-16638388D02*
X10908158Y-16657436D01*
X10908158Y-16657436D02*
X10898634Y-16666960D01*
X10898634Y-16666960D02*
X10879586Y-16676484D01*
X10879586Y-16676484D02*
X10860539Y-16676484D01*
X10860539Y-16676484D02*
X10841491Y-16666960D01*
X10841491Y-16666960D02*
X10831967Y-16657436D01*
X10831967Y-16657436D02*
X10822444Y-16638388D01*
X10822444Y-16638388D02*
X10812920Y-16600293D01*
X10812920Y-16600293D02*
X10812920Y-16552674D01*
X10812920Y-16552674D02*
X10822444Y-16514579D01*
X10822444Y-16514579D02*
X10831967Y-16495531D01*
X10831967Y-16495531D02*
X10841491Y-16486008D01*
X10841491Y-16486008D02*
X10860539Y-16476484D01*
X11012920Y-16676484D02*
X11012920Y-16543150D01*
X11012920Y-16562198D02*
X11022444Y-16552674D01*
X11022444Y-16552674D02*
X11041491Y-16543150D01*
X11041491Y-16543150D02*
X11070063Y-16543150D01*
X11070063Y-16543150D02*
X11089110Y-16552674D01*
X11089110Y-16552674D02*
X11098634Y-16571722D01*
X11098634Y-16571722D02*
X11098634Y-16676484D01*
X11098634Y-16571722D02*
X11108158Y-16552674D01*
X11108158Y-16552674D02*
X11127205Y-16543150D01*
X11127205Y-16543150D02*
X11155777Y-16543150D01*
X11155777Y-16543150D02*
X11174825Y-16552674D01*
X11174825Y-16552674D02*
X11184348Y-16571722D01*
X11184348Y-16571722D02*
X11184348Y-16676484D01*
X11279586Y-16676484D02*
X11279586Y-16543150D01*
X11279586Y-16562198D02*
X11289110Y-16552674D01*
X11289110Y-16552674D02*
X11308158Y-16543150D01*
X11308158Y-16543150D02*
X11336729Y-16543150D01*
X11336729Y-16543150D02*
X11355777Y-16552674D01*
X11355777Y-16552674D02*
X11365301Y-16571722D01*
X11365301Y-16571722D02*
X11365301Y-16676484D01*
X11365301Y-16571722D02*
X11374824Y-16552674D01*
X11374824Y-16552674D02*
X11393872Y-16543150D01*
X11393872Y-16543150D02*
X11422443Y-16543150D01*
X11422443Y-16543150D02*
X11441491Y-16552674D01*
X11441491Y-16552674D02*
X11451015Y-16571722D01*
X11451015Y-16571722D02*
X11451015Y-16676484D01*
X11841491Y-16466960D02*
X11670063Y-16724103D01*
X12098634Y-16476484D02*
X12117682Y-16476484D01*
X12117682Y-16476484D02*
X12136729Y-16486008D01*
X12136729Y-16486008D02*
X12146253Y-16495531D01*
X12146253Y-16495531D02*
X12155777Y-16514579D01*
X12155777Y-16514579D02*
X12165301Y-16552674D01*
X12165301Y-16552674D02*
X12165301Y-16600293D01*
X12165301Y-16600293D02*
X12155777Y-16638388D01*
X12155777Y-16638388D02*
X12146253Y-16657436D01*
X12146253Y-16657436D02*
X12136729Y-16666960D01*
X12136729Y-16666960D02*
X12117682Y-16676484D01*
X12117682Y-16676484D02*
X12098634Y-16676484D01*
X12098634Y-16676484D02*
X12079586Y-16666960D01*
X12079586Y-16666960D02*
X12070063Y-16657436D01*
X12070063Y-16657436D02*
X12060539Y-16638388D01*
X12060539Y-16638388D02*
X12051015Y-16600293D01*
X12051015Y-16600293D02*
X12051015Y-16552674D01*
X12051015Y-16552674D02*
X12060539Y-16514579D01*
X12060539Y-16514579D02*
X12070063Y-16495531D01*
X12070063Y-16495531D02*
X12079586Y-16486008D01*
X12079586Y-16486008D02*
X12098634Y-16476484D01*
X12251015Y-16657436D02*
X12260539Y-16666960D01*
X12260539Y-16666960D02*
X12251015Y-16676484D01*
X12251015Y-16676484D02*
X12241491Y-16666960D01*
X12241491Y-16666960D02*
X12251015Y-16657436D01*
X12251015Y-16657436D02*
X12251015Y-16676484D01*
X12384348Y-16476484D02*
X12403396Y-16476484D01*
X12403396Y-16476484D02*
X12422444Y-16486008D01*
X12422444Y-16486008D02*
X12431967Y-16495531D01*
X12431967Y-16495531D02*
X12441491Y-16514579D01*
X12441491Y-16514579D02*
X12451015Y-16552674D01*
X12451015Y-16552674D02*
X12451015Y-16600293D01*
X12451015Y-16600293D02*
X12441491Y-16638388D01*
X12441491Y-16638388D02*
X12431967Y-16657436D01*
X12431967Y-16657436D02*
X12422444Y-16666960D01*
X12422444Y-16666960D02*
X12403396Y-16676484D01*
X12403396Y-16676484D02*
X12384348Y-16676484D01*
X12384348Y-16676484D02*
X12365301Y-16666960D01*
X12365301Y-16666960D02*
X12355777Y-16657436D01*
X12355777Y-16657436D02*
X12346253Y-16638388D01*
X12346253Y-16638388D02*
X12336729Y-16600293D01*
X12336729Y-16600293D02*
X12336729Y-16552674D01*
X12336729Y-16552674D02*
X12346253Y-16514579D01*
X12346253Y-16514579D02*
X12355777Y-16495531D01*
X12355777Y-16495531D02*
X12365301Y-16486008D01*
X12365301Y-16486008D02*
X12384348Y-16476484D01*
X12641491Y-16676484D02*
X12527206Y-16676484D01*
X12584348Y-16676484D02*
X12584348Y-16476484D01*
X12584348Y-16476484D02*
X12565301Y-16505055D01*
X12565301Y-16505055D02*
X12546253Y-16524103D01*
X12546253Y-16524103D02*
X12527206Y-16533627D01*
X12831967Y-16676484D02*
X12717682Y-16676484D01*
X12774825Y-16676484D02*
X12774825Y-16476484D01*
X12774825Y-16476484D02*
X12755777Y-16505055D01*
X12755777Y-16505055D02*
X12736729Y-16524103D01*
X12736729Y-16524103D02*
X12717682Y-16533627D01*
X12946253Y-16562198D02*
X12927206Y-16552674D01*
X12927206Y-16552674D02*
X12917682Y-16543150D01*
X12917682Y-16543150D02*
X12908158Y-16524103D01*
X12908158Y-16524103D02*
X12908158Y-16514579D01*
X12908158Y-16514579D02*
X12917682Y-16495531D01*
X12917682Y-16495531D02*
X12927206Y-16486008D01*
X12927206Y-16486008D02*
X12946253Y-16476484D01*
X12946253Y-16476484D02*
X12984348Y-16476484D01*
X12984348Y-16476484D02*
X13003396Y-16486008D01*
X13003396Y-16486008D02*
X13012920Y-16495531D01*
X13012920Y-16495531D02*
X13022444Y-16514579D01*
X13022444Y-16514579D02*
X13022444Y-16524103D01*
X13022444Y-16524103D02*
X13012920Y-16543150D01*
X13012920Y-16543150D02*
X13003396Y-16552674D01*
X13003396Y-16552674D02*
X12984348Y-16562198D01*
X12984348Y-16562198D02*
X12946253Y-16562198D01*
X12946253Y-16562198D02*
X12927206Y-16571722D01*
X12927206Y-16571722D02*
X12917682Y-16581246D01*
X12917682Y-16581246D02*
X12908158Y-16600293D01*
X12908158Y-16600293D02*
X12908158Y-16638388D01*
X12908158Y-16638388D02*
X12917682Y-16657436D01*
X12917682Y-16657436D02*
X12927206Y-16666960D01*
X12927206Y-16666960D02*
X12946253Y-16676484D01*
X12946253Y-16676484D02*
X12984348Y-16676484D01*
X12984348Y-16676484D02*
X13003396Y-16666960D01*
X13003396Y-16666960D02*
X13012920Y-16657436D01*
X13012920Y-16657436D02*
X13022444Y-16638388D01*
X13022444Y-16638388D02*
X13022444Y-16600293D01*
X13022444Y-16600293D02*
X13012920Y-16581246D01*
X13012920Y-16581246D02*
X13003396Y-16571722D01*
X13003396Y-16571722D02*
X12984348Y-16562198D01*
X13098634Y-16476484D02*
X13098634Y-16514579D01*
X13174825Y-16476484D02*
X13174825Y-16514579D01*
X13470063Y-16752674D02*
X13460539Y-16743150D01*
X13460539Y-16743150D02*
X13441491Y-16714579D01*
X13441491Y-16714579D02*
X13431968Y-16695531D01*
X13431968Y-16695531D02*
X13422444Y-16666960D01*
X13422444Y-16666960D02*
X13412920Y-16619341D01*
X13412920Y-16619341D02*
X13412920Y-16581246D01*
X13412920Y-16581246D02*
X13422444Y-16533627D01*
X13422444Y-16533627D02*
X13431968Y-16505055D01*
X13431968Y-16505055D02*
X13441491Y-16486008D01*
X13441491Y-16486008D02*
X13460539Y-16457436D01*
X13460539Y-16457436D02*
X13470063Y-16447912D01*
X13651015Y-16676484D02*
X13536729Y-16676484D01*
X13593872Y-16676484D02*
X13593872Y-16476484D01*
X13593872Y-16476484D02*
X13574825Y-16505055D01*
X13574825Y-16505055D02*
X13555777Y-16524103D01*
X13555777Y-16524103D02*
X13536729Y-16533627D01*
X13841491Y-16676484D02*
X13727206Y-16676484D01*
X13784348Y-16676484D02*
X13784348Y-16476484D01*
X13784348Y-16476484D02*
X13765301Y-16505055D01*
X13765301Y-16505055D02*
X13746253Y-16524103D01*
X13746253Y-16524103D02*
X13727206Y-16533627D01*
X14031968Y-16676484D02*
X13917682Y-16676484D01*
X13974825Y-16676484D02*
X13974825Y-16476484D01*
X13974825Y-16476484D02*
X13955777Y-16505055D01*
X13955777Y-16505055D02*
X13936729Y-16524103D01*
X13936729Y-16524103D02*
X13917682Y-16533627D01*
X14270063Y-16676484D02*
X14270063Y-16476484D01*
X14355777Y-16676484D02*
X14355777Y-16571722D01*
X14355777Y-16571722D02*
X14346253Y-16552674D01*
X14346253Y-16552674D02*
X14327206Y-16543150D01*
X14327206Y-16543150D02*
X14298634Y-16543150D01*
X14298634Y-16543150D02*
X14279587Y-16552674D01*
X14279587Y-16552674D02*
X14270063Y-16562198D01*
X14479587Y-16676484D02*
X14460539Y-16666960D01*
X14460539Y-16666960D02*
X14451015Y-16657436D01*
X14451015Y-16657436D02*
X14441491Y-16638388D01*
X14441491Y-16638388D02*
X14441491Y-16581246D01*
X14441491Y-16581246D02*
X14451015Y-16562198D01*
X14451015Y-16562198D02*
X14460539Y-16552674D01*
X14460539Y-16552674D02*
X14479587Y-16543150D01*
X14479587Y-16543150D02*
X14508158Y-16543150D01*
X14508158Y-16543150D02*
X14527206Y-16552674D01*
X14527206Y-16552674D02*
X14536730Y-16562198D01*
X14536730Y-16562198D02*
X14546253Y-16581246D01*
X14546253Y-16581246D02*
X14546253Y-16638388D01*
X14546253Y-16638388D02*
X14536730Y-16657436D01*
X14536730Y-16657436D02*
X14527206Y-16666960D01*
X14527206Y-16666960D02*
X14508158Y-16676484D01*
X14508158Y-16676484D02*
X14479587Y-16676484D01*
X14660539Y-16676484D02*
X14641491Y-16666960D01*
X14641491Y-16666960D02*
X14631968Y-16647912D01*
X14631968Y-16647912D02*
X14631968Y-16476484D01*
X14812920Y-16666960D02*
X14793872Y-16676484D01*
X14793872Y-16676484D02*
X14755777Y-16676484D01*
X14755777Y-16676484D02*
X14736730Y-16666960D01*
X14736730Y-16666960D02*
X14727206Y-16647912D01*
X14727206Y-16647912D02*
X14727206Y-16571722D01*
X14727206Y-16571722D02*
X14736730Y-16552674D01*
X14736730Y-16552674D02*
X14755777Y-16543150D01*
X14755777Y-16543150D02*
X14793872Y-16543150D01*
X14793872Y-16543150D02*
X14812920Y-16552674D01*
X14812920Y-16552674D02*
X14822444Y-16571722D01*
X14822444Y-16571722D02*
X14822444Y-16590769D01*
X14822444Y-16590769D02*
X14727206Y-16609817D01*
X14898634Y-16666960D02*
X14917682Y-16676484D01*
X14917682Y-16676484D02*
X14955777Y-16676484D01*
X14955777Y-16676484D02*
X14974825Y-16666960D01*
X14974825Y-16666960D02*
X14984349Y-16647912D01*
X14984349Y-16647912D02*
X14984349Y-16638388D01*
X14984349Y-16638388D02*
X14974825Y-16619341D01*
X14974825Y-16619341D02*
X14955777Y-16609817D01*
X14955777Y-16609817D02*
X14927206Y-16609817D01*
X14927206Y-16609817D02*
X14908158Y-16600293D01*
X14908158Y-16600293D02*
X14898634Y-16581246D01*
X14898634Y-16581246D02*
X14898634Y-16571722D01*
X14898634Y-16571722D02*
X14908158Y-16552674D01*
X14908158Y-16552674D02*
X14927206Y-16543150D01*
X14927206Y-16543150D02*
X14955777Y-16543150D01*
X14955777Y-16543150D02*
X14974825Y-16552674D01*
X15051015Y-16752674D02*
X15060539Y-16743150D01*
X15060539Y-16743150D02*
X15079587Y-16714579D01*
X15079587Y-16714579D02*
X15089111Y-16695531D01*
X15089111Y-16695531D02*
X15098634Y-16666960D01*
X15098634Y-16666960D02*
X15108158Y-16619341D01*
X15108158Y-16619341D02*
X15108158Y-16581246D01*
X15108158Y-16581246D02*
X15098634Y-16533627D01*
X15098634Y-16533627D02*
X15089111Y-16505055D01*
X15089111Y-16505055D02*
X15079587Y-16486008D01*
X15079587Y-16486008D02*
X15060539Y-16457436D01*
X15060539Y-16457436D02*
X15051015Y-16447912D01*
D10*
X9895000Y-16849000D02*
G75*
G03*
X9895000Y-16849000I-15000J0D01*
G01*
D11*
X10193872Y-16740484D02*
X10212920Y-16740484D01*
X10212920Y-16740484D02*
X10231967Y-16750008D01*
X10231967Y-16750008D02*
X10241491Y-16759531D01*
X10241491Y-16759531D02*
X10251015Y-16778579D01*
X10251015Y-16778579D02*
X10260539Y-16816674D01*
X10260539Y-16816674D02*
X10260539Y-16864293D01*
X10260539Y-16864293D02*
X10251015Y-16902389D01*
X10251015Y-16902389D02*
X10241491Y-16921436D01*
X10241491Y-16921436D02*
X10231967Y-16930960D01*
X10231967Y-16930960D02*
X10212920Y-16940484D01*
X10212920Y-16940484D02*
X10193872Y-16940484D01*
X10193872Y-16940484D02*
X10174824Y-16930960D01*
X10174824Y-16930960D02*
X10165301Y-16921436D01*
X10165301Y-16921436D02*
X10155777Y-16902389D01*
X10155777Y-16902389D02*
X10146253Y-16864293D01*
X10146253Y-16864293D02*
X10146253Y-16816674D01*
X10146253Y-16816674D02*
X10155777Y-16778579D01*
X10155777Y-16778579D02*
X10165301Y-16759531D01*
X10165301Y-16759531D02*
X10174824Y-16750008D01*
X10174824Y-16750008D02*
X10193872Y-16740484D01*
X10346253Y-16921436D02*
X10355777Y-16930960D01*
X10355777Y-16930960D02*
X10346253Y-16940484D01*
X10346253Y-16940484D02*
X10336729Y-16930960D01*
X10336729Y-16930960D02*
X10346253Y-16921436D01*
X10346253Y-16921436D02*
X10346253Y-16940484D01*
X10422444Y-16740484D02*
X10546253Y-16740484D01*
X10546253Y-16740484D02*
X10479586Y-16816674D01*
X10479586Y-16816674D02*
X10508158Y-16816674D01*
X10508158Y-16816674D02*
X10527205Y-16826198D01*
X10527205Y-16826198D02*
X10536729Y-16835722D01*
X10536729Y-16835722D02*
X10546253Y-16854770D01*
X10546253Y-16854770D02*
X10546253Y-16902389D01*
X10546253Y-16902389D02*
X10536729Y-16921436D01*
X10536729Y-16921436D02*
X10527205Y-16930960D01*
X10527205Y-16930960D02*
X10508158Y-16940484D01*
X10508158Y-16940484D02*
X10451015Y-16940484D01*
X10451015Y-16940484D02*
X10431967Y-16930960D01*
X10431967Y-16930960D02*
X10422444Y-16921436D01*
X10670063Y-16740484D02*
X10689110Y-16740484D01*
X10689110Y-16740484D02*
X10708158Y-16750008D01*
X10708158Y-16750008D02*
X10717682Y-16759531D01*
X10717682Y-16759531D02*
X10727205Y-16778579D01*
X10727205Y-16778579D02*
X10736729Y-16816674D01*
X10736729Y-16816674D02*
X10736729Y-16864293D01*
X10736729Y-16864293D02*
X10727205Y-16902389D01*
X10727205Y-16902389D02*
X10717682Y-16921436D01*
X10717682Y-16921436D02*
X10708158Y-16930960D01*
X10708158Y-16930960D02*
X10689110Y-16940484D01*
X10689110Y-16940484D02*
X10670063Y-16940484D01*
X10670063Y-16940484D02*
X10651015Y-16930960D01*
X10651015Y-16930960D02*
X10641491Y-16921436D01*
X10641491Y-16921436D02*
X10631967Y-16902389D01*
X10631967Y-16902389D02*
X10622444Y-16864293D01*
X10622444Y-16864293D02*
X10622444Y-16816674D01*
X10622444Y-16816674D02*
X10631967Y-16778579D01*
X10631967Y-16778579D02*
X10641491Y-16759531D01*
X10641491Y-16759531D02*
X10651015Y-16750008D01*
X10651015Y-16750008D02*
X10670063Y-16740484D01*
X10860539Y-16740484D02*
X10879586Y-16740484D01*
X10879586Y-16740484D02*
X10898634Y-16750008D01*
X10898634Y-16750008D02*
X10908158Y-16759531D01*
X10908158Y-16759531D02*
X10917682Y-16778579D01*
X10917682Y-16778579D02*
X10927205Y-16816674D01*
X10927205Y-16816674D02*
X10927205Y-16864293D01*
X10927205Y-16864293D02*
X10917682Y-16902389D01*
X10917682Y-16902389D02*
X10908158Y-16921436D01*
X10908158Y-16921436D02*
X10898634Y-16930960D01*
X10898634Y-16930960D02*
X10879586Y-16940484D01*
X10879586Y-16940484D02*
X10860539Y-16940484D01*
X10860539Y-16940484D02*
X10841491Y-16930960D01*
X10841491Y-16930960D02*
X10831967Y-16921436D01*
X10831967Y-16921436D02*
X10822444Y-16902389D01*
X10822444Y-16902389D02*
X10812920Y-16864293D01*
X10812920Y-16864293D02*
X10812920Y-16816674D01*
X10812920Y-16816674D02*
X10822444Y-16778579D01*
X10822444Y-16778579D02*
X10831967Y-16759531D01*
X10831967Y-16759531D02*
X10841491Y-16750008D01*
X10841491Y-16750008D02*
X10860539Y-16740484D01*
X11012920Y-16940484D02*
X11012920Y-16807150D01*
X11012920Y-16826198D02*
X11022444Y-16816674D01*
X11022444Y-16816674D02*
X11041491Y-16807150D01*
X11041491Y-16807150D02*
X11070063Y-16807150D01*
X11070063Y-16807150D02*
X11089110Y-16816674D01*
X11089110Y-16816674D02*
X11098634Y-16835722D01*
X11098634Y-16835722D02*
X11098634Y-16940484D01*
X11098634Y-16835722D02*
X11108158Y-16816674D01*
X11108158Y-16816674D02*
X11127205Y-16807150D01*
X11127205Y-16807150D02*
X11155777Y-16807150D01*
X11155777Y-16807150D02*
X11174825Y-16816674D01*
X11174825Y-16816674D02*
X11184348Y-16835722D01*
X11184348Y-16835722D02*
X11184348Y-16940484D01*
X11279586Y-16940484D02*
X11279586Y-16807150D01*
X11279586Y-16826198D02*
X11289110Y-16816674D01*
X11289110Y-16816674D02*
X11308158Y-16807150D01*
X11308158Y-16807150D02*
X11336729Y-16807150D01*
X11336729Y-16807150D02*
X11355777Y-16816674D01*
X11355777Y-16816674D02*
X11365301Y-16835722D01*
X11365301Y-16835722D02*
X11365301Y-16940484D01*
X11365301Y-16835722D02*
X11374824Y-16816674D01*
X11374824Y-16816674D02*
X11393872Y-16807150D01*
X11393872Y-16807150D02*
X11422443Y-16807150D01*
X11422443Y-16807150D02*
X11441491Y-16816674D01*
X11441491Y-16816674D02*
X11451015Y-16835722D01*
X11451015Y-16835722D02*
X11451015Y-16940484D01*
X11841491Y-16730960D02*
X11670063Y-16988103D01*
X12098634Y-16740484D02*
X12117682Y-16740484D01*
X12117682Y-16740484D02*
X12136729Y-16750008D01*
X12136729Y-16750008D02*
X12146253Y-16759531D01*
X12146253Y-16759531D02*
X12155777Y-16778579D01*
X12155777Y-16778579D02*
X12165301Y-16816674D01*
X12165301Y-16816674D02*
X12165301Y-16864293D01*
X12165301Y-16864293D02*
X12155777Y-16902389D01*
X12155777Y-16902389D02*
X12146253Y-16921436D01*
X12146253Y-16921436D02*
X12136729Y-16930960D01*
X12136729Y-16930960D02*
X12117682Y-16940484D01*
X12117682Y-16940484D02*
X12098634Y-16940484D01*
X12098634Y-16940484D02*
X12079586Y-16930960D01*
X12079586Y-16930960D02*
X12070063Y-16921436D01*
X12070063Y-16921436D02*
X12060539Y-16902389D01*
X12060539Y-16902389D02*
X12051015Y-16864293D01*
X12051015Y-16864293D02*
X12051015Y-16816674D01*
X12051015Y-16816674D02*
X12060539Y-16778579D01*
X12060539Y-16778579D02*
X12070063Y-16759531D01*
X12070063Y-16759531D02*
X12079586Y-16750008D01*
X12079586Y-16750008D02*
X12098634Y-16740484D01*
X12251015Y-16921436D02*
X12260539Y-16930960D01*
X12260539Y-16930960D02*
X12251015Y-16940484D01*
X12251015Y-16940484D02*
X12241491Y-16930960D01*
X12241491Y-16930960D02*
X12251015Y-16921436D01*
X12251015Y-16921436D02*
X12251015Y-16940484D01*
X12384348Y-16740484D02*
X12403396Y-16740484D01*
X12403396Y-16740484D02*
X12422444Y-16750008D01*
X12422444Y-16750008D02*
X12431967Y-16759531D01*
X12431967Y-16759531D02*
X12441491Y-16778579D01*
X12441491Y-16778579D02*
X12451015Y-16816674D01*
X12451015Y-16816674D02*
X12451015Y-16864293D01*
X12451015Y-16864293D02*
X12441491Y-16902389D01*
X12441491Y-16902389D02*
X12431967Y-16921436D01*
X12431967Y-16921436D02*
X12422444Y-16930960D01*
X12422444Y-16930960D02*
X12403396Y-16940484D01*
X12403396Y-16940484D02*
X12384348Y-16940484D01*
X12384348Y-16940484D02*
X12365301Y-16930960D01*
X12365301Y-16930960D02*
X12355777Y-16921436D01*
X12355777Y-16921436D02*
X12346253Y-16902389D01*
X12346253Y-16902389D02*
X12336729Y-16864293D01*
X12336729Y-16864293D02*
X12336729Y-16816674D01*
X12336729Y-16816674D02*
X12346253Y-16778579D01*
X12346253Y-16778579D02*
X12355777Y-16759531D01*
X12355777Y-16759531D02*
X12365301Y-16750008D01*
X12365301Y-16750008D02*
X12384348Y-16740484D01*
X12641491Y-16940484D02*
X12527206Y-16940484D01*
X12584348Y-16940484D02*
X12584348Y-16740484D01*
X12584348Y-16740484D02*
X12565301Y-16769055D01*
X12565301Y-16769055D02*
X12546253Y-16788103D01*
X12546253Y-16788103D02*
X12527206Y-16797627D01*
X12831967Y-16940484D02*
X12717682Y-16940484D01*
X12774825Y-16940484D02*
X12774825Y-16740484D01*
X12774825Y-16740484D02*
X12755777Y-16769055D01*
X12755777Y-16769055D02*
X12736729Y-16788103D01*
X12736729Y-16788103D02*
X12717682Y-16797627D01*
X12946253Y-16826198D02*
X12927206Y-16816674D01*
X12927206Y-16816674D02*
X12917682Y-16807150D01*
X12917682Y-16807150D02*
X12908158Y-16788103D01*
X12908158Y-16788103D02*
X12908158Y-16778579D01*
X12908158Y-16778579D02*
X12917682Y-16759531D01*
X12917682Y-16759531D02*
X12927206Y-16750008D01*
X12927206Y-16750008D02*
X12946253Y-16740484D01*
X12946253Y-16740484D02*
X12984348Y-16740484D01*
X12984348Y-16740484D02*
X13003396Y-16750008D01*
X13003396Y-16750008D02*
X13012920Y-16759531D01*
X13012920Y-16759531D02*
X13022444Y-16778579D01*
X13022444Y-16778579D02*
X13022444Y-16788103D01*
X13022444Y-16788103D02*
X13012920Y-16807150D01*
X13012920Y-16807150D02*
X13003396Y-16816674D01*
X13003396Y-16816674D02*
X12984348Y-16826198D01*
X12984348Y-16826198D02*
X12946253Y-16826198D01*
X12946253Y-16826198D02*
X12927206Y-16835722D01*
X12927206Y-16835722D02*
X12917682Y-16845246D01*
X12917682Y-16845246D02*
X12908158Y-16864293D01*
X12908158Y-16864293D02*
X12908158Y-16902389D01*
X12908158Y-16902389D02*
X12917682Y-16921436D01*
X12917682Y-16921436D02*
X12927206Y-16930960D01*
X12927206Y-16930960D02*
X12946253Y-16940484D01*
X12946253Y-16940484D02*
X12984348Y-16940484D01*
X12984348Y-16940484D02*
X13003396Y-16930960D01*
X13003396Y-16930960D02*
X13012920Y-16921436D01*
X13012920Y-16921436D02*
X13022444Y-16902389D01*
X13022444Y-16902389D02*
X13022444Y-16864293D01*
X13022444Y-16864293D02*
X13012920Y-16845246D01*
X13012920Y-16845246D02*
X13003396Y-16835722D01*
X13003396Y-16835722D02*
X12984348Y-16826198D01*
X13098634Y-16740484D02*
X13098634Y-16778579D01*
X13174825Y-16740484D02*
X13174825Y-16778579D01*
X13470063Y-17016674D02*
X13460539Y-17007150D01*
X13460539Y-17007150D02*
X13441491Y-16978579D01*
X13441491Y-16978579D02*
X13431968Y-16959531D01*
X13431968Y-16959531D02*
X13422444Y-16930960D01*
X13422444Y-16930960D02*
X13412920Y-16883341D01*
X13412920Y-16883341D02*
X13412920Y-16845246D01*
X13412920Y-16845246D02*
X13422444Y-16797627D01*
X13422444Y-16797627D02*
X13431968Y-16769055D01*
X13431968Y-16769055D02*
X13441491Y-16750008D01*
X13441491Y-16750008D02*
X13460539Y-16721436D01*
X13460539Y-16721436D02*
X13470063Y-16711912D01*
X13651015Y-16940484D02*
X13536729Y-16940484D01*
X13593872Y-16940484D02*
X13593872Y-16740484D01*
X13593872Y-16740484D02*
X13574825Y-16769055D01*
X13574825Y-16769055D02*
X13555777Y-16788103D01*
X13555777Y-16788103D02*
X13536729Y-16797627D01*
X13727206Y-16759531D02*
X13736729Y-16750008D01*
X13736729Y-16750008D02*
X13755777Y-16740484D01*
X13755777Y-16740484D02*
X13803396Y-16740484D01*
X13803396Y-16740484D02*
X13822444Y-16750008D01*
X13822444Y-16750008D02*
X13831968Y-16759531D01*
X13831968Y-16759531D02*
X13841491Y-16778579D01*
X13841491Y-16778579D02*
X13841491Y-16797627D01*
X13841491Y-16797627D02*
X13831968Y-16826198D01*
X13831968Y-16826198D02*
X13717682Y-16940484D01*
X13717682Y-16940484D02*
X13841491Y-16940484D01*
X14079587Y-16940484D02*
X14079587Y-16740484D01*
X14165301Y-16940484D02*
X14165301Y-16835722D01*
X14165301Y-16835722D02*
X14155777Y-16816674D01*
X14155777Y-16816674D02*
X14136730Y-16807150D01*
X14136730Y-16807150D02*
X14108158Y-16807150D01*
X14108158Y-16807150D02*
X14089110Y-16816674D01*
X14089110Y-16816674D02*
X14079587Y-16826198D01*
X14289110Y-16940484D02*
X14270063Y-16930960D01*
X14270063Y-16930960D02*
X14260539Y-16921436D01*
X14260539Y-16921436D02*
X14251015Y-16902389D01*
X14251015Y-16902389D02*
X14251015Y-16845246D01*
X14251015Y-16845246D02*
X14260539Y-16826198D01*
X14260539Y-16826198D02*
X14270063Y-16816674D01*
X14270063Y-16816674D02*
X14289110Y-16807150D01*
X14289110Y-16807150D02*
X14317682Y-16807150D01*
X14317682Y-16807150D02*
X14336730Y-16816674D01*
X14336730Y-16816674D02*
X14346253Y-16826198D01*
X14346253Y-16826198D02*
X14355777Y-16845246D01*
X14355777Y-16845246D02*
X14355777Y-16902389D01*
X14355777Y-16902389D02*
X14346253Y-16921436D01*
X14346253Y-16921436D02*
X14336730Y-16930960D01*
X14336730Y-16930960D02*
X14317682Y-16940484D01*
X14317682Y-16940484D02*
X14289110Y-16940484D01*
X14470063Y-16940484D02*
X14451015Y-16930960D01*
X14451015Y-16930960D02*
X14441491Y-16911912D01*
X14441491Y-16911912D02*
X14441491Y-16740484D01*
X14622444Y-16930960D02*
X14603396Y-16940484D01*
X14603396Y-16940484D02*
X14565301Y-16940484D01*
X14565301Y-16940484D02*
X14546253Y-16930960D01*
X14546253Y-16930960D02*
X14536730Y-16911912D01*
X14536730Y-16911912D02*
X14536730Y-16835722D01*
X14536730Y-16835722D02*
X14546253Y-16816674D01*
X14546253Y-16816674D02*
X14565301Y-16807150D01*
X14565301Y-16807150D02*
X14603396Y-16807150D01*
X14603396Y-16807150D02*
X14622444Y-16816674D01*
X14622444Y-16816674D02*
X14631968Y-16835722D01*
X14631968Y-16835722D02*
X14631968Y-16854770D01*
X14631968Y-16854770D02*
X14536730Y-16873817D01*
X14708158Y-16930960D02*
X14727206Y-16940484D01*
X14727206Y-16940484D02*
X14765301Y-16940484D01*
X14765301Y-16940484D02*
X14784349Y-16930960D01*
X14784349Y-16930960D02*
X14793872Y-16911912D01*
X14793872Y-16911912D02*
X14793872Y-16902389D01*
X14793872Y-16902389D02*
X14784349Y-16883341D01*
X14784349Y-16883341D02*
X14765301Y-16873817D01*
X14765301Y-16873817D02*
X14736730Y-16873817D01*
X14736730Y-16873817D02*
X14717682Y-16864293D01*
X14717682Y-16864293D02*
X14708158Y-16845246D01*
X14708158Y-16845246D02*
X14708158Y-16835722D01*
X14708158Y-16835722D02*
X14717682Y-16816674D01*
X14717682Y-16816674D02*
X14736730Y-16807150D01*
X14736730Y-16807150D02*
X14765301Y-16807150D01*
X14765301Y-16807150D02*
X14784349Y-16816674D01*
X14860539Y-17016674D02*
X14870063Y-17007150D01*
X14870063Y-17007150D02*
X14889111Y-16978579D01*
X14889111Y-16978579D02*
X14898634Y-16959531D01*
X14898634Y-16959531D02*
X14908158Y-16930960D01*
X14908158Y-16930960D02*
X14917682Y-16883341D01*
X14917682Y-16883341D02*
X14917682Y-16845246D01*
X14917682Y-16845246D02*
X14908158Y-16797627D01*
X14908158Y-16797627D02*
X14898634Y-16769055D01*
X14898634Y-16769055D02*
X14889111Y-16750008D01*
X14889111Y-16750008D02*
X14870063Y-16721436D01*
X14870063Y-16721436D02*
X14860539Y-16711912D01*
D10*
X9865000Y-17083000D02*
X9865000Y-17143000D01*
X9835000Y-17113000D02*
X9895000Y-17113000D01*
D11*
X10193872Y-17004484D02*
X10212920Y-17004484D01*
X10212920Y-17004484D02*
X10231967Y-17014008D01*
X10231967Y-17014008D02*
X10241491Y-17023531D01*
X10241491Y-17023531D02*
X10251015Y-17042579D01*
X10251015Y-17042579D02*
X10260539Y-17080674D01*
X10260539Y-17080674D02*
X10260539Y-17128293D01*
X10260539Y-17128293D02*
X10251015Y-17166389D01*
X10251015Y-17166389D02*
X10241491Y-17185436D01*
X10241491Y-17185436D02*
X10231967Y-17194960D01*
X10231967Y-17194960D02*
X10212920Y-17204484D01*
X10212920Y-17204484D02*
X10193872Y-17204484D01*
X10193872Y-17204484D02*
X10174824Y-17194960D01*
X10174824Y-17194960D02*
X10165301Y-17185436D01*
X10165301Y-17185436D02*
X10155777Y-17166389D01*
X10155777Y-17166389D02*
X10146253Y-17128293D01*
X10146253Y-17128293D02*
X10146253Y-17080674D01*
X10146253Y-17080674D02*
X10155777Y-17042579D01*
X10155777Y-17042579D02*
X10165301Y-17023531D01*
X10165301Y-17023531D02*
X10174824Y-17014008D01*
X10174824Y-17014008D02*
X10193872Y-17004484D01*
X10346253Y-17185436D02*
X10355777Y-17194960D01*
X10355777Y-17194960D02*
X10346253Y-17204484D01*
X10346253Y-17204484D02*
X10336729Y-17194960D01*
X10336729Y-17194960D02*
X10346253Y-17185436D01*
X10346253Y-17185436D02*
X10346253Y-17204484D01*
X10527205Y-17004484D02*
X10489110Y-17004484D01*
X10489110Y-17004484D02*
X10470063Y-17014008D01*
X10470063Y-17014008D02*
X10460539Y-17023531D01*
X10460539Y-17023531D02*
X10441491Y-17052103D01*
X10441491Y-17052103D02*
X10431967Y-17090198D01*
X10431967Y-17090198D02*
X10431967Y-17166389D01*
X10431967Y-17166389D02*
X10441491Y-17185436D01*
X10441491Y-17185436D02*
X10451015Y-17194960D01*
X10451015Y-17194960D02*
X10470063Y-17204484D01*
X10470063Y-17204484D02*
X10508158Y-17204484D01*
X10508158Y-17204484D02*
X10527205Y-17194960D01*
X10527205Y-17194960D02*
X10536729Y-17185436D01*
X10536729Y-17185436D02*
X10546253Y-17166389D01*
X10546253Y-17166389D02*
X10546253Y-17118770D01*
X10546253Y-17118770D02*
X10536729Y-17099722D01*
X10536729Y-17099722D02*
X10527205Y-17090198D01*
X10527205Y-17090198D02*
X10508158Y-17080674D01*
X10508158Y-17080674D02*
X10470063Y-17080674D01*
X10470063Y-17080674D02*
X10451015Y-17090198D01*
X10451015Y-17090198D02*
X10441491Y-17099722D01*
X10441491Y-17099722D02*
X10431967Y-17118770D01*
X10670063Y-17004484D02*
X10689110Y-17004484D01*
X10689110Y-17004484D02*
X10708158Y-17014008D01*
X10708158Y-17014008D02*
X10717682Y-17023531D01*
X10717682Y-17023531D02*
X10727205Y-17042579D01*
X10727205Y-17042579D02*
X10736729Y-17080674D01*
X10736729Y-17080674D02*
X10736729Y-17128293D01*
X10736729Y-17128293D02*
X10727205Y-17166389D01*
X10727205Y-17166389D02*
X10717682Y-17185436D01*
X10717682Y-17185436D02*
X10708158Y-17194960D01*
X10708158Y-17194960D02*
X10689110Y-17204484D01*
X10689110Y-17204484D02*
X10670063Y-17204484D01*
X10670063Y-17204484D02*
X10651015Y-17194960D01*
X10651015Y-17194960D02*
X10641491Y-17185436D01*
X10641491Y-17185436D02*
X10631967Y-17166389D01*
X10631967Y-17166389D02*
X10622444Y-17128293D01*
X10622444Y-17128293D02*
X10622444Y-17080674D01*
X10622444Y-17080674D02*
X10631967Y-17042579D01*
X10631967Y-17042579D02*
X10641491Y-17023531D01*
X10641491Y-17023531D02*
X10651015Y-17014008D01*
X10651015Y-17014008D02*
X10670063Y-17004484D01*
X10860539Y-17004484D02*
X10879586Y-17004484D01*
X10879586Y-17004484D02*
X10898634Y-17014008D01*
X10898634Y-17014008D02*
X10908158Y-17023531D01*
X10908158Y-17023531D02*
X10917682Y-17042579D01*
X10917682Y-17042579D02*
X10927205Y-17080674D01*
X10927205Y-17080674D02*
X10927205Y-17128293D01*
X10927205Y-17128293D02*
X10917682Y-17166389D01*
X10917682Y-17166389D02*
X10908158Y-17185436D01*
X10908158Y-17185436D02*
X10898634Y-17194960D01*
X10898634Y-17194960D02*
X10879586Y-17204484D01*
X10879586Y-17204484D02*
X10860539Y-17204484D01*
X10860539Y-17204484D02*
X10841491Y-17194960D01*
X10841491Y-17194960D02*
X10831967Y-17185436D01*
X10831967Y-17185436D02*
X10822444Y-17166389D01*
X10822444Y-17166389D02*
X10812920Y-17128293D01*
X10812920Y-17128293D02*
X10812920Y-17080674D01*
X10812920Y-17080674D02*
X10822444Y-17042579D01*
X10822444Y-17042579D02*
X10831967Y-17023531D01*
X10831967Y-17023531D02*
X10841491Y-17014008D01*
X10841491Y-17014008D02*
X10860539Y-17004484D01*
X11012920Y-17204484D02*
X11012920Y-17071150D01*
X11012920Y-17090198D02*
X11022444Y-17080674D01*
X11022444Y-17080674D02*
X11041491Y-17071150D01*
X11041491Y-17071150D02*
X11070063Y-17071150D01*
X11070063Y-17071150D02*
X11089110Y-17080674D01*
X11089110Y-17080674D02*
X11098634Y-17099722D01*
X11098634Y-17099722D02*
X11098634Y-17204484D01*
X11098634Y-17099722D02*
X11108158Y-17080674D01*
X11108158Y-17080674D02*
X11127205Y-17071150D01*
X11127205Y-17071150D02*
X11155777Y-17071150D01*
X11155777Y-17071150D02*
X11174825Y-17080674D01*
X11174825Y-17080674D02*
X11184348Y-17099722D01*
X11184348Y-17099722D02*
X11184348Y-17204484D01*
X11279586Y-17204484D02*
X11279586Y-17071150D01*
X11279586Y-17090198D02*
X11289110Y-17080674D01*
X11289110Y-17080674D02*
X11308158Y-17071150D01*
X11308158Y-17071150D02*
X11336729Y-17071150D01*
X11336729Y-17071150D02*
X11355777Y-17080674D01*
X11355777Y-17080674D02*
X11365301Y-17099722D01*
X11365301Y-17099722D02*
X11365301Y-17204484D01*
X11365301Y-17099722D02*
X11374824Y-17080674D01*
X11374824Y-17080674D02*
X11393872Y-17071150D01*
X11393872Y-17071150D02*
X11422443Y-17071150D01*
X11422443Y-17071150D02*
X11441491Y-17080674D01*
X11441491Y-17080674D02*
X11451015Y-17099722D01*
X11451015Y-17099722D02*
X11451015Y-17204484D01*
X11841491Y-16994960D02*
X11670063Y-17252103D01*
X12098634Y-17004484D02*
X12117682Y-17004484D01*
X12117682Y-17004484D02*
X12136729Y-17014008D01*
X12136729Y-17014008D02*
X12146253Y-17023531D01*
X12146253Y-17023531D02*
X12155777Y-17042579D01*
X12155777Y-17042579D02*
X12165301Y-17080674D01*
X12165301Y-17080674D02*
X12165301Y-17128293D01*
X12165301Y-17128293D02*
X12155777Y-17166389D01*
X12155777Y-17166389D02*
X12146253Y-17185436D01*
X12146253Y-17185436D02*
X12136729Y-17194960D01*
X12136729Y-17194960D02*
X12117682Y-17204484D01*
X12117682Y-17204484D02*
X12098634Y-17204484D01*
X12098634Y-17204484D02*
X12079586Y-17194960D01*
X12079586Y-17194960D02*
X12070063Y-17185436D01*
X12070063Y-17185436D02*
X12060539Y-17166389D01*
X12060539Y-17166389D02*
X12051015Y-17128293D01*
X12051015Y-17128293D02*
X12051015Y-17080674D01*
X12051015Y-17080674D02*
X12060539Y-17042579D01*
X12060539Y-17042579D02*
X12070063Y-17023531D01*
X12070063Y-17023531D02*
X12079586Y-17014008D01*
X12079586Y-17014008D02*
X12098634Y-17004484D01*
X12251015Y-17185436D02*
X12260539Y-17194960D01*
X12260539Y-17194960D02*
X12251015Y-17204484D01*
X12251015Y-17204484D02*
X12241491Y-17194960D01*
X12241491Y-17194960D02*
X12251015Y-17185436D01*
X12251015Y-17185436D02*
X12251015Y-17204484D01*
X12384348Y-17004484D02*
X12403396Y-17004484D01*
X12403396Y-17004484D02*
X12422444Y-17014008D01*
X12422444Y-17014008D02*
X12431967Y-17023531D01*
X12431967Y-17023531D02*
X12441491Y-17042579D01*
X12441491Y-17042579D02*
X12451015Y-17080674D01*
X12451015Y-17080674D02*
X12451015Y-17128293D01*
X12451015Y-17128293D02*
X12441491Y-17166389D01*
X12441491Y-17166389D02*
X12431967Y-17185436D01*
X12431967Y-17185436D02*
X12422444Y-17194960D01*
X12422444Y-17194960D02*
X12403396Y-17204484D01*
X12403396Y-17204484D02*
X12384348Y-17204484D01*
X12384348Y-17204484D02*
X12365301Y-17194960D01*
X12365301Y-17194960D02*
X12355777Y-17185436D01*
X12355777Y-17185436D02*
X12346253Y-17166389D01*
X12346253Y-17166389D02*
X12336729Y-17128293D01*
X12336729Y-17128293D02*
X12336729Y-17080674D01*
X12336729Y-17080674D02*
X12346253Y-17042579D01*
X12346253Y-17042579D02*
X12355777Y-17023531D01*
X12355777Y-17023531D02*
X12365301Y-17014008D01*
X12365301Y-17014008D02*
X12384348Y-17004484D01*
X12527206Y-17023531D02*
X12536729Y-17014008D01*
X12536729Y-17014008D02*
X12555777Y-17004484D01*
X12555777Y-17004484D02*
X12603396Y-17004484D01*
X12603396Y-17004484D02*
X12622444Y-17014008D01*
X12622444Y-17014008D02*
X12631967Y-17023531D01*
X12631967Y-17023531D02*
X12641491Y-17042579D01*
X12641491Y-17042579D02*
X12641491Y-17061627D01*
X12641491Y-17061627D02*
X12631967Y-17090198D01*
X12631967Y-17090198D02*
X12517682Y-17204484D01*
X12517682Y-17204484D02*
X12641491Y-17204484D01*
X12708158Y-17004484D02*
X12831967Y-17004484D01*
X12831967Y-17004484D02*
X12765301Y-17080674D01*
X12765301Y-17080674D02*
X12793872Y-17080674D01*
X12793872Y-17080674D02*
X12812920Y-17090198D01*
X12812920Y-17090198D02*
X12822444Y-17099722D01*
X12822444Y-17099722D02*
X12831967Y-17118770D01*
X12831967Y-17118770D02*
X12831967Y-17166389D01*
X12831967Y-17166389D02*
X12822444Y-17185436D01*
X12822444Y-17185436D02*
X12812920Y-17194960D01*
X12812920Y-17194960D02*
X12793872Y-17204484D01*
X12793872Y-17204484D02*
X12736729Y-17204484D01*
X12736729Y-17204484D02*
X12717682Y-17194960D01*
X12717682Y-17194960D02*
X12708158Y-17185436D01*
X13003396Y-17004484D02*
X12965301Y-17004484D01*
X12965301Y-17004484D02*
X12946253Y-17014008D01*
X12946253Y-17014008D02*
X12936729Y-17023531D01*
X12936729Y-17023531D02*
X12917682Y-17052103D01*
X12917682Y-17052103D02*
X12908158Y-17090198D01*
X12908158Y-17090198D02*
X12908158Y-17166389D01*
X12908158Y-17166389D02*
X12917682Y-17185436D01*
X12917682Y-17185436D02*
X12927206Y-17194960D01*
X12927206Y-17194960D02*
X12946253Y-17204484D01*
X12946253Y-17204484D02*
X12984348Y-17204484D01*
X12984348Y-17204484D02*
X13003396Y-17194960D01*
X13003396Y-17194960D02*
X13012920Y-17185436D01*
X13012920Y-17185436D02*
X13022444Y-17166389D01*
X13022444Y-17166389D02*
X13022444Y-17118770D01*
X13022444Y-17118770D02*
X13012920Y-17099722D01*
X13012920Y-17099722D02*
X13003396Y-17090198D01*
X13003396Y-17090198D02*
X12984348Y-17080674D01*
X12984348Y-17080674D02*
X12946253Y-17080674D01*
X12946253Y-17080674D02*
X12927206Y-17090198D01*
X12927206Y-17090198D02*
X12917682Y-17099722D01*
X12917682Y-17099722D02*
X12908158Y-17118770D01*
X13098634Y-17004484D02*
X13098634Y-17042579D01*
X13174825Y-17004484D02*
X13174825Y-17042579D01*
X13470063Y-17280674D02*
X13460539Y-17271150D01*
X13460539Y-17271150D02*
X13441491Y-17242579D01*
X13441491Y-17242579D02*
X13431968Y-17223531D01*
X13431968Y-17223531D02*
X13422444Y-17194960D01*
X13422444Y-17194960D02*
X13412920Y-17147341D01*
X13412920Y-17147341D02*
X13412920Y-17109246D01*
X13412920Y-17109246D02*
X13422444Y-17061627D01*
X13422444Y-17061627D02*
X13431968Y-17033055D01*
X13431968Y-17033055D02*
X13441491Y-17014008D01*
X13441491Y-17014008D02*
X13460539Y-16985436D01*
X13460539Y-16985436D02*
X13470063Y-16975912D01*
X13584348Y-17004484D02*
X13603396Y-17004484D01*
X13603396Y-17004484D02*
X13622444Y-17014008D01*
X13622444Y-17014008D02*
X13631968Y-17023531D01*
X13631968Y-17023531D02*
X13641491Y-17042579D01*
X13641491Y-17042579D02*
X13651015Y-17080674D01*
X13651015Y-17080674D02*
X13651015Y-17128293D01*
X13651015Y-17128293D02*
X13641491Y-17166389D01*
X13641491Y-17166389D02*
X13631968Y-17185436D01*
X13631968Y-17185436D02*
X13622444Y-17194960D01*
X13622444Y-17194960D02*
X13603396Y-17204484D01*
X13603396Y-17204484D02*
X13584348Y-17204484D01*
X13584348Y-17204484D02*
X13565301Y-17194960D01*
X13565301Y-17194960D02*
X13555777Y-17185436D01*
X13555777Y-17185436D02*
X13546253Y-17166389D01*
X13546253Y-17166389D02*
X13536729Y-17128293D01*
X13536729Y-17128293D02*
X13536729Y-17080674D01*
X13536729Y-17080674D02*
X13546253Y-17042579D01*
X13546253Y-17042579D02*
X13555777Y-17023531D01*
X13555777Y-17023531D02*
X13565301Y-17014008D01*
X13565301Y-17014008D02*
X13584348Y-17004484D01*
X13889110Y-17204484D02*
X13889110Y-17004484D01*
X13974825Y-17204484D02*
X13974825Y-17099722D01*
X13974825Y-17099722D02*
X13965301Y-17080674D01*
X13965301Y-17080674D02*
X13946253Y-17071150D01*
X13946253Y-17071150D02*
X13917682Y-17071150D01*
X13917682Y-17071150D02*
X13898634Y-17080674D01*
X13898634Y-17080674D02*
X13889110Y-17090198D01*
X14098634Y-17204484D02*
X14079587Y-17194960D01*
X14079587Y-17194960D02*
X14070063Y-17185436D01*
X14070063Y-17185436D02*
X14060539Y-17166389D01*
X14060539Y-17166389D02*
X14060539Y-17109246D01*
X14060539Y-17109246D02*
X14070063Y-17090198D01*
X14070063Y-17090198D02*
X14079587Y-17080674D01*
X14079587Y-17080674D02*
X14098634Y-17071150D01*
X14098634Y-17071150D02*
X14127206Y-17071150D01*
X14127206Y-17071150D02*
X14146253Y-17080674D01*
X14146253Y-17080674D02*
X14155777Y-17090198D01*
X14155777Y-17090198D02*
X14165301Y-17109246D01*
X14165301Y-17109246D02*
X14165301Y-17166389D01*
X14165301Y-17166389D02*
X14155777Y-17185436D01*
X14155777Y-17185436D02*
X14146253Y-17194960D01*
X14146253Y-17194960D02*
X14127206Y-17204484D01*
X14127206Y-17204484D02*
X14098634Y-17204484D01*
X14279587Y-17204484D02*
X14260539Y-17194960D01*
X14260539Y-17194960D02*
X14251015Y-17175912D01*
X14251015Y-17175912D02*
X14251015Y-17004484D01*
X14431968Y-17194960D02*
X14412920Y-17204484D01*
X14412920Y-17204484D02*
X14374825Y-17204484D01*
X14374825Y-17204484D02*
X14355777Y-17194960D01*
X14355777Y-17194960D02*
X14346253Y-17175912D01*
X14346253Y-17175912D02*
X14346253Y-17099722D01*
X14346253Y-17099722D02*
X14355777Y-17080674D01*
X14355777Y-17080674D02*
X14374825Y-17071150D01*
X14374825Y-17071150D02*
X14412920Y-17071150D01*
X14412920Y-17071150D02*
X14431968Y-17080674D01*
X14431968Y-17080674D02*
X14441491Y-17099722D01*
X14441491Y-17099722D02*
X14441491Y-17118770D01*
X14441491Y-17118770D02*
X14346253Y-17137817D01*
X14517682Y-17194960D02*
X14536730Y-17204484D01*
X14536730Y-17204484D02*
X14574825Y-17204484D01*
X14574825Y-17204484D02*
X14593872Y-17194960D01*
X14593872Y-17194960D02*
X14603396Y-17175912D01*
X14603396Y-17175912D02*
X14603396Y-17166389D01*
X14603396Y-17166389D02*
X14593872Y-17147341D01*
X14593872Y-17147341D02*
X14574825Y-17137817D01*
X14574825Y-17137817D02*
X14546253Y-17137817D01*
X14546253Y-17137817D02*
X14527206Y-17128293D01*
X14527206Y-17128293D02*
X14517682Y-17109246D01*
X14517682Y-17109246D02*
X14517682Y-17099722D01*
X14517682Y-17099722D02*
X14527206Y-17080674D01*
X14527206Y-17080674D02*
X14546253Y-17071150D01*
X14546253Y-17071150D02*
X14574825Y-17071150D01*
X14574825Y-17071150D02*
X14593872Y-17080674D01*
X14841492Y-17128293D02*
X14993873Y-17128293D01*
X14917682Y-17204484D02*
X14917682Y-17052103D01*
X15327206Y-17071150D02*
X15327206Y-17204484D01*
X15279587Y-16994960D02*
X15231968Y-17137817D01*
X15231968Y-17137817D02*
X15355777Y-17137817D01*
X15574825Y-17194960D02*
X15593873Y-17204484D01*
X15593873Y-17204484D02*
X15631968Y-17204484D01*
X15631968Y-17204484D02*
X15651015Y-17194960D01*
X15651015Y-17194960D02*
X15660539Y-17175912D01*
X15660539Y-17175912D02*
X15660539Y-17166389D01*
X15660539Y-17166389D02*
X15651015Y-17147341D01*
X15651015Y-17147341D02*
X15631968Y-17137817D01*
X15631968Y-17137817D02*
X15603396Y-17137817D01*
X15603396Y-17137817D02*
X15584349Y-17128293D01*
X15584349Y-17128293D02*
X15574825Y-17109246D01*
X15574825Y-17109246D02*
X15574825Y-17099722D01*
X15574825Y-17099722D02*
X15584349Y-17080674D01*
X15584349Y-17080674D02*
X15603396Y-17071150D01*
X15603396Y-17071150D02*
X15631968Y-17071150D01*
X15631968Y-17071150D02*
X15651015Y-17080674D01*
X15774825Y-17204484D02*
X15755777Y-17194960D01*
X15755777Y-17194960D02*
X15746254Y-17175912D01*
X15746254Y-17175912D02*
X15746254Y-17004484D01*
X15879587Y-17204484D02*
X15860539Y-17194960D01*
X15860539Y-17194960D02*
X15851015Y-17185436D01*
X15851015Y-17185436D02*
X15841492Y-17166389D01*
X15841492Y-17166389D02*
X15841492Y-17109246D01*
X15841492Y-17109246D02*
X15851015Y-17090198D01*
X15851015Y-17090198D02*
X15860539Y-17080674D01*
X15860539Y-17080674D02*
X15879587Y-17071150D01*
X15879587Y-17071150D02*
X15908158Y-17071150D01*
X15908158Y-17071150D02*
X15927206Y-17080674D01*
X15927206Y-17080674D02*
X15936730Y-17090198D01*
X15936730Y-17090198D02*
X15946254Y-17109246D01*
X15946254Y-17109246D02*
X15946254Y-17166389D01*
X15946254Y-17166389D02*
X15936730Y-17185436D01*
X15936730Y-17185436D02*
X15927206Y-17194960D01*
X15927206Y-17194960D02*
X15908158Y-17204484D01*
X15908158Y-17204484D02*
X15879587Y-17204484D01*
X16003396Y-17071150D02*
X16079587Y-17071150D01*
X16031968Y-17004484D02*
X16031968Y-17175912D01*
X16031968Y-17175912D02*
X16041492Y-17194960D01*
X16041492Y-17194960D02*
X16060539Y-17204484D01*
X16060539Y-17204484D02*
X16079587Y-17204484D01*
X16136730Y-17194960D02*
X16155777Y-17204484D01*
X16155777Y-17204484D02*
X16193873Y-17204484D01*
X16193873Y-17204484D02*
X16212920Y-17194960D01*
X16212920Y-17194960D02*
X16222444Y-17175912D01*
X16222444Y-17175912D02*
X16222444Y-17166389D01*
X16222444Y-17166389D02*
X16212920Y-17147341D01*
X16212920Y-17147341D02*
X16193873Y-17137817D01*
X16193873Y-17137817D02*
X16165301Y-17137817D01*
X16165301Y-17137817D02*
X16146254Y-17128293D01*
X16146254Y-17128293D02*
X16136730Y-17109246D01*
X16136730Y-17109246D02*
X16136730Y-17099722D01*
X16136730Y-17099722D02*
X16146254Y-17080674D01*
X16146254Y-17080674D02*
X16165301Y-17071150D01*
X16165301Y-17071150D02*
X16193873Y-17071150D01*
X16193873Y-17071150D02*
X16212920Y-17080674D01*
X16289111Y-17280674D02*
X16298635Y-17271150D01*
X16298635Y-17271150D02*
X16317682Y-17242579D01*
X16317682Y-17242579D02*
X16327206Y-17223531D01*
X16327206Y-17223531D02*
X16336730Y-17194960D01*
X16336730Y-17194960D02*
X16346254Y-17147341D01*
X16346254Y-17147341D02*
X16346254Y-17109246D01*
X16346254Y-17109246D02*
X16336730Y-17061627D01*
X16336730Y-17061627D02*
X16327206Y-17033055D01*
X16327206Y-17033055D02*
X16317682Y-17014008D01*
X16317682Y-17014008D02*
X16298635Y-16985436D01*
X16298635Y-16985436D02*
X16289111Y-16975912D01*
D10*
X9884749Y-17401749D02*
X9884749Y-17352251D01*
X9835251Y-17352251D01*
X9835251Y-17401749D01*
X9884749Y-17401749D01*
D11*
X10193872Y-17268484D02*
X10212920Y-17268484D01*
X10212920Y-17268484D02*
X10231967Y-17278008D01*
X10231967Y-17278008D02*
X10241491Y-17287531D01*
X10241491Y-17287531D02*
X10251015Y-17306579D01*
X10251015Y-17306579D02*
X10260539Y-17344674D01*
X10260539Y-17344674D02*
X10260539Y-17392293D01*
X10260539Y-17392293D02*
X10251015Y-17430389D01*
X10251015Y-17430389D02*
X10241491Y-17449436D01*
X10241491Y-17449436D02*
X10231967Y-17458960D01*
X10231967Y-17458960D02*
X10212920Y-17468484D01*
X10212920Y-17468484D02*
X10193872Y-17468484D01*
X10193872Y-17468484D02*
X10174824Y-17458960D01*
X10174824Y-17458960D02*
X10165301Y-17449436D01*
X10165301Y-17449436D02*
X10155777Y-17430389D01*
X10155777Y-17430389D02*
X10146253Y-17392293D01*
X10146253Y-17392293D02*
X10146253Y-17344674D01*
X10146253Y-17344674D02*
X10155777Y-17306579D01*
X10155777Y-17306579D02*
X10165301Y-17287531D01*
X10165301Y-17287531D02*
X10174824Y-17278008D01*
X10174824Y-17278008D02*
X10193872Y-17268484D01*
X10346253Y-17449436D02*
X10355777Y-17458960D01*
X10355777Y-17458960D02*
X10346253Y-17468484D01*
X10346253Y-17468484D02*
X10336729Y-17458960D01*
X10336729Y-17458960D02*
X10346253Y-17449436D01*
X10346253Y-17449436D02*
X10346253Y-17468484D01*
X10422444Y-17268484D02*
X10555777Y-17268484D01*
X10555777Y-17268484D02*
X10470063Y-17468484D01*
X10670063Y-17268484D02*
X10689110Y-17268484D01*
X10689110Y-17268484D02*
X10708158Y-17278008D01*
X10708158Y-17278008D02*
X10717682Y-17287531D01*
X10717682Y-17287531D02*
X10727205Y-17306579D01*
X10727205Y-17306579D02*
X10736729Y-17344674D01*
X10736729Y-17344674D02*
X10736729Y-17392293D01*
X10736729Y-17392293D02*
X10727205Y-17430389D01*
X10727205Y-17430389D02*
X10717682Y-17449436D01*
X10717682Y-17449436D02*
X10708158Y-17458960D01*
X10708158Y-17458960D02*
X10689110Y-17468484D01*
X10689110Y-17468484D02*
X10670063Y-17468484D01*
X10670063Y-17468484D02*
X10651015Y-17458960D01*
X10651015Y-17458960D02*
X10641491Y-17449436D01*
X10641491Y-17449436D02*
X10631967Y-17430389D01*
X10631967Y-17430389D02*
X10622444Y-17392293D01*
X10622444Y-17392293D02*
X10622444Y-17344674D01*
X10622444Y-17344674D02*
X10631967Y-17306579D01*
X10631967Y-17306579D02*
X10641491Y-17287531D01*
X10641491Y-17287531D02*
X10651015Y-17278008D01*
X10651015Y-17278008D02*
X10670063Y-17268484D01*
X10860539Y-17268484D02*
X10879586Y-17268484D01*
X10879586Y-17268484D02*
X10898634Y-17278008D01*
X10898634Y-17278008D02*
X10908158Y-17287531D01*
X10908158Y-17287531D02*
X10917682Y-17306579D01*
X10917682Y-17306579D02*
X10927205Y-17344674D01*
X10927205Y-17344674D02*
X10927205Y-17392293D01*
X10927205Y-17392293D02*
X10917682Y-17430389D01*
X10917682Y-17430389D02*
X10908158Y-17449436D01*
X10908158Y-17449436D02*
X10898634Y-17458960D01*
X10898634Y-17458960D02*
X10879586Y-17468484D01*
X10879586Y-17468484D02*
X10860539Y-17468484D01*
X10860539Y-17468484D02*
X10841491Y-17458960D01*
X10841491Y-17458960D02*
X10831967Y-17449436D01*
X10831967Y-17449436D02*
X10822444Y-17430389D01*
X10822444Y-17430389D02*
X10812920Y-17392293D01*
X10812920Y-17392293D02*
X10812920Y-17344674D01*
X10812920Y-17344674D02*
X10822444Y-17306579D01*
X10822444Y-17306579D02*
X10831967Y-17287531D01*
X10831967Y-17287531D02*
X10841491Y-17278008D01*
X10841491Y-17278008D02*
X10860539Y-17268484D01*
X11012920Y-17468484D02*
X11012920Y-17335150D01*
X11012920Y-17354198D02*
X11022444Y-17344674D01*
X11022444Y-17344674D02*
X11041491Y-17335150D01*
X11041491Y-17335150D02*
X11070063Y-17335150D01*
X11070063Y-17335150D02*
X11089110Y-17344674D01*
X11089110Y-17344674D02*
X11098634Y-17363722D01*
X11098634Y-17363722D02*
X11098634Y-17468484D01*
X11098634Y-17363722D02*
X11108158Y-17344674D01*
X11108158Y-17344674D02*
X11127205Y-17335150D01*
X11127205Y-17335150D02*
X11155777Y-17335150D01*
X11155777Y-17335150D02*
X11174825Y-17344674D01*
X11174825Y-17344674D02*
X11184348Y-17363722D01*
X11184348Y-17363722D02*
X11184348Y-17468484D01*
X11279586Y-17468484D02*
X11279586Y-17335150D01*
X11279586Y-17354198D02*
X11289110Y-17344674D01*
X11289110Y-17344674D02*
X11308158Y-17335150D01*
X11308158Y-17335150D02*
X11336729Y-17335150D01*
X11336729Y-17335150D02*
X11355777Y-17344674D01*
X11355777Y-17344674D02*
X11365301Y-17363722D01*
X11365301Y-17363722D02*
X11365301Y-17468484D01*
X11365301Y-17363722D02*
X11374824Y-17344674D01*
X11374824Y-17344674D02*
X11393872Y-17335150D01*
X11393872Y-17335150D02*
X11422443Y-17335150D01*
X11422443Y-17335150D02*
X11441491Y-17344674D01*
X11441491Y-17344674D02*
X11451015Y-17363722D01*
X11451015Y-17363722D02*
X11451015Y-17468484D01*
X11841491Y-17258960D02*
X11670063Y-17516103D01*
X12098634Y-17268484D02*
X12117682Y-17268484D01*
X12117682Y-17268484D02*
X12136729Y-17278008D01*
X12136729Y-17278008D02*
X12146253Y-17287531D01*
X12146253Y-17287531D02*
X12155777Y-17306579D01*
X12155777Y-17306579D02*
X12165301Y-17344674D01*
X12165301Y-17344674D02*
X12165301Y-17392293D01*
X12165301Y-17392293D02*
X12155777Y-17430389D01*
X12155777Y-17430389D02*
X12146253Y-17449436D01*
X12146253Y-17449436D02*
X12136729Y-17458960D01*
X12136729Y-17458960D02*
X12117682Y-17468484D01*
X12117682Y-17468484D02*
X12098634Y-17468484D01*
X12098634Y-17468484D02*
X12079586Y-17458960D01*
X12079586Y-17458960D02*
X12070063Y-17449436D01*
X12070063Y-17449436D02*
X12060539Y-17430389D01*
X12060539Y-17430389D02*
X12051015Y-17392293D01*
X12051015Y-17392293D02*
X12051015Y-17344674D01*
X12051015Y-17344674D02*
X12060539Y-17306579D01*
X12060539Y-17306579D02*
X12070063Y-17287531D01*
X12070063Y-17287531D02*
X12079586Y-17278008D01*
X12079586Y-17278008D02*
X12098634Y-17268484D01*
X12251015Y-17449436D02*
X12260539Y-17458960D01*
X12260539Y-17458960D02*
X12251015Y-17468484D01*
X12251015Y-17468484D02*
X12241491Y-17458960D01*
X12241491Y-17458960D02*
X12251015Y-17449436D01*
X12251015Y-17449436D02*
X12251015Y-17468484D01*
X12384348Y-17268484D02*
X12403396Y-17268484D01*
X12403396Y-17268484D02*
X12422444Y-17278008D01*
X12422444Y-17278008D02*
X12431967Y-17287531D01*
X12431967Y-17287531D02*
X12441491Y-17306579D01*
X12441491Y-17306579D02*
X12451015Y-17344674D01*
X12451015Y-17344674D02*
X12451015Y-17392293D01*
X12451015Y-17392293D02*
X12441491Y-17430389D01*
X12441491Y-17430389D02*
X12431967Y-17449436D01*
X12431967Y-17449436D02*
X12422444Y-17458960D01*
X12422444Y-17458960D02*
X12403396Y-17468484D01*
X12403396Y-17468484D02*
X12384348Y-17468484D01*
X12384348Y-17468484D02*
X12365301Y-17458960D01*
X12365301Y-17458960D02*
X12355777Y-17449436D01*
X12355777Y-17449436D02*
X12346253Y-17430389D01*
X12346253Y-17430389D02*
X12336729Y-17392293D01*
X12336729Y-17392293D02*
X12336729Y-17344674D01*
X12336729Y-17344674D02*
X12346253Y-17306579D01*
X12346253Y-17306579D02*
X12355777Y-17287531D01*
X12355777Y-17287531D02*
X12365301Y-17278008D01*
X12365301Y-17278008D02*
X12384348Y-17268484D01*
X12527206Y-17287531D02*
X12536729Y-17278008D01*
X12536729Y-17278008D02*
X12555777Y-17268484D01*
X12555777Y-17268484D02*
X12603396Y-17268484D01*
X12603396Y-17268484D02*
X12622444Y-17278008D01*
X12622444Y-17278008D02*
X12631967Y-17287531D01*
X12631967Y-17287531D02*
X12641491Y-17306579D01*
X12641491Y-17306579D02*
X12641491Y-17325627D01*
X12641491Y-17325627D02*
X12631967Y-17354198D01*
X12631967Y-17354198D02*
X12517682Y-17468484D01*
X12517682Y-17468484D02*
X12641491Y-17468484D01*
X12708158Y-17268484D02*
X12841491Y-17268484D01*
X12841491Y-17268484D02*
X12755777Y-17468484D01*
X13003396Y-17268484D02*
X12965301Y-17268484D01*
X12965301Y-17268484D02*
X12946253Y-17278008D01*
X12946253Y-17278008D02*
X12936729Y-17287531D01*
X12936729Y-17287531D02*
X12917682Y-17316103D01*
X12917682Y-17316103D02*
X12908158Y-17354198D01*
X12908158Y-17354198D02*
X12908158Y-17430389D01*
X12908158Y-17430389D02*
X12917682Y-17449436D01*
X12917682Y-17449436D02*
X12927206Y-17458960D01*
X12927206Y-17458960D02*
X12946253Y-17468484D01*
X12946253Y-17468484D02*
X12984348Y-17468484D01*
X12984348Y-17468484D02*
X13003396Y-17458960D01*
X13003396Y-17458960D02*
X13012920Y-17449436D01*
X13012920Y-17449436D02*
X13022444Y-17430389D01*
X13022444Y-17430389D02*
X13022444Y-17382770D01*
X13022444Y-17382770D02*
X13012920Y-17363722D01*
X13012920Y-17363722D02*
X13003396Y-17354198D01*
X13003396Y-17354198D02*
X12984348Y-17344674D01*
X12984348Y-17344674D02*
X12946253Y-17344674D01*
X12946253Y-17344674D02*
X12927206Y-17354198D01*
X12927206Y-17354198D02*
X12917682Y-17363722D01*
X12917682Y-17363722D02*
X12908158Y-17382770D01*
X13098634Y-17268484D02*
X13098634Y-17306579D01*
X13174825Y-17268484D02*
X13174825Y-17306579D01*
X13470063Y-17544674D02*
X13460539Y-17535150D01*
X13460539Y-17535150D02*
X13441491Y-17506579D01*
X13441491Y-17506579D02*
X13431968Y-17487531D01*
X13431968Y-17487531D02*
X13422444Y-17458960D01*
X13422444Y-17458960D02*
X13412920Y-17411341D01*
X13412920Y-17411341D02*
X13412920Y-17373246D01*
X13412920Y-17373246D02*
X13422444Y-17325627D01*
X13422444Y-17325627D02*
X13431968Y-17297055D01*
X13431968Y-17297055D02*
X13441491Y-17278008D01*
X13441491Y-17278008D02*
X13460539Y-17249436D01*
X13460539Y-17249436D02*
X13470063Y-17239912D01*
X13651015Y-17468484D02*
X13536729Y-17468484D01*
X13593872Y-17468484D02*
X13593872Y-17268484D01*
X13593872Y-17268484D02*
X13574825Y-17297055D01*
X13574825Y-17297055D02*
X13555777Y-17316103D01*
X13555777Y-17316103D02*
X13536729Y-17325627D01*
X13774825Y-17268484D02*
X13793872Y-17268484D01*
X13793872Y-17268484D02*
X13812920Y-17278008D01*
X13812920Y-17278008D02*
X13822444Y-17287531D01*
X13822444Y-17287531D02*
X13831968Y-17306579D01*
X13831968Y-17306579D02*
X13841491Y-17344674D01*
X13841491Y-17344674D02*
X13841491Y-17392293D01*
X13841491Y-17392293D02*
X13831968Y-17430389D01*
X13831968Y-17430389D02*
X13822444Y-17449436D01*
X13822444Y-17449436D02*
X13812920Y-17458960D01*
X13812920Y-17458960D02*
X13793872Y-17468484D01*
X13793872Y-17468484D02*
X13774825Y-17468484D01*
X13774825Y-17468484D02*
X13755777Y-17458960D01*
X13755777Y-17458960D02*
X13746253Y-17449436D01*
X13746253Y-17449436D02*
X13736729Y-17430389D01*
X13736729Y-17430389D02*
X13727206Y-17392293D01*
X13727206Y-17392293D02*
X13727206Y-17344674D01*
X13727206Y-17344674D02*
X13736729Y-17306579D01*
X13736729Y-17306579D02*
X13746253Y-17287531D01*
X13746253Y-17287531D02*
X13755777Y-17278008D01*
X13755777Y-17278008D02*
X13774825Y-17268484D01*
X14079587Y-17468484D02*
X14079587Y-17268484D01*
X14165301Y-17468484D02*
X14165301Y-17363722D01*
X14165301Y-17363722D02*
X14155777Y-17344674D01*
X14155777Y-17344674D02*
X14136730Y-17335150D01*
X14136730Y-17335150D02*
X14108158Y-17335150D01*
X14108158Y-17335150D02*
X14089110Y-17344674D01*
X14089110Y-17344674D02*
X14079587Y-17354198D01*
X14289110Y-17468484D02*
X14270063Y-17458960D01*
X14270063Y-17458960D02*
X14260539Y-17449436D01*
X14260539Y-17449436D02*
X14251015Y-17430389D01*
X14251015Y-17430389D02*
X14251015Y-17373246D01*
X14251015Y-17373246D02*
X14260539Y-17354198D01*
X14260539Y-17354198D02*
X14270063Y-17344674D01*
X14270063Y-17344674D02*
X14289110Y-17335150D01*
X14289110Y-17335150D02*
X14317682Y-17335150D01*
X14317682Y-17335150D02*
X14336730Y-17344674D01*
X14336730Y-17344674D02*
X14346253Y-17354198D01*
X14346253Y-17354198D02*
X14355777Y-17373246D01*
X14355777Y-17373246D02*
X14355777Y-17430389D01*
X14355777Y-17430389D02*
X14346253Y-17449436D01*
X14346253Y-17449436D02*
X14336730Y-17458960D01*
X14336730Y-17458960D02*
X14317682Y-17468484D01*
X14317682Y-17468484D02*
X14289110Y-17468484D01*
X14470063Y-17468484D02*
X14451015Y-17458960D01*
X14451015Y-17458960D02*
X14441491Y-17439912D01*
X14441491Y-17439912D02*
X14441491Y-17268484D01*
X14622444Y-17458960D02*
X14603396Y-17468484D01*
X14603396Y-17468484D02*
X14565301Y-17468484D01*
X14565301Y-17468484D02*
X14546253Y-17458960D01*
X14546253Y-17458960D02*
X14536730Y-17439912D01*
X14536730Y-17439912D02*
X14536730Y-17363722D01*
X14536730Y-17363722D02*
X14546253Y-17344674D01*
X14546253Y-17344674D02*
X14565301Y-17335150D01*
X14565301Y-17335150D02*
X14603396Y-17335150D01*
X14603396Y-17335150D02*
X14622444Y-17344674D01*
X14622444Y-17344674D02*
X14631968Y-17363722D01*
X14631968Y-17363722D02*
X14631968Y-17382770D01*
X14631968Y-17382770D02*
X14536730Y-17401817D01*
X14708158Y-17458960D02*
X14727206Y-17468484D01*
X14727206Y-17468484D02*
X14765301Y-17468484D01*
X14765301Y-17468484D02*
X14784349Y-17458960D01*
X14784349Y-17458960D02*
X14793872Y-17439912D01*
X14793872Y-17439912D02*
X14793872Y-17430389D01*
X14793872Y-17430389D02*
X14784349Y-17411341D01*
X14784349Y-17411341D02*
X14765301Y-17401817D01*
X14765301Y-17401817D02*
X14736730Y-17401817D01*
X14736730Y-17401817D02*
X14717682Y-17392293D01*
X14717682Y-17392293D02*
X14708158Y-17373246D01*
X14708158Y-17373246D02*
X14708158Y-17363722D01*
X14708158Y-17363722D02*
X14717682Y-17344674D01*
X14717682Y-17344674D02*
X14736730Y-17335150D01*
X14736730Y-17335150D02*
X14765301Y-17335150D01*
X14765301Y-17335150D02*
X14784349Y-17344674D01*
X14860539Y-17544674D02*
X14870063Y-17535150D01*
X14870063Y-17535150D02*
X14889111Y-17506579D01*
X14889111Y-17506579D02*
X14898634Y-17487531D01*
X14898634Y-17487531D02*
X14908158Y-17458960D01*
X14908158Y-17458960D02*
X14917682Y-17411341D01*
X14917682Y-17411341D02*
X14917682Y-17373246D01*
X14917682Y-17373246D02*
X14908158Y-17325627D01*
X14908158Y-17325627D02*
X14898634Y-17297055D01*
X14898634Y-17297055D02*
X14889111Y-17278008D01*
X14889111Y-17278008D02*
X14870063Y-17249436D01*
X14870063Y-17249436D02*
X14860539Y-17239912D01*
M02*
