G04 #@! TF.GenerationSoftware,KiCad,Pcbnew,7.0.9*
G04 #@! TF.CreationDate,2023-12-09T12:26:50+01:00*
G04 #@! TF.ProjectId,AirMonitor,4169724d-6f6e-4697-946f-722e6b696361,1.0.0*
G04 #@! TF.SameCoordinates,Original*
G04 #@! TF.FileFunction,Legend,Top*
G04 #@! TF.FilePolarity,Positive*
%FSLAX46Y46*%
G04 Gerber Fmt 4.6, Leading zero omitted, Abs format (unit mm)*
G04 Created by KiCad (PCBNEW 7.0.9) date 2023-12-09 12:26:50*
%MOMM*%
%LPD*%
G01*
G04 APERTURE LIST*
G04 Aperture macros list*
%AMRoundRect*
0 Rectangle with rounded corners*
0 $1 Rounding radius*
0 $2 $3 $4 $5 $6 $7 $8 $9 X,Y pos of 4 corners*
0 Add a 4 corners polygon primitive as box body*
4,1,4,$2,$3,$4,$5,$6,$7,$8,$9,$2,$3,0*
0 Add four circle primitives for the rounded corners*
1,1,$1+$1,$2,$3*
1,1,$1+$1,$4,$5*
1,1,$1+$1,$6,$7*
1,1,$1+$1,$8,$9*
0 Add four rect primitives between the rounded corners*
20,1,$1+$1,$2,$3,$4,$5,0*
20,1,$1+$1,$4,$5,$6,$7,0*
20,1,$1+$1,$6,$7,$8,$9,0*
20,1,$1+$1,$8,$9,$2,$3,0*%
%AMFreePoly0*
4,1,6,0.725000,-0.725000,-0.725000,-0.725000,-0.725000,0.125000,-0.125000,0.725000,0.725000,0.725000,0.725000,-0.725000,0.725000,-0.725000,$1*%
G04 Aperture macros list end*
%ADD10C,0.150000*%
%ADD11C,0.100000*%
%ADD12C,0.120000*%
%ADD13RoundRect,0.250000X-0.475000X0.250000X-0.475000X-0.250000X0.475000X-0.250000X0.475000X0.250000X0*%
%ADD14C,1.000000*%
%ADD15R,1.150000X0.600000*%
%ADD16R,1.150000X0.300000*%
%ADD17O,2.100000X1.000000*%
%ADD18O,1.800000X1.000000*%
%ADD19RoundRect,0.250000X0.450000X-0.262500X0.450000X0.262500X-0.450000X0.262500X-0.450000X-0.262500X0*%
%ADD20RoundRect,0.250000X-0.262500X-0.450000X0.262500X-0.450000X0.262500X0.450000X-0.262500X0.450000X0*%
%ADD21R,1.000000X2.510000*%
%ADD22RoundRect,0.250000X-0.250000X-0.475000X0.250000X-0.475000X0.250000X0.475000X-0.250000X0.475000X0*%
%ADD23R,1.300000X1.550000*%
%ADD24RoundRect,0.160000X0.197500X0.160000X-0.197500X0.160000X-0.197500X-0.160000X0.197500X-0.160000X0*%
%ADD25R,0.800000X0.400000*%
%ADD26R,0.400000X0.800000*%
%ADD27FreePoly0,180.000000*%
%ADD28R,1.450000X1.450000*%
%ADD29R,0.700000X0.700000*%
%ADD30R,2.000000X1.500000*%
%ADD31R,2.000000X3.800000*%
%ADD32RoundRect,0.160000X0.160000X-0.197500X0.160000X0.197500X-0.160000X0.197500X-0.160000X-0.197500X0*%
%ADD33RoundRect,0.160000X-0.197500X-0.160000X0.197500X-0.160000X0.197500X0.160000X-0.197500X0.160000X0*%
%ADD34RoundRect,0.250000X-0.450000X0.262500X-0.450000X-0.262500X0.450000X-0.262500X0.450000X0.262500X0*%
%ADD35RoundRect,0.250000X0.475000X-0.250000X0.475000X0.250000X-0.475000X0.250000X-0.475000X-0.250000X0*%
%ADD36RoundRect,0.250000X0.262500X0.450000X-0.262500X0.450000X-0.262500X-0.450000X0.262500X-0.450000X0*%
%ADD37R,0.700000X0.450000*%
%ADD38R,1.500000X2.000000*%
%ADD39R,3.800000X2.000000*%
%ADD40RoundRect,0.250000X0.250000X0.475000X-0.250000X0.475000X-0.250000X-0.475000X0.250000X-0.475000X0*%
%ADD41RoundRect,0.160000X-0.160000X0.197500X-0.160000X-0.197500X0.160000X-0.197500X0.160000X0.197500X0*%
%ADD42R,1.000000X1.000000*%
%ADD43O,1.000000X1.000000*%
G04 APERTURE END LIST*
D10*
X100754104Y-158310839D02*
X100754104Y-157834649D01*
X101039819Y-158406077D02*
X100039819Y-158072744D01*
X100039819Y-158072744D02*
X101039819Y-157739411D01*
X101039819Y-157406077D02*
X100373152Y-157406077D01*
X100039819Y-157406077D02*
X100087438Y-157453696D01*
X100087438Y-157453696D02*
X100135057Y-157406077D01*
X100135057Y-157406077D02*
X100087438Y-157358458D01*
X100087438Y-157358458D02*
X100039819Y-157406077D01*
X100039819Y-157406077D02*
X100135057Y-157406077D01*
X101039819Y-156929887D02*
X100373152Y-156929887D01*
X100563628Y-156929887D02*
X100468390Y-156882268D01*
X100468390Y-156882268D02*
X100420771Y-156834649D01*
X100420771Y-156834649D02*
X100373152Y-156739411D01*
X100373152Y-156739411D02*
X100373152Y-156644173D01*
X101039819Y-156310839D02*
X100039819Y-156310839D01*
X100039819Y-156310839D02*
X100754104Y-155977506D01*
X100754104Y-155977506D02*
X100039819Y-155644173D01*
X100039819Y-155644173D02*
X101039819Y-155644173D01*
X101039819Y-155025125D02*
X100992200Y-155120363D01*
X100992200Y-155120363D02*
X100944580Y-155167982D01*
X100944580Y-155167982D02*
X100849342Y-155215601D01*
X100849342Y-155215601D02*
X100563628Y-155215601D01*
X100563628Y-155215601D02*
X100468390Y-155167982D01*
X100468390Y-155167982D02*
X100420771Y-155120363D01*
X100420771Y-155120363D02*
X100373152Y-155025125D01*
X100373152Y-155025125D02*
X100373152Y-154882268D01*
X100373152Y-154882268D02*
X100420771Y-154787030D01*
X100420771Y-154787030D02*
X100468390Y-154739411D01*
X100468390Y-154739411D02*
X100563628Y-154691792D01*
X100563628Y-154691792D02*
X100849342Y-154691792D01*
X100849342Y-154691792D02*
X100944580Y-154739411D01*
X100944580Y-154739411D02*
X100992200Y-154787030D01*
X100992200Y-154787030D02*
X101039819Y-154882268D01*
X101039819Y-154882268D02*
X101039819Y-155025125D01*
X100373152Y-154263220D02*
X101039819Y-154263220D01*
X100468390Y-154263220D02*
X100420771Y-154215601D01*
X100420771Y-154215601D02*
X100373152Y-154120363D01*
X100373152Y-154120363D02*
X100373152Y-153977506D01*
X100373152Y-153977506D02*
X100420771Y-153882268D01*
X100420771Y-153882268D02*
X100516009Y-153834649D01*
X100516009Y-153834649D02*
X101039819Y-153834649D01*
X101039819Y-153358458D02*
X100373152Y-153358458D01*
X100039819Y-153358458D02*
X100087438Y-153406077D01*
X100087438Y-153406077D02*
X100135057Y-153358458D01*
X100135057Y-153358458D02*
X100087438Y-153310839D01*
X100087438Y-153310839D02*
X100039819Y-153358458D01*
X100039819Y-153358458D02*
X100135057Y-153358458D01*
X100373152Y-153025125D02*
X100373152Y-152644173D01*
X100039819Y-152882268D02*
X100896961Y-152882268D01*
X100896961Y-152882268D02*
X100992200Y-152834649D01*
X100992200Y-152834649D02*
X101039819Y-152739411D01*
X101039819Y-152739411D02*
X101039819Y-152644173D01*
X101039819Y-152167982D02*
X100992200Y-152263220D01*
X100992200Y-152263220D02*
X100944580Y-152310839D01*
X100944580Y-152310839D02*
X100849342Y-152358458D01*
X100849342Y-152358458D02*
X100563628Y-152358458D01*
X100563628Y-152358458D02*
X100468390Y-152310839D01*
X100468390Y-152310839D02*
X100420771Y-152263220D01*
X100420771Y-152263220D02*
X100373152Y-152167982D01*
X100373152Y-152167982D02*
X100373152Y-152025125D01*
X100373152Y-152025125D02*
X100420771Y-151929887D01*
X100420771Y-151929887D02*
X100468390Y-151882268D01*
X100468390Y-151882268D02*
X100563628Y-151834649D01*
X100563628Y-151834649D02*
X100849342Y-151834649D01*
X100849342Y-151834649D02*
X100944580Y-151882268D01*
X100944580Y-151882268D02*
X100992200Y-151929887D01*
X100992200Y-151929887D02*
X101039819Y-152025125D01*
X101039819Y-152025125D02*
X101039819Y-152167982D01*
X101039819Y-151406077D02*
X100373152Y-151406077D01*
X100563628Y-151406077D02*
X100468390Y-151358458D01*
X100468390Y-151358458D02*
X100420771Y-151310839D01*
X100420771Y-151310839D02*
X100373152Y-151215601D01*
X100373152Y-151215601D02*
X100373152Y-151120363D01*
X102649819Y-157691792D02*
X102173628Y-158025125D01*
X102649819Y-158263220D02*
X101649819Y-158263220D01*
X101649819Y-158263220D02*
X101649819Y-157882268D01*
X101649819Y-157882268D02*
X101697438Y-157787030D01*
X101697438Y-157787030D02*
X101745057Y-157739411D01*
X101745057Y-157739411D02*
X101840295Y-157691792D01*
X101840295Y-157691792D02*
X101983152Y-157691792D01*
X101983152Y-157691792D02*
X102078390Y-157739411D01*
X102078390Y-157739411D02*
X102126009Y-157787030D01*
X102126009Y-157787030D02*
X102173628Y-157882268D01*
X102173628Y-157882268D02*
X102173628Y-158263220D01*
X102602200Y-156882268D02*
X102649819Y-156977506D01*
X102649819Y-156977506D02*
X102649819Y-157167982D01*
X102649819Y-157167982D02*
X102602200Y-157263220D01*
X102602200Y-157263220D02*
X102506961Y-157310839D01*
X102506961Y-157310839D02*
X102126009Y-157310839D01*
X102126009Y-157310839D02*
X102030771Y-157263220D01*
X102030771Y-157263220D02*
X101983152Y-157167982D01*
X101983152Y-157167982D02*
X101983152Y-156977506D01*
X101983152Y-156977506D02*
X102030771Y-156882268D01*
X102030771Y-156882268D02*
X102126009Y-156834649D01*
X102126009Y-156834649D02*
X102221247Y-156834649D01*
X102221247Y-156834649D02*
X102316485Y-157310839D01*
X101983152Y-156501315D02*
X102649819Y-156263220D01*
X102649819Y-156263220D02*
X101983152Y-156025125D01*
X102554580Y-155644172D02*
X102602200Y-155596553D01*
X102602200Y-155596553D02*
X102649819Y-155644172D01*
X102649819Y-155644172D02*
X102602200Y-155691791D01*
X102602200Y-155691791D02*
X102554580Y-155644172D01*
X102554580Y-155644172D02*
X102649819Y-155644172D01*
X102649819Y-153882268D02*
X102649819Y-154453696D01*
X102649819Y-154167982D02*
X101649819Y-154167982D01*
X101649819Y-154167982D02*
X101792676Y-154263220D01*
X101792676Y-154263220D02*
X101887914Y-154358458D01*
X101887914Y-154358458D02*
X101935533Y-154453696D01*
X102554580Y-153453696D02*
X102602200Y-153406077D01*
X102602200Y-153406077D02*
X102649819Y-153453696D01*
X102649819Y-153453696D02*
X102602200Y-153501315D01*
X102602200Y-153501315D02*
X102554580Y-153453696D01*
X102554580Y-153453696D02*
X102649819Y-153453696D01*
X101649819Y-152787030D02*
X101649819Y-152691792D01*
X101649819Y-152691792D02*
X101697438Y-152596554D01*
X101697438Y-152596554D02*
X101745057Y-152548935D01*
X101745057Y-152548935D02*
X101840295Y-152501316D01*
X101840295Y-152501316D02*
X102030771Y-152453697D01*
X102030771Y-152453697D02*
X102268866Y-152453697D01*
X102268866Y-152453697D02*
X102459342Y-152501316D01*
X102459342Y-152501316D02*
X102554580Y-152548935D01*
X102554580Y-152548935D02*
X102602200Y-152596554D01*
X102602200Y-152596554D02*
X102649819Y-152691792D01*
X102649819Y-152691792D02*
X102649819Y-152787030D01*
X102649819Y-152787030D02*
X102602200Y-152882268D01*
X102602200Y-152882268D02*
X102554580Y-152929887D01*
X102554580Y-152929887D02*
X102459342Y-152977506D01*
X102459342Y-152977506D02*
X102268866Y-153025125D01*
X102268866Y-153025125D02*
X102030771Y-153025125D01*
X102030771Y-153025125D02*
X101840295Y-152977506D01*
X101840295Y-152977506D02*
X101745057Y-152929887D01*
X101745057Y-152929887D02*
X101697438Y-152882268D01*
X101697438Y-152882268D02*
X101649819Y-152787030D01*
X102554580Y-152025125D02*
X102602200Y-151977506D01*
X102602200Y-151977506D02*
X102649819Y-152025125D01*
X102649819Y-152025125D02*
X102602200Y-152072744D01*
X102602200Y-152072744D02*
X102554580Y-152025125D01*
X102554580Y-152025125D02*
X102649819Y-152025125D01*
X101649819Y-151358459D02*
X101649819Y-151263221D01*
X101649819Y-151263221D02*
X101697438Y-151167983D01*
X101697438Y-151167983D02*
X101745057Y-151120364D01*
X101745057Y-151120364D02*
X101840295Y-151072745D01*
X101840295Y-151072745D02*
X102030771Y-151025126D01*
X102030771Y-151025126D02*
X102268866Y-151025126D01*
X102268866Y-151025126D02*
X102459342Y-151072745D01*
X102459342Y-151072745D02*
X102554580Y-151120364D01*
X102554580Y-151120364D02*
X102602200Y-151167983D01*
X102602200Y-151167983D02*
X102649819Y-151263221D01*
X102649819Y-151263221D02*
X102649819Y-151358459D01*
X102649819Y-151358459D02*
X102602200Y-151453697D01*
X102602200Y-151453697D02*
X102554580Y-151501316D01*
X102554580Y-151501316D02*
X102459342Y-151548935D01*
X102459342Y-151548935D02*
X102268866Y-151596554D01*
X102268866Y-151596554D02*
X102030771Y-151596554D01*
X102030771Y-151596554D02*
X101840295Y-151548935D01*
X101840295Y-151548935D02*
X101745057Y-151501316D01*
X101745057Y-151501316D02*
X101697438Y-151453697D01*
X101697438Y-151453697D02*
X101649819Y-151358459D01*
X104259819Y-158263220D02*
X103259819Y-158263220D01*
X103640771Y-158263220D02*
X103593152Y-158167982D01*
X103593152Y-158167982D02*
X103593152Y-157977506D01*
X103593152Y-157977506D02*
X103640771Y-157882268D01*
X103640771Y-157882268D02*
X103688390Y-157834649D01*
X103688390Y-157834649D02*
X103783628Y-157787030D01*
X103783628Y-157787030D02*
X104069342Y-157787030D01*
X104069342Y-157787030D02*
X104164580Y-157834649D01*
X104164580Y-157834649D02*
X104212200Y-157882268D01*
X104212200Y-157882268D02*
X104259819Y-157977506D01*
X104259819Y-157977506D02*
X104259819Y-158167982D01*
X104259819Y-158167982D02*
X104212200Y-158263220D01*
X103593152Y-157453696D02*
X104259819Y-157215601D01*
X103593152Y-156977506D02*
X104259819Y-157215601D01*
X104259819Y-157215601D02*
X104497914Y-157310839D01*
X104497914Y-157310839D02*
X104545533Y-157358458D01*
X104545533Y-157358458D02*
X104593152Y-157453696D01*
X104164580Y-156596553D02*
X104212200Y-156548934D01*
X104212200Y-156548934D02*
X104259819Y-156596553D01*
X104259819Y-156596553D02*
X104212200Y-156644172D01*
X104212200Y-156644172D02*
X104164580Y-156596553D01*
X104164580Y-156596553D02*
X104259819Y-156596553D01*
X103640771Y-156596553D02*
X103688390Y-156548934D01*
X103688390Y-156548934D02*
X103736009Y-156596553D01*
X103736009Y-156596553D02*
X103688390Y-156644172D01*
X103688390Y-156644172D02*
X103640771Y-156596553D01*
X103640771Y-156596553D02*
X103736009Y-156596553D01*
X103259819Y-155072744D02*
X103974104Y-155072744D01*
X103974104Y-155072744D02*
X104116961Y-155120363D01*
X104116961Y-155120363D02*
X104212200Y-155215601D01*
X104212200Y-155215601D02*
X104259819Y-155358458D01*
X104259819Y-155358458D02*
X104259819Y-155453696D01*
X104259819Y-154167982D02*
X103736009Y-154167982D01*
X103736009Y-154167982D02*
X103640771Y-154215601D01*
X103640771Y-154215601D02*
X103593152Y-154310839D01*
X103593152Y-154310839D02*
X103593152Y-154501315D01*
X103593152Y-154501315D02*
X103640771Y-154596553D01*
X104212200Y-154167982D02*
X104259819Y-154263220D01*
X104259819Y-154263220D02*
X104259819Y-154501315D01*
X104259819Y-154501315D02*
X104212200Y-154596553D01*
X104212200Y-154596553D02*
X104116961Y-154644172D01*
X104116961Y-154644172D02*
X104021723Y-154644172D01*
X104021723Y-154644172D02*
X103926485Y-154596553D01*
X103926485Y-154596553D02*
X103878866Y-154501315D01*
X103878866Y-154501315D02*
X103878866Y-154263220D01*
X103878866Y-154263220D02*
X103831247Y-154167982D01*
X104259819Y-153691791D02*
X103259819Y-153691791D01*
X103878866Y-153596553D02*
X104259819Y-153310839D01*
X103593152Y-153310839D02*
X103974104Y-153691791D01*
X103593152Y-152453696D02*
X104259819Y-152453696D01*
X103593152Y-152882267D02*
X104116961Y-152882267D01*
X104116961Y-152882267D02*
X104212200Y-152834648D01*
X104212200Y-152834648D02*
X104259819Y-152739410D01*
X104259819Y-152739410D02*
X104259819Y-152596553D01*
X104259819Y-152596553D02*
X104212200Y-152501315D01*
X104212200Y-152501315D02*
X104164580Y-152453696D01*
X104259819Y-151977505D02*
X103259819Y-151977505D01*
X103640771Y-151977505D02*
X103593152Y-151882267D01*
X103593152Y-151882267D02*
X103593152Y-151691791D01*
X103593152Y-151691791D02*
X103640771Y-151596553D01*
X103640771Y-151596553D02*
X103688390Y-151548934D01*
X103688390Y-151548934D02*
X103783628Y-151501315D01*
X103783628Y-151501315D02*
X104069342Y-151501315D01*
X104069342Y-151501315D02*
X104164580Y-151548934D01*
X104164580Y-151548934D02*
X104212200Y-151596553D01*
X104212200Y-151596553D02*
X104259819Y-151691791D01*
X104259819Y-151691791D02*
X104259819Y-151882267D01*
X104259819Y-151882267D02*
X104212200Y-151977505D01*
X104869819Y-157977506D02*
X105584104Y-157977506D01*
X105584104Y-157977506D02*
X105726961Y-158025125D01*
X105726961Y-158025125D02*
X105822200Y-158120363D01*
X105822200Y-158120363D02*
X105869819Y-158263220D01*
X105869819Y-158263220D02*
X105869819Y-158358458D01*
X105822200Y-157120363D02*
X105869819Y-157215601D01*
X105869819Y-157215601D02*
X105869819Y-157406077D01*
X105869819Y-157406077D02*
X105822200Y-157501315D01*
X105822200Y-157501315D02*
X105726961Y-157548934D01*
X105726961Y-157548934D02*
X105346009Y-157548934D01*
X105346009Y-157548934D02*
X105250771Y-157501315D01*
X105250771Y-157501315D02*
X105203152Y-157406077D01*
X105203152Y-157406077D02*
X105203152Y-157215601D01*
X105203152Y-157215601D02*
X105250771Y-157120363D01*
X105250771Y-157120363D02*
X105346009Y-157072744D01*
X105346009Y-157072744D02*
X105441247Y-157072744D01*
X105441247Y-157072744D02*
X105536485Y-157548934D01*
X105203152Y-156644172D02*
X105869819Y-156644172D01*
X105298390Y-156644172D02*
X105250771Y-156596553D01*
X105250771Y-156596553D02*
X105203152Y-156501315D01*
X105203152Y-156501315D02*
X105203152Y-156358458D01*
X105203152Y-156358458D02*
X105250771Y-156263220D01*
X105250771Y-156263220D02*
X105346009Y-156215601D01*
X105346009Y-156215601D02*
X105869819Y-156215601D01*
X105869819Y-155310839D02*
X104869819Y-155310839D01*
X105822200Y-155310839D02*
X105869819Y-155406077D01*
X105869819Y-155406077D02*
X105869819Y-155596553D01*
X105869819Y-155596553D02*
X105822200Y-155691791D01*
X105822200Y-155691791D02*
X105774580Y-155739410D01*
X105774580Y-155739410D02*
X105679342Y-155787029D01*
X105679342Y-155787029D02*
X105393628Y-155787029D01*
X105393628Y-155787029D02*
X105298390Y-155739410D01*
X105298390Y-155739410D02*
X105250771Y-155691791D01*
X105250771Y-155691791D02*
X105203152Y-155596553D01*
X105203152Y-155596553D02*
X105203152Y-155406077D01*
X105203152Y-155406077D02*
X105250771Y-155310839D01*
X105869819Y-154834648D02*
X105203152Y-154834648D01*
X105393628Y-154834648D02*
X105298390Y-154787029D01*
X105298390Y-154787029D02*
X105250771Y-154739410D01*
X105250771Y-154739410D02*
X105203152Y-154644172D01*
X105203152Y-154644172D02*
X105203152Y-154548934D01*
X105203152Y-154310838D02*
X105869819Y-154072743D01*
X105203152Y-153834648D02*
X105869819Y-154072743D01*
X105869819Y-154072743D02*
X106107914Y-154167981D01*
X106107914Y-154167981D02*
X106155533Y-154215600D01*
X106155533Y-154215600D02*
X106203152Y-154310838D01*
X105869819Y-153453695D02*
X104869819Y-153453695D01*
X105488866Y-153358457D02*
X105869819Y-153072743D01*
X105203152Y-153072743D02*
X105584104Y-153453695D01*
X105869819Y-152215600D02*
X105346009Y-152215600D01*
X105346009Y-152215600D02*
X105250771Y-152263219D01*
X105250771Y-152263219D02*
X105203152Y-152358457D01*
X105203152Y-152358457D02*
X105203152Y-152548933D01*
X105203152Y-152548933D02*
X105250771Y-152644171D01*
X105822200Y-152215600D02*
X105869819Y-152310838D01*
X105869819Y-152310838D02*
X105869819Y-152548933D01*
X105869819Y-152548933D02*
X105822200Y-152644171D01*
X105822200Y-152644171D02*
X105726961Y-152691790D01*
X105726961Y-152691790D02*
X105631723Y-152691790D01*
X105631723Y-152691790D02*
X105536485Y-152644171D01*
X105536485Y-152644171D02*
X105488866Y-152548933D01*
X105488866Y-152548933D02*
X105488866Y-152310838D01*
X105488866Y-152310838D02*
X105441247Y-152215600D01*
X123539580Y-123366666D02*
X123587200Y-123414285D01*
X123587200Y-123414285D02*
X123634819Y-123557142D01*
X123634819Y-123557142D02*
X123634819Y-123652380D01*
X123634819Y-123652380D02*
X123587200Y-123795237D01*
X123587200Y-123795237D02*
X123491961Y-123890475D01*
X123491961Y-123890475D02*
X123396723Y-123938094D01*
X123396723Y-123938094D02*
X123206247Y-123985713D01*
X123206247Y-123985713D02*
X123063390Y-123985713D01*
X123063390Y-123985713D02*
X122872914Y-123938094D01*
X122872914Y-123938094D02*
X122777676Y-123890475D01*
X122777676Y-123890475D02*
X122682438Y-123795237D01*
X122682438Y-123795237D02*
X122634819Y-123652380D01*
X122634819Y-123652380D02*
X122634819Y-123557142D01*
X122634819Y-123557142D02*
X122682438Y-123414285D01*
X122682438Y-123414285D02*
X122730057Y-123366666D01*
X123063390Y-122795237D02*
X123015771Y-122890475D01*
X123015771Y-122890475D02*
X122968152Y-122938094D01*
X122968152Y-122938094D02*
X122872914Y-122985713D01*
X122872914Y-122985713D02*
X122825295Y-122985713D01*
X122825295Y-122985713D02*
X122730057Y-122938094D01*
X122730057Y-122938094D02*
X122682438Y-122890475D01*
X122682438Y-122890475D02*
X122634819Y-122795237D01*
X122634819Y-122795237D02*
X122634819Y-122604761D01*
X122634819Y-122604761D02*
X122682438Y-122509523D01*
X122682438Y-122509523D02*
X122730057Y-122461904D01*
X122730057Y-122461904D02*
X122825295Y-122414285D01*
X122825295Y-122414285D02*
X122872914Y-122414285D01*
X122872914Y-122414285D02*
X122968152Y-122461904D01*
X122968152Y-122461904D02*
X123015771Y-122509523D01*
X123015771Y-122509523D02*
X123063390Y-122604761D01*
X123063390Y-122604761D02*
X123063390Y-122795237D01*
X123063390Y-122795237D02*
X123111009Y-122890475D01*
X123111009Y-122890475D02*
X123158628Y-122938094D01*
X123158628Y-122938094D02*
X123253866Y-122985713D01*
X123253866Y-122985713D02*
X123444342Y-122985713D01*
X123444342Y-122985713D02*
X123539580Y-122938094D01*
X123539580Y-122938094D02*
X123587200Y-122890475D01*
X123587200Y-122890475D02*
X123634819Y-122795237D01*
X123634819Y-122795237D02*
X123634819Y-122604761D01*
X123634819Y-122604761D02*
X123587200Y-122509523D01*
X123587200Y-122509523D02*
X123539580Y-122461904D01*
X123539580Y-122461904D02*
X123444342Y-122414285D01*
X123444342Y-122414285D02*
X123253866Y-122414285D01*
X123253866Y-122414285D02*
X123158628Y-122461904D01*
X123158628Y-122461904D02*
X123111009Y-122509523D01*
X123111009Y-122509523D02*
X123063390Y-122604761D01*
X139554819Y-148666666D02*
X139078628Y-148999999D01*
X139554819Y-149238094D02*
X138554819Y-149238094D01*
X138554819Y-149238094D02*
X138554819Y-148857142D01*
X138554819Y-148857142D02*
X138602438Y-148761904D01*
X138602438Y-148761904D02*
X138650057Y-148714285D01*
X138650057Y-148714285D02*
X138745295Y-148666666D01*
X138745295Y-148666666D02*
X138888152Y-148666666D01*
X138888152Y-148666666D02*
X138983390Y-148714285D01*
X138983390Y-148714285D02*
X139031009Y-148761904D01*
X139031009Y-148761904D02*
X139078628Y-148857142D01*
X139078628Y-148857142D02*
X139078628Y-149238094D01*
X138554819Y-148333332D02*
X139554819Y-147666666D01*
X138554819Y-147666666D02*
X139554819Y-148333332D01*
X104766666Y-145854819D02*
X104766666Y-146569104D01*
X104766666Y-146569104D02*
X104719047Y-146711961D01*
X104719047Y-146711961D02*
X104623809Y-146807200D01*
X104623809Y-146807200D02*
X104480952Y-146854819D01*
X104480952Y-146854819D02*
X104385714Y-146854819D01*
X105147619Y-145854819D02*
X105766666Y-145854819D01*
X105766666Y-145854819D02*
X105433333Y-146235771D01*
X105433333Y-146235771D02*
X105576190Y-146235771D01*
X105576190Y-146235771D02*
X105671428Y-146283390D01*
X105671428Y-146283390D02*
X105719047Y-146331009D01*
X105719047Y-146331009D02*
X105766666Y-146426247D01*
X105766666Y-146426247D02*
X105766666Y-146664342D01*
X105766666Y-146664342D02*
X105719047Y-146759580D01*
X105719047Y-146759580D02*
X105671428Y-146807200D01*
X105671428Y-146807200D02*
X105576190Y-146854819D01*
X105576190Y-146854819D02*
X105290476Y-146854819D01*
X105290476Y-146854819D02*
X105195238Y-146807200D01*
X105195238Y-146807200D02*
X105147619Y-146759580D01*
X112859580Y-137942857D02*
X112907200Y-137990476D01*
X112907200Y-137990476D02*
X112954819Y-138133333D01*
X112954819Y-138133333D02*
X112954819Y-138228571D01*
X112954819Y-138228571D02*
X112907200Y-138371428D01*
X112907200Y-138371428D02*
X112811961Y-138466666D01*
X112811961Y-138466666D02*
X112716723Y-138514285D01*
X112716723Y-138514285D02*
X112526247Y-138561904D01*
X112526247Y-138561904D02*
X112383390Y-138561904D01*
X112383390Y-138561904D02*
X112192914Y-138514285D01*
X112192914Y-138514285D02*
X112097676Y-138466666D01*
X112097676Y-138466666D02*
X112002438Y-138371428D01*
X112002438Y-138371428D02*
X111954819Y-138228571D01*
X111954819Y-138228571D02*
X111954819Y-138133333D01*
X111954819Y-138133333D02*
X112002438Y-137990476D01*
X112002438Y-137990476D02*
X112050057Y-137942857D01*
X112954819Y-136990476D02*
X112954819Y-137561904D01*
X112954819Y-137276190D02*
X111954819Y-137276190D01*
X111954819Y-137276190D02*
X112097676Y-137371428D01*
X112097676Y-137371428D02*
X112192914Y-137466666D01*
X112192914Y-137466666D02*
X112240533Y-137561904D01*
X112954819Y-136514285D02*
X112954819Y-136323809D01*
X112954819Y-136323809D02*
X112907200Y-136228571D01*
X112907200Y-136228571D02*
X112859580Y-136180952D01*
X112859580Y-136180952D02*
X112716723Y-136085714D01*
X112716723Y-136085714D02*
X112526247Y-136038095D01*
X112526247Y-136038095D02*
X112145295Y-136038095D01*
X112145295Y-136038095D02*
X112050057Y-136085714D01*
X112050057Y-136085714D02*
X112002438Y-136133333D01*
X112002438Y-136133333D02*
X111954819Y-136228571D01*
X111954819Y-136228571D02*
X111954819Y-136419047D01*
X111954819Y-136419047D02*
X112002438Y-136514285D01*
X112002438Y-136514285D02*
X112050057Y-136561904D01*
X112050057Y-136561904D02*
X112145295Y-136609523D01*
X112145295Y-136609523D02*
X112383390Y-136609523D01*
X112383390Y-136609523D02*
X112478628Y-136561904D01*
X112478628Y-136561904D02*
X112526247Y-136514285D01*
X112526247Y-136514285D02*
X112573866Y-136419047D01*
X112573866Y-136419047D02*
X112573866Y-136228571D01*
X112573866Y-136228571D02*
X112526247Y-136133333D01*
X112526247Y-136133333D02*
X112478628Y-136085714D01*
X112478628Y-136085714D02*
X112383390Y-136038095D01*
X147539580Y-123366666D02*
X147587200Y-123414285D01*
X147587200Y-123414285D02*
X147634819Y-123557142D01*
X147634819Y-123557142D02*
X147634819Y-123652380D01*
X147634819Y-123652380D02*
X147587200Y-123795237D01*
X147587200Y-123795237D02*
X147491961Y-123890475D01*
X147491961Y-123890475D02*
X147396723Y-123938094D01*
X147396723Y-123938094D02*
X147206247Y-123985713D01*
X147206247Y-123985713D02*
X147063390Y-123985713D01*
X147063390Y-123985713D02*
X146872914Y-123938094D01*
X146872914Y-123938094D02*
X146777676Y-123890475D01*
X146777676Y-123890475D02*
X146682438Y-123795237D01*
X146682438Y-123795237D02*
X146634819Y-123652380D01*
X146634819Y-123652380D02*
X146634819Y-123557142D01*
X146634819Y-123557142D02*
X146682438Y-123414285D01*
X146682438Y-123414285D02*
X146730057Y-123366666D01*
X146634819Y-122461904D02*
X146634819Y-122938094D01*
X146634819Y-122938094D02*
X147111009Y-122985713D01*
X147111009Y-122985713D02*
X147063390Y-122938094D01*
X147063390Y-122938094D02*
X147015771Y-122842856D01*
X147015771Y-122842856D02*
X147015771Y-122604761D01*
X147015771Y-122604761D02*
X147063390Y-122509523D01*
X147063390Y-122509523D02*
X147111009Y-122461904D01*
X147111009Y-122461904D02*
X147206247Y-122414285D01*
X147206247Y-122414285D02*
X147444342Y-122414285D01*
X147444342Y-122414285D02*
X147539580Y-122461904D01*
X147539580Y-122461904D02*
X147587200Y-122509523D01*
X147587200Y-122509523D02*
X147634819Y-122604761D01*
X147634819Y-122604761D02*
X147634819Y-122842856D01*
X147634819Y-122842856D02*
X147587200Y-122938094D01*
X147587200Y-122938094D02*
X147539580Y-122985713D01*
X107854819Y-147042857D02*
X107378628Y-147376190D01*
X107854819Y-147614285D02*
X106854819Y-147614285D01*
X106854819Y-147614285D02*
X106854819Y-147233333D01*
X106854819Y-147233333D02*
X106902438Y-147138095D01*
X106902438Y-147138095D02*
X106950057Y-147090476D01*
X106950057Y-147090476D02*
X107045295Y-147042857D01*
X107045295Y-147042857D02*
X107188152Y-147042857D01*
X107188152Y-147042857D02*
X107283390Y-147090476D01*
X107283390Y-147090476D02*
X107331009Y-147138095D01*
X107331009Y-147138095D02*
X107378628Y-147233333D01*
X107378628Y-147233333D02*
X107378628Y-147614285D01*
X107854819Y-146090476D02*
X107854819Y-146661904D01*
X107854819Y-146376190D02*
X106854819Y-146376190D01*
X106854819Y-146376190D02*
X106997676Y-146471428D01*
X106997676Y-146471428D02*
X107092914Y-146566666D01*
X107092914Y-146566666D02*
X107140533Y-146661904D01*
X106854819Y-145471428D02*
X106854819Y-145376190D01*
X106854819Y-145376190D02*
X106902438Y-145280952D01*
X106902438Y-145280952D02*
X106950057Y-145233333D01*
X106950057Y-145233333D02*
X107045295Y-145185714D01*
X107045295Y-145185714D02*
X107235771Y-145138095D01*
X107235771Y-145138095D02*
X107473866Y-145138095D01*
X107473866Y-145138095D02*
X107664342Y-145185714D01*
X107664342Y-145185714D02*
X107759580Y-145233333D01*
X107759580Y-145233333D02*
X107807200Y-145280952D01*
X107807200Y-145280952D02*
X107854819Y-145376190D01*
X107854819Y-145376190D02*
X107854819Y-145471428D01*
X107854819Y-145471428D02*
X107807200Y-145566666D01*
X107807200Y-145566666D02*
X107759580Y-145614285D01*
X107759580Y-145614285D02*
X107664342Y-145661904D01*
X107664342Y-145661904D02*
X107473866Y-145709523D01*
X107473866Y-145709523D02*
X107235771Y-145709523D01*
X107235771Y-145709523D02*
X107045295Y-145661904D01*
X107045295Y-145661904D02*
X106950057Y-145614285D01*
X106950057Y-145614285D02*
X106902438Y-145566666D01*
X106902438Y-145566666D02*
X106854819Y-145471428D01*
X137333333Y-150754819D02*
X137000000Y-150278628D01*
X136761905Y-150754819D02*
X136761905Y-149754819D01*
X136761905Y-149754819D02*
X137142857Y-149754819D01*
X137142857Y-149754819D02*
X137238095Y-149802438D01*
X137238095Y-149802438D02*
X137285714Y-149850057D01*
X137285714Y-149850057D02*
X137333333Y-149945295D01*
X137333333Y-149945295D02*
X137333333Y-150088152D01*
X137333333Y-150088152D02*
X137285714Y-150183390D01*
X137285714Y-150183390D02*
X137238095Y-150231009D01*
X137238095Y-150231009D02*
X137142857Y-150278628D01*
X137142857Y-150278628D02*
X136761905Y-150278628D01*
X137714286Y-149850057D02*
X137761905Y-149802438D01*
X137761905Y-149802438D02*
X137857143Y-149754819D01*
X137857143Y-149754819D02*
X138095238Y-149754819D01*
X138095238Y-149754819D02*
X138190476Y-149802438D01*
X138190476Y-149802438D02*
X138238095Y-149850057D01*
X138238095Y-149850057D02*
X138285714Y-149945295D01*
X138285714Y-149945295D02*
X138285714Y-150040533D01*
X138285714Y-150040533D02*
X138238095Y-150183390D01*
X138238095Y-150183390D02*
X137666667Y-150754819D01*
X137666667Y-150754819D02*
X138285714Y-150754819D01*
X108524819Y-156278333D02*
X109239104Y-156278333D01*
X109239104Y-156278333D02*
X109381961Y-156325952D01*
X109381961Y-156325952D02*
X109477200Y-156421190D01*
X109477200Y-156421190D02*
X109524819Y-156564047D01*
X109524819Y-156564047D02*
X109524819Y-156659285D01*
X109524819Y-155278333D02*
X109524819Y-155849761D01*
X109524819Y-155564047D02*
X108524819Y-155564047D01*
X108524819Y-155564047D02*
X108667676Y-155659285D01*
X108667676Y-155659285D02*
X108762914Y-155754523D01*
X108762914Y-155754523D02*
X108810533Y-155849761D01*
X117252381Y-130754819D02*
X117871428Y-130754819D01*
X117871428Y-130754819D02*
X117538095Y-131135771D01*
X117538095Y-131135771D02*
X117680952Y-131135771D01*
X117680952Y-131135771D02*
X117776190Y-131183390D01*
X117776190Y-131183390D02*
X117823809Y-131231009D01*
X117823809Y-131231009D02*
X117871428Y-131326247D01*
X117871428Y-131326247D02*
X117871428Y-131564342D01*
X117871428Y-131564342D02*
X117823809Y-131659580D01*
X117823809Y-131659580D02*
X117776190Y-131707200D01*
X117776190Y-131707200D02*
X117680952Y-131754819D01*
X117680952Y-131754819D02*
X117395238Y-131754819D01*
X117395238Y-131754819D02*
X117300000Y-131707200D01*
X117300000Y-131707200D02*
X117252381Y-131659580D01*
X118157143Y-130754819D02*
X118490476Y-131754819D01*
X118490476Y-131754819D02*
X118823809Y-130754819D01*
X119061905Y-130754819D02*
X119680952Y-130754819D01*
X119680952Y-130754819D02*
X119347619Y-131135771D01*
X119347619Y-131135771D02*
X119490476Y-131135771D01*
X119490476Y-131135771D02*
X119585714Y-131183390D01*
X119585714Y-131183390D02*
X119633333Y-131231009D01*
X119633333Y-131231009D02*
X119680952Y-131326247D01*
X119680952Y-131326247D02*
X119680952Y-131564342D01*
X119680952Y-131564342D02*
X119633333Y-131659580D01*
X119633333Y-131659580D02*
X119585714Y-131707200D01*
X119585714Y-131707200D02*
X119490476Y-131754819D01*
X119490476Y-131754819D02*
X119204762Y-131754819D01*
X119204762Y-131754819D02*
X119109524Y-131707200D01*
X119109524Y-131707200D02*
X119061905Y-131659580D01*
X120871429Y-131231009D02*
X121204762Y-131231009D01*
X121347619Y-131754819D02*
X120871429Y-131754819D01*
X120871429Y-131754819D02*
X120871429Y-130754819D01*
X120871429Y-130754819D02*
X121347619Y-130754819D01*
X121728572Y-131707200D02*
X121871429Y-131754819D01*
X121871429Y-131754819D02*
X122109524Y-131754819D01*
X122109524Y-131754819D02*
X122204762Y-131707200D01*
X122204762Y-131707200D02*
X122252381Y-131659580D01*
X122252381Y-131659580D02*
X122300000Y-131564342D01*
X122300000Y-131564342D02*
X122300000Y-131469104D01*
X122300000Y-131469104D02*
X122252381Y-131373866D01*
X122252381Y-131373866D02*
X122204762Y-131326247D01*
X122204762Y-131326247D02*
X122109524Y-131278628D01*
X122109524Y-131278628D02*
X121919048Y-131231009D01*
X121919048Y-131231009D02*
X121823810Y-131183390D01*
X121823810Y-131183390D02*
X121776191Y-131135771D01*
X121776191Y-131135771D02*
X121728572Y-131040533D01*
X121728572Y-131040533D02*
X121728572Y-130945295D01*
X121728572Y-130945295D02*
X121776191Y-130850057D01*
X121776191Y-130850057D02*
X121823810Y-130802438D01*
X121823810Y-130802438D02*
X121919048Y-130754819D01*
X121919048Y-130754819D02*
X122157143Y-130754819D01*
X122157143Y-130754819D02*
X122300000Y-130802438D01*
X122728572Y-131754819D02*
X122728572Y-130754819D01*
X122728572Y-130754819D02*
X123109524Y-130754819D01*
X123109524Y-130754819D02*
X123204762Y-130802438D01*
X123204762Y-130802438D02*
X123252381Y-130850057D01*
X123252381Y-130850057D02*
X123300000Y-130945295D01*
X123300000Y-130945295D02*
X123300000Y-131088152D01*
X123300000Y-131088152D02*
X123252381Y-131183390D01*
X123252381Y-131183390D02*
X123204762Y-131231009D01*
X123204762Y-131231009D02*
X123109524Y-131278628D01*
X123109524Y-131278628D02*
X122728572Y-131278628D01*
X114557142Y-131859580D02*
X114509523Y-131907200D01*
X114509523Y-131907200D02*
X114366666Y-131954819D01*
X114366666Y-131954819D02*
X114271428Y-131954819D01*
X114271428Y-131954819D02*
X114128571Y-131907200D01*
X114128571Y-131907200D02*
X114033333Y-131811961D01*
X114033333Y-131811961D02*
X113985714Y-131716723D01*
X113985714Y-131716723D02*
X113938095Y-131526247D01*
X113938095Y-131526247D02*
X113938095Y-131383390D01*
X113938095Y-131383390D02*
X113985714Y-131192914D01*
X113985714Y-131192914D02*
X114033333Y-131097676D01*
X114033333Y-131097676D02*
X114128571Y-131002438D01*
X114128571Y-131002438D02*
X114271428Y-130954819D01*
X114271428Y-130954819D02*
X114366666Y-130954819D01*
X114366666Y-130954819D02*
X114509523Y-131002438D01*
X114509523Y-131002438D02*
X114557142Y-131050057D01*
X115509523Y-131954819D02*
X114938095Y-131954819D01*
X115223809Y-131954819D02*
X115223809Y-130954819D01*
X115223809Y-130954819D02*
X115128571Y-131097676D01*
X115128571Y-131097676D02*
X115033333Y-131192914D01*
X115033333Y-131192914D02*
X114938095Y-131240533D01*
X115842857Y-130954819D02*
X116509523Y-130954819D01*
X116509523Y-130954819D02*
X116080952Y-131954819D01*
X147257200Y-132208332D02*
X147304819Y-132065475D01*
X147304819Y-132065475D02*
X147304819Y-131827380D01*
X147304819Y-131827380D02*
X147257200Y-131732142D01*
X147257200Y-131732142D02*
X147209580Y-131684523D01*
X147209580Y-131684523D02*
X147114342Y-131636904D01*
X147114342Y-131636904D02*
X147019104Y-131636904D01*
X147019104Y-131636904D02*
X146923866Y-131684523D01*
X146923866Y-131684523D02*
X146876247Y-131732142D01*
X146876247Y-131732142D02*
X146828628Y-131827380D01*
X146828628Y-131827380D02*
X146781009Y-132017856D01*
X146781009Y-132017856D02*
X146733390Y-132113094D01*
X146733390Y-132113094D02*
X146685771Y-132160713D01*
X146685771Y-132160713D02*
X146590533Y-132208332D01*
X146590533Y-132208332D02*
X146495295Y-132208332D01*
X146495295Y-132208332D02*
X146400057Y-132160713D01*
X146400057Y-132160713D02*
X146352438Y-132113094D01*
X146352438Y-132113094D02*
X146304819Y-132017856D01*
X146304819Y-132017856D02*
X146304819Y-131779761D01*
X146304819Y-131779761D02*
X146352438Y-131636904D01*
X146304819Y-131303570D02*
X147304819Y-131065475D01*
X147304819Y-131065475D02*
X146590533Y-130874999D01*
X146590533Y-130874999D02*
X147304819Y-130684523D01*
X147304819Y-130684523D02*
X146304819Y-130446428D01*
X147304819Y-129541666D02*
X147304819Y-130113094D01*
X147304819Y-129827380D02*
X146304819Y-129827380D01*
X146304819Y-129827380D02*
X146447676Y-129922618D01*
X146447676Y-129922618D02*
X146542914Y-130017856D01*
X146542914Y-130017856D02*
X146590533Y-130113094D01*
X138304819Y-131422619D02*
X137828628Y-131755952D01*
X138304819Y-131994047D02*
X137304819Y-131994047D01*
X137304819Y-131994047D02*
X137304819Y-131613095D01*
X137304819Y-131613095D02*
X137352438Y-131517857D01*
X137352438Y-131517857D02*
X137400057Y-131470238D01*
X137400057Y-131470238D02*
X137495295Y-131422619D01*
X137495295Y-131422619D02*
X137638152Y-131422619D01*
X137638152Y-131422619D02*
X137733390Y-131470238D01*
X137733390Y-131470238D02*
X137781009Y-131517857D01*
X137781009Y-131517857D02*
X137828628Y-131613095D01*
X137828628Y-131613095D02*
X137828628Y-131994047D01*
X138257200Y-131041666D02*
X138304819Y-130898809D01*
X138304819Y-130898809D02*
X138304819Y-130660714D01*
X138304819Y-130660714D02*
X138257200Y-130565476D01*
X138257200Y-130565476D02*
X138209580Y-130517857D01*
X138209580Y-130517857D02*
X138114342Y-130470238D01*
X138114342Y-130470238D02*
X138019104Y-130470238D01*
X138019104Y-130470238D02*
X137923866Y-130517857D01*
X137923866Y-130517857D02*
X137876247Y-130565476D01*
X137876247Y-130565476D02*
X137828628Y-130660714D01*
X137828628Y-130660714D02*
X137781009Y-130851190D01*
X137781009Y-130851190D02*
X137733390Y-130946428D01*
X137733390Y-130946428D02*
X137685771Y-130994047D01*
X137685771Y-130994047D02*
X137590533Y-131041666D01*
X137590533Y-131041666D02*
X137495295Y-131041666D01*
X137495295Y-131041666D02*
X137400057Y-130994047D01*
X137400057Y-130994047D02*
X137352438Y-130946428D01*
X137352438Y-130946428D02*
X137304819Y-130851190D01*
X137304819Y-130851190D02*
X137304819Y-130613095D01*
X137304819Y-130613095D02*
X137352438Y-130470238D01*
X137304819Y-130184523D02*
X137304819Y-129613095D01*
X138304819Y-129898809D02*
X137304819Y-129898809D01*
X131457142Y-140359580D02*
X131409523Y-140407200D01*
X131409523Y-140407200D02*
X131266666Y-140454819D01*
X131266666Y-140454819D02*
X131171428Y-140454819D01*
X131171428Y-140454819D02*
X131028571Y-140407200D01*
X131028571Y-140407200D02*
X130933333Y-140311961D01*
X130933333Y-140311961D02*
X130885714Y-140216723D01*
X130885714Y-140216723D02*
X130838095Y-140026247D01*
X130838095Y-140026247D02*
X130838095Y-139883390D01*
X130838095Y-139883390D02*
X130885714Y-139692914D01*
X130885714Y-139692914D02*
X130933333Y-139597676D01*
X130933333Y-139597676D02*
X131028571Y-139502438D01*
X131028571Y-139502438D02*
X131171428Y-139454819D01*
X131171428Y-139454819D02*
X131266666Y-139454819D01*
X131266666Y-139454819D02*
X131409523Y-139502438D01*
X131409523Y-139502438D02*
X131457142Y-139550057D01*
X132409523Y-140454819D02*
X131838095Y-140454819D01*
X132123809Y-140454819D02*
X132123809Y-139454819D01*
X132123809Y-139454819D02*
X132028571Y-139597676D01*
X132028571Y-139597676D02*
X131933333Y-139692914D01*
X131933333Y-139692914D02*
X131838095Y-139740533D01*
X132742857Y-139454819D02*
X133361904Y-139454819D01*
X133361904Y-139454819D02*
X133028571Y-139835771D01*
X133028571Y-139835771D02*
X133171428Y-139835771D01*
X133171428Y-139835771D02*
X133266666Y-139883390D01*
X133266666Y-139883390D02*
X133314285Y-139931009D01*
X133314285Y-139931009D02*
X133361904Y-140026247D01*
X133361904Y-140026247D02*
X133361904Y-140264342D01*
X133361904Y-140264342D02*
X133314285Y-140359580D01*
X133314285Y-140359580D02*
X133266666Y-140407200D01*
X133266666Y-140407200D02*
X133171428Y-140454819D01*
X133171428Y-140454819D02*
X132885714Y-140454819D01*
X132885714Y-140454819D02*
X132790476Y-140407200D01*
X132790476Y-140407200D02*
X132742857Y-140359580D01*
X126654819Y-146966666D02*
X126178628Y-147299999D01*
X126654819Y-147538094D02*
X125654819Y-147538094D01*
X125654819Y-147538094D02*
X125654819Y-147157142D01*
X125654819Y-147157142D02*
X125702438Y-147061904D01*
X125702438Y-147061904D02*
X125750057Y-147014285D01*
X125750057Y-147014285D02*
X125845295Y-146966666D01*
X125845295Y-146966666D02*
X125988152Y-146966666D01*
X125988152Y-146966666D02*
X126083390Y-147014285D01*
X126083390Y-147014285D02*
X126131009Y-147061904D01*
X126131009Y-147061904D02*
X126178628Y-147157142D01*
X126178628Y-147157142D02*
X126178628Y-147538094D01*
X125654819Y-146633332D02*
X125654819Y-145966666D01*
X125654819Y-145966666D02*
X126654819Y-146395237D01*
X143254819Y-158242857D02*
X143254819Y-158719047D01*
X143254819Y-158719047D02*
X142254819Y-158719047D01*
X142731009Y-157909523D02*
X142731009Y-157576190D01*
X143254819Y-157433333D02*
X143254819Y-157909523D01*
X143254819Y-157909523D02*
X142254819Y-157909523D01*
X142254819Y-157909523D02*
X142254819Y-157433333D01*
X143254819Y-157004761D02*
X142254819Y-157004761D01*
X142254819Y-157004761D02*
X142254819Y-156766666D01*
X142254819Y-156766666D02*
X142302438Y-156623809D01*
X142302438Y-156623809D02*
X142397676Y-156528571D01*
X142397676Y-156528571D02*
X142492914Y-156480952D01*
X142492914Y-156480952D02*
X142683390Y-156433333D01*
X142683390Y-156433333D02*
X142826247Y-156433333D01*
X142826247Y-156433333D02*
X143016723Y-156480952D01*
X143016723Y-156480952D02*
X143111961Y-156528571D01*
X143111961Y-156528571D02*
X143207200Y-156623809D01*
X143207200Y-156623809D02*
X143254819Y-156766666D01*
X143254819Y-156766666D02*
X143254819Y-157004761D01*
X137357142Y-152559580D02*
X137309523Y-152607200D01*
X137309523Y-152607200D02*
X137166666Y-152654819D01*
X137166666Y-152654819D02*
X137071428Y-152654819D01*
X137071428Y-152654819D02*
X136928571Y-152607200D01*
X136928571Y-152607200D02*
X136833333Y-152511961D01*
X136833333Y-152511961D02*
X136785714Y-152416723D01*
X136785714Y-152416723D02*
X136738095Y-152226247D01*
X136738095Y-152226247D02*
X136738095Y-152083390D01*
X136738095Y-152083390D02*
X136785714Y-151892914D01*
X136785714Y-151892914D02*
X136833333Y-151797676D01*
X136833333Y-151797676D02*
X136928571Y-151702438D01*
X136928571Y-151702438D02*
X137071428Y-151654819D01*
X137071428Y-151654819D02*
X137166666Y-151654819D01*
X137166666Y-151654819D02*
X137309523Y-151702438D01*
X137309523Y-151702438D02*
X137357142Y-151750057D01*
X138309523Y-152654819D02*
X137738095Y-152654819D01*
X138023809Y-152654819D02*
X138023809Y-151654819D01*
X138023809Y-151654819D02*
X137928571Y-151797676D01*
X137928571Y-151797676D02*
X137833333Y-151892914D01*
X137833333Y-151892914D02*
X137738095Y-151940533D01*
X138690476Y-151750057D02*
X138738095Y-151702438D01*
X138738095Y-151702438D02*
X138833333Y-151654819D01*
X138833333Y-151654819D02*
X139071428Y-151654819D01*
X139071428Y-151654819D02*
X139166666Y-151702438D01*
X139166666Y-151702438D02*
X139214285Y-151750057D01*
X139214285Y-151750057D02*
X139261904Y-151845295D01*
X139261904Y-151845295D02*
X139261904Y-151940533D01*
X139261904Y-151940533D02*
X139214285Y-152083390D01*
X139214285Y-152083390D02*
X138642857Y-152654819D01*
X138642857Y-152654819D02*
X139261904Y-152654819D01*
X117333333Y-152874819D02*
X117000000Y-152398628D01*
X116761905Y-152874819D02*
X116761905Y-151874819D01*
X116761905Y-151874819D02*
X117142857Y-151874819D01*
X117142857Y-151874819D02*
X117238095Y-151922438D01*
X117238095Y-151922438D02*
X117285714Y-151970057D01*
X117285714Y-151970057D02*
X117333333Y-152065295D01*
X117333333Y-152065295D02*
X117333333Y-152208152D01*
X117333333Y-152208152D02*
X117285714Y-152303390D01*
X117285714Y-152303390D02*
X117238095Y-152351009D01*
X117238095Y-152351009D02*
X117142857Y-152398628D01*
X117142857Y-152398628D02*
X116761905Y-152398628D01*
X118190476Y-151874819D02*
X118000000Y-151874819D01*
X118000000Y-151874819D02*
X117904762Y-151922438D01*
X117904762Y-151922438D02*
X117857143Y-151970057D01*
X117857143Y-151970057D02*
X117761905Y-152112914D01*
X117761905Y-152112914D02*
X117714286Y-152303390D01*
X117714286Y-152303390D02*
X117714286Y-152684342D01*
X117714286Y-152684342D02*
X117761905Y-152779580D01*
X117761905Y-152779580D02*
X117809524Y-152827200D01*
X117809524Y-152827200D02*
X117904762Y-152874819D01*
X117904762Y-152874819D02*
X118095238Y-152874819D01*
X118095238Y-152874819D02*
X118190476Y-152827200D01*
X118190476Y-152827200D02*
X118238095Y-152779580D01*
X118238095Y-152779580D02*
X118285714Y-152684342D01*
X118285714Y-152684342D02*
X118285714Y-152446247D01*
X118285714Y-152446247D02*
X118238095Y-152351009D01*
X118238095Y-152351009D02*
X118190476Y-152303390D01*
X118190476Y-152303390D02*
X118095238Y-152255771D01*
X118095238Y-152255771D02*
X117904762Y-152255771D01*
X117904762Y-152255771D02*
X117809524Y-152303390D01*
X117809524Y-152303390D02*
X117761905Y-152351009D01*
X117761905Y-152351009D02*
X117714286Y-152446247D01*
X119909524Y-129107200D02*
X120052381Y-129154819D01*
X120052381Y-129154819D02*
X120290476Y-129154819D01*
X120290476Y-129154819D02*
X120385714Y-129107200D01*
X120385714Y-129107200D02*
X120433333Y-129059580D01*
X120433333Y-129059580D02*
X120480952Y-128964342D01*
X120480952Y-128964342D02*
X120480952Y-128869104D01*
X120480952Y-128869104D02*
X120433333Y-128773866D01*
X120433333Y-128773866D02*
X120385714Y-128726247D01*
X120385714Y-128726247D02*
X120290476Y-128678628D01*
X120290476Y-128678628D02*
X120100000Y-128631009D01*
X120100000Y-128631009D02*
X120004762Y-128583390D01*
X120004762Y-128583390D02*
X119957143Y-128535771D01*
X119957143Y-128535771D02*
X119909524Y-128440533D01*
X119909524Y-128440533D02*
X119909524Y-128345295D01*
X119909524Y-128345295D02*
X119957143Y-128250057D01*
X119957143Y-128250057D02*
X120004762Y-128202438D01*
X120004762Y-128202438D02*
X120100000Y-128154819D01*
X120100000Y-128154819D02*
X120338095Y-128154819D01*
X120338095Y-128154819D02*
X120480952Y-128202438D01*
X121480952Y-129059580D02*
X121433333Y-129107200D01*
X121433333Y-129107200D02*
X121290476Y-129154819D01*
X121290476Y-129154819D02*
X121195238Y-129154819D01*
X121195238Y-129154819D02*
X121052381Y-129107200D01*
X121052381Y-129107200D02*
X120957143Y-129011961D01*
X120957143Y-129011961D02*
X120909524Y-128916723D01*
X120909524Y-128916723D02*
X120861905Y-128726247D01*
X120861905Y-128726247D02*
X120861905Y-128583390D01*
X120861905Y-128583390D02*
X120909524Y-128392914D01*
X120909524Y-128392914D02*
X120957143Y-128297676D01*
X120957143Y-128297676D02*
X121052381Y-128202438D01*
X121052381Y-128202438D02*
X121195238Y-128154819D01*
X121195238Y-128154819D02*
X121290476Y-128154819D01*
X121290476Y-128154819D02*
X121433333Y-128202438D01*
X121433333Y-128202438D02*
X121480952Y-128250057D01*
X122385714Y-129154819D02*
X121909524Y-129154819D01*
X121909524Y-129154819D02*
X121909524Y-128154819D01*
X137433333Y-156559580D02*
X137385714Y-156607200D01*
X137385714Y-156607200D02*
X137242857Y-156654819D01*
X137242857Y-156654819D02*
X137147619Y-156654819D01*
X137147619Y-156654819D02*
X137004762Y-156607200D01*
X137004762Y-156607200D02*
X136909524Y-156511961D01*
X136909524Y-156511961D02*
X136861905Y-156416723D01*
X136861905Y-156416723D02*
X136814286Y-156226247D01*
X136814286Y-156226247D02*
X136814286Y-156083390D01*
X136814286Y-156083390D02*
X136861905Y-155892914D01*
X136861905Y-155892914D02*
X136909524Y-155797676D01*
X136909524Y-155797676D02*
X137004762Y-155702438D01*
X137004762Y-155702438D02*
X137147619Y-155654819D01*
X137147619Y-155654819D02*
X137242857Y-155654819D01*
X137242857Y-155654819D02*
X137385714Y-155702438D01*
X137385714Y-155702438D02*
X137433333Y-155750057D01*
X137814286Y-155750057D02*
X137861905Y-155702438D01*
X137861905Y-155702438D02*
X137957143Y-155654819D01*
X137957143Y-155654819D02*
X138195238Y-155654819D01*
X138195238Y-155654819D02*
X138290476Y-155702438D01*
X138290476Y-155702438D02*
X138338095Y-155750057D01*
X138338095Y-155750057D02*
X138385714Y-155845295D01*
X138385714Y-155845295D02*
X138385714Y-155940533D01*
X138385714Y-155940533D02*
X138338095Y-156083390D01*
X138338095Y-156083390D02*
X137766667Y-156654819D01*
X137766667Y-156654819D02*
X138385714Y-156654819D01*
X124838095Y-165254819D02*
X124838095Y-166064342D01*
X124838095Y-166064342D02*
X124885714Y-166159580D01*
X124885714Y-166159580D02*
X124933333Y-166207200D01*
X124933333Y-166207200D02*
X125028571Y-166254819D01*
X125028571Y-166254819D02*
X125219047Y-166254819D01*
X125219047Y-166254819D02*
X125314285Y-166207200D01*
X125314285Y-166207200D02*
X125361904Y-166159580D01*
X125361904Y-166159580D02*
X125409523Y-166064342D01*
X125409523Y-166064342D02*
X125409523Y-165254819D01*
X125933333Y-166254819D02*
X126123809Y-166254819D01*
X126123809Y-166254819D02*
X126219047Y-166207200D01*
X126219047Y-166207200D02*
X126266666Y-166159580D01*
X126266666Y-166159580D02*
X126361904Y-166016723D01*
X126361904Y-166016723D02*
X126409523Y-165826247D01*
X126409523Y-165826247D02*
X126409523Y-165445295D01*
X126409523Y-165445295D02*
X126361904Y-165350057D01*
X126361904Y-165350057D02*
X126314285Y-165302438D01*
X126314285Y-165302438D02*
X126219047Y-165254819D01*
X126219047Y-165254819D02*
X126028571Y-165254819D01*
X126028571Y-165254819D02*
X125933333Y-165302438D01*
X125933333Y-165302438D02*
X125885714Y-165350057D01*
X125885714Y-165350057D02*
X125838095Y-165445295D01*
X125838095Y-165445295D02*
X125838095Y-165683390D01*
X125838095Y-165683390D02*
X125885714Y-165778628D01*
X125885714Y-165778628D02*
X125933333Y-165826247D01*
X125933333Y-165826247D02*
X126028571Y-165873866D01*
X126028571Y-165873866D02*
X126219047Y-165873866D01*
X126219047Y-165873866D02*
X126314285Y-165826247D01*
X126314285Y-165826247D02*
X126361904Y-165778628D01*
X126361904Y-165778628D02*
X126409523Y-165683390D01*
X120838094Y-162319104D02*
X121314284Y-162319104D01*
X120742856Y-162604819D02*
X121076189Y-161604819D01*
X121076189Y-161604819D02*
X121409522Y-162604819D01*
X121742856Y-161938152D02*
X121742856Y-162604819D01*
X121742856Y-162033390D02*
X121790475Y-161985771D01*
X121790475Y-161985771D02*
X121885713Y-161938152D01*
X121885713Y-161938152D02*
X122028570Y-161938152D01*
X122028570Y-161938152D02*
X122123808Y-161985771D01*
X122123808Y-161985771D02*
X122171427Y-162081009D01*
X122171427Y-162081009D02*
X122171427Y-162604819D01*
X122504761Y-161938152D02*
X122885713Y-161938152D01*
X122647618Y-161604819D02*
X122647618Y-162461961D01*
X122647618Y-162461961D02*
X122695237Y-162557200D01*
X122695237Y-162557200D02*
X122790475Y-162604819D01*
X122790475Y-162604819D02*
X122885713Y-162604819D01*
X123599999Y-162557200D02*
X123504761Y-162604819D01*
X123504761Y-162604819D02*
X123314285Y-162604819D01*
X123314285Y-162604819D02*
X123219047Y-162557200D01*
X123219047Y-162557200D02*
X123171428Y-162461961D01*
X123171428Y-162461961D02*
X123171428Y-162081009D01*
X123171428Y-162081009D02*
X123219047Y-161985771D01*
X123219047Y-161985771D02*
X123314285Y-161938152D01*
X123314285Y-161938152D02*
X123504761Y-161938152D01*
X123504761Y-161938152D02*
X123599999Y-161985771D01*
X123599999Y-161985771D02*
X123647618Y-162081009D01*
X123647618Y-162081009D02*
X123647618Y-162176247D01*
X123647618Y-162176247D02*
X123171428Y-162271485D01*
X124076190Y-161938152D02*
X124076190Y-162604819D01*
X124076190Y-162033390D02*
X124123809Y-161985771D01*
X124123809Y-161985771D02*
X124219047Y-161938152D01*
X124219047Y-161938152D02*
X124361904Y-161938152D01*
X124361904Y-161938152D02*
X124457142Y-161985771D01*
X124457142Y-161985771D02*
X124504761Y-162081009D01*
X124504761Y-162081009D02*
X124504761Y-162604819D01*
X124980952Y-161938152D02*
X124980952Y-162604819D01*
X124980952Y-162033390D02*
X125028571Y-161985771D01*
X125028571Y-161985771D02*
X125123809Y-161938152D01*
X125123809Y-161938152D02*
X125266666Y-161938152D01*
X125266666Y-161938152D02*
X125361904Y-161985771D01*
X125361904Y-161985771D02*
X125409523Y-162081009D01*
X125409523Y-162081009D02*
X125409523Y-162604819D01*
X126314285Y-162604819D02*
X126314285Y-162081009D01*
X126314285Y-162081009D02*
X126266666Y-161985771D01*
X126266666Y-161985771D02*
X126171428Y-161938152D01*
X126171428Y-161938152D02*
X125980952Y-161938152D01*
X125980952Y-161938152D02*
X125885714Y-161985771D01*
X126314285Y-162557200D02*
X126219047Y-162604819D01*
X126219047Y-162604819D02*
X125980952Y-162604819D01*
X125980952Y-162604819D02*
X125885714Y-162557200D01*
X125885714Y-162557200D02*
X125838095Y-162461961D01*
X125838095Y-162461961D02*
X125838095Y-162366723D01*
X125838095Y-162366723D02*
X125885714Y-162271485D01*
X125885714Y-162271485D02*
X125980952Y-162223866D01*
X125980952Y-162223866D02*
X126219047Y-162223866D01*
X126219047Y-162223866D02*
X126314285Y-162176247D01*
X127504762Y-162319104D02*
X127980952Y-162319104D01*
X127409524Y-162604819D02*
X127742857Y-161604819D01*
X127742857Y-161604819D02*
X128076190Y-162604819D01*
X128409524Y-162604819D02*
X128409524Y-161938152D01*
X128409524Y-162128628D02*
X128457143Y-162033390D01*
X128457143Y-162033390D02*
X128504762Y-161985771D01*
X128504762Y-161985771D02*
X128600000Y-161938152D01*
X128600000Y-161938152D02*
X128695238Y-161938152D01*
X129409524Y-162557200D02*
X129314286Y-162604819D01*
X129314286Y-162604819D02*
X129123810Y-162604819D01*
X129123810Y-162604819D02*
X129028572Y-162557200D01*
X129028572Y-162557200D02*
X128980953Y-162461961D01*
X128980953Y-162461961D02*
X128980953Y-162081009D01*
X128980953Y-162081009D02*
X129028572Y-161985771D01*
X129028572Y-161985771D02*
X129123810Y-161938152D01*
X129123810Y-161938152D02*
X129314286Y-161938152D01*
X129314286Y-161938152D02*
X129409524Y-161985771D01*
X129409524Y-161985771D02*
X129457143Y-162081009D01*
X129457143Y-162081009D02*
X129457143Y-162176247D01*
X129457143Y-162176247D02*
X128980953Y-162271485D01*
X130314286Y-162604819D02*
X130314286Y-162081009D01*
X130314286Y-162081009D02*
X130266667Y-161985771D01*
X130266667Y-161985771D02*
X130171429Y-161938152D01*
X130171429Y-161938152D02*
X129980953Y-161938152D01*
X129980953Y-161938152D02*
X129885715Y-161985771D01*
X130314286Y-162557200D02*
X130219048Y-162604819D01*
X130219048Y-162604819D02*
X129980953Y-162604819D01*
X129980953Y-162604819D02*
X129885715Y-162557200D01*
X129885715Y-162557200D02*
X129838096Y-162461961D01*
X129838096Y-162461961D02*
X129838096Y-162366723D01*
X129838096Y-162366723D02*
X129885715Y-162271485D01*
X129885715Y-162271485D02*
X129980953Y-162223866D01*
X129980953Y-162223866D02*
X130219048Y-162223866D01*
X130219048Y-162223866D02*
X130314286Y-162176247D01*
X134357142Y-148654819D02*
X134023809Y-148178628D01*
X133785714Y-148654819D02*
X133785714Y-147654819D01*
X133785714Y-147654819D02*
X134166666Y-147654819D01*
X134166666Y-147654819D02*
X134261904Y-147702438D01*
X134261904Y-147702438D02*
X134309523Y-147750057D01*
X134309523Y-147750057D02*
X134357142Y-147845295D01*
X134357142Y-147845295D02*
X134357142Y-147988152D01*
X134357142Y-147988152D02*
X134309523Y-148083390D01*
X134309523Y-148083390D02*
X134261904Y-148131009D01*
X134261904Y-148131009D02*
X134166666Y-148178628D01*
X134166666Y-148178628D02*
X133785714Y-148178628D01*
X135309523Y-148654819D02*
X134738095Y-148654819D01*
X135023809Y-148654819D02*
X135023809Y-147654819D01*
X135023809Y-147654819D02*
X134928571Y-147797676D01*
X134928571Y-147797676D02*
X134833333Y-147892914D01*
X134833333Y-147892914D02*
X134738095Y-147940533D01*
X136166666Y-147988152D02*
X136166666Y-148654819D01*
X135928571Y-147607200D02*
X135690476Y-148321485D01*
X135690476Y-148321485D02*
X136309523Y-148321485D01*
X106961905Y-123954819D02*
X106961905Y-124764342D01*
X106961905Y-124764342D02*
X107009524Y-124859580D01*
X107009524Y-124859580D02*
X107057143Y-124907200D01*
X107057143Y-124907200D02*
X107152381Y-124954819D01*
X107152381Y-124954819D02*
X107342857Y-124954819D01*
X107342857Y-124954819D02*
X107438095Y-124907200D01*
X107438095Y-124907200D02*
X107485714Y-124859580D01*
X107485714Y-124859580D02*
X107533333Y-124764342D01*
X107533333Y-124764342D02*
X107533333Y-123954819D01*
X108533333Y-124954819D02*
X107961905Y-124954819D01*
X108247619Y-124954819D02*
X108247619Y-123954819D01*
X108247619Y-123954819D02*
X108152381Y-124097676D01*
X108152381Y-124097676D02*
X108057143Y-124192914D01*
X108057143Y-124192914D02*
X107961905Y-124240533D01*
X109152381Y-123954819D02*
X109247619Y-123954819D01*
X109247619Y-123954819D02*
X109342857Y-124002438D01*
X109342857Y-124002438D02*
X109390476Y-124050057D01*
X109390476Y-124050057D02*
X109438095Y-124145295D01*
X109438095Y-124145295D02*
X109485714Y-124335771D01*
X109485714Y-124335771D02*
X109485714Y-124573866D01*
X109485714Y-124573866D02*
X109438095Y-124764342D01*
X109438095Y-124764342D02*
X109390476Y-124859580D01*
X109390476Y-124859580D02*
X109342857Y-124907200D01*
X109342857Y-124907200D02*
X109247619Y-124954819D01*
X109247619Y-124954819D02*
X109152381Y-124954819D01*
X109152381Y-124954819D02*
X109057143Y-124907200D01*
X109057143Y-124907200D02*
X109009524Y-124859580D01*
X109009524Y-124859580D02*
X108961905Y-124764342D01*
X108961905Y-124764342D02*
X108914286Y-124573866D01*
X108914286Y-124573866D02*
X108914286Y-124335771D01*
X108914286Y-124335771D02*
X108961905Y-124145295D01*
X108961905Y-124145295D02*
X109009524Y-124050057D01*
X109009524Y-124050057D02*
X109057143Y-124002438D01*
X109057143Y-124002438D02*
X109152381Y-123954819D01*
X131457142Y-138359580D02*
X131409523Y-138407200D01*
X131409523Y-138407200D02*
X131266666Y-138454819D01*
X131266666Y-138454819D02*
X131171428Y-138454819D01*
X131171428Y-138454819D02*
X131028571Y-138407200D01*
X131028571Y-138407200D02*
X130933333Y-138311961D01*
X130933333Y-138311961D02*
X130885714Y-138216723D01*
X130885714Y-138216723D02*
X130838095Y-138026247D01*
X130838095Y-138026247D02*
X130838095Y-137883390D01*
X130838095Y-137883390D02*
X130885714Y-137692914D01*
X130885714Y-137692914D02*
X130933333Y-137597676D01*
X130933333Y-137597676D02*
X131028571Y-137502438D01*
X131028571Y-137502438D02*
X131171428Y-137454819D01*
X131171428Y-137454819D02*
X131266666Y-137454819D01*
X131266666Y-137454819D02*
X131409523Y-137502438D01*
X131409523Y-137502438D02*
X131457142Y-137550057D01*
X132409523Y-138454819D02*
X131838095Y-138454819D01*
X132123809Y-138454819D02*
X132123809Y-137454819D01*
X132123809Y-137454819D02*
X132028571Y-137597676D01*
X132028571Y-137597676D02*
X131933333Y-137692914D01*
X131933333Y-137692914D02*
X131838095Y-137740533D01*
X133361904Y-138454819D02*
X132790476Y-138454819D01*
X133076190Y-138454819D02*
X133076190Y-137454819D01*
X133076190Y-137454819D02*
X132980952Y-137597676D01*
X132980952Y-137597676D02*
X132885714Y-137692914D01*
X132885714Y-137692914D02*
X132790476Y-137740533D01*
X111359580Y-137942857D02*
X111407200Y-137990476D01*
X111407200Y-137990476D02*
X111454819Y-138133333D01*
X111454819Y-138133333D02*
X111454819Y-138228571D01*
X111454819Y-138228571D02*
X111407200Y-138371428D01*
X111407200Y-138371428D02*
X111311961Y-138466666D01*
X111311961Y-138466666D02*
X111216723Y-138514285D01*
X111216723Y-138514285D02*
X111026247Y-138561904D01*
X111026247Y-138561904D02*
X110883390Y-138561904D01*
X110883390Y-138561904D02*
X110692914Y-138514285D01*
X110692914Y-138514285D02*
X110597676Y-138466666D01*
X110597676Y-138466666D02*
X110502438Y-138371428D01*
X110502438Y-138371428D02*
X110454819Y-138228571D01*
X110454819Y-138228571D02*
X110454819Y-138133333D01*
X110454819Y-138133333D02*
X110502438Y-137990476D01*
X110502438Y-137990476D02*
X110550057Y-137942857D01*
X110550057Y-137561904D02*
X110502438Y-137514285D01*
X110502438Y-137514285D02*
X110454819Y-137419047D01*
X110454819Y-137419047D02*
X110454819Y-137180952D01*
X110454819Y-137180952D02*
X110502438Y-137085714D01*
X110502438Y-137085714D02*
X110550057Y-137038095D01*
X110550057Y-137038095D02*
X110645295Y-136990476D01*
X110645295Y-136990476D02*
X110740533Y-136990476D01*
X110740533Y-136990476D02*
X110883390Y-137038095D01*
X110883390Y-137038095D02*
X111454819Y-137609523D01*
X111454819Y-137609523D02*
X111454819Y-136990476D01*
X110454819Y-136371428D02*
X110454819Y-136276190D01*
X110454819Y-136276190D02*
X110502438Y-136180952D01*
X110502438Y-136180952D02*
X110550057Y-136133333D01*
X110550057Y-136133333D02*
X110645295Y-136085714D01*
X110645295Y-136085714D02*
X110835771Y-136038095D01*
X110835771Y-136038095D02*
X111073866Y-136038095D01*
X111073866Y-136038095D02*
X111264342Y-136085714D01*
X111264342Y-136085714D02*
X111359580Y-136133333D01*
X111359580Y-136133333D02*
X111407200Y-136180952D01*
X111407200Y-136180952D02*
X111454819Y-136276190D01*
X111454819Y-136276190D02*
X111454819Y-136371428D01*
X111454819Y-136371428D02*
X111407200Y-136466666D01*
X111407200Y-136466666D02*
X111359580Y-136514285D01*
X111359580Y-136514285D02*
X111264342Y-136561904D01*
X111264342Y-136561904D02*
X111073866Y-136609523D01*
X111073866Y-136609523D02*
X110835771Y-136609523D01*
X110835771Y-136609523D02*
X110645295Y-136561904D01*
X110645295Y-136561904D02*
X110550057Y-136514285D01*
X110550057Y-136514285D02*
X110502438Y-136466666D01*
X110502438Y-136466666D02*
X110454819Y-136371428D01*
X137054819Y-143661904D02*
X137054819Y-143090476D01*
X138054819Y-143376190D02*
X137054819Y-143376190D01*
X137054819Y-142852380D02*
X138054819Y-142185714D01*
X137054819Y-142185714D02*
X138054819Y-142852380D01*
X140102438Y-158161904D02*
X140054819Y-158257142D01*
X140054819Y-158257142D02*
X140054819Y-158399999D01*
X140054819Y-158399999D02*
X140102438Y-158542856D01*
X140102438Y-158542856D02*
X140197676Y-158638094D01*
X140197676Y-158638094D02*
X140292914Y-158685713D01*
X140292914Y-158685713D02*
X140483390Y-158733332D01*
X140483390Y-158733332D02*
X140626247Y-158733332D01*
X140626247Y-158733332D02*
X140816723Y-158685713D01*
X140816723Y-158685713D02*
X140911961Y-158638094D01*
X140911961Y-158638094D02*
X141007200Y-158542856D01*
X141007200Y-158542856D02*
X141054819Y-158399999D01*
X141054819Y-158399999D02*
X141054819Y-158304761D01*
X141054819Y-158304761D02*
X141007200Y-158161904D01*
X141007200Y-158161904D02*
X140959580Y-158114285D01*
X140959580Y-158114285D02*
X140626247Y-158114285D01*
X140626247Y-158114285D02*
X140626247Y-158304761D01*
X141054819Y-157685713D02*
X140054819Y-157685713D01*
X140054819Y-157685713D02*
X141054819Y-157114285D01*
X141054819Y-157114285D02*
X140054819Y-157114285D01*
X141054819Y-156638094D02*
X140054819Y-156638094D01*
X140054819Y-156638094D02*
X140054819Y-156399999D01*
X140054819Y-156399999D02*
X140102438Y-156257142D01*
X140102438Y-156257142D02*
X140197676Y-156161904D01*
X140197676Y-156161904D02*
X140292914Y-156114285D01*
X140292914Y-156114285D02*
X140483390Y-156066666D01*
X140483390Y-156066666D02*
X140626247Y-156066666D01*
X140626247Y-156066666D02*
X140816723Y-156114285D01*
X140816723Y-156114285D02*
X140911961Y-156161904D01*
X140911961Y-156161904D02*
X141007200Y-156257142D01*
X141007200Y-156257142D02*
X141054819Y-156399999D01*
X141054819Y-156399999D02*
X141054819Y-156638094D01*
X127238095Y-130402438D02*
X127142857Y-130354819D01*
X127142857Y-130354819D02*
X127000000Y-130354819D01*
X127000000Y-130354819D02*
X126857143Y-130402438D01*
X126857143Y-130402438D02*
X126761905Y-130497676D01*
X126761905Y-130497676D02*
X126714286Y-130592914D01*
X126714286Y-130592914D02*
X126666667Y-130783390D01*
X126666667Y-130783390D02*
X126666667Y-130926247D01*
X126666667Y-130926247D02*
X126714286Y-131116723D01*
X126714286Y-131116723D02*
X126761905Y-131211961D01*
X126761905Y-131211961D02*
X126857143Y-131307200D01*
X126857143Y-131307200D02*
X127000000Y-131354819D01*
X127000000Y-131354819D02*
X127095238Y-131354819D01*
X127095238Y-131354819D02*
X127238095Y-131307200D01*
X127238095Y-131307200D02*
X127285714Y-131259580D01*
X127285714Y-131259580D02*
X127285714Y-130926247D01*
X127285714Y-130926247D02*
X127095238Y-130926247D01*
X127714286Y-131354819D02*
X127714286Y-130354819D01*
X127714286Y-130354819D02*
X128285714Y-131354819D01*
X128285714Y-131354819D02*
X128285714Y-130354819D01*
X128761905Y-131354819D02*
X128761905Y-130354819D01*
X128761905Y-130354819D02*
X129000000Y-130354819D01*
X129000000Y-130354819D02*
X129142857Y-130402438D01*
X129142857Y-130402438D02*
X129238095Y-130497676D01*
X129238095Y-130497676D02*
X129285714Y-130592914D01*
X129285714Y-130592914D02*
X129333333Y-130783390D01*
X129333333Y-130783390D02*
X129333333Y-130926247D01*
X129333333Y-130926247D02*
X129285714Y-131116723D01*
X129285714Y-131116723D02*
X129238095Y-131211961D01*
X129238095Y-131211961D02*
X129142857Y-131307200D01*
X129142857Y-131307200D02*
X129000000Y-131354819D01*
X129000000Y-131354819D02*
X128761905Y-131354819D01*
X124084819Y-126042857D02*
X123608628Y-126376190D01*
X124084819Y-126614285D02*
X123084819Y-126614285D01*
X123084819Y-126614285D02*
X123084819Y-126233333D01*
X123084819Y-126233333D02*
X123132438Y-126138095D01*
X123132438Y-126138095D02*
X123180057Y-126090476D01*
X123180057Y-126090476D02*
X123275295Y-126042857D01*
X123275295Y-126042857D02*
X123418152Y-126042857D01*
X123418152Y-126042857D02*
X123513390Y-126090476D01*
X123513390Y-126090476D02*
X123561009Y-126138095D01*
X123561009Y-126138095D02*
X123608628Y-126233333D01*
X123608628Y-126233333D02*
X123608628Y-126614285D01*
X124084819Y-125090476D02*
X124084819Y-125661904D01*
X124084819Y-125376190D02*
X123084819Y-125376190D01*
X123084819Y-125376190D02*
X123227676Y-125471428D01*
X123227676Y-125471428D02*
X123322914Y-125566666D01*
X123322914Y-125566666D02*
X123370533Y-125661904D01*
X124084819Y-124138095D02*
X124084819Y-124709523D01*
X124084819Y-124423809D02*
X123084819Y-124423809D01*
X123084819Y-124423809D02*
X123227676Y-124519047D01*
X123227676Y-124519047D02*
X123322914Y-124614285D01*
X123322914Y-124614285D02*
X123370533Y-124709523D01*
X137157142Y-146854819D02*
X136823809Y-146378628D01*
X136585714Y-146854819D02*
X136585714Y-145854819D01*
X136585714Y-145854819D02*
X136966666Y-145854819D01*
X136966666Y-145854819D02*
X137061904Y-145902438D01*
X137061904Y-145902438D02*
X137109523Y-145950057D01*
X137109523Y-145950057D02*
X137157142Y-146045295D01*
X137157142Y-146045295D02*
X137157142Y-146188152D01*
X137157142Y-146188152D02*
X137109523Y-146283390D01*
X137109523Y-146283390D02*
X137061904Y-146331009D01*
X137061904Y-146331009D02*
X136966666Y-146378628D01*
X136966666Y-146378628D02*
X136585714Y-146378628D01*
X138109523Y-146854819D02*
X137538095Y-146854819D01*
X137823809Y-146854819D02*
X137823809Y-145854819D01*
X137823809Y-145854819D02*
X137728571Y-145997676D01*
X137728571Y-145997676D02*
X137633333Y-146092914D01*
X137633333Y-146092914D02*
X137538095Y-146140533D01*
X138442857Y-145854819D02*
X139061904Y-145854819D01*
X139061904Y-145854819D02*
X138728571Y-146235771D01*
X138728571Y-146235771D02*
X138871428Y-146235771D01*
X138871428Y-146235771D02*
X138966666Y-146283390D01*
X138966666Y-146283390D02*
X139014285Y-146331009D01*
X139014285Y-146331009D02*
X139061904Y-146426247D01*
X139061904Y-146426247D02*
X139061904Y-146664342D01*
X139061904Y-146664342D02*
X139014285Y-146759580D01*
X139014285Y-146759580D02*
X138966666Y-146807200D01*
X138966666Y-146807200D02*
X138871428Y-146854819D01*
X138871428Y-146854819D02*
X138585714Y-146854819D01*
X138585714Y-146854819D02*
X138490476Y-146807200D01*
X138490476Y-146807200D02*
X138442857Y-146759580D01*
X117154819Y-145866666D02*
X116678628Y-146199999D01*
X117154819Y-146438094D02*
X116154819Y-146438094D01*
X116154819Y-146438094D02*
X116154819Y-146057142D01*
X116154819Y-146057142D02*
X116202438Y-145961904D01*
X116202438Y-145961904D02*
X116250057Y-145914285D01*
X116250057Y-145914285D02*
X116345295Y-145866666D01*
X116345295Y-145866666D02*
X116488152Y-145866666D01*
X116488152Y-145866666D02*
X116583390Y-145914285D01*
X116583390Y-145914285D02*
X116631009Y-145961904D01*
X116631009Y-145961904D02*
X116678628Y-146057142D01*
X116678628Y-146057142D02*
X116678628Y-146438094D01*
X117154819Y-144914285D02*
X117154819Y-145485713D01*
X117154819Y-145199999D02*
X116154819Y-145199999D01*
X116154819Y-145199999D02*
X116297676Y-145295237D01*
X116297676Y-145295237D02*
X116392914Y-145390475D01*
X116392914Y-145390475D02*
X116440533Y-145485713D01*
X107654819Y-140566666D02*
X107178628Y-140899999D01*
X107654819Y-141138094D02*
X106654819Y-141138094D01*
X106654819Y-141138094D02*
X106654819Y-140757142D01*
X106654819Y-140757142D02*
X106702438Y-140661904D01*
X106702438Y-140661904D02*
X106750057Y-140614285D01*
X106750057Y-140614285D02*
X106845295Y-140566666D01*
X106845295Y-140566666D02*
X106988152Y-140566666D01*
X106988152Y-140566666D02*
X107083390Y-140614285D01*
X107083390Y-140614285D02*
X107131009Y-140661904D01*
X107131009Y-140661904D02*
X107178628Y-140757142D01*
X107178628Y-140757142D02*
X107178628Y-141138094D01*
X107654819Y-140090475D02*
X107654819Y-139899999D01*
X107654819Y-139899999D02*
X107607200Y-139804761D01*
X107607200Y-139804761D02*
X107559580Y-139757142D01*
X107559580Y-139757142D02*
X107416723Y-139661904D01*
X107416723Y-139661904D02*
X107226247Y-139614285D01*
X107226247Y-139614285D02*
X106845295Y-139614285D01*
X106845295Y-139614285D02*
X106750057Y-139661904D01*
X106750057Y-139661904D02*
X106702438Y-139709523D01*
X106702438Y-139709523D02*
X106654819Y-139804761D01*
X106654819Y-139804761D02*
X106654819Y-139995237D01*
X106654819Y-139995237D02*
X106702438Y-140090475D01*
X106702438Y-140090475D02*
X106750057Y-140138094D01*
X106750057Y-140138094D02*
X106845295Y-140185713D01*
X106845295Y-140185713D02*
X107083390Y-140185713D01*
X107083390Y-140185713D02*
X107178628Y-140138094D01*
X107178628Y-140138094D02*
X107226247Y-140090475D01*
X107226247Y-140090475D02*
X107273866Y-139995237D01*
X107273866Y-139995237D02*
X107273866Y-139804761D01*
X107273866Y-139804761D02*
X107226247Y-139709523D01*
X107226247Y-139709523D02*
X107178628Y-139661904D01*
X107178628Y-139661904D02*
X107083390Y-139614285D01*
X131457142Y-142359580D02*
X131409523Y-142407200D01*
X131409523Y-142407200D02*
X131266666Y-142454819D01*
X131266666Y-142454819D02*
X131171428Y-142454819D01*
X131171428Y-142454819D02*
X131028571Y-142407200D01*
X131028571Y-142407200D02*
X130933333Y-142311961D01*
X130933333Y-142311961D02*
X130885714Y-142216723D01*
X130885714Y-142216723D02*
X130838095Y-142026247D01*
X130838095Y-142026247D02*
X130838095Y-141883390D01*
X130838095Y-141883390D02*
X130885714Y-141692914D01*
X130885714Y-141692914D02*
X130933333Y-141597676D01*
X130933333Y-141597676D02*
X131028571Y-141502438D01*
X131028571Y-141502438D02*
X131171428Y-141454819D01*
X131171428Y-141454819D02*
X131266666Y-141454819D01*
X131266666Y-141454819D02*
X131409523Y-141502438D01*
X131409523Y-141502438D02*
X131457142Y-141550057D01*
X132409523Y-142454819D02*
X131838095Y-142454819D01*
X132123809Y-142454819D02*
X132123809Y-141454819D01*
X132123809Y-141454819D02*
X132028571Y-141597676D01*
X132028571Y-141597676D02*
X131933333Y-141692914D01*
X131933333Y-141692914D02*
X131838095Y-141740533D01*
X133266666Y-141788152D02*
X133266666Y-142454819D01*
X133028571Y-141407200D02*
X132790476Y-142121485D01*
X132790476Y-142121485D02*
X133409523Y-142121485D01*
X145159580Y-149766666D02*
X145207200Y-149814285D01*
X145207200Y-149814285D02*
X145254819Y-149957142D01*
X145254819Y-149957142D02*
X145254819Y-150052380D01*
X145254819Y-150052380D02*
X145207200Y-150195237D01*
X145207200Y-150195237D02*
X145111961Y-150290475D01*
X145111961Y-150290475D02*
X145016723Y-150338094D01*
X145016723Y-150338094D02*
X144826247Y-150385713D01*
X144826247Y-150385713D02*
X144683390Y-150385713D01*
X144683390Y-150385713D02*
X144492914Y-150338094D01*
X144492914Y-150338094D02*
X144397676Y-150290475D01*
X144397676Y-150290475D02*
X144302438Y-150195237D01*
X144302438Y-150195237D02*
X144254819Y-150052380D01*
X144254819Y-150052380D02*
X144254819Y-149957142D01*
X144254819Y-149957142D02*
X144302438Y-149814285D01*
X144302438Y-149814285D02*
X144350057Y-149766666D01*
X144254819Y-149433332D02*
X144254819Y-148766666D01*
X144254819Y-148766666D02*
X145254819Y-149195237D01*
X128433333Y-146904819D02*
X128100000Y-146428628D01*
X127861905Y-146904819D02*
X127861905Y-145904819D01*
X127861905Y-145904819D02*
X128242857Y-145904819D01*
X128242857Y-145904819D02*
X128338095Y-145952438D01*
X128338095Y-145952438D02*
X128385714Y-146000057D01*
X128385714Y-146000057D02*
X128433333Y-146095295D01*
X128433333Y-146095295D02*
X128433333Y-146238152D01*
X128433333Y-146238152D02*
X128385714Y-146333390D01*
X128385714Y-146333390D02*
X128338095Y-146381009D01*
X128338095Y-146381009D02*
X128242857Y-146428628D01*
X128242857Y-146428628D02*
X127861905Y-146428628D01*
X129290476Y-146238152D02*
X129290476Y-146904819D01*
X129052381Y-145857200D02*
X128814286Y-146571485D01*
X128814286Y-146571485D02*
X129433333Y-146571485D01*
X103959580Y-123766666D02*
X104007200Y-123814285D01*
X104007200Y-123814285D02*
X104054819Y-123957142D01*
X104054819Y-123957142D02*
X104054819Y-124052380D01*
X104054819Y-124052380D02*
X104007200Y-124195237D01*
X104007200Y-124195237D02*
X103911961Y-124290475D01*
X103911961Y-124290475D02*
X103816723Y-124338094D01*
X103816723Y-124338094D02*
X103626247Y-124385713D01*
X103626247Y-124385713D02*
X103483390Y-124385713D01*
X103483390Y-124385713D02*
X103292914Y-124338094D01*
X103292914Y-124338094D02*
X103197676Y-124290475D01*
X103197676Y-124290475D02*
X103102438Y-124195237D01*
X103102438Y-124195237D02*
X103054819Y-124052380D01*
X103054819Y-124052380D02*
X103054819Y-123957142D01*
X103054819Y-123957142D02*
X103102438Y-123814285D01*
X103102438Y-123814285D02*
X103150057Y-123766666D01*
X103054819Y-122909523D02*
X103054819Y-123099999D01*
X103054819Y-123099999D02*
X103102438Y-123195237D01*
X103102438Y-123195237D02*
X103150057Y-123242856D01*
X103150057Y-123242856D02*
X103292914Y-123338094D01*
X103292914Y-123338094D02*
X103483390Y-123385713D01*
X103483390Y-123385713D02*
X103864342Y-123385713D01*
X103864342Y-123385713D02*
X103959580Y-123338094D01*
X103959580Y-123338094D02*
X104007200Y-123290475D01*
X104007200Y-123290475D02*
X104054819Y-123195237D01*
X104054819Y-123195237D02*
X104054819Y-123004761D01*
X104054819Y-123004761D02*
X104007200Y-122909523D01*
X104007200Y-122909523D02*
X103959580Y-122861904D01*
X103959580Y-122861904D02*
X103864342Y-122814285D01*
X103864342Y-122814285D02*
X103626247Y-122814285D01*
X103626247Y-122814285D02*
X103531009Y-122861904D01*
X103531009Y-122861904D02*
X103483390Y-122909523D01*
X103483390Y-122909523D02*
X103435771Y-123004761D01*
X103435771Y-123004761D02*
X103435771Y-123195237D01*
X103435771Y-123195237D02*
X103483390Y-123290475D01*
X103483390Y-123290475D02*
X103531009Y-123338094D01*
X103531009Y-123338094D02*
X103626247Y-123385713D01*
X110038095Y-142254819D02*
X110038095Y-143064342D01*
X110038095Y-143064342D02*
X110085714Y-143159580D01*
X110085714Y-143159580D02*
X110133333Y-143207200D01*
X110133333Y-143207200D02*
X110228571Y-143254819D01*
X110228571Y-143254819D02*
X110419047Y-143254819D01*
X110419047Y-143254819D02*
X110514285Y-143207200D01*
X110514285Y-143207200D02*
X110561904Y-143159580D01*
X110561904Y-143159580D02*
X110609523Y-143064342D01*
X110609523Y-143064342D02*
X110609523Y-142254819D01*
X110990476Y-142254819D02*
X111657142Y-142254819D01*
X111657142Y-142254819D02*
X111228571Y-143254819D01*
X147257200Y-142358332D02*
X147304819Y-142215475D01*
X147304819Y-142215475D02*
X147304819Y-141977380D01*
X147304819Y-141977380D02*
X147257200Y-141882142D01*
X147257200Y-141882142D02*
X147209580Y-141834523D01*
X147209580Y-141834523D02*
X147114342Y-141786904D01*
X147114342Y-141786904D02*
X147019104Y-141786904D01*
X147019104Y-141786904D02*
X146923866Y-141834523D01*
X146923866Y-141834523D02*
X146876247Y-141882142D01*
X146876247Y-141882142D02*
X146828628Y-141977380D01*
X146828628Y-141977380D02*
X146781009Y-142167856D01*
X146781009Y-142167856D02*
X146733390Y-142263094D01*
X146733390Y-142263094D02*
X146685771Y-142310713D01*
X146685771Y-142310713D02*
X146590533Y-142358332D01*
X146590533Y-142358332D02*
X146495295Y-142358332D01*
X146495295Y-142358332D02*
X146400057Y-142310713D01*
X146400057Y-142310713D02*
X146352438Y-142263094D01*
X146352438Y-142263094D02*
X146304819Y-142167856D01*
X146304819Y-142167856D02*
X146304819Y-141929761D01*
X146304819Y-141929761D02*
X146352438Y-141786904D01*
X146304819Y-141453570D02*
X147304819Y-141215475D01*
X147304819Y-141215475D02*
X146590533Y-141024999D01*
X146590533Y-141024999D02*
X147304819Y-140834523D01*
X147304819Y-140834523D02*
X146304819Y-140596428D01*
X146400057Y-140263094D02*
X146352438Y-140215475D01*
X146352438Y-140215475D02*
X146304819Y-140120237D01*
X146304819Y-140120237D02*
X146304819Y-139882142D01*
X146304819Y-139882142D02*
X146352438Y-139786904D01*
X146352438Y-139786904D02*
X146400057Y-139739285D01*
X146400057Y-139739285D02*
X146495295Y-139691666D01*
X146495295Y-139691666D02*
X146590533Y-139691666D01*
X146590533Y-139691666D02*
X146733390Y-139739285D01*
X146733390Y-139739285D02*
X147304819Y-140310713D01*
X147304819Y-140310713D02*
X147304819Y-139691666D01*
X137731009Y-140857142D02*
X137778628Y-140714285D01*
X137778628Y-140714285D02*
X137826247Y-140666666D01*
X137826247Y-140666666D02*
X137921485Y-140619047D01*
X137921485Y-140619047D02*
X138064342Y-140619047D01*
X138064342Y-140619047D02*
X138159580Y-140666666D01*
X138159580Y-140666666D02*
X138207200Y-140714285D01*
X138207200Y-140714285D02*
X138254819Y-140809523D01*
X138254819Y-140809523D02*
X138254819Y-141190475D01*
X138254819Y-141190475D02*
X137254819Y-141190475D01*
X137254819Y-141190475D02*
X137254819Y-140857142D01*
X137254819Y-140857142D02*
X137302438Y-140761904D01*
X137302438Y-140761904D02*
X137350057Y-140714285D01*
X137350057Y-140714285D02*
X137445295Y-140666666D01*
X137445295Y-140666666D02*
X137540533Y-140666666D01*
X137540533Y-140666666D02*
X137635771Y-140714285D01*
X137635771Y-140714285D02*
X137683390Y-140761904D01*
X137683390Y-140761904D02*
X137731009Y-140857142D01*
X137731009Y-140857142D02*
X137731009Y-141190475D01*
X137254819Y-139999999D02*
X137254819Y-139809523D01*
X137254819Y-139809523D02*
X137302438Y-139714285D01*
X137302438Y-139714285D02*
X137397676Y-139619047D01*
X137397676Y-139619047D02*
X137588152Y-139571428D01*
X137588152Y-139571428D02*
X137921485Y-139571428D01*
X137921485Y-139571428D02*
X138111961Y-139619047D01*
X138111961Y-139619047D02*
X138207200Y-139714285D01*
X138207200Y-139714285D02*
X138254819Y-139809523D01*
X138254819Y-139809523D02*
X138254819Y-139999999D01*
X138254819Y-139999999D02*
X138207200Y-140095237D01*
X138207200Y-140095237D02*
X138111961Y-140190475D01*
X138111961Y-140190475D02*
X137921485Y-140238094D01*
X137921485Y-140238094D02*
X137588152Y-140238094D01*
X137588152Y-140238094D02*
X137397676Y-140190475D01*
X137397676Y-140190475D02*
X137302438Y-140095237D01*
X137302438Y-140095237D02*
X137254819Y-139999999D01*
X137254819Y-138952380D02*
X137254819Y-138761904D01*
X137254819Y-138761904D02*
X137302438Y-138666666D01*
X137302438Y-138666666D02*
X137397676Y-138571428D01*
X137397676Y-138571428D02*
X137588152Y-138523809D01*
X137588152Y-138523809D02*
X137921485Y-138523809D01*
X137921485Y-138523809D02*
X138111961Y-138571428D01*
X138111961Y-138571428D02*
X138207200Y-138666666D01*
X138207200Y-138666666D02*
X138254819Y-138761904D01*
X138254819Y-138761904D02*
X138254819Y-138952380D01*
X138254819Y-138952380D02*
X138207200Y-139047618D01*
X138207200Y-139047618D02*
X138111961Y-139142856D01*
X138111961Y-139142856D02*
X137921485Y-139190475D01*
X137921485Y-139190475D02*
X137588152Y-139190475D01*
X137588152Y-139190475D02*
X137397676Y-139142856D01*
X137397676Y-139142856D02*
X137302438Y-139047618D01*
X137302438Y-139047618D02*
X137254819Y-138952380D01*
X137254819Y-138238094D02*
X137254819Y-137666666D01*
X138254819Y-137952380D02*
X137254819Y-137952380D01*
X131233333Y-145604819D02*
X130900000Y-145128628D01*
X130661905Y-145604819D02*
X130661905Y-144604819D01*
X130661905Y-144604819D02*
X131042857Y-144604819D01*
X131042857Y-144604819D02*
X131138095Y-144652438D01*
X131138095Y-144652438D02*
X131185714Y-144700057D01*
X131185714Y-144700057D02*
X131233333Y-144795295D01*
X131233333Y-144795295D02*
X131233333Y-144938152D01*
X131233333Y-144938152D02*
X131185714Y-145033390D01*
X131185714Y-145033390D02*
X131138095Y-145081009D01*
X131138095Y-145081009D02*
X131042857Y-145128628D01*
X131042857Y-145128628D02*
X130661905Y-145128628D01*
X131566667Y-144604819D02*
X132185714Y-144604819D01*
X132185714Y-144604819D02*
X131852381Y-144985771D01*
X131852381Y-144985771D02*
X131995238Y-144985771D01*
X131995238Y-144985771D02*
X132090476Y-145033390D01*
X132090476Y-145033390D02*
X132138095Y-145081009D01*
X132138095Y-145081009D02*
X132185714Y-145176247D01*
X132185714Y-145176247D02*
X132185714Y-145414342D01*
X132185714Y-145414342D02*
X132138095Y-145509580D01*
X132138095Y-145509580D02*
X132090476Y-145557200D01*
X132090476Y-145557200D02*
X131995238Y-145604819D01*
X131995238Y-145604819D02*
X131709524Y-145604819D01*
X131709524Y-145604819D02*
X131614286Y-145557200D01*
X131614286Y-145557200D02*
X131566667Y-145509580D01*
X137433333Y-154654819D02*
X137100000Y-154178628D01*
X136861905Y-154654819D02*
X136861905Y-153654819D01*
X136861905Y-153654819D02*
X137242857Y-153654819D01*
X137242857Y-153654819D02*
X137338095Y-153702438D01*
X137338095Y-153702438D02*
X137385714Y-153750057D01*
X137385714Y-153750057D02*
X137433333Y-153845295D01*
X137433333Y-153845295D02*
X137433333Y-153988152D01*
X137433333Y-153988152D02*
X137385714Y-154083390D01*
X137385714Y-154083390D02*
X137338095Y-154131009D01*
X137338095Y-154131009D02*
X137242857Y-154178628D01*
X137242857Y-154178628D02*
X136861905Y-154178628D01*
X138004762Y-154083390D02*
X137909524Y-154035771D01*
X137909524Y-154035771D02*
X137861905Y-153988152D01*
X137861905Y-153988152D02*
X137814286Y-153892914D01*
X137814286Y-153892914D02*
X137814286Y-153845295D01*
X137814286Y-153845295D02*
X137861905Y-153750057D01*
X137861905Y-153750057D02*
X137909524Y-153702438D01*
X137909524Y-153702438D02*
X138004762Y-153654819D01*
X138004762Y-153654819D02*
X138195238Y-153654819D01*
X138195238Y-153654819D02*
X138290476Y-153702438D01*
X138290476Y-153702438D02*
X138338095Y-153750057D01*
X138338095Y-153750057D02*
X138385714Y-153845295D01*
X138385714Y-153845295D02*
X138385714Y-153892914D01*
X138385714Y-153892914D02*
X138338095Y-153988152D01*
X138338095Y-153988152D02*
X138290476Y-154035771D01*
X138290476Y-154035771D02*
X138195238Y-154083390D01*
X138195238Y-154083390D02*
X138004762Y-154083390D01*
X138004762Y-154083390D02*
X137909524Y-154131009D01*
X137909524Y-154131009D02*
X137861905Y-154178628D01*
X137861905Y-154178628D02*
X137814286Y-154273866D01*
X137814286Y-154273866D02*
X137814286Y-154464342D01*
X137814286Y-154464342D02*
X137861905Y-154559580D01*
X137861905Y-154559580D02*
X137909524Y-154607200D01*
X137909524Y-154607200D02*
X138004762Y-154654819D01*
X138004762Y-154654819D02*
X138195238Y-154654819D01*
X138195238Y-154654819D02*
X138290476Y-154607200D01*
X138290476Y-154607200D02*
X138338095Y-154559580D01*
X138338095Y-154559580D02*
X138385714Y-154464342D01*
X138385714Y-154464342D02*
X138385714Y-154273866D01*
X138385714Y-154273866D02*
X138338095Y-154178628D01*
X138338095Y-154178628D02*
X138290476Y-154131009D01*
X138290476Y-154131009D02*
X138195238Y-154083390D01*
X126854819Y-136261904D02*
X127664342Y-136261904D01*
X127664342Y-136261904D02*
X127759580Y-136214285D01*
X127759580Y-136214285D02*
X127807200Y-136166666D01*
X127807200Y-136166666D02*
X127854819Y-136071428D01*
X127854819Y-136071428D02*
X127854819Y-135880952D01*
X127854819Y-135880952D02*
X127807200Y-135785714D01*
X127807200Y-135785714D02*
X127759580Y-135738095D01*
X127759580Y-135738095D02*
X127664342Y-135690476D01*
X127664342Y-135690476D02*
X126854819Y-135690476D01*
X127283390Y-135071428D02*
X127235771Y-135166666D01*
X127235771Y-135166666D02*
X127188152Y-135214285D01*
X127188152Y-135214285D02*
X127092914Y-135261904D01*
X127092914Y-135261904D02*
X127045295Y-135261904D01*
X127045295Y-135261904D02*
X126950057Y-135214285D01*
X126950057Y-135214285D02*
X126902438Y-135166666D01*
X126902438Y-135166666D02*
X126854819Y-135071428D01*
X126854819Y-135071428D02*
X126854819Y-134880952D01*
X126854819Y-134880952D02*
X126902438Y-134785714D01*
X126902438Y-134785714D02*
X126950057Y-134738095D01*
X126950057Y-134738095D02*
X127045295Y-134690476D01*
X127045295Y-134690476D02*
X127092914Y-134690476D01*
X127092914Y-134690476D02*
X127188152Y-134738095D01*
X127188152Y-134738095D02*
X127235771Y-134785714D01*
X127235771Y-134785714D02*
X127283390Y-134880952D01*
X127283390Y-134880952D02*
X127283390Y-135071428D01*
X127283390Y-135071428D02*
X127331009Y-135166666D01*
X127331009Y-135166666D02*
X127378628Y-135214285D01*
X127378628Y-135214285D02*
X127473866Y-135261904D01*
X127473866Y-135261904D02*
X127664342Y-135261904D01*
X127664342Y-135261904D02*
X127759580Y-135214285D01*
X127759580Y-135214285D02*
X127807200Y-135166666D01*
X127807200Y-135166666D02*
X127854819Y-135071428D01*
X127854819Y-135071428D02*
X127854819Y-134880952D01*
X127854819Y-134880952D02*
X127807200Y-134785714D01*
X127807200Y-134785714D02*
X127759580Y-134738095D01*
X127759580Y-134738095D02*
X127664342Y-134690476D01*
X127664342Y-134690476D02*
X127473866Y-134690476D01*
X127473866Y-134690476D02*
X127378628Y-134738095D01*
X127378628Y-134738095D02*
X127331009Y-134785714D01*
X127331009Y-134785714D02*
X127283390Y-134880952D01*
X125638095Y-132802438D02*
X125542857Y-132754819D01*
X125542857Y-132754819D02*
X125400000Y-132754819D01*
X125400000Y-132754819D02*
X125257143Y-132802438D01*
X125257143Y-132802438D02*
X125161905Y-132897676D01*
X125161905Y-132897676D02*
X125114286Y-132992914D01*
X125114286Y-132992914D02*
X125066667Y-133183390D01*
X125066667Y-133183390D02*
X125066667Y-133326247D01*
X125066667Y-133326247D02*
X125114286Y-133516723D01*
X125114286Y-133516723D02*
X125161905Y-133611961D01*
X125161905Y-133611961D02*
X125257143Y-133707200D01*
X125257143Y-133707200D02*
X125400000Y-133754819D01*
X125400000Y-133754819D02*
X125495238Y-133754819D01*
X125495238Y-133754819D02*
X125638095Y-133707200D01*
X125638095Y-133707200D02*
X125685714Y-133659580D01*
X125685714Y-133659580D02*
X125685714Y-133326247D01*
X125685714Y-133326247D02*
X125495238Y-133326247D01*
X126114286Y-133754819D02*
X126114286Y-132754819D01*
X126114286Y-132754819D02*
X126685714Y-133754819D01*
X126685714Y-133754819D02*
X126685714Y-132754819D01*
X127161905Y-133754819D02*
X127161905Y-132754819D01*
X127161905Y-132754819D02*
X127400000Y-132754819D01*
X127400000Y-132754819D02*
X127542857Y-132802438D01*
X127542857Y-132802438D02*
X127638095Y-132897676D01*
X127638095Y-132897676D02*
X127685714Y-132992914D01*
X127685714Y-132992914D02*
X127733333Y-133183390D01*
X127733333Y-133183390D02*
X127733333Y-133326247D01*
X127733333Y-133326247D02*
X127685714Y-133516723D01*
X127685714Y-133516723D02*
X127638095Y-133611961D01*
X127638095Y-133611961D02*
X127542857Y-133707200D01*
X127542857Y-133707200D02*
X127400000Y-133754819D01*
X127400000Y-133754819D02*
X127161905Y-133754819D01*
X135539580Y-123366666D02*
X135587200Y-123414285D01*
X135587200Y-123414285D02*
X135634819Y-123557142D01*
X135634819Y-123557142D02*
X135634819Y-123652380D01*
X135634819Y-123652380D02*
X135587200Y-123795237D01*
X135587200Y-123795237D02*
X135491961Y-123890475D01*
X135491961Y-123890475D02*
X135396723Y-123938094D01*
X135396723Y-123938094D02*
X135206247Y-123985713D01*
X135206247Y-123985713D02*
X135063390Y-123985713D01*
X135063390Y-123985713D02*
X134872914Y-123938094D01*
X134872914Y-123938094D02*
X134777676Y-123890475D01*
X134777676Y-123890475D02*
X134682438Y-123795237D01*
X134682438Y-123795237D02*
X134634819Y-123652380D01*
X134634819Y-123652380D02*
X134634819Y-123557142D01*
X134634819Y-123557142D02*
X134682438Y-123414285D01*
X134682438Y-123414285D02*
X134730057Y-123366666D01*
X135634819Y-122890475D02*
X135634819Y-122699999D01*
X135634819Y-122699999D02*
X135587200Y-122604761D01*
X135587200Y-122604761D02*
X135539580Y-122557142D01*
X135539580Y-122557142D02*
X135396723Y-122461904D01*
X135396723Y-122461904D02*
X135206247Y-122414285D01*
X135206247Y-122414285D02*
X134825295Y-122414285D01*
X134825295Y-122414285D02*
X134730057Y-122461904D01*
X134730057Y-122461904D02*
X134682438Y-122509523D01*
X134682438Y-122509523D02*
X134634819Y-122604761D01*
X134634819Y-122604761D02*
X134634819Y-122795237D01*
X134634819Y-122795237D02*
X134682438Y-122890475D01*
X134682438Y-122890475D02*
X134730057Y-122938094D01*
X134730057Y-122938094D02*
X134825295Y-122985713D01*
X134825295Y-122985713D02*
X135063390Y-122985713D01*
X135063390Y-122985713D02*
X135158628Y-122938094D01*
X135158628Y-122938094D02*
X135206247Y-122890475D01*
X135206247Y-122890475D02*
X135253866Y-122795237D01*
X135253866Y-122795237D02*
X135253866Y-122604761D01*
X135253866Y-122604761D02*
X135206247Y-122509523D01*
X135206247Y-122509523D02*
X135158628Y-122461904D01*
X135158628Y-122461904D02*
X135063390Y-122414285D01*
X109959580Y-137942857D02*
X110007200Y-137990476D01*
X110007200Y-137990476D02*
X110054819Y-138133333D01*
X110054819Y-138133333D02*
X110054819Y-138228571D01*
X110054819Y-138228571D02*
X110007200Y-138371428D01*
X110007200Y-138371428D02*
X109911961Y-138466666D01*
X109911961Y-138466666D02*
X109816723Y-138514285D01*
X109816723Y-138514285D02*
X109626247Y-138561904D01*
X109626247Y-138561904D02*
X109483390Y-138561904D01*
X109483390Y-138561904D02*
X109292914Y-138514285D01*
X109292914Y-138514285D02*
X109197676Y-138466666D01*
X109197676Y-138466666D02*
X109102438Y-138371428D01*
X109102438Y-138371428D02*
X109054819Y-138228571D01*
X109054819Y-138228571D02*
X109054819Y-138133333D01*
X109054819Y-138133333D02*
X109102438Y-137990476D01*
X109102438Y-137990476D02*
X109150057Y-137942857D01*
X110054819Y-136990476D02*
X110054819Y-137561904D01*
X110054819Y-137276190D02*
X109054819Y-137276190D01*
X109054819Y-137276190D02*
X109197676Y-137371428D01*
X109197676Y-137371428D02*
X109292914Y-137466666D01*
X109292914Y-137466666D02*
X109340533Y-137561904D01*
X109483390Y-136419047D02*
X109435771Y-136514285D01*
X109435771Y-136514285D02*
X109388152Y-136561904D01*
X109388152Y-136561904D02*
X109292914Y-136609523D01*
X109292914Y-136609523D02*
X109245295Y-136609523D01*
X109245295Y-136609523D02*
X109150057Y-136561904D01*
X109150057Y-136561904D02*
X109102438Y-136514285D01*
X109102438Y-136514285D02*
X109054819Y-136419047D01*
X109054819Y-136419047D02*
X109054819Y-136228571D01*
X109054819Y-136228571D02*
X109102438Y-136133333D01*
X109102438Y-136133333D02*
X109150057Y-136085714D01*
X109150057Y-136085714D02*
X109245295Y-136038095D01*
X109245295Y-136038095D02*
X109292914Y-136038095D01*
X109292914Y-136038095D02*
X109388152Y-136085714D01*
X109388152Y-136085714D02*
X109435771Y-136133333D01*
X109435771Y-136133333D02*
X109483390Y-136228571D01*
X109483390Y-136228571D02*
X109483390Y-136419047D01*
X109483390Y-136419047D02*
X109531009Y-136514285D01*
X109531009Y-136514285D02*
X109578628Y-136561904D01*
X109578628Y-136561904D02*
X109673866Y-136609523D01*
X109673866Y-136609523D02*
X109864342Y-136609523D01*
X109864342Y-136609523D02*
X109959580Y-136561904D01*
X109959580Y-136561904D02*
X110007200Y-136514285D01*
X110007200Y-136514285D02*
X110054819Y-136419047D01*
X110054819Y-136419047D02*
X110054819Y-136228571D01*
X110054819Y-136228571D02*
X110007200Y-136133333D01*
X110007200Y-136133333D02*
X109959580Y-136085714D01*
X109959580Y-136085714D02*
X109864342Y-136038095D01*
X109864342Y-136038095D02*
X109673866Y-136038095D01*
X109673866Y-136038095D02*
X109578628Y-136085714D01*
X109578628Y-136085714D02*
X109531009Y-136133333D01*
X109531009Y-136133333D02*
X109483390Y-136228571D01*
X129585714Y-127507200D02*
X129728571Y-127554819D01*
X129728571Y-127554819D02*
X129966666Y-127554819D01*
X129966666Y-127554819D02*
X130061904Y-127507200D01*
X130061904Y-127507200D02*
X130109523Y-127459580D01*
X130109523Y-127459580D02*
X130157142Y-127364342D01*
X130157142Y-127364342D02*
X130157142Y-127269104D01*
X130157142Y-127269104D02*
X130109523Y-127173866D01*
X130109523Y-127173866D02*
X130061904Y-127126247D01*
X130061904Y-127126247D02*
X129966666Y-127078628D01*
X129966666Y-127078628D02*
X129776190Y-127031009D01*
X129776190Y-127031009D02*
X129680952Y-126983390D01*
X129680952Y-126983390D02*
X129633333Y-126935771D01*
X129633333Y-126935771D02*
X129585714Y-126840533D01*
X129585714Y-126840533D02*
X129585714Y-126745295D01*
X129585714Y-126745295D02*
X129633333Y-126650057D01*
X129633333Y-126650057D02*
X129680952Y-126602438D01*
X129680952Y-126602438D02*
X129776190Y-126554819D01*
X129776190Y-126554819D02*
X130014285Y-126554819D01*
X130014285Y-126554819D02*
X130157142Y-126602438D01*
X130585714Y-127554819D02*
X130585714Y-126554819D01*
X130585714Y-126554819D02*
X130823809Y-126554819D01*
X130823809Y-126554819D02*
X130966666Y-126602438D01*
X130966666Y-126602438D02*
X131061904Y-126697676D01*
X131061904Y-126697676D02*
X131109523Y-126792914D01*
X131109523Y-126792914D02*
X131157142Y-126983390D01*
X131157142Y-126983390D02*
X131157142Y-127126247D01*
X131157142Y-127126247D02*
X131109523Y-127316723D01*
X131109523Y-127316723D02*
X131061904Y-127411961D01*
X131061904Y-127411961D02*
X130966666Y-127507200D01*
X130966666Y-127507200D02*
X130823809Y-127554819D01*
X130823809Y-127554819D02*
X130585714Y-127554819D01*
X131538095Y-127269104D02*
X132014285Y-127269104D01*
X131442857Y-127554819D02*
X131776190Y-126554819D01*
X131776190Y-126554819D02*
X132109523Y-127554819D01*
X108528571Y-122454819D02*
X109147618Y-122454819D01*
X109147618Y-122454819D02*
X108814285Y-122835771D01*
X108814285Y-122835771D02*
X108957142Y-122835771D01*
X108957142Y-122835771D02*
X109052380Y-122883390D01*
X109052380Y-122883390D02*
X109099999Y-122931009D01*
X109099999Y-122931009D02*
X109147618Y-123026247D01*
X109147618Y-123026247D02*
X109147618Y-123264342D01*
X109147618Y-123264342D02*
X109099999Y-123359580D01*
X109099999Y-123359580D02*
X109052380Y-123407200D01*
X109052380Y-123407200D02*
X108957142Y-123454819D01*
X108957142Y-123454819D02*
X108671428Y-123454819D01*
X108671428Y-123454819D02*
X108576190Y-123407200D01*
X108576190Y-123407200D02*
X108528571Y-123359580D01*
X109433333Y-122454819D02*
X109766666Y-123454819D01*
X109766666Y-123454819D02*
X110099999Y-122454819D01*
X110338095Y-122454819D02*
X110957142Y-122454819D01*
X110957142Y-122454819D02*
X110623809Y-122835771D01*
X110623809Y-122835771D02*
X110766666Y-122835771D01*
X110766666Y-122835771D02*
X110861904Y-122883390D01*
X110861904Y-122883390D02*
X110909523Y-122931009D01*
X110909523Y-122931009D02*
X110957142Y-123026247D01*
X110957142Y-123026247D02*
X110957142Y-123264342D01*
X110957142Y-123264342D02*
X110909523Y-123359580D01*
X110909523Y-123359580D02*
X110861904Y-123407200D01*
X110861904Y-123407200D02*
X110766666Y-123454819D01*
X110766666Y-123454819D02*
X110480952Y-123454819D01*
X110480952Y-123454819D02*
X110385714Y-123407200D01*
X110385714Y-123407200D02*
X110338095Y-123359580D01*
X112100000Y-123407200D02*
X112242857Y-123454819D01*
X112242857Y-123454819D02*
X112480952Y-123454819D01*
X112480952Y-123454819D02*
X112576190Y-123407200D01*
X112576190Y-123407200D02*
X112623809Y-123359580D01*
X112623809Y-123359580D02*
X112671428Y-123264342D01*
X112671428Y-123264342D02*
X112671428Y-123169104D01*
X112671428Y-123169104D02*
X112623809Y-123073866D01*
X112623809Y-123073866D02*
X112576190Y-123026247D01*
X112576190Y-123026247D02*
X112480952Y-122978628D01*
X112480952Y-122978628D02*
X112290476Y-122931009D01*
X112290476Y-122931009D02*
X112195238Y-122883390D01*
X112195238Y-122883390D02*
X112147619Y-122835771D01*
X112147619Y-122835771D02*
X112100000Y-122740533D01*
X112100000Y-122740533D02*
X112100000Y-122645295D01*
X112100000Y-122645295D02*
X112147619Y-122550057D01*
X112147619Y-122550057D02*
X112195238Y-122502438D01*
X112195238Y-122502438D02*
X112290476Y-122454819D01*
X112290476Y-122454819D02*
X112528571Y-122454819D01*
X112528571Y-122454819D02*
X112671428Y-122502438D01*
X113100000Y-122931009D02*
X113433333Y-122931009D01*
X113576190Y-123454819D02*
X113100000Y-123454819D01*
X113100000Y-123454819D02*
X113100000Y-122454819D01*
X113100000Y-122454819D02*
X113576190Y-122454819D01*
X114004762Y-123454819D02*
X114004762Y-122454819D01*
X114004762Y-122454819D02*
X114576190Y-123454819D01*
X114576190Y-123454819D02*
X114576190Y-122454819D01*
X115004762Y-123407200D02*
X115147619Y-123454819D01*
X115147619Y-123454819D02*
X115385714Y-123454819D01*
X115385714Y-123454819D02*
X115480952Y-123407200D01*
X115480952Y-123407200D02*
X115528571Y-123359580D01*
X115528571Y-123359580D02*
X115576190Y-123264342D01*
X115576190Y-123264342D02*
X115576190Y-123169104D01*
X115576190Y-123169104D02*
X115528571Y-123073866D01*
X115528571Y-123073866D02*
X115480952Y-123026247D01*
X115480952Y-123026247D02*
X115385714Y-122978628D01*
X115385714Y-122978628D02*
X115195238Y-122931009D01*
X115195238Y-122931009D02*
X115100000Y-122883390D01*
X115100000Y-122883390D02*
X115052381Y-122835771D01*
X115052381Y-122835771D02*
X115004762Y-122740533D01*
X115004762Y-122740533D02*
X115004762Y-122645295D01*
X115004762Y-122645295D02*
X115052381Y-122550057D01*
X115052381Y-122550057D02*
X115100000Y-122502438D01*
X115100000Y-122502438D02*
X115195238Y-122454819D01*
X115195238Y-122454819D02*
X115433333Y-122454819D01*
X115433333Y-122454819D02*
X115576190Y-122502438D01*
X116195238Y-122454819D02*
X116385714Y-122454819D01*
X116385714Y-122454819D02*
X116480952Y-122502438D01*
X116480952Y-122502438D02*
X116576190Y-122597676D01*
X116576190Y-122597676D02*
X116623809Y-122788152D01*
X116623809Y-122788152D02*
X116623809Y-123121485D01*
X116623809Y-123121485D02*
X116576190Y-123311961D01*
X116576190Y-123311961D02*
X116480952Y-123407200D01*
X116480952Y-123407200D02*
X116385714Y-123454819D01*
X116385714Y-123454819D02*
X116195238Y-123454819D01*
X116195238Y-123454819D02*
X116100000Y-123407200D01*
X116100000Y-123407200D02*
X116004762Y-123311961D01*
X116004762Y-123311961D02*
X115957143Y-123121485D01*
X115957143Y-123121485D02*
X115957143Y-122788152D01*
X115957143Y-122788152D02*
X116004762Y-122597676D01*
X116004762Y-122597676D02*
X116100000Y-122502438D01*
X116100000Y-122502438D02*
X116195238Y-122454819D01*
X117623809Y-123454819D02*
X117290476Y-122978628D01*
X117052381Y-123454819D02*
X117052381Y-122454819D01*
X117052381Y-122454819D02*
X117433333Y-122454819D01*
X117433333Y-122454819D02*
X117528571Y-122502438D01*
X117528571Y-122502438D02*
X117576190Y-122550057D01*
X117576190Y-122550057D02*
X117623809Y-122645295D01*
X117623809Y-122645295D02*
X117623809Y-122788152D01*
X117623809Y-122788152D02*
X117576190Y-122883390D01*
X117576190Y-122883390D02*
X117528571Y-122931009D01*
X117528571Y-122931009D02*
X117433333Y-122978628D01*
X117433333Y-122978628D02*
X117052381Y-122978628D01*
X117333333Y-149534819D02*
X117000000Y-149058628D01*
X116761905Y-149534819D02*
X116761905Y-148534819D01*
X116761905Y-148534819D02*
X117142857Y-148534819D01*
X117142857Y-148534819D02*
X117238095Y-148582438D01*
X117238095Y-148582438D02*
X117285714Y-148630057D01*
X117285714Y-148630057D02*
X117333333Y-148725295D01*
X117333333Y-148725295D02*
X117333333Y-148868152D01*
X117333333Y-148868152D02*
X117285714Y-148963390D01*
X117285714Y-148963390D02*
X117238095Y-149011009D01*
X117238095Y-149011009D02*
X117142857Y-149058628D01*
X117142857Y-149058628D02*
X116761905Y-149058628D01*
X118238095Y-148534819D02*
X117761905Y-148534819D01*
X117761905Y-148534819D02*
X117714286Y-149011009D01*
X117714286Y-149011009D02*
X117761905Y-148963390D01*
X117761905Y-148963390D02*
X117857143Y-148915771D01*
X117857143Y-148915771D02*
X118095238Y-148915771D01*
X118095238Y-148915771D02*
X118190476Y-148963390D01*
X118190476Y-148963390D02*
X118238095Y-149011009D01*
X118238095Y-149011009D02*
X118285714Y-149106247D01*
X118285714Y-149106247D02*
X118285714Y-149344342D01*
X118285714Y-149344342D02*
X118238095Y-149439580D01*
X118238095Y-149439580D02*
X118190476Y-149487200D01*
X118190476Y-149487200D02*
X118095238Y-149534819D01*
X118095238Y-149534819D02*
X117857143Y-149534819D01*
X117857143Y-149534819D02*
X117761905Y-149487200D01*
X117761905Y-149487200D02*
X117714286Y-149439580D01*
X114133333Y-140759580D02*
X114085714Y-140807200D01*
X114085714Y-140807200D02*
X113942857Y-140854819D01*
X113942857Y-140854819D02*
X113847619Y-140854819D01*
X113847619Y-140854819D02*
X113704762Y-140807200D01*
X113704762Y-140807200D02*
X113609524Y-140711961D01*
X113609524Y-140711961D02*
X113561905Y-140616723D01*
X113561905Y-140616723D02*
X113514286Y-140426247D01*
X113514286Y-140426247D02*
X113514286Y-140283390D01*
X113514286Y-140283390D02*
X113561905Y-140092914D01*
X113561905Y-140092914D02*
X113609524Y-139997676D01*
X113609524Y-139997676D02*
X113704762Y-139902438D01*
X113704762Y-139902438D02*
X113847619Y-139854819D01*
X113847619Y-139854819D02*
X113942857Y-139854819D01*
X113942857Y-139854819D02*
X114085714Y-139902438D01*
X114085714Y-139902438D02*
X114133333Y-139950057D01*
X114466667Y-139854819D02*
X115085714Y-139854819D01*
X115085714Y-139854819D02*
X114752381Y-140235771D01*
X114752381Y-140235771D02*
X114895238Y-140235771D01*
X114895238Y-140235771D02*
X114990476Y-140283390D01*
X114990476Y-140283390D02*
X115038095Y-140331009D01*
X115038095Y-140331009D02*
X115085714Y-140426247D01*
X115085714Y-140426247D02*
X115085714Y-140664342D01*
X115085714Y-140664342D02*
X115038095Y-140759580D01*
X115038095Y-140759580D02*
X114990476Y-140807200D01*
X114990476Y-140807200D02*
X114895238Y-140854819D01*
X114895238Y-140854819D02*
X114609524Y-140854819D01*
X114609524Y-140854819D02*
X114514286Y-140807200D01*
X114514286Y-140807200D02*
X114466667Y-140759580D01*
X114557142Y-129859580D02*
X114509523Y-129907200D01*
X114509523Y-129907200D02*
X114366666Y-129954819D01*
X114366666Y-129954819D02*
X114271428Y-129954819D01*
X114271428Y-129954819D02*
X114128571Y-129907200D01*
X114128571Y-129907200D02*
X114033333Y-129811961D01*
X114033333Y-129811961D02*
X113985714Y-129716723D01*
X113985714Y-129716723D02*
X113938095Y-129526247D01*
X113938095Y-129526247D02*
X113938095Y-129383390D01*
X113938095Y-129383390D02*
X113985714Y-129192914D01*
X113985714Y-129192914D02*
X114033333Y-129097676D01*
X114033333Y-129097676D02*
X114128571Y-129002438D01*
X114128571Y-129002438D02*
X114271428Y-128954819D01*
X114271428Y-128954819D02*
X114366666Y-128954819D01*
X114366666Y-128954819D02*
X114509523Y-129002438D01*
X114509523Y-129002438D02*
X114557142Y-129050057D01*
X115509523Y-129954819D02*
X114938095Y-129954819D01*
X115223809Y-129954819D02*
X115223809Y-128954819D01*
X115223809Y-128954819D02*
X115128571Y-129097676D01*
X115128571Y-129097676D02*
X115033333Y-129192914D01*
X115033333Y-129192914D02*
X114938095Y-129240533D01*
X116366666Y-128954819D02*
X116176190Y-128954819D01*
X116176190Y-128954819D02*
X116080952Y-129002438D01*
X116080952Y-129002438D02*
X116033333Y-129050057D01*
X116033333Y-129050057D02*
X115938095Y-129192914D01*
X115938095Y-129192914D02*
X115890476Y-129383390D01*
X115890476Y-129383390D02*
X115890476Y-129764342D01*
X115890476Y-129764342D02*
X115938095Y-129859580D01*
X115938095Y-129859580D02*
X115985714Y-129907200D01*
X115985714Y-129907200D02*
X116080952Y-129954819D01*
X116080952Y-129954819D02*
X116271428Y-129954819D01*
X116271428Y-129954819D02*
X116366666Y-129907200D01*
X116366666Y-129907200D02*
X116414285Y-129859580D01*
X116414285Y-129859580D02*
X116461904Y-129764342D01*
X116461904Y-129764342D02*
X116461904Y-129526247D01*
X116461904Y-129526247D02*
X116414285Y-129431009D01*
X116414285Y-129431009D02*
X116366666Y-129383390D01*
X116366666Y-129383390D02*
X116271428Y-129335771D01*
X116271428Y-129335771D02*
X116080952Y-129335771D01*
X116080952Y-129335771D02*
X115985714Y-129383390D01*
X115985714Y-129383390D02*
X115938095Y-129431009D01*
X115938095Y-129431009D02*
X115890476Y-129526247D01*
X118559580Y-145866666D02*
X118607200Y-145914285D01*
X118607200Y-145914285D02*
X118654819Y-146057142D01*
X118654819Y-146057142D02*
X118654819Y-146152380D01*
X118654819Y-146152380D02*
X118607200Y-146295237D01*
X118607200Y-146295237D02*
X118511961Y-146390475D01*
X118511961Y-146390475D02*
X118416723Y-146438094D01*
X118416723Y-146438094D02*
X118226247Y-146485713D01*
X118226247Y-146485713D02*
X118083390Y-146485713D01*
X118083390Y-146485713D02*
X117892914Y-146438094D01*
X117892914Y-146438094D02*
X117797676Y-146390475D01*
X117797676Y-146390475D02*
X117702438Y-146295237D01*
X117702438Y-146295237D02*
X117654819Y-146152380D01*
X117654819Y-146152380D02*
X117654819Y-146057142D01*
X117654819Y-146057142D02*
X117702438Y-145914285D01*
X117702438Y-145914285D02*
X117750057Y-145866666D01*
X118654819Y-144914285D02*
X118654819Y-145485713D01*
X118654819Y-145199999D02*
X117654819Y-145199999D01*
X117654819Y-145199999D02*
X117797676Y-145295237D01*
X117797676Y-145295237D02*
X117892914Y-145390475D01*
X117892914Y-145390475D02*
X117940533Y-145485713D01*
D11*
X145957419Y-153961904D02*
X146766942Y-153961904D01*
X146766942Y-153961904D02*
X146862180Y-153914285D01*
X146862180Y-153914285D02*
X146909800Y-153866666D01*
X146909800Y-153866666D02*
X146957419Y-153771428D01*
X146957419Y-153771428D02*
X146957419Y-153580952D01*
X146957419Y-153580952D02*
X146909800Y-153485714D01*
X146909800Y-153485714D02*
X146862180Y-153438095D01*
X146862180Y-153438095D02*
X146766942Y-153390476D01*
X146766942Y-153390476D02*
X145957419Y-153390476D01*
X146957419Y-152390476D02*
X146957419Y-152961904D01*
X146957419Y-152676190D02*
X145957419Y-152676190D01*
X145957419Y-152676190D02*
X146100276Y-152771428D01*
X146100276Y-152771428D02*
X146195514Y-152866666D01*
X146195514Y-152866666D02*
X146243133Y-152961904D01*
D10*
X115738095Y-124702438D02*
X115642857Y-124654819D01*
X115642857Y-124654819D02*
X115500000Y-124654819D01*
X115500000Y-124654819D02*
X115357143Y-124702438D01*
X115357143Y-124702438D02*
X115261905Y-124797676D01*
X115261905Y-124797676D02*
X115214286Y-124892914D01*
X115214286Y-124892914D02*
X115166667Y-125083390D01*
X115166667Y-125083390D02*
X115166667Y-125226247D01*
X115166667Y-125226247D02*
X115214286Y-125416723D01*
X115214286Y-125416723D02*
X115261905Y-125511961D01*
X115261905Y-125511961D02*
X115357143Y-125607200D01*
X115357143Y-125607200D02*
X115500000Y-125654819D01*
X115500000Y-125654819D02*
X115595238Y-125654819D01*
X115595238Y-125654819D02*
X115738095Y-125607200D01*
X115738095Y-125607200D02*
X115785714Y-125559580D01*
X115785714Y-125559580D02*
X115785714Y-125226247D01*
X115785714Y-125226247D02*
X115595238Y-125226247D01*
X116214286Y-125654819D02*
X116214286Y-124654819D01*
X116214286Y-124654819D02*
X116785714Y-125654819D01*
X116785714Y-125654819D02*
X116785714Y-124654819D01*
X117261905Y-125654819D02*
X117261905Y-124654819D01*
X117261905Y-124654819D02*
X117500000Y-124654819D01*
X117500000Y-124654819D02*
X117642857Y-124702438D01*
X117642857Y-124702438D02*
X117738095Y-124797676D01*
X117738095Y-124797676D02*
X117785714Y-124892914D01*
X117785714Y-124892914D02*
X117833333Y-125083390D01*
X117833333Y-125083390D02*
X117833333Y-125226247D01*
X117833333Y-125226247D02*
X117785714Y-125416723D01*
X117785714Y-125416723D02*
X117738095Y-125511961D01*
X117738095Y-125511961D02*
X117642857Y-125607200D01*
X117642857Y-125607200D02*
X117500000Y-125654819D01*
X117500000Y-125654819D02*
X117261905Y-125654819D01*
X127454819Y-126042857D02*
X126978628Y-126376190D01*
X127454819Y-126614285D02*
X126454819Y-126614285D01*
X126454819Y-126614285D02*
X126454819Y-126233333D01*
X126454819Y-126233333D02*
X126502438Y-126138095D01*
X126502438Y-126138095D02*
X126550057Y-126090476D01*
X126550057Y-126090476D02*
X126645295Y-126042857D01*
X126645295Y-126042857D02*
X126788152Y-126042857D01*
X126788152Y-126042857D02*
X126883390Y-126090476D01*
X126883390Y-126090476D02*
X126931009Y-126138095D01*
X126931009Y-126138095D02*
X126978628Y-126233333D01*
X126978628Y-126233333D02*
X126978628Y-126614285D01*
X127454819Y-125090476D02*
X127454819Y-125661904D01*
X127454819Y-125376190D02*
X126454819Y-125376190D01*
X126454819Y-125376190D02*
X126597676Y-125471428D01*
X126597676Y-125471428D02*
X126692914Y-125566666D01*
X126692914Y-125566666D02*
X126740533Y-125661904D01*
X126550057Y-124709523D02*
X126502438Y-124661904D01*
X126502438Y-124661904D02*
X126454819Y-124566666D01*
X126454819Y-124566666D02*
X126454819Y-124328571D01*
X126454819Y-124328571D02*
X126502438Y-124233333D01*
X126502438Y-124233333D02*
X126550057Y-124185714D01*
X126550057Y-124185714D02*
X126645295Y-124138095D01*
X126645295Y-124138095D02*
X126740533Y-124138095D01*
X126740533Y-124138095D02*
X126883390Y-124185714D01*
X126883390Y-124185714D02*
X127454819Y-124757142D01*
X127454819Y-124757142D02*
X127454819Y-124138095D01*
X114557142Y-127859580D02*
X114509523Y-127907200D01*
X114509523Y-127907200D02*
X114366666Y-127954819D01*
X114366666Y-127954819D02*
X114271428Y-127954819D01*
X114271428Y-127954819D02*
X114128571Y-127907200D01*
X114128571Y-127907200D02*
X114033333Y-127811961D01*
X114033333Y-127811961D02*
X113985714Y-127716723D01*
X113985714Y-127716723D02*
X113938095Y-127526247D01*
X113938095Y-127526247D02*
X113938095Y-127383390D01*
X113938095Y-127383390D02*
X113985714Y-127192914D01*
X113985714Y-127192914D02*
X114033333Y-127097676D01*
X114033333Y-127097676D02*
X114128571Y-127002438D01*
X114128571Y-127002438D02*
X114271428Y-126954819D01*
X114271428Y-126954819D02*
X114366666Y-126954819D01*
X114366666Y-126954819D02*
X114509523Y-127002438D01*
X114509523Y-127002438D02*
X114557142Y-127050057D01*
X115509523Y-127954819D02*
X114938095Y-127954819D01*
X115223809Y-127954819D02*
X115223809Y-126954819D01*
X115223809Y-126954819D02*
X115128571Y-127097676D01*
X115128571Y-127097676D02*
X115033333Y-127192914D01*
X115033333Y-127192914D02*
X114938095Y-127240533D01*
X116414285Y-126954819D02*
X115938095Y-126954819D01*
X115938095Y-126954819D02*
X115890476Y-127431009D01*
X115890476Y-127431009D02*
X115938095Y-127383390D01*
X115938095Y-127383390D02*
X116033333Y-127335771D01*
X116033333Y-127335771D02*
X116271428Y-127335771D01*
X116271428Y-127335771D02*
X116366666Y-127383390D01*
X116366666Y-127383390D02*
X116414285Y-127431009D01*
X116414285Y-127431009D02*
X116461904Y-127526247D01*
X116461904Y-127526247D02*
X116461904Y-127764342D01*
X116461904Y-127764342D02*
X116414285Y-127859580D01*
X116414285Y-127859580D02*
X116366666Y-127907200D01*
X116366666Y-127907200D02*
X116271428Y-127954819D01*
X116271428Y-127954819D02*
X116033333Y-127954819D01*
X116033333Y-127954819D02*
X115938095Y-127907200D01*
X115938095Y-127907200D02*
X115890476Y-127859580D01*
X114133333Y-138759580D02*
X114085714Y-138807200D01*
X114085714Y-138807200D02*
X113942857Y-138854819D01*
X113942857Y-138854819D02*
X113847619Y-138854819D01*
X113847619Y-138854819D02*
X113704762Y-138807200D01*
X113704762Y-138807200D02*
X113609524Y-138711961D01*
X113609524Y-138711961D02*
X113561905Y-138616723D01*
X113561905Y-138616723D02*
X113514286Y-138426247D01*
X113514286Y-138426247D02*
X113514286Y-138283390D01*
X113514286Y-138283390D02*
X113561905Y-138092914D01*
X113561905Y-138092914D02*
X113609524Y-137997676D01*
X113609524Y-137997676D02*
X113704762Y-137902438D01*
X113704762Y-137902438D02*
X113847619Y-137854819D01*
X113847619Y-137854819D02*
X113942857Y-137854819D01*
X113942857Y-137854819D02*
X114085714Y-137902438D01*
X114085714Y-137902438D02*
X114133333Y-137950057D01*
X114990476Y-138188152D02*
X114990476Y-138854819D01*
X114752381Y-137807200D02*
X114514286Y-138521485D01*
X114514286Y-138521485D02*
X115133333Y-138521485D01*
X134502438Y-142561904D02*
X134454819Y-142657142D01*
X134454819Y-142657142D02*
X134454819Y-142799999D01*
X134454819Y-142799999D02*
X134502438Y-142942856D01*
X134502438Y-142942856D02*
X134597676Y-143038094D01*
X134597676Y-143038094D02*
X134692914Y-143085713D01*
X134692914Y-143085713D02*
X134883390Y-143133332D01*
X134883390Y-143133332D02*
X135026247Y-143133332D01*
X135026247Y-143133332D02*
X135216723Y-143085713D01*
X135216723Y-143085713D02*
X135311961Y-143038094D01*
X135311961Y-143038094D02*
X135407200Y-142942856D01*
X135407200Y-142942856D02*
X135454819Y-142799999D01*
X135454819Y-142799999D02*
X135454819Y-142704761D01*
X135454819Y-142704761D02*
X135407200Y-142561904D01*
X135407200Y-142561904D02*
X135359580Y-142514285D01*
X135359580Y-142514285D02*
X135026247Y-142514285D01*
X135026247Y-142514285D02*
X135026247Y-142704761D01*
X135454819Y-142085713D02*
X134454819Y-142085713D01*
X134454819Y-142085713D02*
X135454819Y-141514285D01*
X135454819Y-141514285D02*
X134454819Y-141514285D01*
X135454819Y-141038094D02*
X134454819Y-141038094D01*
X134454819Y-141038094D02*
X134454819Y-140799999D01*
X134454819Y-140799999D02*
X134502438Y-140657142D01*
X134502438Y-140657142D02*
X134597676Y-140561904D01*
X134597676Y-140561904D02*
X134692914Y-140514285D01*
X134692914Y-140514285D02*
X134883390Y-140466666D01*
X134883390Y-140466666D02*
X135026247Y-140466666D01*
X135026247Y-140466666D02*
X135216723Y-140514285D01*
X135216723Y-140514285D02*
X135311961Y-140561904D01*
X135311961Y-140561904D02*
X135407200Y-140657142D01*
X135407200Y-140657142D02*
X135454819Y-140799999D01*
X135454819Y-140799999D02*
X135454819Y-141038094D01*
X113857142Y-136759580D02*
X113809523Y-136807200D01*
X113809523Y-136807200D02*
X113666666Y-136854819D01*
X113666666Y-136854819D02*
X113571428Y-136854819D01*
X113571428Y-136854819D02*
X113428571Y-136807200D01*
X113428571Y-136807200D02*
X113333333Y-136711961D01*
X113333333Y-136711961D02*
X113285714Y-136616723D01*
X113285714Y-136616723D02*
X113238095Y-136426247D01*
X113238095Y-136426247D02*
X113238095Y-136283390D01*
X113238095Y-136283390D02*
X113285714Y-136092914D01*
X113285714Y-136092914D02*
X113333333Y-135997676D01*
X113333333Y-135997676D02*
X113428571Y-135902438D01*
X113428571Y-135902438D02*
X113571428Y-135854819D01*
X113571428Y-135854819D02*
X113666666Y-135854819D01*
X113666666Y-135854819D02*
X113809523Y-135902438D01*
X113809523Y-135902438D02*
X113857142Y-135950057D01*
X114809523Y-136854819D02*
X114238095Y-136854819D01*
X114523809Y-136854819D02*
X114523809Y-135854819D01*
X114523809Y-135854819D02*
X114428571Y-135997676D01*
X114428571Y-135997676D02*
X114333333Y-136092914D01*
X114333333Y-136092914D02*
X114238095Y-136140533D01*
X115428571Y-135854819D02*
X115523809Y-135854819D01*
X115523809Y-135854819D02*
X115619047Y-135902438D01*
X115619047Y-135902438D02*
X115666666Y-135950057D01*
X115666666Y-135950057D02*
X115714285Y-136045295D01*
X115714285Y-136045295D02*
X115761904Y-136235771D01*
X115761904Y-136235771D02*
X115761904Y-136473866D01*
X115761904Y-136473866D02*
X115714285Y-136664342D01*
X115714285Y-136664342D02*
X115666666Y-136759580D01*
X115666666Y-136759580D02*
X115619047Y-136807200D01*
X115619047Y-136807200D02*
X115523809Y-136854819D01*
X115523809Y-136854819D02*
X115428571Y-136854819D01*
X115428571Y-136854819D02*
X115333333Y-136807200D01*
X115333333Y-136807200D02*
X115285714Y-136759580D01*
X115285714Y-136759580D02*
X115238095Y-136664342D01*
X115238095Y-136664342D02*
X115190476Y-136473866D01*
X115190476Y-136473866D02*
X115190476Y-136235771D01*
X115190476Y-136235771D02*
X115238095Y-136045295D01*
X115238095Y-136045295D02*
X115285714Y-135950057D01*
X115285714Y-135950057D02*
X115333333Y-135902438D01*
X115333333Y-135902438D02*
X115428571Y-135854819D01*
D12*
X122235000Y-122938748D02*
X122235000Y-123461252D01*
X120765000Y-122938748D02*
X120765000Y-123461252D01*
X138100000Y-148400000D02*
G75*
G03*
X138100000Y-148400000I-700000J0D01*
G01*
X112535000Y-133938748D02*
X112535000Y-134461252D01*
X111065000Y-133938748D02*
X111065000Y-134461252D01*
X146235000Y-122938748D02*
X146235000Y-123461252D01*
X144765000Y-122938748D02*
X144765000Y-123461252D01*
X107015000Y-143489564D02*
X107015000Y-143035436D01*
X108485000Y-143489564D02*
X108485000Y-143035436D01*
X134672936Y-149465000D02*
X135127064Y-149465000D01*
X134672936Y-150935000D02*
X135127064Y-150935000D01*
X110070000Y-157275000D02*
X110640000Y-157275000D01*
X110070000Y-157275000D02*
X110070000Y-154615000D01*
X110640000Y-157275000D02*
X110640000Y-158795000D01*
X112160000Y-157275000D02*
X115720000Y-157275000D01*
X117810000Y-157275000D02*
X117810000Y-154615000D01*
X110070000Y-154615000D02*
X113180000Y-154615000D01*
X114700000Y-154615000D02*
X117810000Y-154615000D01*
X117240000Y-154615000D02*
X117810000Y-154615000D01*
X121400000Y-133000000D02*
G75*
G03*
X121400000Y-133000000I-700000J0D01*
G01*
X111938748Y-130065000D02*
X112461252Y-130065000D01*
X111938748Y-131535000D02*
X112461252Y-131535000D01*
X145800000Y-127725000D02*
X145800000Y-134025000D01*
X145550000Y-127725000D02*
X145800000Y-127725000D01*
X141050000Y-127725000D02*
X143650000Y-127725000D01*
X138900000Y-127725000D02*
X139150000Y-127725000D01*
X145800000Y-134025000D02*
X145550000Y-134025000D01*
X143650000Y-134025000D02*
X141050000Y-134025000D01*
X139150000Y-134025000D02*
X138900000Y-134025000D01*
X138900000Y-134025000D02*
X138900000Y-127725000D01*
X128138748Y-139265000D02*
X128661252Y-139265000D01*
X128138748Y-140735000D02*
X128661252Y-140735000D01*
X123865000Y-145927064D02*
X123865000Y-145472936D01*
X125335000Y-145927064D02*
X125335000Y-145472936D01*
X143500000Y-155200000D02*
G75*
G03*
X143500000Y-155200000I-700000J0D01*
G01*
X134638748Y-151465000D02*
X135161252Y-151465000D01*
X134638748Y-152935000D02*
X135161252Y-152935000D01*
X117667621Y-151630000D02*
X117332379Y-151630000D01*
X117667621Y-150870000D02*
X117332379Y-150870000D01*
X122800000Y-126800000D02*
G75*
G03*
X122800000Y-126800000I-700000J0D01*
G01*
X134638748Y-155465000D02*
X135161252Y-155465000D01*
X134638748Y-156935000D02*
X135161252Y-156935000D01*
X132400000Y-148600000D02*
X132400000Y-147800000D01*
X132400000Y-147800000D02*
X131600000Y-147800000D01*
X132200000Y-164600000D02*
X119000000Y-164600000D01*
X132200000Y-159200000D02*
X119000000Y-159200000D01*
X132200000Y-148000000D02*
X132200000Y-164600000D01*
X131525000Y-164800000D02*
X132375000Y-164800000D01*
X119550000Y-164800000D02*
X118800000Y-164800000D01*
X119000000Y-164600000D02*
X119000000Y-148000000D01*
X119000000Y-148000000D02*
X132200000Y-148000000D01*
X118800000Y-164800000D02*
X118800000Y-164200000D01*
X118800000Y-148600000D02*
X118800000Y-147800000D01*
X118800000Y-147800000D02*
X119600000Y-147800000D01*
X135467621Y-146380000D02*
X135132379Y-146380000D01*
X135467621Y-145620000D02*
X135132379Y-145620000D01*
X101800000Y-125390000D02*
X107810000Y-125390000D01*
X104050000Y-132210000D02*
X107810000Y-132210000D01*
X107810000Y-125390000D02*
X107810000Y-126650000D01*
X107810000Y-132210000D02*
X107810000Y-130950000D01*
X128138748Y-137265000D02*
X128661252Y-137265000D01*
X128138748Y-138735000D02*
X128661252Y-138735000D01*
X110535000Y-133938748D02*
X110535000Y-134461252D01*
X109065000Y-133938748D02*
X109065000Y-134461252D01*
X138200000Y-144700000D02*
G75*
G03*
X138200000Y-144700000I-700000J0D01*
G01*
X141200000Y-154900000D02*
G75*
G03*
X141200000Y-154900000I-700000J0D01*
G01*
X128600000Y-128900000D02*
G75*
G03*
X128600000Y-128900000I-700000J0D01*
G01*
X124420000Y-125567621D02*
X124420000Y-125232379D01*
X125180000Y-125567621D02*
X125180000Y-125232379D01*
X135132379Y-146620000D02*
X135467621Y-146620000D01*
X135132379Y-147380000D02*
X135467621Y-147380000D01*
X119865000Y-145927064D02*
X119865000Y-145472936D01*
X121335000Y-145927064D02*
X121335000Y-145472936D01*
X108535000Y-137622936D02*
X108535000Y-138077064D01*
X107065000Y-137622936D02*
X107065000Y-138077064D01*
X128138748Y-141265000D02*
X128661252Y-141265000D01*
X128138748Y-142735000D02*
X128661252Y-142735000D01*
X143965000Y-152511252D02*
X143965000Y-151988748D01*
X145435000Y-152511252D02*
X145435000Y-151988748D01*
X128827064Y-145535000D02*
X128372936Y-145535000D01*
X128827064Y-144065000D02*
X128372936Y-144065000D01*
X106235000Y-122938748D02*
X106235000Y-123461252D01*
X104765000Y-122938748D02*
X104765000Y-123461252D01*
X109820000Y-141760000D02*
X111230000Y-141760000D01*
X111230000Y-139440000D02*
X109200000Y-139440000D01*
X111230000Y-139440000D02*
X111230000Y-140100000D01*
X111230000Y-141100000D02*
X111230000Y-141760000D01*
X145800000Y-137875000D02*
X145800000Y-144175000D01*
X145550000Y-137875000D02*
X145800000Y-137875000D01*
X141050000Y-137875000D02*
X143650000Y-137875000D01*
X138900000Y-137875000D02*
X139150000Y-137875000D01*
X145800000Y-144175000D02*
X145550000Y-144175000D01*
X143650000Y-144175000D02*
X141050000Y-144175000D01*
X139150000Y-144175000D02*
X138900000Y-144175000D01*
X138900000Y-144175000D02*
X138900000Y-137875000D01*
X131172936Y-146065000D02*
X131627064Y-146065000D01*
X131172936Y-147535000D02*
X131627064Y-147535000D01*
X134672936Y-153465000D02*
X135127064Y-153465000D01*
X134672936Y-154935000D02*
X135127064Y-154935000D01*
X126310000Y-134900000D02*
X126310000Y-140910000D01*
X119490000Y-137150000D02*
X119490000Y-140910000D01*
X126310000Y-140910000D02*
X125050000Y-140910000D01*
X119490000Y-140910000D02*
X120750000Y-140910000D01*
X124450000Y-133000000D02*
G75*
G03*
X124450000Y-133000000I-700000J0D01*
G01*
X134235000Y-122938748D02*
X134235000Y-123461252D01*
X132765000Y-122938748D02*
X132765000Y-123461252D01*
X108535000Y-133938748D02*
X108535000Y-134461252D01*
X107065000Y-133938748D02*
X107065000Y-134461252D01*
X129400000Y-125500000D02*
G75*
G03*
X129400000Y-125500000I-700000J0D01*
G01*
X112000000Y-124700000D02*
G75*
G03*
X112000000Y-124700000I-700000J0D01*
G01*
X117332379Y-149870000D02*
X117667621Y-149870000D01*
X117332379Y-150630000D02*
X117667621Y-150630000D01*
X117661252Y-140335000D02*
X117138748Y-140335000D01*
X117661252Y-138865000D02*
X117138748Y-138865000D01*
X111938748Y-128065000D02*
X112461252Y-128065000D01*
X111938748Y-129535000D02*
X112461252Y-129535000D01*
X121865000Y-145961252D02*
X121865000Y-145438748D01*
X123335000Y-145961252D02*
X123335000Y-145438748D01*
X144450000Y-157000000D02*
X144450000Y-154600000D01*
X144550000Y-157000000D02*
X144450000Y-157000000D01*
X145450000Y-157000000D02*
X145650000Y-157000000D01*
X146550000Y-157000000D02*
X146650000Y-157000000D01*
X146650000Y-157000000D02*
X146650000Y-154600000D01*
X146850000Y-155100000D02*
X146850000Y-154300000D01*
X144450000Y-154600000D02*
X144550000Y-154600000D01*
X145450000Y-154600000D02*
X145650000Y-154600000D01*
X146650000Y-154600000D02*
X146550000Y-154600000D01*
X146850000Y-154300000D02*
X146050000Y-154300000D01*
X146250000Y-156200000D02*
X146150000Y-156200000D01*
X146150000Y-156200000D02*
X146150000Y-156100000D01*
X146150000Y-156100000D02*
X146250000Y-156100000D01*
X146250000Y-156100000D02*
X146250000Y-156200000D01*
X145350000Y-156000000D02*
X144850000Y-156000000D01*
X144850000Y-156000000D02*
X144850000Y-155400000D01*
X144850000Y-155400000D02*
X145350000Y-155400000D01*
X145350000Y-155400000D02*
X145350000Y-156000000D01*
X146250000Y-155900000D02*
X146150000Y-155900000D01*
X146150000Y-155900000D02*
X146150000Y-155800000D01*
X146150000Y-155800000D02*
X146250000Y-155800000D01*
X146250000Y-155800000D02*
X146250000Y-155900000D01*
X146250000Y-155600000D02*
X146150000Y-155600000D01*
X146150000Y-155600000D02*
X146150000Y-155500000D01*
X146150000Y-155500000D02*
X146250000Y-155500000D01*
X146250000Y-155500000D02*
X146250000Y-155600000D01*
X114600000Y-124700000D02*
G75*
G03*
X114600000Y-124700000I-700000J0D01*
G01*
X126180000Y-125232379D02*
X126180000Y-125567621D01*
X125420000Y-125232379D02*
X125420000Y-125567621D01*
X111938748Y-126065000D02*
X112461252Y-126065000D01*
X111938748Y-127535000D02*
X112461252Y-127535000D01*
X117661252Y-138335000D02*
X117138748Y-138335000D01*
X117661252Y-136865000D02*
X117138748Y-136865000D01*
X135600000Y-144400000D02*
G75*
G03*
X135600000Y-144400000I-700000J0D01*
G01*
X117661252Y-136335000D02*
X117138748Y-136335000D01*
X117661252Y-134865000D02*
X117138748Y-134865000D01*
%LPC*%
D13*
X121500000Y-122250000D03*
X121500000Y-124150000D03*
D14*
X137400000Y-148400000D03*
D15*
X105587500Y-137390000D03*
X105587500Y-138190000D03*
D16*
X105587500Y-139340000D03*
X105587500Y-140340000D03*
X105587500Y-140840000D03*
X105587500Y-141840000D03*
D15*
X105587500Y-142990000D03*
X105587500Y-143790000D03*
X105587500Y-143790000D03*
X105587500Y-142990000D03*
D16*
X105587500Y-142340000D03*
X105587500Y-141340000D03*
X105587500Y-139840000D03*
X105587500Y-138840000D03*
D15*
X105587500Y-138190000D03*
X105587500Y-137390000D03*
D17*
X105012500Y-136250000D03*
D18*
X100832500Y-136280000D03*
D17*
X105012500Y-144920000D03*
D18*
X100832500Y-144920000D03*
D13*
X111800000Y-133250000D03*
X111800000Y-135150000D03*
X145500000Y-122250000D03*
X145500000Y-124150000D03*
D19*
X107750000Y-144175000D03*
X107750000Y-142350000D03*
D20*
X133987500Y-150200000D03*
X135812500Y-150200000D03*
D21*
X111400000Y-157600000D03*
X113940000Y-154290000D03*
X116480000Y-157600000D03*
D14*
X120700000Y-133000000D03*
D22*
X111250000Y-130800000D03*
X113150000Y-130800000D03*
D23*
X144600000Y-126900000D03*
X144600000Y-134850000D03*
X140100000Y-126900000D03*
X140100000Y-134850000D03*
D22*
X127450000Y-140000000D03*
X129350000Y-140000000D03*
D19*
X124600000Y-146612500D03*
X124600000Y-144787500D03*
D14*
X142800000Y-155200000D03*
D22*
X133950000Y-152200000D03*
X135850000Y-152200000D03*
D24*
X118097500Y-151250000D03*
X116902500Y-151250000D03*
D14*
X122100000Y-126800000D03*
D22*
X133950000Y-156200000D03*
X135850000Y-156200000D03*
D25*
X131500000Y-157600000D03*
X131500000Y-156800000D03*
X131500000Y-156000000D03*
X131500000Y-155200000D03*
X131500000Y-154400000D03*
X131500000Y-153600000D03*
X131500000Y-152800000D03*
X131500000Y-152000000D03*
X131500000Y-151200000D03*
X131500000Y-150400000D03*
X131500000Y-149600000D03*
D26*
X130400000Y-148700000D03*
X129600000Y-148700000D03*
X128800000Y-148700000D03*
X128000000Y-148700000D03*
X127200000Y-148700000D03*
X126400000Y-148700000D03*
X125600000Y-148700000D03*
X124800000Y-148700000D03*
X124000000Y-148700000D03*
X123200000Y-148700000D03*
X122400000Y-148700000D03*
X121600000Y-148700000D03*
X120800000Y-148700000D03*
D25*
X119700000Y-149600000D03*
X119700000Y-150400000D03*
X119700000Y-151200000D03*
X119700000Y-152000000D03*
X119700000Y-152800000D03*
X119700000Y-153600000D03*
X119700000Y-154400000D03*
X119700000Y-155200000D03*
X119700000Y-156000000D03*
X119700000Y-156800000D03*
X119700000Y-157600000D03*
D26*
X120800000Y-158500000D03*
X121600000Y-158500000D03*
X122400000Y-158500000D03*
X123200000Y-158500000D03*
X124000000Y-158500000D03*
X124800000Y-158500000D03*
X125600000Y-158500000D03*
X126400000Y-158500000D03*
X127200000Y-158500000D03*
X128000000Y-158500000D03*
X128800000Y-158500000D03*
X129600000Y-158500000D03*
X130400000Y-158500000D03*
D27*
X127575000Y-155575000D03*
D28*
X127575000Y-153600000D03*
X127575000Y-151625000D03*
X125600000Y-155575000D03*
X125600000Y-153600000D03*
X125600000Y-151625000D03*
X123625000Y-155575000D03*
X123625000Y-153600000D03*
X123625000Y-151625000D03*
D29*
X119650000Y-158550000D03*
X119650000Y-148650000D03*
X131550000Y-148650000D03*
X131550000Y-158550000D03*
D24*
X135897500Y-146000000D03*
X134702500Y-146000000D03*
D30*
X102750000Y-126500000D03*
X102750000Y-128800000D03*
D31*
X109050000Y-128800000D03*
D30*
X102750000Y-131100000D03*
D22*
X127450000Y-138000000D03*
X129350000Y-138000000D03*
D13*
X109800000Y-133250000D03*
X109800000Y-135150000D03*
D14*
X137500000Y-144700000D03*
X140500000Y-154900000D03*
X127900000Y-128900000D03*
D32*
X124800000Y-125997500D03*
X124800000Y-124802500D03*
D33*
X134702500Y-147000000D03*
X135897500Y-147000000D03*
D19*
X120600000Y-146612500D03*
X120600000Y-144787500D03*
D34*
X107800000Y-136937500D03*
X107800000Y-138762500D03*
D22*
X127450000Y-142000000D03*
X129350000Y-142000000D03*
D35*
X144700000Y-153200000D03*
X144700000Y-151300000D03*
D36*
X129512500Y-144800000D03*
X127687500Y-144800000D03*
D13*
X105500000Y-122250000D03*
X105500000Y-124150000D03*
D37*
X109500000Y-139950000D03*
X109500000Y-141250000D03*
X111500000Y-140600000D03*
D23*
X144600000Y-137050000D03*
X144600000Y-145000000D03*
X140100000Y-137050000D03*
X140100000Y-145000000D03*
D20*
X130487500Y-146800000D03*
X132312500Y-146800000D03*
X133987500Y-154200000D03*
X135812500Y-154200000D03*
D38*
X125200000Y-135850000D03*
X122900000Y-135850000D03*
D39*
X122900000Y-142150000D03*
D38*
X120600000Y-135850000D03*
D14*
X123750000Y-133000000D03*
D13*
X133500000Y-122250000D03*
X133500000Y-124150000D03*
X107800000Y-133250000D03*
X107800000Y-135150000D03*
D14*
X128700000Y-125500000D03*
X111300000Y-124700000D03*
D33*
X116902500Y-150250000D03*
X118097500Y-150250000D03*
D40*
X118350000Y-139600000D03*
X116450000Y-139600000D03*
D22*
X111250000Y-128800000D03*
X113150000Y-128800000D03*
D35*
X122600000Y-146650000D03*
X122600000Y-144750000D03*
D29*
X146100000Y-154800000D03*
X145000000Y-154800000D03*
X145000000Y-156800000D03*
X146100000Y-156800000D03*
D14*
X113900000Y-124700000D03*
D41*
X125800000Y-124802500D03*
X125800000Y-125997500D03*
D22*
X111250000Y-126800000D03*
X113150000Y-126800000D03*
D40*
X118350000Y-137600000D03*
X116450000Y-137600000D03*
D14*
X134900000Y-144400000D03*
D40*
X118350000Y-135600000D03*
X116450000Y-135600000D03*
D42*
X142270000Y-152830000D03*
D43*
X141000000Y-152830000D03*
X142270000Y-151560000D03*
X141000000Y-151560000D03*
X142270000Y-150290000D03*
X141000000Y-150290000D03*
X142270000Y-149020000D03*
X141000000Y-149020000D03*
X142270000Y-147750000D03*
X141000000Y-147750000D03*
%LPD*%
M02*
