G04 #@! TF.GenerationSoftware,KiCad,Pcbnew,7.0.9*
G04 #@! TF.CreationDate,2023-12-09T12:38:09+01:00*
G04 #@! TF.ProjectId,AirMonitor,4169724d-6f6e-4697-946f-722e6b696361,1.0.0*
G04 #@! TF.SameCoordinates,Original*
G04 #@! TF.FileFunction,Soldermask,Top*
G04 #@! TF.FilePolarity,Negative*
%FSLAX46Y46*%
G04 Gerber Fmt 4.6, Leading zero omitted, Abs format (unit mm)*
G04 Created by KiCad (PCBNEW 7.0.9) date 2023-12-09 12:38:09*
%MOMM*%
%LPD*%
G01*
G04 APERTURE LIST*
G04 Aperture macros list*
%AMRoundRect*
0 Rectangle with rounded corners*
0 $1 Rounding radius*
0 $2 $3 $4 $5 $6 $7 $8 $9 X,Y pos of 4 corners*
0 Add a 4 corners polygon primitive as box body*
4,1,4,$2,$3,$4,$5,$6,$7,$8,$9,$2,$3,0*
0 Add four circle primitives for the rounded corners*
1,1,$1+$1,$2,$3*
1,1,$1+$1,$4,$5*
1,1,$1+$1,$6,$7*
1,1,$1+$1,$8,$9*
0 Add four rect primitives between the rounded corners*
20,1,$1+$1,$2,$3,$4,$5,0*
20,1,$1+$1,$4,$5,$6,$7,0*
20,1,$1+$1,$6,$7,$8,$9,0*
20,1,$1+$1,$8,$9,$2,$3,0*%
%AMFreePoly0*
4,1,6,0.725000,-0.725000,-0.725000,-0.725000,-0.725000,0.125000,-0.125000,0.725000,0.725000,0.725000,0.725000,-0.725000,0.725000,-0.725000,$1*%
G04 Aperture macros list end*
%ADD10RoundRect,0.250000X-0.475000X0.250000X-0.475000X-0.250000X0.475000X-0.250000X0.475000X0.250000X0*%
%ADD11C,1.000000*%
%ADD12R,1.150000X0.600000*%
%ADD13R,1.150000X0.300000*%
%ADD14O,2.100000X1.000000*%
%ADD15O,1.800000X1.000000*%
%ADD16RoundRect,0.250000X0.450000X-0.262500X0.450000X0.262500X-0.450000X0.262500X-0.450000X-0.262500X0*%
%ADD17RoundRect,0.250000X-0.262500X-0.450000X0.262500X-0.450000X0.262500X0.450000X-0.262500X0.450000X0*%
%ADD18R,1.000000X2.510000*%
%ADD19RoundRect,0.250000X-0.250000X-0.475000X0.250000X-0.475000X0.250000X0.475000X-0.250000X0.475000X0*%
%ADD20R,1.300000X1.550000*%
%ADD21RoundRect,0.160000X0.197500X0.160000X-0.197500X0.160000X-0.197500X-0.160000X0.197500X-0.160000X0*%
%ADD22R,0.800000X0.400000*%
%ADD23R,0.400000X0.800000*%
%ADD24FreePoly0,180.000000*%
%ADD25R,1.450000X1.450000*%
%ADD26R,0.700000X0.700000*%
%ADD27R,2.000000X1.500000*%
%ADD28R,2.000000X3.800000*%
%ADD29RoundRect,0.160000X0.160000X-0.197500X0.160000X0.197500X-0.160000X0.197500X-0.160000X-0.197500X0*%
%ADD30RoundRect,0.160000X-0.197500X-0.160000X0.197500X-0.160000X0.197500X0.160000X-0.197500X0.160000X0*%
%ADD31RoundRect,0.250000X-0.450000X0.262500X-0.450000X-0.262500X0.450000X-0.262500X0.450000X0.262500X0*%
%ADD32RoundRect,0.250000X0.475000X-0.250000X0.475000X0.250000X-0.475000X0.250000X-0.475000X-0.250000X0*%
%ADD33RoundRect,0.250000X0.262500X0.450000X-0.262500X0.450000X-0.262500X-0.450000X0.262500X-0.450000X0*%
%ADD34R,0.700000X0.450000*%
%ADD35R,1.500000X2.000000*%
%ADD36R,3.800000X2.000000*%
%ADD37RoundRect,0.250000X0.250000X0.475000X-0.250000X0.475000X-0.250000X-0.475000X0.250000X-0.475000X0*%
%ADD38RoundRect,0.160000X-0.160000X0.197500X-0.160000X-0.197500X0.160000X-0.197500X0.160000X0.197500X0*%
%ADD39R,1.000000X1.000000*%
%ADD40O,1.000000X1.000000*%
G04 APERTURE END LIST*
D10*
X121500000Y-122250000D03*
X121500000Y-124150000D03*
D11*
X137400000Y-148400000D03*
D12*
X105587500Y-137390000D03*
X105587500Y-138190000D03*
D13*
X105587500Y-139340000D03*
X105587500Y-140340000D03*
X105587500Y-140840000D03*
X105587500Y-141840000D03*
D12*
X105587500Y-142990000D03*
X105587500Y-143790000D03*
X105587500Y-143790000D03*
X105587500Y-142990000D03*
D13*
X105587500Y-142340000D03*
X105587500Y-141340000D03*
X105587500Y-139840000D03*
X105587500Y-138840000D03*
D12*
X105587500Y-138190000D03*
X105587500Y-137390000D03*
D14*
X105012500Y-136250000D03*
D15*
X100832500Y-136280000D03*
D14*
X105012500Y-144920000D03*
D15*
X100832500Y-144920000D03*
D10*
X111800000Y-133250000D03*
X111800000Y-135150000D03*
X145500000Y-122250000D03*
X145500000Y-124150000D03*
D16*
X107750000Y-144175000D03*
X107750000Y-142350000D03*
D17*
X133987500Y-150200000D03*
X135812500Y-150200000D03*
D18*
X111400000Y-157600000D03*
X113940000Y-154290000D03*
X116480000Y-157600000D03*
D11*
X120700000Y-133000000D03*
D19*
X111250000Y-130800000D03*
X113150000Y-130800000D03*
D20*
X144600000Y-126900000D03*
X144600000Y-134850000D03*
X140100000Y-126900000D03*
X140100000Y-134850000D03*
D19*
X127450000Y-140000000D03*
X129350000Y-140000000D03*
D16*
X124600000Y-146612500D03*
X124600000Y-144787500D03*
D11*
X142800000Y-155200000D03*
D19*
X133950000Y-152200000D03*
X135850000Y-152200000D03*
D21*
X118097500Y-151250000D03*
X116902500Y-151250000D03*
D11*
X122100000Y-126800000D03*
D19*
X133950000Y-156200000D03*
X135850000Y-156200000D03*
D22*
X131500000Y-157600000D03*
X131500000Y-156800000D03*
X131500000Y-156000000D03*
X131500000Y-155200000D03*
X131500000Y-154400000D03*
X131500000Y-153600000D03*
X131500000Y-152800000D03*
X131500000Y-152000000D03*
X131500000Y-151200000D03*
X131500000Y-150400000D03*
X131500000Y-149600000D03*
D23*
X130400000Y-148700000D03*
X129600000Y-148700000D03*
X128800000Y-148700000D03*
X128000000Y-148700000D03*
X127200000Y-148700000D03*
X126400000Y-148700000D03*
X125600000Y-148700000D03*
X124800000Y-148700000D03*
X124000000Y-148700000D03*
X123200000Y-148700000D03*
X122400000Y-148700000D03*
X121600000Y-148700000D03*
X120800000Y-148700000D03*
D22*
X119700000Y-149600000D03*
X119700000Y-150400000D03*
X119700000Y-151200000D03*
X119700000Y-152000000D03*
X119700000Y-152800000D03*
X119700000Y-153600000D03*
X119700000Y-154400000D03*
X119700000Y-155200000D03*
X119700000Y-156000000D03*
X119700000Y-156800000D03*
X119700000Y-157600000D03*
D23*
X120800000Y-158500000D03*
X121600000Y-158500000D03*
X122400000Y-158500000D03*
X123200000Y-158500000D03*
X124000000Y-158500000D03*
X124800000Y-158500000D03*
X125600000Y-158500000D03*
X126400000Y-158500000D03*
X127200000Y-158500000D03*
X128000000Y-158500000D03*
X128800000Y-158500000D03*
X129600000Y-158500000D03*
X130400000Y-158500000D03*
D24*
X127575000Y-155575000D03*
D25*
X127575000Y-153600000D03*
X127575000Y-151625000D03*
X125600000Y-155575000D03*
X125600000Y-153600000D03*
X125600000Y-151625000D03*
X123625000Y-155575000D03*
X123625000Y-153600000D03*
X123625000Y-151625000D03*
D26*
X119650000Y-158550000D03*
X119650000Y-148650000D03*
X131550000Y-148650000D03*
X131550000Y-158550000D03*
D21*
X135897500Y-146000000D03*
X134702500Y-146000000D03*
D27*
X102750000Y-126500000D03*
X102750000Y-128800000D03*
D28*
X109050000Y-128800000D03*
D27*
X102750000Y-131100000D03*
D19*
X127450000Y-138000000D03*
X129350000Y-138000000D03*
D10*
X109800000Y-133250000D03*
X109800000Y-135150000D03*
D11*
X137500000Y-144700000D03*
X140500000Y-154900000D03*
X127900000Y-128900000D03*
D29*
X124800000Y-125997500D03*
X124800000Y-124802500D03*
D30*
X134702500Y-147000000D03*
X135897500Y-147000000D03*
D16*
X120600000Y-146612500D03*
X120600000Y-144787500D03*
D31*
X107800000Y-136937500D03*
X107800000Y-138762500D03*
D19*
X127450000Y-142000000D03*
X129350000Y-142000000D03*
D32*
X144700000Y-153200000D03*
X144700000Y-151300000D03*
D33*
X129512500Y-144800000D03*
X127687500Y-144800000D03*
D10*
X105500000Y-122250000D03*
X105500000Y-124150000D03*
D34*
X109500000Y-139950000D03*
X109500000Y-141250000D03*
X111500000Y-140600000D03*
D20*
X144600000Y-137050000D03*
X144600000Y-145000000D03*
X140100000Y-137050000D03*
X140100000Y-145000000D03*
D17*
X130487500Y-146800000D03*
X132312500Y-146800000D03*
X133987500Y-154200000D03*
X135812500Y-154200000D03*
D35*
X125200000Y-135850000D03*
X122900000Y-135850000D03*
D36*
X122900000Y-142150000D03*
D35*
X120600000Y-135850000D03*
D11*
X123750000Y-133000000D03*
D10*
X133500000Y-122250000D03*
X133500000Y-124150000D03*
X107800000Y-133250000D03*
X107800000Y-135150000D03*
D11*
X128700000Y-125500000D03*
X111300000Y-124700000D03*
D30*
X116902500Y-150250000D03*
X118097500Y-150250000D03*
D37*
X118350000Y-139600000D03*
X116450000Y-139600000D03*
D19*
X111250000Y-128800000D03*
X113150000Y-128800000D03*
D32*
X122600000Y-146650000D03*
X122600000Y-144750000D03*
D26*
X146100000Y-154800000D03*
X145000000Y-154800000D03*
X145000000Y-156800000D03*
X146100000Y-156800000D03*
D11*
X113900000Y-124700000D03*
D38*
X125800000Y-124802500D03*
X125800000Y-125997500D03*
D19*
X111250000Y-126800000D03*
X113150000Y-126800000D03*
D37*
X118350000Y-137600000D03*
X116450000Y-137600000D03*
D11*
X134900000Y-144400000D03*
D37*
X118350000Y-135600000D03*
X116450000Y-135600000D03*
D39*
X142270000Y-152830000D03*
D40*
X141000000Y-152830000D03*
X142270000Y-151560000D03*
X141000000Y-151560000D03*
X142270000Y-150290000D03*
X141000000Y-150290000D03*
X142270000Y-149020000D03*
X141000000Y-149020000D03*
X142270000Y-147750000D03*
X141000000Y-147750000D03*
M02*
