M48
; DRILL file {KiCad 7.0.9} date sob, 9 gru 2023, 12:27:32
; FORMAT={-:-/ absolute / metric / decimal}
; #@! TF.CreationDate,2023-12-09T12:27:32+01:00
; #@! TF.GenerationSoftware,Kicad,Pcbnew,7.0.9
; #@! TF.FileFunction,Plated,1,2,PTH
FMAT,2
METRIC
; #@! TA.AperFunction,Plated,PTH,ViaDrill
T1C0.300
; #@! TA.AperFunction,Plated,PTH,ComponentDrill
T2C0.300
; #@! TA.AperFunction,Plated,PTH,ComponentDrill
T3C0.600
; #@! TA.AperFunction,Plated,PTH,ComponentDrill
T4C0.700
%
G90
G05
T1
X101.5Y-118.5
X104.2Y-122.2
X104.6Y-137.39
X104.6Y-143.8
X105.5Y-120.0
X105.5Y-125.1
X106.0Y-111.5
X106.6Y-137.4
X106.6Y-143.8
X107.2Y-122.2
X107.8Y-136.0
X109.0Y-118.5
X109.0Y-137.0
X109.0Y-144.2
X109.2Y-122.2
X109.8Y-136.2
X111.8Y-136.2
X112.0Y-122.2
X114.8Y-122.2
X115.4Y-135.6
X115.4Y-137.6
X115.4Y-139.6
X118.4Y-148.6
X118.5Y-158.6
X118.725Y-147.45
X119.05Y-145.125
X119.15Y-146.4
X119.65Y-110.7
X120.309Y-122.21
X120.99Y-113.25
X121.0Y-149.725
X121.5Y-125.1
X121.8Y-155.6
X121.9Y-151.7
X122.6Y-143.8
X122.8Y-122.49
X122.8Y-124.0
X123.4Y-110.65
X123.4Y-112.4
X123.75Y-122.4
X123.8Y-127.8
X124.575Y-149.75
X124.7Y-152.5
X124.8Y-122.4
X124.8Y-124.0
X125.2Y-134.4
X125.8Y-142.7
X125.8Y-144.0
X125.8Y-144.8
X125.8Y-145.6
X126.25Y-122.4
X126.4Y-135.8
X126.55Y-145.525
X126.575Y-144.375
X126.8Y-127.8
X127.0Y-133.0
X127.025Y-147.375
X128.3Y-147.5
X128.35Y-143.475
X128.6Y-121.8
X128.6Y-154.9
X128.8Y-146.1
X128.8Y-146.79
X129.0Y-131.0
X129.1Y-149.925
X129.7Y-151.7
X130.2Y-155.8
X130.4Y-138.0
X130.4Y-140.0
X130.4Y-142.0
X130.6Y-152.4
X130.8Y-121.8
X131.0Y-137.0
X131.0Y-141.2
X132.0Y-111.25
X132.309Y-122.2
X132.7Y-153.6
X132.8Y-148.6
X132.8Y-158.5
X133.3Y-113.1
X133.3Y-145.2
X133.5Y-109.9
X133.5Y-125.1
X133.6Y-137.0
X133.6Y-141.2
X133.6Y-146.0
X133.6Y-147.0
X133.75Y-143.85
X134.0Y-148.6
X134.11Y-157.6
X134.675Y-158.6
X134.8Y-122.49
X134.8Y-124.0
X134.8Y-157.6
X135.9Y-157.6
X136.6Y-122.4
X137.8Y-151.3
X138.2Y-122.4
X138.775Y-155.375
X139.0Y-150.3
X139.7Y-152.1
X140.4Y-121.8
X141.6Y-146.709
X142.6Y-121.8
X143.4Y-152.2
X143.5Y-150.1
X144.309Y-122.2
X145.1Y-110.05
X145.45Y-113.15
X145.5Y-125.1
X145.9Y-110.05
T2
X111.3Y-124.7
X113.9Y-124.7
X120.7Y-133.0
X122.1Y-126.8
X123.75Y-133.0
X127.9Y-128.9
X128.7Y-125.5
X134.9Y-144.4
X137.4Y-148.4
X137.5Y-144.7
X140.5Y-154.9
X142.8Y-155.2
T4
X141.0Y-147.75
X141.0Y-149.02
X141.0Y-150.29
X141.0Y-151.56
X141.0Y-152.83
X142.27Y-147.75
X142.27Y-149.02
X142.27Y-150.29
X142.27Y-151.56
X142.27Y-152.83
T3
X101.233Y-136.28G85X100.432Y-136.28
G05
X101.233Y-144.92G85X100.432Y-144.92
G05
X105.562Y-136.25G85X104.462Y-136.25
G05
X105.562Y-144.92G85X104.462Y-144.92
G05
T0
M30
