%TF.GenerationSoftware,KiCad,Pcbnew,7.0.9*%
%TF.CreationDate,2023-12-09T12:38:11+01:00*%
%TF.ProjectId,AirMonitor,4169724d-6f6e-4697-946f-722e6b696361,1.0.0*%
%TF.SameCoordinates,Original*%
%TF.FileFunction,Drillmap*%
%TF.FilePolarity,Positive*%
%FSLAX45Y45*%
G04 Gerber Fmt 4.5, Leading zero omitted, Abs format (unit mm)*
G04 Created by KiCad (PCBNEW 7.0.9) date 2023-12-09 12:38:11*
%MOMM*%
%LPD*%
G01*
G04 APERTURE LIST*
%ADD10C,0.100000*%
%ADD11C,0.200000*%
G04 APERTURE END LIST*
D10*
X13100000Y-11400000D02*
X13100000Y-12100000D01*
X11200000Y-12100000D02*
X11200000Y-10900000D01*
X11900000Y-10900000D02*
X11900000Y-11400000D01*
X14300000Y-11400000D02*
X14300000Y-12100000D01*
X13100000Y-12100000D02*
X12400000Y-12100000D01*
X14800000Y-15940000D02*
X14800000Y-12100000D01*
X13600000Y-10900000D02*
X13100000Y-10900000D01*
X13100000Y-10900000D02*
X13100000Y-11400000D01*
X11200000Y-10900000D02*
X9900000Y-10900000D01*
X9900000Y-10900000D02*
X9900000Y-12000000D01*
X12400000Y-10900000D02*
X11900000Y-10900000D01*
X13600000Y-11400000D02*
X13600000Y-10900000D01*
X14800000Y-11400000D02*
X14800000Y-10900000D01*
X14800000Y-10900000D02*
X14300000Y-10900000D01*
X14300000Y-12100000D02*
X13600000Y-12100000D01*
X11900000Y-12100000D02*
X11200000Y-12100000D01*
X9900000Y-15940000D02*
X14800000Y-15940000D01*
X12400000Y-12100000D02*
X12400000Y-11400000D01*
X11900000Y-11400000D02*
X11900000Y-12100000D01*
X14300000Y-10900000D02*
X14300000Y-11400000D01*
X13600000Y-12100000D02*
X13600000Y-11400000D01*
X14800000Y-12100000D02*
X14800000Y-11400000D01*
X12400000Y-11400000D02*
X12400000Y-10900000D01*
X9900000Y-12000000D02*
X9900000Y-15940000D01*
D11*
X10155777Y-16256484D02*
X10155777Y-16056484D01*
X10155777Y-16056484D02*
X10203396Y-16056484D01*
X10203396Y-16056484D02*
X10231967Y-16066008D01*
X10231967Y-16066008D02*
X10251015Y-16085055D01*
X10251015Y-16085055D02*
X10260539Y-16104103D01*
X10260539Y-16104103D02*
X10270063Y-16142198D01*
X10270063Y-16142198D02*
X10270063Y-16170769D01*
X10270063Y-16170769D02*
X10260539Y-16208865D01*
X10260539Y-16208865D02*
X10251015Y-16227912D01*
X10251015Y-16227912D02*
X10231967Y-16246960D01*
X10231967Y-16246960D02*
X10203396Y-16256484D01*
X10203396Y-16256484D02*
X10155777Y-16256484D01*
X10355777Y-16256484D02*
X10355777Y-16123150D01*
X10355777Y-16161246D02*
X10365301Y-16142198D01*
X10365301Y-16142198D02*
X10374824Y-16132674D01*
X10374824Y-16132674D02*
X10393872Y-16123150D01*
X10393872Y-16123150D02*
X10412920Y-16123150D01*
X10479586Y-16256484D02*
X10479586Y-16123150D01*
X10479586Y-16056484D02*
X10470063Y-16066008D01*
X10470063Y-16066008D02*
X10479586Y-16075531D01*
X10479586Y-16075531D02*
X10489110Y-16066008D01*
X10489110Y-16066008D02*
X10479586Y-16056484D01*
X10479586Y-16056484D02*
X10479586Y-16075531D01*
X10603396Y-16256484D02*
X10584348Y-16246960D01*
X10584348Y-16246960D02*
X10574824Y-16227912D01*
X10574824Y-16227912D02*
X10574824Y-16056484D01*
X10708158Y-16256484D02*
X10689110Y-16246960D01*
X10689110Y-16246960D02*
X10679586Y-16227912D01*
X10679586Y-16227912D02*
X10679586Y-16056484D01*
X10936729Y-16256484D02*
X10936729Y-16056484D01*
X10936729Y-16056484D02*
X11003396Y-16199341D01*
X11003396Y-16199341D02*
X11070063Y-16056484D01*
X11070063Y-16056484D02*
X11070063Y-16256484D01*
X11251015Y-16256484D02*
X11251015Y-16151722D01*
X11251015Y-16151722D02*
X11241491Y-16132674D01*
X11241491Y-16132674D02*
X11222443Y-16123150D01*
X11222443Y-16123150D02*
X11184348Y-16123150D01*
X11184348Y-16123150D02*
X11165301Y-16132674D01*
X11251015Y-16246960D02*
X11231967Y-16256484D01*
X11231967Y-16256484D02*
X11184348Y-16256484D01*
X11184348Y-16256484D02*
X11165301Y-16246960D01*
X11165301Y-16246960D02*
X11155777Y-16227912D01*
X11155777Y-16227912D02*
X11155777Y-16208865D01*
X11155777Y-16208865D02*
X11165301Y-16189817D01*
X11165301Y-16189817D02*
X11184348Y-16180293D01*
X11184348Y-16180293D02*
X11231967Y-16180293D01*
X11231967Y-16180293D02*
X11251015Y-16170769D01*
X11346253Y-16123150D02*
X11346253Y-16323150D01*
X11346253Y-16132674D02*
X11365301Y-16123150D01*
X11365301Y-16123150D02*
X11403396Y-16123150D01*
X11403396Y-16123150D02*
X11422443Y-16132674D01*
X11422443Y-16132674D02*
X11431967Y-16142198D01*
X11431967Y-16142198D02*
X11441491Y-16161246D01*
X11441491Y-16161246D02*
X11441491Y-16218388D01*
X11441491Y-16218388D02*
X11431967Y-16237436D01*
X11431967Y-16237436D02*
X11422443Y-16246960D01*
X11422443Y-16246960D02*
X11403396Y-16256484D01*
X11403396Y-16256484D02*
X11365301Y-16256484D01*
X11365301Y-16256484D02*
X11346253Y-16246960D01*
X11527205Y-16237436D02*
X11536729Y-16246960D01*
X11536729Y-16246960D02*
X11527205Y-16256484D01*
X11527205Y-16256484D02*
X11517682Y-16246960D01*
X11517682Y-16246960D02*
X11527205Y-16237436D01*
X11527205Y-16237436D02*
X11527205Y-16256484D01*
X11527205Y-16132674D02*
X11536729Y-16142198D01*
X11536729Y-16142198D02*
X11527205Y-16151722D01*
X11527205Y-16151722D02*
X11517682Y-16142198D01*
X11517682Y-16142198D02*
X11527205Y-16132674D01*
X11527205Y-16132674D02*
X11527205Y-16151722D01*
M02*
