G04 #@! TF.GenerationSoftware,KiCad,Pcbnew,7.0.9*
G04 #@! TF.CreationDate,2023-12-09T12:38:09+01:00*
G04 #@! TF.ProjectId,AirMonitor,4169724d-6f6e-4697-946f-722e6b696361,1.0.0*
G04 #@! TF.SameCoordinates,Original*
G04 #@! TF.FileFunction,Soldermask,Bot*
G04 #@! TF.FilePolarity,Negative*
%FSLAX46Y46*%
G04 Gerber Fmt 4.6, Leading zero omitted, Abs format (unit mm)*
G04 Created by KiCad (PCBNEW 7.0.9) date 2023-12-09 12:38:09*
%MOMM*%
%LPD*%
G01*
G04 APERTURE LIST*
G04 Aperture macros list*
%AMRoundRect*
0 Rectangle with rounded corners*
0 $1 Rounding radius*
0 $2 $3 $4 $5 $6 $7 $8 $9 X,Y pos of 4 corners*
0 Add a 4 corners polygon primitive as box body*
4,1,4,$2,$3,$4,$5,$6,$7,$8,$9,$2,$3,0*
0 Add four circle primitives for the rounded corners*
1,1,$1+$1,$2,$3*
1,1,$1+$1,$4,$5*
1,1,$1+$1,$6,$7*
1,1,$1+$1,$8,$9*
0 Add four rect primitives between the rounded corners*
20,1,$1+$1,$2,$3,$4,$5,0*
20,1,$1+$1,$4,$5,$6,$7,0*
20,1,$1+$1,$6,$7,$8,$9,0*
20,1,$1+$1,$8,$9,$2,$3,0*%
G04 Aperture macros list end*
%ADD10C,1.000000*%
%ADD11O,2.100000X1.000000*%
%ADD12O,1.800000X1.000000*%
%ADD13R,1.000000X1.000000*%
%ADD14O,1.000000X1.000000*%
%ADD15RoundRect,0.040000X0.235000X-0.160000X0.235000X0.160000X-0.235000X0.160000X-0.235000X-0.160000X0*%
%ADD16RoundRect,0.125000X0.500000X0.725000X-0.500000X0.725000X-0.500000X-0.725000X0.500000X-0.725000X0*%
%ADD17RoundRect,0.030000X0.132500X-0.120000X0.132500X0.120000X-0.132500X0.120000X-0.132500X-0.120000X0*%
%ADD18RoundRect,0.030000X-0.120000X-0.132500X0.120000X-0.132500X0.120000X0.132500X-0.120000X0.132500X0*%
%ADD19RoundRect,0.200000X0.550000X-0.200000X0.550000X0.200000X-0.550000X0.200000X-0.550000X-0.200000X0*%
%ADD20RoundRect,0.200000X-0.200000X-0.550000X0.200000X-0.550000X0.200000X0.550000X-0.200000X0.550000X0*%
%ADD21RoundRect,0.200000X0.200000X0.550000X-0.200000X0.550000X-0.200000X-0.550000X0.200000X-0.550000X0*%
%ADD22RoundRect,0.240000X2.160000X2.160000X-2.160000X2.160000X-2.160000X-2.160000X2.160000X-2.160000X0*%
%ADD23RoundRect,0.075000X-0.075000X0.175000X-0.075000X-0.175000X0.075000X-0.175000X0.075000X0.175000X0*%
G04 APERTURE END LIST*
D10*
X137400000Y-148400000D03*
D11*
X105012500Y-136250000D03*
D12*
X100832500Y-136280000D03*
D11*
X105012500Y-144920000D03*
D12*
X100832500Y-144920000D03*
D10*
X120700000Y-133000000D03*
X142800000Y-155200000D03*
X122100000Y-126800000D03*
X137500000Y-144700000D03*
X140500000Y-154900000D03*
X127900000Y-128900000D03*
X123750000Y-133000000D03*
X128700000Y-125500000D03*
X111300000Y-124700000D03*
X113900000Y-124700000D03*
X134900000Y-144400000D03*
D13*
X142270000Y-152830000D03*
D14*
X141000000Y-152830000D03*
X142270000Y-151560000D03*
X141000000Y-151560000D03*
X142270000Y-150290000D03*
X141000000Y-150290000D03*
X142270000Y-149020000D03*
X141000000Y-149020000D03*
X142270000Y-147750000D03*
X141000000Y-147750000D03*
D15*
X122650000Y-110700000D03*
X122650000Y-111500000D03*
X122650000Y-112300000D03*
X120350000Y-112300000D03*
X120350000Y-111500000D03*
X120350000Y-110700000D03*
D16*
X121500000Y-111500000D03*
D17*
X132750000Y-111750000D03*
X132750000Y-111250000D03*
D18*
X133000000Y-110725000D03*
X133500000Y-110725000D03*
X134000000Y-110725000D03*
D17*
X134250000Y-111250000D03*
X134250000Y-111750000D03*
D18*
X134000000Y-112275000D03*
X133500000Y-112275000D03*
X133000000Y-112275000D03*
D19*
X109300000Y-111900000D03*
X109300000Y-113150000D03*
X109300000Y-114400000D03*
X109300000Y-115650000D03*
X109300000Y-116900000D03*
D20*
X107800000Y-118400000D03*
X106550000Y-118400000D03*
X105300000Y-118400000D03*
X104050000Y-118400000D03*
X102800000Y-118400000D03*
D19*
X101300000Y-116900000D03*
X101300000Y-115650000D03*
X101300000Y-114400000D03*
X101300000Y-113150000D03*
X101300000Y-111900000D03*
D21*
X102800000Y-110400000D03*
X104050000Y-110400000D03*
X105300000Y-110400000D03*
X106550000Y-110400000D03*
X107800000Y-110400000D03*
D22*
X105300000Y-114400000D03*
D23*
X145100000Y-110800000D03*
X145900000Y-110800000D03*
X145900000Y-112200000D03*
X145100000Y-112200000D03*
M02*
